<?xml version="1.0" encoding="UTF-8" standalone="no"?>
<svg
   xmlns:dc="http://purl.org/dc/elements/1.1/"
   xmlns:cc="http://creativecommons.org/ns#"
   xmlns:rdf="http://www.w3.org/1999/02/22-rdf-syntax-ns#"
   xmlns:svg="http://www.w3.org/2000/svg"
   xmlns="http://www.w3.org/2000/svg"
   xmlns:sodipodi="http://sodipodi.sourceforge.net/DTD/sodipodi-0.dtd"
   xmlns:inkscape="http://www.inkscape.org/namespaces/inkscape"
   aria-hidden="true"
   focusable="false"
   data-prefix="fab"
   data-icon="get-pocket"
   class="svg-inline--fa fa-get-pocket fa-w-14"
   role="img"
   viewBox="0 0 448 512"
   version="1.1"
   id="svg4"
   sodipodi:docname="get-pocket-brands.svg"
   inkscape:version="1.0.1 (3bc2e813f5, 2020-09-07)">
  <title
     id="title1115">get-pocket</title>
  <metadata
     id="metadata10">
    <rdf:RDF>
      <cc:Work
         rdf:about="">
        <dc:format>image/svg+xml</dc:format>
        <dc:type
           rdf:resource="http://purl.org/dc/dcmitype/StillImage" />
        <dc:title>get-pocket</dc:title>
      </cc:Work>
    </rdf:RDF>
  </metadata>
  <defs
     id="defs8" />
  <sodipodi:namedview
     pagecolor="#ffffff"
     bordercolor="#666666"
     borderopacity="1"
     objecttolerance="10"
     gridtolerance="10"
     guidetolerance="10"
     inkscape:pageopacity="0"
     inkscape:pageshadow="2"
     inkscape:window-width="1425"
     inkscape:window-height="934"
     id="namedview6"
     showgrid="false"
     inkscape:zoom="1.5625"
     inkscape:cx="224"
     inkscape:cy="253.12"
     inkscape:window-x="0"
     inkscape:window-y="0"
     inkscape:window-maximized="0"
     inkscape:current-layer="svg4" />
  <path
     fill="currentColor"
     d="M407.6 64h-367C18.5 64 0 82.5 0 104.6v135.2C0 364.5 99.7 464 224.2 464c124 0 223.8-99.5 223.8-224.2V104.6c0-22.4-17.7-40.6-40.4-40.6zm-162 268.5c-12.4 11.8-31.4 11.1-42.4 0C89.5 223.6 88.3 227.4 88.3 209.3c0-16.9 13.8-30.7 30.7-30.7 17 0 16.1 3.8 105.2 89.3 90.6-86.9 88.6-89.3 105.5-89.3 16.9 0 30.7 13.8 30.7 30.7 0 17.8-2.9 15.7-114.8 123.2z"
     id="path2" />
  <path
     style="fill:#ffffff;stroke-width:0.64;fill-opacity:1;opacity:1"
     d="m 205.76,462.95907 c -28.1127,-2.39389 -55.18286,-9.8385 -80,-22.00094 C 101.93443,429.28164 83.720384,416.2721 65.264032,397.74836 34.179183,366.55002 13.074829,326.75634 4.5139467,283.2 0.39831155,262.26033 -0.14185005,247.58655 0.15548646,164.8 0.42052019,91.007424 0.1349664,95.722938 4.8879501,86.650091 10.527071,75.885719 21.135034,67.66185 32.482738,65.257113 c 3.686095,-0.781135 31.740372,-0.916512 191.894892,-0.926 184.95297,-0.01096 187.64704,0.0066 192.53884,1.257755 8.06155,2.061797 12.81981,4.760392 18.61572,10.557702 3.76305,3.76397 5.76771,6.413941 7.51446,9.93343 4.86169,9.79569 4.55867,4.836765 4.81023,78.72 0.23861,70.07964 -0.23669,91.35684 -2.37324,106.24 -8.63638,60.16051 -39.39793,112.24775 -87.59535,148.32152 -38.86,29.08509 -86.50915,44.64798 -135.42123,44.23051 -5.66888,-0.0484 -13.18706,-0.33322 -16.70706,-0.63296 z m 26.61196,-122.69236 c 2.31658,-0.60473 5.83452,-2.08289 7.81765,-3.2848 2.03091,-1.23085 11.52032,-9.74908 21.72722,-19.50359 9.96684,-9.52508 29.9209,-28.5403 44.34235,-42.25607 41.52597,-39.49396 49.07055,-47.38594 52.38529,-54.79749 5.36746,-12.00126 0.097,-29.10084 -11.2766,-36.58642 -6.164,-4.05684 -10.12335,-5.18181 -18.40787,-5.23023 -13.06565,-0.0764 -12.3839,-0.60697 -66.5598,51.80276 -16.01611,15.49398 -31.19393,30.14346 -33.72851,32.5544 l -4.6083,4.38353 -10.1117,-9.85009 c -16.77849,-16.34441 -51.8178,-50.27626 -60.50183,-58.58962 -10.64171,-10.18745 -17.79718,-15.94025 -22.7019,-18.25168 -10.17938,-4.7972 -24.78776,-1.95844 -33.293278,6.46969 -6.43378,6.37523 -9.190304,13.0901 -9.23282,22.49108 -0.01517,3.354 0.286989,7.26638 0.671456,8.69418 1.794336,6.66367 12.788432,18.50641 48.386682,52.12177 10.208,9.63939 29.59725,28.0471 43.08723,40.90602 15.05813,14.35373 26.01763,24.29513 28.38774,25.75066 6.72698,4.13116 15.45924,5.30543 23.61699,3.1759 z"
     id="path835" />
  <path
     style="opacity:1;fill:#331970;fill-opacity:1;stroke-width:0.64"
     d="M 202.24,462.35105 C 135.13071,455.05105 76.721939,420.37216 39.512549,365.7353 18.455809,334.81638 5.4672836,299.10448 1.8128057,262.08 0.61158458,249.91011 0.56654733,101.06846 1.7623676,95.38965 3.7826088,85.795762 13.835023,73.6799 23.749707,68.888994 27.286343,67.180045 30.649671,66.080326 33.6,65.668212 c 5.892756,-0.823126 233.18752,-1.375792 317.76,-0.772633 63.73571,0.454555 64.35821,0.47138 68.52616,1.852126 9.56036,3.167124 18.58742,11.245556 23.4011,20.941926 2.79054,5.621105 2.88105,5.996841 3.51592,14.595869 0.90609,12.27258 0.33018,152.83683 -0.65995,161.0745 -6.35305,52.85643 -28.1515,98.60005 -64.04633,134.4 -35.20423,35.11117 -78.67941,56.53596 -129.2969,63.71816 -8.66706,1.22978 -41.99025,1.80508 -50.56,0.87289 z M 235.68134,339.557 c 4.05693,-1.55383 7.22237,-3.87771 14.88975,-10.93124 10.75649,-9.89532 70.39509,-66.84108 83.75772,-79.97584 22.96281,-22.57123 25.89177,-26.66163 26.46019,-36.95268 0.65174,-11.79945 -4.25405,-21.91463 -13.82067,-28.49663 -5.47671,-3.76808 -8.5093,-4.55687 -17.68833,-4.6008 -14.26372,-0.0682 -11.4185,-2.34241 -80.30529,64.1873 -13.54391,13.08048 -24.81788,23.70849 -25.05327,23.61779 -0.23539,-0.0907 -13.346,-12.70372 -29.13471,-28.02894 -52.60024,-51.05615 -55.70089,-53.87495 -63.50556,-57.73302 -3.38825,-1.6749 -5.01888,-2.06121 -9.63115,-2.28173 -6.88958,-0.3294 -11.58363,0.61128 -17.28601,3.46406 -5.405975,2.7045 -10.976765,8.45312 -13.568797,14.00193 -3.162951,6.771 -3.853683,18.72739 -1.422554,24.62399 2.599943,6.30605 15.214841,19.3331 59.762301,61.71477 60.64745,57.69894 58.85621,56.13035 66.56055,58.28759 5.05212,1.4146 15.13217,0.96242 19.98583,-0.89655 z"
     id="path1113" />
</svg>
