<?xml version="1.0" encoding="utf-8"?>
<!-- Generator: Adobe Illustrator 17.1.0, SVG Export Plug-In . SVG Version: 6.00 Build 0)  -->
<!DOCTYPE svg PUBLIC "-//W3C//DTD SVG 1.1//EN" "http://www.w3.org/Graphics/SVG/1.1/DTD/svg11.dtd">
<svg version="1.1" id="Layer_1" xmlns="http://www.w3.org/2000/svg" xmlns:xlink="http://www.w3.org/1999/xlink" x="0px" y="0px"
	 viewBox="0 0 204.41 60.869" enable-background="new 0 0 204.41 60.869" xml:space="preserve">
<path fill-rule="evenodd" clip-rule="evenodd" fill="#FFFFFF" d="M14.188,27.388c-4.359,0-7.907-3.304-7.907-7.362
	c0-4.058,3.549-7.362,7.907-7.362c4.359,0,7.907,3.304,7.907,7.362C22.095,24.084,18.547,27.388,14.188,27.388z M14.188,7.756
	c-7.276,0-13.179,5.498-13.179,12.27c0,6.774,13.179,26.994,13.179,26.994S27.367,26.8,27.367,20.026
	C27.367,13.253,21.462,7.756,14.188,7.756z"/>
<path fill="#FFFFFF" d="M26.795,42.234h-0.103c-0.65-0.001-1.853,0.001-2.855,0.485c0-0.63,0-1.07,0-1.07
	c0-0.41-0.359-0.743-0.8-0.743h-3.259c-3.023,5.181-5.591,9.121-5.591,9.121s-2.567-3.94-5.591-9.121h-2.82
	c-0.438,0-0.796,0.333-0.796,0.743c0,0,0,5.733,0,5.744c0,2.118,1.256,5.741,5.024,5.741h8.807c2.375,0,3.751-1.436,4.441-3.03
	c0.326-0.3,0.975-0.765,1.991-0.897c0.058-0.008,0.122-0.014,0.189-0.022c0.474-0.054,1.198-0.137,1.812-0.526
	c0.767-0.488,1.146-1.286,1.138-2.379c-0.002-0.341,0-0.662,0.002-0.969c0.02-1.296,0.029-2.15-0.542-2.691
	C27.654,42.443,27.321,42.234,26.795,42.234z M26.792,45.292c-0.007,0.3-0.01,0.642-0.007,1.002c0.01,1.181-0.553,1.302-1.544,1.414
	c-0.076,0.008-0.149,0.016-0.22,0.026c-0.462,0.058-0.862,0.174-1.225,0.312c0.024-0.228,0.041-0.45,0.041-0.653
	c0-0.004,0-1.027,0-2.206c0.019-0.397,0.134-0.701,0.369-0.916c0.596-0.556,1.869-0.552,2.485-0.55h0.027
	C26.806,43.998,26.795,44.708,26.792,45.292z"/>
<g>
	<path fill="#FFFFFF" d="M41.559,38.581l1.375-1.401c0.29-0.264,0.555-0.212,0.793,0.026c0.344,0.37,0.873,0.847,1.745,0.847
		c1.032,0,2.116-0.847,2.116-2.671V22.901c0-0.264,0.212-0.502,0.503-0.502h2.486c0.29,0,0.502,0.238,0.502,0.502v12.481
		c0,3.676-2.459,5.791-5.553,5.791c-2.301,0-3.57-1.375-4.02-1.93C41.374,39.031,41.4,38.767,41.559,38.581z"/>
	<path fill="#FFFFFF" d="M60.411,22.901c0-0.264,0.238-0.502,0.502-0.502h2.513c0.29,0,0.502,0.238,0.502,0.502v10.815
		c0,2.248,1.534,4.02,3.834,4.02c2.301,0,3.86-1.772,3.86-3.993V22.901c0-0.264,0.212-0.502,0.503-0.502h2.512
		c0.264,0,0.503,0.238,0.503,0.502v11.001c0,4.02-3.2,7.271-7.378,7.271c-4.152,0-7.351-3.252-7.351-7.271V22.901z"/>
	<path fill="#FFFFFF" d="M83.889,38.317l0.951-1.64c0.212-0.37,0.661-0.37,0.899-0.184c0.132,0.08,2.274,1.639,3.993,1.639
		c1.375,0,2.406-0.899,2.406-2.036c0-1.349-1.137-2.274-3.358-3.173c-2.486-1.005-4.971-2.591-4.971-5.711
		c0-2.354,1.745-5.077,5.95-5.077c2.697,0,4.759,1.375,5.289,1.771c0.264,0.159,0.344,0.609,0.158,0.873l-1.005,1.507
		c-0.212,0.318-0.608,0.529-0.925,0.318c-0.212-0.132-2.222-1.454-3.676-1.454c-1.507,0-2.326,1.005-2.326,1.852
		c0,1.243,0.978,2.088,3.119,2.961c2.565,1.031,5.526,2.565,5.526,5.976c0,2.723-2.352,5.235-6.082,5.235
		c-3.331,0-5.288-1.559-5.817-2.062C83.783,38.873,83.651,38.741,83.889,38.317z"/>
	<path fill="#FFFFFF" d="M107.076,25.572h-4.045c-0.291,0-0.503-0.238-0.503-0.502v-2.169c0-0.264,0.212-0.502,0.503-0.502h11.555
		c0.29,0,0.502,0.238,0.502,0.502v2.169c0,0.264-0.212,0.502-0.502,0.502h-4.046v14.835c0,0.264-0.238,0.502-0.502,0.502h-2.459
		c-0.265,0-0.503-0.238-0.503-0.502V25.572z"/>
	<path fill="#FFFFFF" d="M123.125,22.901c0-0.264,0.212-0.502,0.503-0.502h6.055c3.147,0,5.58,2.116,5.58,4.891
		c0,2.036-1.666,3.622-2.909,4.205c1.402,0.45,3.438,1.877,3.438,4.31c0,2.961-2.539,5.103-5.765,5.103h-6.398
		c-0.291,0-0.503-0.238-0.503-0.502V22.901z M129.366,30.173c1.349,0,2.274-1.058,2.274-2.38c0-1.322-0.925-2.248-2.274-2.248
		h-2.829v4.627H129.366z M129.736,37.788c1.322,0,2.38-1.031,2.38-2.406c0-1.322-1.322-2.3-2.697-2.3h-2.882v4.706H129.736z"/>
	<path fill="#FFFFFF" d="M144.725,22.901c0-0.264,0.212-0.502,0.503-0.502h10.762c0.291,0,0.503,0.238,0.503,0.502v2.169
		c0,0.264-0.212,0.502-0.503,0.502h-7.827v4.336h6.531c0.264,0,0.502,0.239,0.502,0.503v2.194c0,0.291-0.238,0.503-0.502,0.503
		h-6.531v4.627h7.827c0.291,0,0.503,0.238,0.503,0.502v2.169c0,0.264-0.212,0.502-0.503,0.502h-10.762
		c-0.291,0-0.503-0.238-0.503-0.502V22.901z"/>
	<path fill="#FFFFFF" d="M163.154,40.221l8.224-17.796c0.08-0.158,0.212-0.29,0.45-0.29h0.264c0.265,0,0.37,0.132,0.45,0.29
		l8.144,17.796c0.159,0.344-0.052,0.687-0.45,0.687h-2.3c-0.396,0-0.582-0.158-0.767-0.529l-1.295-2.855h-7.906l-1.296,2.855
		c-0.106,0.265-0.344,0.529-0.767,0.529h-2.3C163.207,40.909,162.996,40.565,163.154,40.221z M174.577,34.589l-2.644-5.818h-0.08
		l-2.591,5.818H174.577z"/>
	<path fill="#FFFFFF" d="M188.376,22.611c0-0.265,0.238-0.476,0.503-0.476h0.661l11,11.687h0.026V22.901
		c0-0.264,0.212-0.502,0.503-0.502h2.432c0.265,0,0.503,0.238,0.503,0.502v17.796c0,0.264-0.238,0.476-0.503,0.476h-0.634
		l-11.053-12.136h-0.026v11.37c0,0.264-0.212,0.502-0.503,0.502h-2.406c-0.265,0-0.503-0.238-0.503-0.502V22.611z"/>
</g>
</svg>
