<?xml version="1.0" encoding="utf-8"?>
<!-- Generator: Adobe Illustrator 25.4.1, SVG Export Plug-In . SVG Version: 6.00 Build 0)  -->
<svg version="1.1" id="Lager_1" xmlns="http://www.w3.org/2000/svg" xmlns:xlink="http://www.w3.org/1999/xlink" x="0px" y="0px"
	 viewBox="0 0 141.73 121.89" style="enable-background:new 0 0 141.73 121.89;" xml:space="preserve">
<style type="text/css">
	.st0{fill:#FFFFFF;}
</style>
<g>
	<g>
		<path class="st0" d="M141.73,23.02c0,0.89,0,1.77,0,2.66c0,0.85,0,1.69,0,2.54c0,0.24,0,0.48,0,0.72c-0.54,0.6-0.62,1.21,0,1.81
			c0,0.16,0,0.32,0,0.48c-0.14,0.44-0.4,0.88-0.4,1.32c-0.01,1.36,0.12,2.73,0.13,4.09c0.01,1.44-0.11,2.87-0.07,4.31
			c0.03,1.15,0.22,2.29,0.34,3.44c0,0.85,0,1.69,0,2.54c-0.18,1.86-0.47,3.71-0.51,5.58c-0.04,1.89,0.18,3.78,0.29,5.67
			c0.03,0.46,0.21,0.99,0.05,1.36c-0.63,1.44-0.07,2.79,0.17,4.18c0,0.16,0,0.32,0,0.48c-0.03,0.19-0.08,0.38-0.1,0.57
			c-0.1,1.04-0.25,2.07-0.29,3.11c-0.06,1.74-0.06,3.48-0.08,5.23c0,0.05,0.07,0.1,0.08,0.16c0.06,1.11,0.36,2.29,0.11,3.32
			c-0.35,1.43-0.39,2.72,0.28,4.03c0,0.2,0,0.4,0,0.6c0,1.29,0,2.58,0,3.86c0,0.12,0,0.24,0,0.36c-0.15,0.4-0.43,0.8-0.42,1.2
			c0.03,1.48,0.2,2.95,0.21,4.42c0,0.77-0.34,1.54-0.33,2.3c0.03,2.2,0.22,4.4,0.24,6.6c0.03,2.69-0.04,5.37-0.08,8.06
			c-0.01,0.79-0.13,1.57-0.11,2.35c0.04,1.15,0.25,2.31,0.23,3.45c-0.04,2.08-0.21,4.15-0.31,6.23c-0.01,0.18,0,0.39,0.09,0.53
			c0.5,0.77,0.01,1.06-0.6,1.31c-0.16,0-0.32,0-0.48,0c-0.05-0.03-0.1-0.08-0.15-0.08c-2.9-0.06-5.8-0.09-8.7-0.18
			c-1.85-0.06-3.7-0.25-5.55-0.29c-1.64-0.04-3.28,0.04-4.92,0.09c-2.18,0.07-4.36,0.2-6.54,0.23c-1.49,0.02-2.98-0.14-4.47-0.13
			c-2.23,0.01-4.45,0.13-6.68,0.11c-1.5-0.01-3-0.24-4.5-0.22c-1.85,0.03-3.69,0.3-5.54,0.32c-1.56,0.02-3.11-0.26-4.67-0.26
			c-2.69,0-5.39,0.11-8.08,0.16c-0.6,0.01-1.21-0.02-1.81-0.06c-0.58-0.03-1.16-0.15-1.73-0.14c-1.12,0.03-2.24,0.13-3.36,0.19
			c-0.08,0-0.16-0.13-0.25-0.15c-0.26-0.06-0.54-0.15-0.8-0.14c-1.64,0.08-3.28,0.23-4.91,0.26c-1.98,0.04-3.97-0.01-5.95-0.01
			c-0.77,0-1.55,0.03-2.32,0.05c-0.83,0.03-1.76,0.33-2.46,0.04c-1.34-0.55-2.63-0.09-3.93-0.15c-0.95-0.05-1.9,0.03-2.85,0.05
			c-0.58,0.01-1.15,0.04-1.73,0.05c-0.65,0.01-1.3,0.02-1.96,0.01c-1.5-0.01-3-0.05-4.5-0.05c-0.67,0-1.34,0.14-2.01,0.12
			c-1.67-0.04-3.34-0.16-5.01-0.21c-1.51-0.04-3.02-0.03-4.53-0.05c-1.6-0.02-3.23-0.47-4.74,0.43c-0.16,0-0.32,0-0.48,0
			c-1.49-0.15-2.97-0.99-4.46,0c-0.36,0-0.72,0-1.08,0c-2.71-0.18-5.41-0.39-8.12-0.51c-1.29-0.06-2.58,0.02-3.87,0.07
			c-1.04,0.04-2.07,0.13-3.11,0.18c-0.16,0.01-0.37-0.04-0.48-0.14c-0.08-0.08-0.05-0.29-0.05-0.44c0.03-0.83,0.09-1.67,0.08-2.5
			c0-0.21-0.19-0.59-0.3-0.59c-0.73-0.01-1.48,0.01-2.2,0.11c-1.07,0.15-1.62-0.4-1.12-1.38c0.41-0.8,0.27-1.34-0.22-1.93
			c0-0.08,0-0.16,0-0.24c0.11-1.19,0.33-2.38,0.31-3.56c-0.02-1.75-0.2-3.5-0.31-5.25c0-0.04,0-0.08,0-0.12
			c0.17-0.6,0.48-1.21,0.47-1.8c-0.04-1.67-0.29-3.33-0.32-4.99c-0.03-1.47,0.19-2.95,0.2-4.42c0.02-1.55-0.12-3.09-0.12-4.64
			c0.01-3.04,0.07-6.07,0.12-9.11c0.01-0.47,0.15-0.94,0.14-1.41c-0.04-1.41-0.11-2.81-0.19-4.21c-0.03-0.63-0.11-1.25-0.17-1.87
			c-0.01-0.16-0.08-0.37-0.01-0.47c0.49-0.65,0.13-1.24,0.07-1.92c-0.17-1.98-0.08-3.99-0.05-5.99c0.02-1.14,0.2-2.28,0.21-3.42
			c0.01-1.17-0.14-2.35-0.12-3.52c0.04-1.87,0.17-3.74,0.25-5.6c0.02-0.42-0.01-0.84-0.02-1.25c-0.02-0.89-0.03-1.78-0.05-2.67
			c-0.02-1-0.03-2-0.07-3c-0.05-1.11-0.12-2.21-0.19-3.32c0-0.02,0.02-0.04,0.02-0.05c0.08-0.5,0.24-1.01,0.23-1.51
			c-0.02-1.3-0.18-2.59-0.15-3.88c0.04-1.46,0.34-2.93,0.31-4.39c-0.04-1.84-0.29-3.68-0.44-5.52c-0.02-0.19,0.04-0.39,0.09-0.58
			c0.11-0.42,0.37-0.84,0.34-1.24c-0.04-0.61-0.4-1.2-0.42-1.8c-0.03-1.45,0.05-2.91,0.13-4.36c0.04-0.75,0.23-1.48,0.25-2.23
			c0.02-0.58-0.16-1.16-0.17-1.74c0-1.1,0.08-2.21,0.09-3.31c0.02-0.92,0.01-1.84-0.02-2.76c-0.05-1.42-0.13-2.84-0.2-4.26
			C0.3,3.98,0.27,3.63,0.24,3.28c-0.05-0.54-0.1-1.09-0.16-1.63C-0.21,0.31,0.3-0.19,1.65,0.07c0.43,0.08,0.88,0.01,1.32,0.01
			c0.56,0.55,1.12,0.53,1.69,0c0.2,0,0.4,0,0.6,0C5.6,0.2,5.95,0.42,6.29,0.42c1.46,0,2.92-0.09,4.38-0.11
			c1.87-0.02,3.74-0.01,5.61-0.01c0.16,0,0.32,0.1,0.47,0.08c0.47-0.08,0.94-0.2,1.41-0.3c0.96,0,1.93,0,2.89,0
			c0.46,0.06,0.91,0.16,1.37,0.19c1.08,0.06,2.17,0.16,3.25,0.13c1.31-0.04,2.62-0.2,3.93-0.31c0.08,0,0.16,0,0.24,0
			c0.96,0.9,1.93,0.12,2.89,0c0.2,0,0.4,0,0.6,0c1.32,0.96,2.65,0.17,3.97,0c0.56,0,1.12,0,1.69,0c1.5,0.15,3,0.32,4.5,0.42
			c0.82,0.06,1.65,0.05,2.47-0.02c0.53-0.05,1.06-0.26,1.58-0.4c0.12,0,0.24,0,0.36,0c0.44,0.09,0.87,0.2,1.31,0.26
			c0.52,0.08,1.06,0.19,1.57,0.15c1.13-0.09,2.25-0.27,3.38-0.41c0.52,0,1.04,0,1.57,0c0.96,0,1.93,0,2.89,0c0.2,0,0.4,0,0.6,0
			c0.38,0.13,0.77,0.38,1.15,0.37c1.21-0.03,2.41-0.22,3.62-0.21c1.11,0.01,2.21,0.24,3.32,0.29c0.9,0.04,1.8-0.02,2.7-0.1
			c0.75-0.07,1.49-0.23,2.23-0.35c0.2,0,0.4,0,0.6,0c0.24,0.08,0.48,0.23,0.72,0.23c2.68,0.05,5.36,0.07,8.05,0.12
			c0.76,0.01,1.53,0.15,2.29,0.12c1.13-0.03,2.26-0.24,3.39-0.23c1.87,0.02,3.74,0.15,5.62,0.24c2.96,0.14,5.92-0.74,8.88,0.03
			c0.51,0.13,1.1-0.05,1.65-0.1c1.2-0.13,2.41-0.27,3.61-0.41c0.24,0,0.48,0,0.72,0c0.36,0.12,0.72,0.34,1.09,0.36
			c1.3,0.07,2.6,0.16,3.9,0.1c1.11-0.05,2.22-0.3,3.33-0.45c0.24,0,0.48,0,0.72,0c1.05,0.09,2.11,0.23,3.16,0.25
			c2.67,0.06,5.34,0.1,8,0.1c0.8,0,1.6-0.2,2.4-0.2c1.9,0.01,3.8,0.2,5.7,0.13c2.02-0.08,2.21-0.75,1.99,1.79
			c-0.05,0.54,0.25,1.48,0.62,1.62c0.65,0.25,1.49,0.03,2.24-0.01c0.27-0.01,0.54-0.04,0.81-0.07c0,0.2,0,0.4,0,0.6
			c-0.09,0.28-0.24,0.55-0.25,0.83c-0.02,0.89,0.07,1.79,0.03,2.68c-0.08,1.73-0.3,3.46-0.3,5.19c0,1.3,0.26,2.6,0.38,3.9
			c0.03,0.28-0.02,0.56-0.01,0.84c0.04,0.95,0.09,1.91,0.14,2.86c0,0.12,0,0.24,0,0.36C141.73,21.65,141.73,22.33,141.73,23.02z
			 M136.67,4.89c-0.82,0-1.94,0.02-3.07-0.01c-2.32-0.06-4.64-0.19-6.95-0.2c-0.93-0.01-1.85,0.32-2.78,0.31
			c-1.3-0.01-2.61-0.24-3.91-0.28c-1.71-0.05-3.43-0.03-5.15,0c-2.26,0.03-4.51,0.08-6.77,0.15c-1.27,0.04-2.54,0.2-3.82,0.2
			c-0.79,0-1.58-0.21-2.37-0.26c-0.46-0.03-0.94,0.16-1.41,0.14c-1.4-0.05-2.8-0.2-4.19-0.24c-1.8-0.05-3.6-0.04-5.39-0.05
			c-0.12,0-0.24,0.02-0.36,0.04c-1.07,0.14-2.13,0.38-3.2,0.41c-1.91,0.04-3.82-0.01-5.73-0.09c-0.92-0.04-1.83-0.34-2.74-0.32
			c-1.66,0.04-3.32,0.3-4.99,0.33c-1.59,0.02-3.18-0.14-4.77-0.23c-0.37-0.02-0.75-0.17-1.11-0.14c-1.18,0.09-2.35,0.33-3.53,0.33
			c-2.86,0.02-5.73-0.06-8.59-0.11c-0.61-0.01-1.21-0.12-1.82-0.11c-1.22,0.02-2.45,0.15-3.67,0.13c-1.23-0.02-2.45-0.15-3.68-0.23
			c-0.09-0.01-0.19,0.05-0.28,0.08c-0.49,0.11-0.99,0.32-1.48,0.32c-1.24,0.01-2.47-0.09-3.71-0.1c-1.19-0.01-2.39,0.05-3.58,0.07
			c-0.1,0-0.2-0.02-0.3-0.03c-1.02-0.11-2.04-0.23-3.06-0.34c-0.11-0.01-0.23,0.05-0.35,0.07c-0.48,0.08-0.96,0.22-1.45,0.23
			C29.85,5,27.22,5.03,24.6,5.01c-0.64,0-1.29-0.25-1.92-0.23c-1.01,0.04-2.02,0.23-3.03,0.31c-0.2,0.02-0.41-0.14-0.61-0.2
			c-0.22-0.07-0.45-0.19-0.67-0.19c-0.69,0-1.38,0.07-2.08,0.06c-2.17-0.02-4.35-0.06-6.52-0.09C8.24,4.64,6.72,4.58,5.19,4.61
			c-0.18,0-0.53,0.5-0.51,0.74c0.09,0.95,0.3,1.88,0.44,2.83c0.03,0.18-0.09,0.38-0.14,0.57C4.88,9.09,4.66,9.46,4.7,9.8
			c0.06,0.61,0.4,1.19,0.41,1.8c0.04,1.31-0.02,2.62-0.09,3.94c-0.09,1.73-0.32,3.46-0.34,5.19c-0.01,1.14,0.28,2.28,0.34,3.43
			C5.08,25.3,5,26.45,5.01,27.6c0,0.44,0.12,0.87,0.12,1.31c-0.01,1.16-0.06,2.33-0.1,3.49c-0.07,1.69-0.15,3.37-0.21,5.05
			c-0.01,0.26,0.1,0.53,0.16,0.79c0.06,0.25,0.2,0.5,0.17,0.74C5,40.43,4.82,41.87,4.66,43.31c-0.01,0.13,0.04,0.28,0.05,0.41
			c0.1,1.11,0.25,2.22,0.28,3.33c0.05,2.31,0.05,4.63,0.05,6.95c0,1.13,0.01,2.26-0.05,3.38c-0.06,1.03-0.31,2.05-0.29,3.07
			c0.04,1.91,0.25,3.82,0.31,5.74c0.03,0.94-0.2,1.88-0.18,2.82c0.03,1.36,0.28,2.71,0.27,4.07c-0.01,1.32-0.29,2.63-0.36,3.95
			c-0.05,0.91,0,1.82,0.07,2.73c0.06,0.81,0.31,1.62,0.28,2.42c-0.04,1.18-0.37,2.36-0.37,3.53c0,1.12,0.41,2.23,0.41,3.35
			c-0.01,1.77-0.28,3.54-0.32,5.31c-0.03,1.23,0.23,2.46,0.22,3.7c-0.02,2.44-0.18,4.87-0.21,7.31c-0.02,1.93,0.07,3.87,0.09,5.8
			c0.02,2,0,3.99,0,5.82c1.09,0.07,2,0.18,2.9,0.16c0.81-0.02,1.62-0.29,2.42-0.26c1.27,0.05,2.53,0.36,3.8,0.37
			c1.82,0.01,3.64-0.15,5.46-0.23c1.95-0.09,3.9,0.21,5.86-0.16c0.68-0.13,1.47,0.4,2.2,0.39c2.12-0.04,4.23-0.27,6.35-0.31
			c2.4-0.05,4.81-0.01,7.21,0.04c2.77,0.06,5.54,0.23,8.31,0.26c1.06,0.01,2.13-0.3,3.19-0.3c1.02,0,2.05,0.29,3.07,0.29
			c1.76,0,3.52-0.17,5.27-0.17c1.62,0,3.25,0.27,4.86,0.17c1.82-0.11,3.62,0.1,5.48-0.33c1.63-0.38,3.46,0.16,5.2,0.23
			c0.99,0.04,1.98-0.05,2.96-0.06c2.52-0.02,5.04-0.03,7.56-0.04c2.71-0.02,5.43-0.06,8.14-0.07c1.19,0,2.38,0.06,3.57,0.06
			c1.68,0,3.37-0.07,5.05-0.04c0.85,0.02,1.7,0.29,2.55,0.29c0.72,0,1.44-0.31,2.17-0.35c0.53-0.03,1.08,0.23,1.62,0.22
			c1.23-0.01,2.46-0.18,3.69-0.16c2.63,0.03,5.27,0.19,7.9,0.2c1.43,0.01,2.86-0.25,4.29-0.26c1.19-0.01,2.38,0.2,3.57,0.23
			c2.23,0.06,4.46,0.08,6.69,0.06c0.28,0,0.79-0.37,0.81-0.6c0.1-1.35-0.65-2.72,0.07-4.07c0.04-0.07-0.03-0.19-0.04-0.29
			c-0.14-1.09-0.37-2.18-0.4-3.28c-0.04-1.87,0.02-3.75,0.08-5.62c0.04-1.1,0.25-2.19,0.25-3.29c0-0.72-0.3-1.44-0.33-2.17
			c-0.02-0.47,0.3-0.96,0.31-1.43c0.02-1.84-0.05-3.68-0.05-5.52c0-0.45,0.21-0.91,0.18-1.36c-0.07-1.18-0.32-2.35-0.32-3.53
			c-0.02-2.91,0.06-5.82,0.1-8.73c0.01-0.7,0.04-1.41,0.03-2.11c-0.01-1.15-0.08-2.3-0.05-3.44c0.03-1.15,0.15-2.3,0.22-3.45
			c0.01-0.1-0.05-0.19-0.06-0.29c-0.13-0.73-0.33-1.46-0.36-2.2c-0.04-0.95,0.26-1.95,0.07-2.86c-0.28-1.3,0.77-2.57-0.03-3.83
			c-0.02-0.03,0.01-0.08,0.01-0.12c0.13-1.04,0.26-2.09,0.37-3.13c0.01-0.13-0.05-0.27-0.07-0.41c-0.08-0.5-0.23-1.01-0.24-1.51
			c-0.02-2.47-0.03-4.94,0-7.4c0.01-0.78,0.22-1.57,0.2-2.35c-0.04-1.03-0.23-2.06-0.34-3.08c-0.01-0.13,0.08-0.27,0.08-0.41
			c0.01-0.51,0.01-1.02,0.01-1.54c0-0.23-0.05-0.47-0.02-0.7c0.08-0.59,0.27-1.17,0.26-1.75c-0.01-1.23-0.2-2.47-0.18-3.7
			c0.03-1.49,0.33-2.97,0.3-4.45c-0.03-1.84-0.29-3.68-0.43-5.52c-0.01-0.17,0.04-0.35,0.08-0.52c0.12-0.49,0.37-0.99,0.35-1.47
			c-0.02-0.54-0.42-1.08-0.42-1.62c-0.01-1.49,0.09-2.98,0.18-4.47c0.04-0.69,0.24-1.37,0.23-2.06c-0.02-1.18-0.16-2.35-0.2-3.52
			c-0.02-0.53,0.15-1.06,0.11-1.58C136.97,6.92,136.81,6,136.67,4.89z M5.03,117.97c-0.14,0.98-0.24,1.64-0.32,2.29
			c-0.01,0.12,0.06,0.33,0.14,0.35c0.15,0.05,0.33,0,0.49-0.03c0.4-0.08,0.79-0.27,1.18-0.27c2.88,0.02,5.76,0.08,8.64,0.12
			c0.54,0.01,1.08-0.07,1.61-0.03c1.33,0.1,2.66,0.31,3.99,0.35c1.52,0.05,3.04-0.06,4.56-0.08c1.57-0.02,3.14,0.01,4.71-0.03
			c1.76-0.04,3.53-0.18,5.29-0.2c1-0.01,2,0.17,2.99,0.16c1.67-0.02,3.34-0.18,5-0.17c1.52,0.01,3.04,0.25,4.56,0.23
			c1.81-0.03,3.61-0.3,5.42-0.33c1.54-0.02,3.07,0.24,4.61,0.25c2.4,0.02,4.8-0.05,7.19-0.1c0.81-0.02,1.62-0.12,2.43-0.09
			c1.38,0.05,2.75,0.19,4.13,0.27c0.14,0.01,0.29-0.14,0.44-0.18c0.23-0.05,0.47-0.11,0.7-0.1c1.24,0.09,2.48,0.28,3.72,0.28
			c2.05,0.01,4.09-0.11,6.14-0.14c0.51-0.01,1.03,0.15,1.54,0.12c1.8-0.09,3.59-0.24,5.39-0.34c0.17-0.01,0.35,0.16,0.53,0.24
			c0.18,0.08,0.37,0.23,0.54,0.22c1.24-0.08,2.48-0.22,3.72-0.29c0.75-0.04,1.5,0.02,2.25,0.02c0.52,0,1.03-0.05,1.55-0.06
			c0.67-0.01,1.34-0.02,2.01-0.02c1.5,0.01,3,0.05,4.5,0.04c0.69,0,1.38-0.13,2.06-0.11c1.63,0.05,3.26,0.17,4.89,0.21
			c1.47,0.03,2.94-0.01,4.42-0.02c1.39,0,2.79,0,4.18-0.01c0.99,0,1.98-0.04,2.97-0.02c0.55,0.01,1.1,0.17,1.64,0.13
			c0.83-0.06,1.65-0.37,2.46-0.34c2.51,0.09,5.01,0.33,7.51,0.43c1.67,0.06,3.35,0,5.02-0.09c0.26-0.01,0.71-0.46,0.71-0.71
			c0-1.71-0.12-3.41-0.15-5.12c-0.01-0.84,0.15-1.68,0.13-2.52c-0.04-1.89-0.18-3.79-0.2-5.68c-0.02-1.52,0.11-3.04,0.13-4.56
			c0.01-0.89-0.07-1.78-0.09-2.67c-0.02-1.2,0.02-2.41-0.01-3.61c-0.01-0.57-0.2-1.15-0.17-1.72c0.07-1.58,0.28-3.15,0.31-4.73
			c0.03-1.11-0.2-2.22-0.18-3.33c0.02-1.03,0.3-2.06,0.29-3.09c-0.01-1.83-0.14-3.65-0.24-5.48c-0.1-1.93,0.2-3.87-0.16-5.82
			c-0.13-0.71,0.39-1.51,0.37-2.27c-0.03-1.94-0.25-3.88-0.29-5.82c-0.05-2.57-0.03-5.14,0.01-7.71c0.03-2.25,0.15-4.51,0.2-6.76
			c0.03-1.1,0.02-2.2-0.03-3.3c-0.02-0.53-0.24-1.05-0.21-1.57c0.05-1.05,0.28-2.1,0.28-3.15c0.01-1.72-0.15-3.45-0.14-5.17
			c0.01-1.71,0.23-3.42,0.18-5.12c-0.05-1.83-0.42-3.65-0.42-5.47c0-2.08,0.27-4.16,0.37-6.25c0.04-0.71-0.1-1.42-0.09-2.13
			c0.04-2.18,0.11-4.36,0.16-6.54c0-0.11-0.09-0.23-0.1-0.35c-0.02-1.58-0.03-3.16-0.05-4.74c0-0.17,0.03-0.39-0.06-0.49
			c-0.09-0.1-0.31-0.09-0.47-0.09c-0.48,0-0.97,0.1-1.43,0.01c-0.62-0.13-0.84,0.03-0.73,0.65c0.12,0.64,0.35,1.28,0.35,1.92
			c0.01,1.4-0.1,2.8-0.12,4.2c-0.01,0.51,0.19,1.03,0.15,1.54c-0.09,1.11-0.59,2.28-0.35,3.29c0.54,2.22-0.55,4.49,0.38,6.66
			c0.04,0.1-0.06,0.27-0.08,0.41c-0.12,0.84-0.34,1.69-0.32,2.53c0.03,1.25,0.33,2.49,0.34,3.74c0.01,0.92-0.4,1.85-0.38,2.77
			c0.03,1.74,0.26,3.47,0.34,5.21c0.03,0.8-0.12,1.61-0.16,2.42c-0.05,1.18-0.12,2.36-0.08,3.53c0.04,1.1,0.33,2.2,0.3,3.3
			c-0.05,1.94-0.31,3.87-0.37,5.8c-0.02,0.67,0.36,1.36,0.37,2.04c0.01,1.01-0.2,2.02-0.2,3.04c-0.02,2.6,0,5.21,0.03,7.81
			c0.02,1.88,0.12,3.75,0.12,5.63c0,0.96-0.19,1.91-0.2,2.87c-0.01,1.55,0.09,3.11,0.09,4.66c-0.01,1.84-0.1,3.68-0.11,5.52
			c0,1.86,0.04,3.72,0.1,5.57c0.02,0.8,0.23,1.6,0.19,2.39c-0.06,1.23-0.37,2.45-0.37,3.67c0,1.8,0.24,3.59,0.27,5.39
			c0.03,1.85-0.07,3.7-0.09,5.55c-0.01,0.77,0.06,1.54,0.06,2.31c0,0.93-0.05,1.85-0.08,2.78c-0.01,0.26-0.02,0.52-0.01,0.78
			c0.05,1.32,0.12,2.63,0.15,3.95c0.01,0.47,0.11,1.1-0.14,1.37c-0.26,0.28-0.89,0.3-1.36,0.28c-1.83-0.07-3.66-0.24-5.49-0.3
			c-0.86-0.03-1.73,0.19-2.6,0.15c-1.03-0.04-2.05-0.34-3.08-0.33c-1.84,0.02-3.68,0.21-5.52,0.27c-1.93,0.06-3.86-0.19-5.8,0.13
			c-0.71,0.12-1.5-0.31-2.26-0.37c-0.75-0.06-1.51-0.01-2.26,0.06c-0.87,0.07-1.73,0.25-2.6,0.31c-0.61,0.04-1.24-0.04-1.85-0.05
			c-2.32-0.03-4.65-0.02-6.97-0.07c-2.73-0.06-5.46-0.2-8.19-0.23c-1.06-0.01-2.12,0.27-3.19,0.28c-1.03,0-2.05-0.26-3.08-0.26
			c-1.54,0-3.08,0.2-4.62,0.19c-1.84-0.01-3.68-0.25-5.52-0.19c-1.8,0.06-3.58-0.14-5.43,0.33c-1.45,0.37-3.13-0.18-4.71-0.23
			c-2.18-0.07-4.37-0.03-6.55-0.06c-1.2-0.01-2.39-0.1-3.59-0.09c-1.78,0.02-3.56,0.12-5.35,0.15c-0.9,0.02-1.81-0.08-2.71-0.03
			c-1.06,0.06-2.11,0.29-3.17,0.31c-1.11,0.01-2.22-0.13-3.32-0.23c-0.45-0.04-0.9-0.17-1.35-0.17c-0.93-0.02-1.86,0.02-2.79,0.03
			c-0.61,0.01-1.23-0.02-1.84,0.02c-0.75,0.04-1.5,0.2-2.25,0.19c-1.07-0.01-2.13-0.17-3.2-0.19c-1.64-0.03-3.27,0-4.91,0.02
			c-2.29,0.02-4.59,0.04-6.88,0.1c-1.29,0.04-2.58,0.21-3.88,0.23c-0.79,0.01-1.57-0.21-2.37-0.26c-0.44-0.02-0.9,0.17-1.35,0.15
			C6.89,118.14,5.82,118.03,5.03,117.97z M136.64,4.05c0.16-0.88,0.31-1.67,0.42-2.46c0.01-0.11-0.21-0.36-0.31-0.35
			c-0.81,0.06-1.61,0.26-2.41,0.25c-1.68-0.02-3.36-0.14-5.04-0.19c-0.26-0.01-0.53,0.09-0.8,0.15c-0.25,0.06-0.5,0.21-0.73,0.18
			c-1.44-0.14-2.88-0.32-4.32-0.48c-0.14-0.01-0.28,0.03-0.42,0.04c-1.09,0.1-2.17,0.25-3.26,0.28c-2.37,0.06-4.74,0.07-7.11,0.08
			c-1.07,0-2.13-0.01-3.2-0.07c-1.04-0.06-2.08-0.31-3.12-0.29c-1.89,0.03-3.78,0.25-5.67,0.3c-0.74,0.02-1.49-0.3-2.23-0.3
			c-1.88,0.01-3.76,0.16-5.63,0.18c-1.89,0.02-3.79-0.08-5.68-0.07c-0.79,0.01-1.57,0.29-2.35,0.26c-1.18-0.04-2.35-0.36-3.53-0.36
			c-1.13,0.01-2.27,0.41-3.4,0.41c-1.73-0.01-3.45-0.28-5.18-0.31c-1.21-0.03-2.42,0.23-3.63,0.22c-2.47-0.02-4.94-0.17-7.42-0.21
			c-0.58-0.01-1.16,0.3-1.73,0.27c-2.05-0.08-4.09-0.34-6.14-0.34c-1.99,0-3.97,0.3-5.96,0.32c-1.35,0.01-2.7-0.3-4.06-0.35
			c-0.77-0.03-1.55,0.17-2.33,0.25c-0.25,0.03-0.51,0.06-0.76,0.03c-0.58-0.08-1.15-0.3-1.73-0.3c-2.4-0.04-4.8-0.01-7.2-0.02
			c-1.38,0-2.75-0.02-4.13-0.01c-0.25,0-0.49,0.13-0.75,0.17c-0.68,0.09-1.36,0.2-2.05,0.24c-0.5,0.02-1.01-0.06-1.52-0.1
			c-0.27-0.02-0.55-0.04-0.82-0.06c-1.15-0.05-2.3-0.16-3.44-0.14c-1.86,0.04-3.71,0.26-5.57,0.24C11.3,1.48,9.15,1.24,7,1.16
			C5.94,1.12,4.88,1.22,3.83,1.24C3.11,1.25,2.39,1.21,1.67,1.26C1.53,1.27,1.29,1.57,1.29,1.74C1.31,3.13,1.4,4.51,1.4,5.9
			c-0.01,2.3-0.1,4.6-0.12,6.9c-0.02,1.2,0,2.4,0.04,3.59c0.04,1.1,0.14,2.2,0.22,3.3c0.03,0.43,0.13,0.87,0.1,1.3
			c-0.08,1.15-0.27,2.28-0.33,3.43c-0.04,0.85,0.12,1.71,0.1,2.56c-0.02,0.9-0.37,1.86-0.15,2.68c0.22,0.82,0.29,1.51,0.19,2.36
			C1.3,33.15,1.63,34.34,1.6,35.5c-0.05,1.87-0.3,3.73-0.32,5.6C1.27,42.55,1.51,44,1.56,45.46c0.03,0.84-0.1,1.69-0.14,2.54
			c-0.05,1.16-0.14,2.32-0.1,3.47c0.04,1.16,0.33,2.33,0.31,3.48c-0.04,1.88-0.29,3.75-0.35,5.63c-0.02,0.71,0.34,1.43,0.35,2.15
			c0.02,0.99-0.2,1.99-0.21,2.98c-0.02,2.46,0.01,4.93,0.03,7.39c0.02,1.82,0.08,3.63,0.07,5.45c-0.01,1.96-0.09,3.92-0.15,5.89
			c-0.01,0.32-0.11,0.64-0.09,0.96c0.1,1.86,0.21,3.71,0.32,5.57c0,0.08-0.04,0.16-0.04,0.24c-0.01,1.25-0.04,2.5-0.02,3.75
			c0.02,1.76,0.11,3.52,0.1,5.28c-0.02,1.82-0.16,3.63-0.18,5.45c-0.02,2.31,0.03,4.63,0.05,6.94c0,0.13-0.08,0.27-0.09,0.41
			c-0.03,0.41-0.05,0.82-0.05,1.23c-0.01,0.8-0.02,1.61-0.01,2.41c0,0.12,0.05,0.32,0.13,0.35c0.14,0.06,0.32,0.04,0.48,0.02
			c0.34-0.05,0.68-0.14,1.02-0.16c0.26-0.01,0.74,0.12,0.75,0.1c0.12-0.48,0.25-0.98,0.24-1.48c-0.04-1.16-0.23-2.31-0.21-3.46
			c0.02-1.13,0.35-2.25,0.33-3.37c-0.02-1.74-0.29-3.47-0.32-5.2c-0.02-1.19,0.26-2.38,0.27-3.57c0-0.8-0.38-1.6-0.36-2.4
			c0.03-1.66,0.25-3.31,0.31-4.96c0.05-1.22-0.07-2.44-0.05-3.66c0.01-0.84,0.21-1.67,0.18-2.51c-0.05-1.85-0.22-3.69-0.28-5.53
			c-0.06-1.9,0.21-3.79-0.14-5.69c-0.11-0.6,0.28-1.27,0.32-1.91c0.06-0.85,0.05-1.71-0.01-2.56c-0.06-0.93-0.25-1.86-0.31-2.79
			c-0.04-0.62,0.06-1.24,0.06-1.86c0.02-2.33,0.01-4.66,0.05-6.98c0.06-2.84,0.2-5.67,0.24-8.5c0.01-1-0.25-2-0.25-3.01
			c0-1.03,0.23-2.06,0.22-3.09c0-1.55-0.19-3.09-0.17-4.64c0.02-2.07,0.24-4.13,0.22-6.19c-0.02-1.57-0.39-3.13-0.41-4.7
			c-0.02-1.74,0.21-3.48,0.28-5.22c0.04-1.05,0-2.1-0.02-3.15c-0.03-1.71-0.08-3.43-0.11-5.14c0-0.25,0.09-0.5,0.12-0.76
			c0.04-0.31,0.11-0.62,0.11-0.93c-0.04-1.65-0.1-3.29-0.14-4.94C3.88,7.62,3.83,6.48,3.86,5.34c0.01-0.5,0.07-1.15,0.38-1.44
			c0.28-0.26,0.93-0.15,1.42-0.17c0.25-0.01,0.51,0.08,0.77,0.08c1.62-0.01,3.25-0.07,4.87-0.05c1.04,0.01,2.08,0.17,3.13,0.2
			c0.8,0.02,1.61-0.08,2.41-0.1c0.29-0.01,0.58,0.11,0.87,0.1c1.25-0.05,2.5-0.18,3.75-0.17c2.62,0.03,5.23,0.18,7.85,0.19
			c1.41,0,2.82-0.25,4.24-0.27c1.07-0.01,2.14,0.27,3.21,0.28c1.81,0,3.62-0.17,5.43-0.16c2.24,0.01,4.47,0.14,6.71,0.22
			c0.13,0,0.27-0.08,0.4-0.09c1.19-0.09,2.38-0.22,3.57-0.25c1.53-0.03,3.07,0.04,4.61,0.05c0.67,0,1.34-0.08,2.01-0.04
			c0.49,0.03,0.97,0.29,1.45,0.26c1.66-0.08,3.32-0.31,4.98-0.34c1.49-0.03,2.98,0.13,4.47,0.22c0.43,0.03,0.87,0.22,1.29,0.19
			c1.17-0.08,2.34-0.33,3.51-0.33c2.93-0.01,5.85,0.06,8.78,0.13c0.45,0.01,0.9,0.18,1.35,0.17c1.42-0.04,2.84-0.12,4.26-0.21
			c0.64-0.04,1.29-0.13,1.93-0.2c0.14-0.01,0.33-0.07,0.41-0.01c0.66,0.53,1.27,0.13,1.96,0.07c1.96-0.18,3.94-0.09,5.91-0.05
			c1.14,0.02,2.28,0.21,3.42,0.23c1.15,0.01,2.3-0.16,3.44-0.14c1.9,0.04,3.81,0.17,5.71,0.26c0.36,0.02,0.72,0.05,1.07,0.04
			c1.56-0.06,3.11-0.11,4.67-0.2c0.65-0.04,1.31-0.23,1.96-0.2c1.1,0.05,2.2,0.29,3.3,0.32C125.53,4,127.7,4,129.87,3.99
			c0.49,0,0.99-0.19,1.48-0.17C133.17,3.88,134.97,3.98,136.64,4.05z"/>
	</g>
	<g>
		<g>
			<path class="st0" d="M18.04,66.85h2.56l1.61,12.17l1.93-12.17h2.28l1.91,12.17l1.63-12.17h2.48l-2.76,17.68h-2.56l-1.88-11.92
				l-1.88,11.92h-2.53L18.04,66.85z"/>
		</g>
		<g>
			<path class="st0" d="M35.08,66.85h2.48v7.57h3.49v-7.57h2.46v17.61h-2.46v-7.67h-3.49v7.67h-2.48V66.85z"/>
		</g>
		<g>
			<path class="st0" d="M46.98,66.85h2.46v17.61h-2.46V66.85z"/>
		</g>
		<g>
			<path class="st0" d="M54.58,69.19H52.2v-2.34h7.2v2.34h-2.36v15.27h-2.46V69.19z"/>
		</g>
		<g>
			<path class="st0" d="M62.08,66.85h6.5v2.34h-4.02v5.23h3.59v2.34h-3.59v5.36h4.09v2.34h-6.58V66.85z"/>
		</g>
		<g>
			<path class="st0" d="M76.86,66.85h2.48v15.27h3.59v2.34h-6.07V66.85z"/>
		</g>
		<g>
			<path class="st0" d="M84.54,76.03v-0.75c0-5.94,1.86-8.65,4.52-8.65c2.66,0,4.52,2.72,4.52,8.65v0.75c0,5.94-1.86,8.65-4.52,8.65
				C86.4,84.68,84.54,81.96,84.54,76.03z M91.07,76.03v-0.75c0-4.55-0.83-6.39-2.01-6.39c-1.18,0-2.01,1.84-2.01,6.39v0.75
				c0,4.55,0.83,6.39,2.01,6.39C90.24,82.42,91.07,80.58,91.07,76.03z"/>
		</g>
		<g>
			<path class="st0" d="M97.77,69.19h-2.38v-2.34h7.2v2.34h-2.36v15.27h-2.46V69.19z"/>
		</g>
		<g>
			<path class="st0" d="M105.22,79.5V66.85h2.46v12.88c0,1.84,0.7,2.67,1.73,2.67c1.05,0,1.76-0.83,1.76-2.67V66.85h2.43V79.5
				c0,3.47-1.73,5.18-4.19,5.18S105.22,82.97,105.22,79.5z"/>
		</g>
		<g>
			<path class="st0" d="M116.49,83.83v-2.62c1.1,0.68,2.01,1.03,2.86,1.03c1.05,0,1.86-0.6,1.86-1.81v-0.05
				c0-1.01-0.33-1.74-1.93-3.67c-2.16-2.59-2.94-3.7-2.94-5.68v-0.05c0-2.59,1.76-4.3,4.02-4.3c1.18,0,1.93,0.23,2.71,0.63v2.62
				c-0.95-0.58-1.63-0.86-2.43-0.86c-1,0-1.81,0.68-1.81,1.79v0.05c0,0.98,0.33,1.51,1.93,3.42c2.33,2.77,2.94,3.95,2.94,5.94v0.05
				c0,2.59-1.83,4.33-4.12,4.33C118.42,84.63,117.42,84.3,116.49,83.83z"/>
		</g>
	</g>
	<g>
		<g>
			<path class="st0" d="M52.34,39.49c0.3-0.2,0.37-0.6,0.17-0.9c-2.22-3.3-2.78-6.46-2.91-8.2c2.45,1.85,5.45,2.62,5.6,2.65
				c0.35,0.09,0.7-0.12,0.78-0.47c0.09-0.35-0.12-0.7-0.47-0.79c-0.04-0.01-3.82-0.98-6.12-3.28c-0.18-0.18-0.44-0.24-0.68-0.15
				c-0.24,0.08-0.4,0.3-0.42,0.55c-0.02,0.21-0.43,5.11,3.15,10.41C51.64,39.61,52.05,39.69,52.34,39.49z"/>
		</g>
		<g>
			<path class="st0" d="M69.04,47.03c0.31-0.18,0.42-0.56,0.25-0.88c-0.09-0.17-2.36-4.23-7.1-5.31c-3.26-0.74-5.51-0.55-7.49-0.38
				c-0.85,0.07-1.65,0.14-2.49,0.14c-2.74,0-5.47-1.33-5.5-1.34c-0.21-0.1-0.46-0.09-0.65,0.04c-0.19,0.13-0.3,0.35-0.28,0.58
				c0.01,0.08,0.63,7.95,7.39,9.71C58.5,50.99,64.16,49.81,69.04,47.03z M53.49,48.35c-4.5-1.17-5.87-5.42-6.27-7.45
				c1.14,0.43,3.03,1.01,4.98,1.01c0.9,0,1.73-0.07,2.6-0.15c1.98-0.17,4.03-0.34,7.1,0.35c3.18,0.72,5.14,3.06,5.9,4.13
				C63.07,48.77,58.01,49.52,53.49,48.35z"/>
		</g>
		<g>
			<path class="st0" d="M86.53,33.04c0.15-0.04,3.14-0.81,5.6-2.65c-0.13,1.74-0.69,4.9-2.91,8.2c-0.2,0.3-0.12,0.7,0.17,0.9
				c0.3,0.2,0.7,0.12,0.9-0.17c3.58-5.31,3.17-10.21,3.15-10.41c-0.02-0.25-0.19-0.46-0.42-0.55c-0.23-0.09-0.5-0.03-0.68,0.15
				c-2.29,2.29-6.08,3.27-6.12,3.28c-0.35,0.09-0.56,0.44-0.47,0.79C85.83,32.92,86.18,33.13,86.53,33.04z"/>
		</g>
		<g>
			<path class="st0" d="M65.23,28.48c0.36,0.04,0.67-0.22,0.71-0.57c0.33-2.99,3.68-6.72,4.92-8.01c1.16,1.25,4.22,4.82,4.71,8.04
				c0.05,0.35,0.38,0.6,0.74,0.54c0.35-0.05,0.59-0.38,0.54-0.74c-0.67-4.4-5.33-9.04-5.53-9.23c-0.25-0.25-0.65-0.25-0.9-0.01
				c-0.22,0.21-5.31,5.15-5.76,9.27C64.62,28.13,64.87,28.45,65.23,28.48z"/>
		</g>
		<g>
			<path class="st0" d="M73.93,32.14c-0.18,0.31-0.07,0.71,0.24,0.88c0.31,0.18,0.7,0.07,0.88-0.24c0.81-1.42,3.12-2.74,5.23-3.95
				c1.23-0.7,2.32-1.75,3.07-2.56c0.15,1.84,0.3,5.01-0.14,7.36c-0.61,3.26-1.83,5.08-1.84,5.1c-0.2,0.3-0.12,0.7,0.17,0.9
				c0.3,0.2,0.7,0.12,0.9-0.17c0.06-0.08,1.38-2.05,2.04-5.59c0.69-3.7,0.03-9.04,0.01-9.26c-0.03-0.26-0.22-0.48-0.48-0.55
				c-0.26-0.07-0.53,0.03-0.68,0.24c-0.02,0.02-1.71,2.28-3.76,3.45C77.39,29,74.91,30.41,73.93,32.14z"/>
		</g>
		<g>
			<path class="st0" d="M59.29,39.46c0.2,0.29,0.6,0.37,0.9,0.17c0.3-0.2,0.37-0.6,0.17-0.9c-0.01-0.02-1.23-1.85-1.84-5.1
				c-0.44-2.35-0.29-5.51-0.14-7.36c0.76,0.82,1.87,1.88,3.14,2.6c2.04,1.16,4.35,2.48,5.16,3.91c0.18,0.31,0.57,0.42,0.88,0.24
				c0.31-0.18,0.42-0.57,0.24-0.88c-0.98-1.74-3.46-3.15-5.71-4.43c-1.97-1.13-3.67-3.39-3.69-3.41c-0.16-0.21-0.43-0.31-0.68-0.24
				c-0.26,0.07-0.44,0.28-0.48,0.54c-0.03,0.23-0.69,5.56,0.01,9.26C57.91,37.42,59.24,39.38,59.29,39.46z"/>
		</g>
		<g>
			<path class="st0" d="M86.82,51.76c-0.01,0-1.06,0.29-2-0.65c-0.25-0.25-0.66-0.25-0.92,0c-0.25,0.25-0.25,0.66,0,0.92
				c0.66,0.66,1.36,0.93,1.95,1.02c-0.95,1.26-2.72,2.53-5.04,2.93c-2.9,0.49-5-0.1-6.81-1.91c-2.14-2.15-1.35-5.43-1.26-5.79
				c0.09-0.35-0.11-0.7-0.46-0.79c-0.34-0.09-0.7,0.11-0.79,0.46c-0.52,1.99-0.42,5.02,1.59,7.04c2.21,2.22,4.8,2.81,7.94,2.28
				c3.37-0.58,5.77-2.79,6.56-4.61c0.1-0.23,0.06-0.5-0.1-0.69C87.32,51.77,87.06,51.69,86.82,51.76z"/>
		</g>
		<g>
			<path class="st0" d="M95.67,39.31c-0.19-0.13-0.44-0.15-0.65-0.04c-0.03,0.01-2.75,1.34-5.5,1.34c-0.84,0-1.64-0.07-2.49-0.14
				c-1.98-0.17-4.23-0.36-7.49,0.38c-4.73,1.07-7,5.14-7.1,5.31c-0.17,0.31-0.06,0.7,0.25,0.88c4.89,2.79,10.55,3.95,15.87,2.57
				c6.76-1.76,7.39-9.63,7.39-9.71C95.98,39.66,95.87,39.44,95.67,39.31z M73.93,46.23c0.75-1.07,2.7-3.4,5.9-4.12
				c3.07-0.69,5.12-0.52,7.1-0.35c0.87,0.08,1.7,0.15,2.6,0.15c1.95,0,3.84-0.58,4.98-1.01c-0.4,2.03-1.77,6.28-6.27,7.45
				C83.72,49.52,78.66,48.77,73.93,46.23z"/>
		</g>
		<g>
			<path class="st0" d="M76.7,39.51c-0.1,0.43-0.16,0.57-0.18,0.61c-0.17,0.31-0.06,0.71,0.25,0.88c0.31,0.17,0.7,0.06,0.88-0.25
				c0.13-0.24,0.23-0.59,0.31-0.94c0.08-0.35-0.13-0.7-0.48-0.78C77.13,38.94,76.78,39.16,76.7,39.51z"/>
		</g>
		<g>
			<path class="st0" d="M69.4,47.47c-0.35,0.09-0.55,0.45-0.46,0.79c0.1,0.37,0.89,3.65-1.25,5.79c-1.81,1.81-3.9,2.4-6.76,1.91
				c-2.33-0.4-4.09-1.66-5.04-2.93c0.59-0.1,1.29-0.37,1.95-1.02c0.25-0.25,0.25-0.66,0-0.92c-0.25-0.25-0.66-0.25-0.91,0
				c-0.92,0.92-1.96,0.66-2,0.65c-0.24-0.07-0.5,0.01-0.66,0.2c-0.16,0.19-0.21,0.46-0.1,0.69c0.8,1.82,3.19,4.03,6.56,4.61
				c3.12,0.53,5.69-0.07,7.89-2.28c2.01-2.02,2.12-5.05,1.59-7.04C70.1,47.59,69.75,47.38,69.4,47.47z"/>
		</g>
		<g>
			<path class="st0" d="M78.1,36.74c0-2.07-3.64-3.15-7.24-3.15c-3.6,0-7.24,1.08-7.24,3.15c0,2.07,3.64,3.15,7.24,3.15
				C74.46,39.89,78.1,38.81,78.1,36.74z M70.87,38.6c-3.57,0-5.94-1.12-5.94-1.86c0-0.74,2.37-1.86,5.94-1.86
				c3.57,0,5.94,1.12,5.94,1.86C76.81,37.48,74.44,38.6,70.87,38.6z"/>
		</g>
		<g>
			<path class="st0" d="M64.96,41c0.31-0.17,0.42-0.57,0.25-0.88c-0.03-0.05-0.08-0.2-0.18-0.61c-0.08-0.35-0.44-0.56-0.78-0.48
				c-0.35,0.08-0.56,0.43-0.48,0.78c0.08,0.33,0.17,0.69,0.31,0.94C64.26,41.06,64.65,41.17,64.96,41z"/>
		</g>
	</g>
	<g>
		<g>
			<path class="st0" d="M39.42,100.18c-0.53-0.54-0.89-1.1-1.02-2.01c-0.04-0.19,0.51-0.58,0.7-0.58c0.17,0,0.32,0.03,0.44,0.27
				c0.1,0.19,0.17,0.45,0.28,0.63c0.07,0.15,0.2,0.38,0.26,0.45c0.28,0.39,0.47,0.6,0.71,0.6c0.12,0,0.25-0.06,0.42-0.17
				c0.39-0.27,0.59-0.64,0.59-1.04c0-0.23-0.08-0.48-0.22-0.7c-0.15-0.22-0.33-0.41-0.51-0.62c-0.41-0.48-0.75-1-0.98-1.59
				c-0.08-0.2-0.12-0.42-0.12-0.63c0-0.62,0.36-1.21,1.24-1.41c0.17-0.04,0.35-0.04,0.53-0.07c0.55-0.02,0.98,0.27,1.38,0.56
				c0.64,0.48,0.96,1.13,1.04,1.9v0.03c0,0.08-0.02,0.17-0.04,0.23c-0.04,0.14-0.22,0.24-0.35,0.2c-0.25-0.07-0.42-0.22-0.53-0.45
				c-0.1-0.21-0.18-0.45-0.29-0.65c-0.12-0.25-0.31-0.35-0.54-0.35c-0.11,0-0.23,0.02-0.35,0.07c-0.17,0.06-0.31,0.15-0.46,0.27
				c-0.18,0.14-0.28,0.3-0.28,0.46c0,0.08,0.01,0.15,0.06,0.24c0.17,0.29,0.35,0.56,0.56,0.81c0.36,0.41,0.64,0.86,0.87,1.35
				c0.1,0.23,0.17,0.52,0.17,0.83c0,0.51-0.19,1.06-0.66,1.47c-0.39,0.32-0.82,0.5-1.28,0.5c-0.13,0-0.27-0.01-0.4-0.04
				C40.2,100.65,39.7,100.49,39.42,100.18z"/>
		</g>
		<g>
			<path class="st0" d="M51.22,100.72c-0.18,0-0.32-0.08-0.43-0.23c-0.15-0.2-0.25-0.42-0.25-0.68c0-0.25,0.11-0.49,0.12-0.74
				c0-0.28,0-0.65-0.09-0.84c-0.29,0.18-0.39,0.33-0.56,0.53c-0.51,0.56-1.08,1.07-1.8,1.36c-0.19,0.08-0.39,0.11-0.56,0.11
				c-0.43,0-0.83-0.2-1.12-0.56c-0.27-0.35-0.43-0.74-0.45-1.2c0-0.09-0.01-0.18-0.01-0.33c0-0.07,0-0.17,0.01-0.28
				c0.01-0.21,0.1-0.64,0.22-1.05c0.23-0.83,0.5-1.65,0.92-2.41c0.15-0.27,0.34-0.42,0.56-0.42c0.18,0,0.36,0.09,0.55,0.29
				c0.17,0.19,0.26,0.38,0.26,0.59c0,0.12-0.03,0.27-0.11,0.41c-0.39,0.76-0.66,1.58-0.91,2.41c-0.08,0.29-0.14,0.58-0.19,0.87
				c0,0.02-0.01,0.04-0.01,0.07c0,0.07,0.03,0.14,0.09,0.2c0.03,0.02,0.07,0.03,0.12,0.03c0.06,0,0.13-0.02,0.17-0.04
				c0.57-0.39,1.07-0.86,1.48-1.44c0.7-0.96,1.4-1.91,2.12-2.87c0.15-0.21,0.33-0.32,0.52-0.32c0.13,0,0.27,0.06,0.41,0.15
				c0.35,0.25,0.56,0.55,0.56,0.95c0,0.08-0.01,0.15-0.02,0.24c-0.03,0.17-0.06,0.33-0.08,0.49l-1.06,4.04
				c-0.1,0.43-0.18,0.61-0.38,0.65C51.28,100.71,51.24,100.72,51.22,100.72z"/>
		</g>
		<g>
			<path class="st0" d="M54.58,100.06c0-0.09,0.02-0.19,0.06-0.29c0.32-0.97,0.65-1.95,1.03-2.91c0.24-0.63,0.56-1.24,0.87-1.86
				c0.28-0.51,0.63-1,1.09-1.35c0.49-0.39,1.02-0.63,1.58-0.63c0.3,0,0.6,0.07,0.91,0.2c0.8,0.37,1.2,1,1.16,1.93
				c0.06,0.86-0.36,1.54-1.06,2.07c-0.32,0.23-0.71,0.4-1.08,0.6c-0.18,0.08-0.36,0.15-0.56,0.22c-0.01,0.33,0.28,0.46,0.47,0.64
				c0.27,0.27,0.55,0.49,0.84,0.74c0.04,0.03,0.07,0.14,0.04,0.18c-0.04,0.08-0.14,0.17-0.22,0.2c-0.07,0.01-0.13,0.02-0.2,0.02
				c-0.24,0-0.46-0.09-0.67-0.24c-0.46-0.34-0.92-0.71-1.37-1.06c-0.1-0.07-0.17-0.12-0.24-0.2c-0.03-0.02-0.08-0.03-0.12-0.03
				c-0.1,0-0.19,0.06-0.22,0.14c-0.18,0.42-0.32,0.84-0.47,1.25c-0.1,0.25-0.2,0.51-0.34,0.75c-0.14,0.23-0.38,0.34-0.63,0.34
				c-0.12,0-0.24-0.02-0.36-0.08C54.74,100.54,54.58,100.33,54.58,100.06z M59.22,96.09c0.43-0.35,0.7-0.86,0.7-1.39
				c0-0.1-0.01-0.21-0.03-0.32c-0.02-0.18-0.17-0.3-0.31-0.3c-0.04,0-0.09,0.01-0.13,0.03c-0.43,0.17-0.77,0.46-1.01,0.85
				c-0.31,0.45-0.54,0.93-0.8,1.43c-0.02,0.06-0.04,0.13-0.04,0.21c0,0.07,0.01,0.12,0.04,0.15c0.03,0.06,0.13,0.08,0.23,0.08
				c0.04,0,0.09-0.01,0.12-0.02C58.42,96.58,58.85,96.38,59.22,96.09z"/>
		</g>
		<g>
			<path class="st0" d="M63,99.84c0-0.06,0.01-0.12,0.03-0.2c0.04-0.19,0.04-0.32,0.12-0.59c0.28-0.97,0.49-1.96,0.73-2.94
				c0.11-0.45,0.18-0.91,0.24-1.36c0.19-1.22,0.54-1.31,1.63-1.39c0.23-0.01,0.47-0.02,0.71-0.02c0.32,0,0.63,0.01,0.94,0.01
				c0.39,0.01,0.71,0.15,0.96,0.44c0.06,0.07,0.08,0.14,0.08,0.22c0,0.12-0.07,0.24-0.18,0.27c-0.26,0.09-0.51,0.13-0.76,0.17
				c-0.43,0.03-0.86,0.02-1.27,0.04c-0.28,0.02-0.42,0.15-0.49,0.41c-0.1,0.4-0.17,0.77-0.23,1.15c-0.04,0.21,0.11,0.39,0.34,0.39
				c0.28-0.01,0.55-0.01,0.82-0.01h0.34c0.29,0.01,0.51,0.12,0.71,0.34c0.07,0.07,0.09,0.14,0.09,0.21c0,0.11-0.07,0.21-0.19,0.24
				c-0.25,0.07-0.51,0.11-0.76,0.14c-0.36,0.06-0.71,0.03-1.08,0.08c-0.52,0.07-0.64,0.11-0.77,0.69c-0.17,0.71-0.46,1.36-0.71,2.05
				c-0.09,0.27-0.27,0.4-0.47,0.4c-0.14,0-0.3-0.06-0.46-0.17C63.15,100.26,63,100.09,63,99.84z"/>
		</g>
		<g>
			<path class="st0" d="M77.11,100.37c-0.42,0-0.86-0.07-1.23-0.24c-0.74-0.37-1.18-1.16-1.18-2.1c0-0.64,0.41-2.03,0.78-2.65
				c0.56-0.91,1.7-1.51,2.76-1.51c0.23,0,0.45,0.03,0.67,0.09c0.38,0.1,0.74,0.27,0.97,0.62c0.02,0.04,0.04,0.12,0.04,0.19
				c0,0.04-0.01,0.08-0.02,0.11c-0.03,0.09-0.14,0.18-0.22,0.19c-0.04,0-0.09,0.01-0.13,0.01c-0.13,0-0.27-0.02-0.4-0.03
				c-0.1-0.02-0.2-0.02-0.3-0.02c-0.4,0-0.76,0.14-1.1,0.4c-0.97,0.74-1.41,1.78-1.53,2.96v0.07c0,0.08,0.01,0.17,0.02,0.25
				c0.03,0.39,0.31,0.68,0.67,0.68c0.06,0,0.11-0.01,0.17-0.02c0.14-0.02,0.3-0.06,0.43-0.1c0.12-0.02,0.28-0.07,0.38-0.09
				c0.06-0.01,0.1-0.01,0.14-0.01c0.3,0,0.52,0.14,0.61,0.41c0.01,0.04,0.02,0.09,0.02,0.13c0,0.19-0.17,0.29-0.41,0.46
				c-0.09,0.07-0.19,0.1-0.29,0.12C77.72,100.34,77.42,100.37,77.11,100.37z"/>
		</g>
		<g>
			<path class="st0" d="M81.56,99.83c0-0.1,0.01-0.21,0.04-0.33c0.02-0.11,0.08-0.22,0.12-0.34c0.65-1.64,1.4-3.25,2.09-4.89
				c0.11-0.28,0.29-0.54,0.45-0.79c0.1-0.13,0.25-0.2,0.42-0.2c0.11,0,0.23,0.03,0.33,0.09c0.35,0.22,0.62,0.52,0.71,0.93
				c0.08,0.35,0.14,0.72,0.18,1.07c0.09,1.02,0.14,2.03,0.2,2.8l-0.02,1.96c-0.01,0.14-0.19,0.19-0.34,0.19
				c-0.14,0-0.3-0.04-0.41-0.19c-0.08-0.12-0.1-0.61-0.12-0.75c-0.08-0.38-0.31-0.5-0.65-0.49h-0.1c-0.09,0-0.18-0.01-0.28-0.02
				c-0.23-0.04-0.39-0.08-0.5-0.08c-0.25,0-0.31,0.17-0.54,0.72c-0.14,0.32-0.24,0.63-0.38,0.95c-0.08,0.15-0.2,0.23-0.35,0.23
				c-0.07,0-0.12-0.01-0.19-0.03C81.78,100.48,81.56,100.21,81.56,99.83z M85.04,97.74c0.02-0.23,0.02-0.23,0.02-0.37
				c-0.06-0.54-0.12-0.96-0.18-1.51c-0.01-0.1-0.06-0.23-0.1-0.25h-0.01c-0.04,0-0.11,0.03-0.12,0.08c-0.27,0.68-0.55,1.35-0.8,2.03
				c-0.01,0.02-0.01,0.04-0.01,0.07c0,0.1,0.08,0.19,0.19,0.2c0.23,0.03,0.49,0.06,0.72,0.06C84.92,98.02,85.03,97.91,85.04,97.74z"
				/>
		</g>
		<g>
			<path class="st0" d="M88.1,99.46c-0.01-0.06-0.01-0.12-0.01-0.19c0-0.14,0.02-0.3,0.07-0.44c0.35-1.28,0.59-2.6,1.03-3.86
				c0.08-0.2,0.14-0.41,0.23-0.59c0.19-0.4,0.47-0.58,0.87-0.58c0.5,0,0.86,0.2,0.95,0.7c0.12,0.65,0.21,1.32,0.32,1.98
				c0.07,0.31,0.12,0.62,0.18,0.93c0.04,0.14,0.13,0.22,0.23,0.22c0.08,0,0.15-0.04,0.22-0.12c0.49-0.59,0.95-1.16,1.41-1.77
				c0.31-0.37,0.56-0.77,0.87-1.15c0.18-0.22,0.43-0.33,0.68-0.33c0.19,0,0.39,0.06,0.55,0.18c0.2,0.15,0.28,0.4,0.25,0.65
				c-0.01,1.04-0.06,1.93-0.09,2.44c-0.03,0.5-0.06,1-0.1,1.46c-0.01,0.32-0.27,0.53-0.53,0.53c-0.02,0-0.06,0-0.09-0.01
				c-0.49-0.08-0.7-0.31-0.71-0.82c-0.01-0.18-0.01-0.34-0.01-0.52c0-0.35,0.01-0.71,0.01-1.05c0-0.07-0.06-0.14-0.1-0.17
				c-0.02-0.01-0.06-0.01-0.08-0.01c-0.04,0-0.09,0.01-0.11,0.03c-0.12,0.12-0.21,0.25-0.32,0.4l-1.06,1.25
				c-0.24,0.28-0.53,0.41-0.86,0.5c-0.09,0.01-0.17,0.02-0.24,0.02c-0.47,0-0.89-0.28-1.12-0.77c-0.12-0.29-0.15-0.61-0.28-0.9
				c-0.02-0.06-0.04-0.09-0.15-0.1h-0.02c-0.07,0-0.12,0.03-0.13,0.08l-0.07,0.31c-0.17,0.56-0.31,1.15-0.5,1.72
				c-0.1,0.33-0.35,0.52-0.64,0.52c-0.15,0-0.33-0.07-0.49-0.19C88.21,99.72,88.11,99.58,88.1,99.46z"/>
		</g>
		<g>
			<path class="st0" d="M97.84,99.99c-0.01-0.27,0.01-0.61,0.08-0.87c0.24-1.12,0.5-2.16,0.76-3.27c0.12-0.54,0.36-1.05,0.65-1.53
				c0.4-0.62,0.93-0.94,1.57-0.94c0.21,0,0.43,0.03,0.65,0.1c0.27,0.08,0.52,0.18,0.77,0.3c0.63,0.31,0.97,0.81,1,1.52
				c0.01,0.11,0.01,0.31,0.01,0.44c-0.03,0.63-0.26,1.23-0.86,1.7c-0.6,0.45-1.29,0.6-2.01,0.71l-0.65,0.1
				c-0.18,0.03-0.28,0.15-0.31,0.35c-0.12,0.5-0.23,1.02-0.35,1.53c-0.1,0.35-0.28,0.51-0.54,0.51
				C98.21,100.65,97.85,100.36,97.84,99.99z M101.5,96.67c0.38-0.21,0.63-0.81,0.63-1.28c0-0.15-0.02-0.29-0.08-0.4
				c-0.12-0.25-0.31-0.39-0.64-0.38c-0.38-0.01-0.62,0.18-0.8,0.44c-0.41,0.61-0.65,1.26-0.77,1.95v0.01c0,0.1,0.11,0.19,0.22,0.18
				C100.6,97.14,101.05,96.93,101.5,96.67z"/>
		</g>
	</g>
</g>
</svg>
