<svg id="Lager_1" data-name="Lager 1" xmlns="http://www.w3.org/2000/svg" viewBox="0 0 467.54 76"><defs><style>.cls-1{isolation:isolate;}.cls-2{fill:#fff;}</style></defs><g id="The_secret_garden" data-name="The secret garden" class="cls-1"><g class="cls-1"><path class="cls-2" d="M19.7,70.19q-3.42,0-4.72-1.52a5.79,5.79,0,0,1-1.29-3.88,19,19,0,0,1,.91-5.24c.61-2,1.25-4,1.9-5.85.87-2.48,1.9-5.4,3.12-8.74s2.52-6.84,3.91-10.49,2.82-7.24,4.26-10.79S30.64,16.91,32,14c-3.5.05-6.42.12-8.78.22s-4.47.24-6.35.42-3.92.47-6.15.88a5,5,0,0,1,2.66-4,18,18,0,0,1,6.53-2,63.78,63.78,0,0,1,9.35-.61,93.89,93.89,0,0,1,9.39.42l7.79.79q3.64.39,7.29.46a11.7,11.7,0,0,1-5.92,3,39.1,39.1,0,0,1-7.07.61c-.56,0-1.14,0-1.75,0l-1.82,0H35.35q-2.43,6.07-5.58,15.35t-6.35,20.9q-1.07,4-1.94,7.22t-1.37,5.85a28.22,28.22,0,0,0-.49,5.17v.83A4.28,4.28,0,0,0,19.7,70.19Z" transform="translate(-10.73 -8.86)"/><path class="cls-2" d="M43.26,66.47c-1,0-1.73-.82-2.28-2.44a16.66,16.66,0,0,1-.84-5.47,37.06,37.06,0,0,1,1.22-8.66,104.92,104.92,0,0,1,3.19-10.57C45.87,35.64,47.35,32,49,28.47a107.56,107.56,0,0,1,5.06-9.66,46.9,46.9,0,0,1,4.86-6.91c1.52-1.72,2.84-2.59,4-2.59.92,0,1.56.55,1.94,1.64a9.55,9.55,0,0,1,.57,3.15,17.65,17.65,0,0,1-1,5.17,48,48,0,0,1-2.62,6.5,58.87,58.87,0,0,1-3.88,6.8,46.72,46.72,0,0,1-4.78,6.12,24.69,24.69,0,0,1-5.25,4.37A31.94,31.94,0,0,0,46.33,48a48.35,48.35,0,0,0-.95,5.36,41.38,41.38,0,0,0-.3,4.67c0,.56,0,1,0,1.44s.06.79.11,1.14c.71-2.07,1.48-4.09,2.32-6a49.23,49.23,0,0,1,2.7-5.39,28,28,0,0,1,3.08-4.34A13.35,13.35,0,0,1,56.78,42a7.75,7.75,0,0,1,3.88-1A5.13,5.13,0,0,1,64,42a5.83,5.83,0,0,1,1.83,2.58,9.35,9.35,0,0,1,.57,3.23,13.35,13.35,0,0,1-.8,4.56c-.53,1.47-1.08,2.89-1.64,4.26a10.53,10.53,0,0,0-.83,3.95,3.13,3.13,0,0,0,.64,2.2,2.15,2.15,0,0,0,1.64.69,6.65,6.65,0,0,0,3.91-1.68,23.75,23.75,0,0,0,4.3-4.44,32.74,32.74,0,0,0,3.64-6l1,.91a31.52,31.52,0,0,1-3.87,6.72,19.46,19.46,0,0,1-5,4.75,10.38,10.38,0,0,1-5.7,1.75A5.17,5.17,0,0,1,59.79,64a4.69,4.69,0,0,1-1.33-3.42,12.44,12.44,0,0,1,.6-3.57c.41-1.31.8-2.66,1.18-4a14.45,14.45,0,0,0,.57-3.87A3.9,3.9,0,0,0,60,46.33a2.81,2.81,0,0,0-2.06-.84A4.76,4.76,0,0,0,54.5,47a16.18,16.18,0,0,0-2.77,3.91c-.84,1.6-1.62,3.28-2.36,5.06L47.28,61a24.49,24.49,0,0,1-2,3.92C44.65,66,44,66.47,43.26,66.47Zm5.62-26.38A24.33,24.33,0,0,0,53,35.84a53.34,53.34,0,0,0,3.76-5.51C58,28.38,59,26.46,59.9,24.59A43.25,43.25,0,0,0,62,19.5a12.3,12.3,0,0,0,.76-3.42,1,1,0,0,0-.08-.5.27.27,0,0,0-.23-.11c-.35,0-1.07.7-2.16,2.09a57.77,57.77,0,0,0-3.76,5.59,78.62,78.62,0,0,0-4.18,7.9A71.84,71.84,0,0,0,48.88,40.09Z" transform="translate(-10.73 -8.86)"/><path class="cls-2" d="M84.07,66.92q-4.63,0-7-2.54a9,9,0,0,1-2.31-6.27,17.6,17.6,0,0,1,1.71-7.22,29.83,29.83,0,0,1,4.56-7.15,26.1,26.1,0,0,1,6.27-5.43,12.84,12.84,0,0,1,6.76-2.09,6,6,0,0,1,3.23.91c1,.61,1.48,1.85,1.48,3.72a9.59,9.59,0,0,1-1.71,5.44,17.62,17.62,0,0,1-4.48,4.52A27,27,0,0,1,86.54,54,24.86,24.86,0,0,1,80,55.6c-.1.5-.17,1-.22,1.44a10,10,0,0,0,.19,3.57,5.59,5.59,0,0,0,.95,2.09,4.47,4.47,0,0,0,1.86,1.49,7.16,7.16,0,0,0,2.92.53,12.68,12.68,0,0,0,6.46-1.86A24.88,24.88,0,0,0,98.05,58a31.91,31.91,0,0,0,4.64-6.68l.91.68a28.25,28.25,0,0,1-5.21,7.9,24.67,24.67,0,0,1-6.84,5.21A16.42,16.42,0,0,1,84.07,66.92ZM80.34,54.15a32.08,32.08,0,0,0,4.64-2A34.65,34.65,0,0,0,90,49a18.79,18.79,0,0,0,4-4,7.92,7.92,0,0,0,1.56-4.64A2.26,2.26,0,0,0,95.16,39a1.47,1.47,0,0,0-1.29-.46A6.91,6.91,0,0,0,90,40a19.88,19.88,0,0,0-4,3.69,33.45,33.45,0,0,0-3.42,5A25.65,25.65,0,0,0,80.34,54.15Z" transform="translate(-10.73 -8.86)"/><path class="cls-2" d="M128.91,67.45a9.35,9.35,0,0,1-5.67-1.55,8.56,8.56,0,0,1-3-3.84,12.71,12.71,0,0,1-.87-4.56A8.13,8.13,0,0,1,120,54a4.77,4.77,0,0,1,1.49-1.82,7.52,7.52,0,0,1,1.67-.91,3.41,3.41,0,0,0,1.1-.61,50.9,50.9,0,0,0,4.18-5.25,40.28,40.28,0,0,0,3.34-5.77v-.91a6.45,6.45,0,0,1,1-4,2.65,2.65,0,0,1,2-1.18,1.25,1.25,0,0,1,.91.3,1,1,0,0,1,.3.69,5.27,5.27,0,0,1-.22,1.21,8,8,0,0,0-.23,2.13,17,17,0,0,0,1,5.43c.65,2,1.31,4,2,6.16a22.84,22.84,0,0,1,1,6.73,17.55,17.55,0,0,1-.11,1.93,11.82,11.82,0,0,1-.35,1.79,10.64,10.64,0,0,0,5-2.39,19.81,19.81,0,0,0,4.56-6.2l.68.76a12.91,12.91,0,0,1-4.33,6.35,14.05,14.05,0,0,1-6.31,2.7,8.88,8.88,0,0,1-3.83,4.78A11.49,11.49,0,0,1,128.91,67.45Zm.15-2.66a7,7,0,0,0,2.43-.6c1-.41,1.8-1.45,2.36-3.12a13.25,13.25,0,0,1-5.67-2.51,15.48,15.48,0,0,1-3.68-3.8c-1.12.05-1.67.94-1.67,2.66a8.6,8.6,0,0,0,1.63,5.06A5.31,5.31,0,0,0,129.06,64.79Zm5.17-4.94a14.87,14.87,0,0,0,.22-1.59c.05-.56.08-1.22.08-2a29.55,29.55,0,0,0-.87-7.1c-.59-2.36-1.08-4.58-1.49-6.65q-1.74,2.88-3.68,5.51a39.37,39.37,0,0,1-3.69,4.37A14.25,14.25,0,0,0,128.34,57,12.74,12.74,0,0,0,134.23,59.85Z" transform="translate(-10.73 -8.86)"/><path class="cls-2" d="M155.35,66.92q-4.64,0-6.95-2.54a9,9,0,0,1-2.32-6.27,17.6,17.6,0,0,1,1.71-7.22,29.83,29.83,0,0,1,4.56-7.15,26.1,26.1,0,0,1,6.27-5.43,12.87,12.87,0,0,1,6.77-2.09,6,6,0,0,1,3.23.91c1,.61,1.48,1.85,1.48,3.72a9.59,9.59,0,0,1-1.71,5.44,17.67,17.67,0,0,1-4.49,4.52A26.76,26.76,0,0,1,157.82,54a24.7,24.7,0,0,1-6.57,1.56c-.1.5-.18,1-.23,1.44a11.91,11.91,0,0,0-.07,1.29,9.85,9.85,0,0,0,.26,2.28,5.92,5.92,0,0,0,.95,2.09A4.6,4.6,0,0,0,154,64.19a7.21,7.21,0,0,0,2.93.53,12.71,12.71,0,0,0,6.46-1.86A25.07,25.07,0,0,0,169.34,58,31.87,31.87,0,0,0,174,51.27l.92.68a28.47,28.47,0,0,1-5.21,7.9,24.67,24.67,0,0,1-6.84,5.21A16.46,16.46,0,0,1,155.35,66.92Zm-3.72-12.77a32.57,32.57,0,0,0,4.64-2,34,34,0,0,0,5-3.15,18.61,18.61,0,0,0,4-4,8,8,0,0,0,1.55-4.64,2.34,2.34,0,0,0-.3-1.29,1.47,1.47,0,0,0-1.29-.46A6.94,6.94,0,0,0,161.28,40a19.84,19.84,0,0,0-3.95,3.69,32,32,0,0,0-3.42,5A25.65,25.65,0,0,0,151.63,54.15Z" transform="translate(-10.73 -8.86)"/><path class="cls-2" d="M180.58,67.83a8.27,8.27,0,0,1-6.08-2.43q-2.43-2.43-2.43-7.29a19.26,19.26,0,0,1,1.49-7.41,24.09,24.09,0,0,1,3.91-6.5,20.24,20.24,0,0,1,5.4-4.6,11.61,11.61,0,0,1,5.85-1.71q3.1,0,4.25,1.82a7.1,7.1,0,0,1,1.14,3.8,7.29,7.29,0,0,1-1,3.88,3.15,3.15,0,0,1-2.78,1.67,2.74,2.74,0,0,1-2.2-1.14,4.89,4.89,0,0,0,2-2.47,8.6,8.6,0,0,0,.84-3.53,2.45,2.45,0,0,0-.34-1.41,1.52,1.52,0,0,0-1.33-.49A6.67,6.67,0,0,0,185,41.84a21.16,21.16,0,0,0-4,4.71,31.69,31.69,0,0,0-3,6.08,17.5,17.5,0,0,0-1.17,6A8.52,8.52,0,0,0,177.93,63c.76,1.32,2.22,2,4.4,2a12.68,12.68,0,0,0,6.12-1.68,20.42,20.42,0,0,0,5.74-4.78,24.91,24.91,0,0,0,4.26-7.3l1,.76a28.36,28.36,0,0,1-4.78,8.17A24.5,24.5,0,0,1,188,65.78,14.9,14.9,0,0,1,180.58,67.83Z" transform="translate(-10.73 -8.86)"/><path class="cls-2" d="M210.15,65.55a5.79,5.79,0,0,1-4.07-1.36,4.69,4.69,0,0,1-1.48-3.58,12.21,12.21,0,0,1,1.07-4.78c.7-1.68,1.4-3.34,2.08-5a11.68,11.68,0,0,0,1-4.45,4.47,4.47,0,0,0-1.4-3.61,35.17,35.17,0,0,0-2.86-2.16q-1.74,4.48-3.64,8.51t-3.12,6.08l-.68-1.29q1.06-2,2.77-5.78t3.38-8.66a2.53,2.53,0,0,1-.76-1.83,5.32,5.32,0,0,1,1.3-3.72c.86-1,1.49-1.45,1.9-1.45a.82.82,0,0,1,.94.73,7.17,7.17,0,0,1,.12,1.1,5.34,5.34,0,0,1-.42,1.48,6.22,6.22,0,0,0-.42,1.33,2.43,2.43,0,0,0,1.18,1.94c.79.58,1.68,1.24,2.7,2a13.33,13.33,0,0,1,2.7,2.66,6.47,6.47,0,0,1,1.18,4,12.24,12.24,0,0,1-1,4.64c-.63,1.57-1.26,3.07-1.9,4.48a9.4,9.4,0,0,0-.94,3.73,2,2,0,0,0,.68,1.82,2.75,2.75,0,0,0,1.59.46,7.42,7.42,0,0,0,3.77-1.14,20.44,20.44,0,0,0,3.76-2.89,30.53,30.53,0,0,0,3.27-3.69A16.5,16.5,0,0,0,225,51.49l1,.76a28.54,28.54,0,0,1-3.95,6.27,23.68,23.68,0,0,1-5.58,5.06A11.6,11.6,0,0,1,210.15,65.55Z" transform="translate(-10.73 -8.86)"/><path class="cls-2" d="M231.66,66.92q-4.64,0-7-2.54a9,9,0,0,1-2.32-6.27,17.6,17.6,0,0,1,1.71-7.22,29.83,29.83,0,0,1,4.56-7.15,26.1,26.1,0,0,1,6.27-5.43,12.87,12.87,0,0,1,6.77-2.09,6,6,0,0,1,3.23.91c1,.61,1.48,1.85,1.48,3.72a9.59,9.59,0,0,1-1.71,5.44,17.62,17.62,0,0,1-4.48,4.52A27,27,0,0,1,234.13,54a24.86,24.86,0,0,1-6.58,1.56c-.1.5-.18,1-.23,1.44a11.91,11.91,0,0,0-.07,1.29,10.42,10.42,0,0,0,.26,2.28,5.92,5.92,0,0,0,1,2.09,4.56,4.56,0,0,0,1.87,1.49,7.16,7.16,0,0,0,2.92.53,12.71,12.71,0,0,0,6.46-1.86A24.88,24.88,0,0,0,245.64,58a32.29,32.29,0,0,0,4.64-6.68l.91.68a28.47,28.47,0,0,1-5.21,7.9,24.67,24.67,0,0,1-6.84,5.21A16.45,16.45,0,0,1,231.66,66.92Zm-3.73-12.77a32.08,32.08,0,0,0,4.64-2,34.65,34.65,0,0,0,5-3.15,18.79,18.79,0,0,0,3.95-4,7.92,7.92,0,0,0,1.56-4.64,2.34,2.34,0,0,0-.31-1.29,1.47,1.47,0,0,0-1.29-.46A6.94,6.94,0,0,0,237.58,40a20.12,20.12,0,0,0-4,3.69,33.45,33.45,0,0,0-3.42,5A25.65,25.65,0,0,0,227.93,54.15Z" transform="translate(-10.73 -8.86)"/><path class="cls-2" d="M255.22,67.07a6.48,6.48,0,0,1-5-1.9,8,8,0,0,1-1.75-5.62,34.24,34.24,0,0,1,1.26-8.25,102.19,102.19,0,0,1,3.15-10.07c-.51-.1-1-.19-1.44-.26a7.5,7.5,0,0,1-1.3-.34V39.26l1.45.15,1.9.15q1.59-4.1,3.42-7.94c1.21-2.56,2.42-4.84,3.61-6.84A29.49,29.49,0,0,1,263.92,20c1.09-1.19,2-1.78,2.77-1.78a1.69,1.69,0,0,1,1.1.41,1.56,1.56,0,0,1,.5,1.26,10.59,10.59,0,0,1-1.6,4.22c-1.06,1.95-2.38,4.26-3.95,7s-3.09,5.6-4.56,8.74H261c1.67,0,3.43,0,5.28-.08s3.71-.17,5.59-.38V40.7c-2.79.31-5.28.53-7.49.69s-4.16.22-5.89.22h-1.14a68,68,0,0,0-3,8.29,30.14,30.14,0,0,0-1.22,8.28,8.39,8.39,0,0,0,1,4.68,3.73,3.73,0,0,0,3.27,1.4c2.63,0,5.22-1.16,7.75-3.49a31,31,0,0,0,6.69-9.5l1,.76a32.54,32.54,0,0,1-4.6,7.67,23,23,0,0,1-6.12,5.4A13.47,13.47,0,0,1,255.22,67.07Z" transform="translate(-10.73 -8.86)"/><path class="cls-2" d="M293.06,84.86a4.92,4.92,0,0,1-3-1,4,4,0,0,1-1.37-3.38,7,7,0,0,1,1.41-4.22,16.76,16.76,0,0,1,3.61-3.57,35.89,35.89,0,0,1,4.83-3l5-2.59q1.06-2.66,2-5.73c.63-2.06,1.25-4.32,1.86-6.81a38.07,38.07,0,0,1-6,7A9.64,9.64,0,0,1,295,64.26a4.9,4.9,0,0,1-4.22-2.05,8.93,8.93,0,0,1-1.48-5.32,15.57,15.57,0,0,1,1.94-7.52,22.74,22.74,0,0,1,5.05-6.31,26.15,26.15,0,0,1,6.62-4.3,16.25,16.25,0,0,1,6.53-1.55,5.35,5.35,0,0,1,3.16.72,2.11,2.11,0,0,1,.95,1.71,1.45,1.45,0,0,1-.38,1.06,2.51,2.51,0,0,1-.54.46,2.1,2.1,0,0,0-1.13-.88,6.12,6.12,0,0,0-1.91-.26,10.58,10.58,0,0,0-5.73,1.75,18.89,18.89,0,0,0-4.9,4.48,25.8,25.8,0,0,0-3.39,5.66,13.84,13.84,0,0,0-1.25,5.36A4.51,4.51,0,0,0,295,60a2.3,2.3,0,0,0,1.94,1q2.21,0,5.28-2.92a45.48,45.48,0,0,0,6-7.11c.15-.71.29-1.34.42-1.9s.29-1.26.49-2.13a8.21,8.21,0,0,1,1.1-2.47,3,3,0,0,1,2.77-1.4,6.34,6.34,0,0,1,.76,0,3.58,3.58,0,0,1,.84.19,24.64,24.64,0,0,1-.72,4.44c-.48,2.16-1.17,4.66-2.05,7.53s-1.92,5.81-3.08,8.85a26.17,26.17,0,0,0,4.9-3.12A27,27,0,0,0,318,56.62a20.58,20.58,0,0,0,3.12-5.35l1,.76a17.76,17.76,0,0,1-3.64,6.23,33.33,33.33,0,0,1-5.36,4.86,35.63,35.63,0,0,1-5.21,3.19,91,91,0,0,1-4.48,9.31,29.82,29.82,0,0,1-4.9,6.73A7.7,7.7,0,0,1,293.06,84.86Zm-.23-2.43c1,0,2.4-1,4.15-3s3.63-5.43,5.66-10.29q-3,1.52-5.66,3.15a20.49,20.49,0,0,0-4.3,3.46,5.84,5.84,0,0,0-1.67,4,3.2,3.2,0,0,0,.53,1.93A1.57,1.57,0,0,0,292.83,82.43Z" transform="translate(-10.73 -8.86)"/><path class="cls-2" d="M323.39,67.15a5.56,5.56,0,0,1-4-1.56,6.28,6.28,0,0,1-1.64-4.75A16.51,16.51,0,0,1,319,55a29.76,29.76,0,0,1,3.34-6.23,35.11,35.11,0,0,1,4.83-5.62,24.24,24.24,0,0,1,5.7-4.07,13.15,13.15,0,0,1,6-1.52,7.7,7.7,0,0,1,4.94,1.56,5,5,0,0,1,2,4.14,2.86,2.86,0,0,1-1,2.58,4.73,4.73,0,0,1-2.69.69c.1-.41.19-.85.26-1.33a8.19,8.19,0,0,0,.12-1.33,5.24,5.24,0,0,0-.84-3,3.21,3.21,0,0,0-2.89-1.26A7.81,7.81,0,0,0,334.33,41a20.5,20.5,0,0,0-4.26,4,34.49,34.49,0,0,0-3.64,5.35,32.63,32.63,0,0,0-2.51,5.7,16.47,16.47,0,0,0-.91,5c0,2,.68,3,2.05,3a6.3,6.3,0,0,0,3.8-1.63,31.14,31.14,0,0,0,4.22-4.18q2.16-2.55,4.14-5.28t3.49-5c.21-.3.33-.45.38-.45a8.87,8.87,0,0,1,1.18.3,4.34,4.34,0,0,1,1.26.61,1.17,1.17,0,0,1,.53,1,4.2,4.2,0,0,1-.68,1.86q-.69,1.17-1.53,2.7c-.55,1-1.06,2-1.52,3.07a7.43,7.43,0,0,0-.68,2.93,4.53,4.53,0,0,0,.61,2.24,2.06,2.06,0,0,0,2,1.1q2.06,0,5.4-3a36.17,36.17,0,0,0,6.76-9l.76.76a27.13,27.13,0,0,1-4.1,7.22,21.36,21.36,0,0,1-5.36,4.86,10.7,10.7,0,0,1-5.58,1.75A5,5,0,0,1,336,64.19a5.78,5.78,0,0,1-1.33-3.65,8,8,0,0,1,.08-1c.05-.38.1-.77.15-1.18a37.76,37.76,0,0,1-6,6.62A8.72,8.72,0,0,1,323.39,67.15Z" transform="translate(-10.73 -8.86)"/><path class="cls-2" d="M366,65.55A5.74,5.74,0,0,1,362,64.19a4.66,4.66,0,0,1-1.49-3.58,12.21,12.21,0,0,1,1.07-4.78c.71-1.68,1.4-3.34,2.09-5a11.83,11.83,0,0,0,1-4.45,4.47,4.47,0,0,0-1.4-3.61c-.94-.78-1.89-1.51-2.85-2.16q-1.75,4.48-3.65,8.51t-3.12,6.08L353,53.93q1.07-2,2.77-5.78t3.39-8.66a2.49,2.49,0,0,1-.76-1.83,5.36,5.36,0,0,1,1.29-3.72c.86-1,1.49-1.45,1.9-1.45a.83.83,0,0,1,.95.73,8.34,8.34,0,0,1,.11,1.1,5.34,5.34,0,0,1-.42,1.48,5.91,5.91,0,0,0-.41,1.33,2.45,2.45,0,0,0,1.17,1.94l2.7,2a13.33,13.33,0,0,1,2.7,2.66,6.47,6.47,0,0,1,1.18,4,12.42,12.42,0,0,1-.95,4.64c-.64,1.57-1.27,3.07-1.9,4.48a9.27,9.27,0,0,0-.95,3.73,2.06,2.06,0,0,0,.68,1.82,2.78,2.78,0,0,0,1.6.46,7.42,7.42,0,0,0,3.76-1.14,20.11,20.11,0,0,0,3.76-2.89,28.9,28.9,0,0,0,3.27-3.69,17,17,0,0,0,2.13-3.61l1,.76a29,29,0,0,1-4,6.27,23.68,23.68,0,0,1-5.58,5.06A11.57,11.57,0,0,1,366,65.55Z" transform="translate(-10.73 -8.86)"/><path class="cls-2" d="M383.8,65.86a6,6,0,0,1-2.62-.65,5.3,5.3,0,0,1-2.2-2.09,7,7,0,0,1-.87-3.65,15.66,15.66,0,0,1,1.21-5.62,32.16,32.16,0,0,1,3.27-6.19A35.68,35.68,0,0,1,387.3,42a24.07,24.07,0,0,1,5.55-4.18,11.9,11.9,0,0,1,5.7-1.56,4.51,4.51,0,0,1,2.47.57,2,2,0,0,1,.87,1.78,4.27,4.27,0,0,1,0,.54c0,.15-.07.33-.12.53a2.11,2.11,0,0,0-1.1-.88,5.42,5.42,0,0,0-1.79-.26A8.71,8.71,0,0,0,394.1,40a17.93,17.93,0,0,0-4.25,3.88A31,31,0,0,0,386.46,49a31.44,31.44,0,0,0-2.24,5.28,15,15,0,0,0-.8,4.29,4.29,4.29,0,0,0,.76,2.66,2.39,2.39,0,0,0,2,1q2.05,0,5-2.58a35.55,35.55,0,0,0,6-7.3,60.51,60.51,0,0,0,5.47-11q1.67-4.41,3.46-9c1.18-3,2.39-6,3.6-8.78s2.4-5.32,3.54-7.52a31.79,31.79,0,0,1,3.27-5.24c1-1.3,2-1.94,2.77-1.94a1.41,1.41,0,0,1,1.07.49,1.8,1.8,0,0,1,.45,1.26,12.79,12.79,0,0,1-1.25,4.14q-1.26,2.92-3.27,7T412,30.59q-2.21,4.8-4.22,9.73a85.1,85.1,0,0,0-3.27,9.54,32.45,32.45,0,0,0-1.25,8.4,16.58,16.58,0,0,0,.23,3.19c.15.71.66,1.06,1.52,1.06a7.19,7.19,0,0,0,3.72-1.36A20,20,0,0,0,413,57.27a25.5,25.5,0,0,0,3.72-6l.91.68a24.39,24.39,0,0,1-3.95,6.95,22,22,0,0,1-5.36,4.87,10.25,10.25,0,0,1-5.43,1.78A4.16,4.16,0,0,1,399,63.69a7.39,7.39,0,0,1-1.1-3.84,20.64,20.64,0,0,1,.37-3.42c.26-1.41.61-3,1.07-4.71A55.66,55.66,0,0,1,394.14,59,28.39,28.39,0,0,1,388.78,64,8.76,8.76,0,0,1,383.8,65.86Z" transform="translate(-10.73 -8.86)"/><path class="cls-2" d="M423.48,66.92c-3.1,0-5.41-.85-7-2.54a9,9,0,0,1-2.32-6.27,17.6,17.6,0,0,1,1.71-7.22,29.83,29.83,0,0,1,4.56-7.15,26.1,26.1,0,0,1,6.27-5.43,12.87,12.87,0,0,1,6.77-2.09,6,6,0,0,1,3.23.91c1,.61,1.48,1.85,1.48,3.72a9.59,9.59,0,0,1-1.71,5.44A17.62,17.62,0,0,1,432,50.81,27,27,0,0,1,426,54a24.86,24.86,0,0,1-6.58,1.56c-.1.5-.18,1-.23,1.44a11.91,11.91,0,0,0-.07,1.29,10.42,10.42,0,0,0,.26,2.28,5.92,5.92,0,0,0,.95,2.09,4.56,4.56,0,0,0,1.87,1.49,7.16,7.16,0,0,0,2.92.53,12.71,12.71,0,0,0,6.46-1.86A24.88,24.88,0,0,0,437.46,58a32.29,32.29,0,0,0,4.64-6.68L443,52a28.47,28.47,0,0,1-5.21,7.9A24.67,24.67,0,0,1,431,65.06,16.45,16.45,0,0,1,423.48,66.92Zm-3.73-12.77a32.08,32.08,0,0,0,4.64-2,34.65,34.65,0,0,0,5-3.15,18.79,18.79,0,0,0,3.95-4,7.92,7.92,0,0,0,1.56-4.64,2.34,2.34,0,0,0-.31-1.29,1.47,1.47,0,0,0-1.29-.46A6.94,6.94,0,0,0,429.4,40a20.12,20.12,0,0,0-3.95,3.69,32.72,32.72,0,0,0-3.42,5A25.65,25.65,0,0,0,419.75,54.15Z" transform="translate(-10.73 -8.86)"/><path class="cls-2" d="M465.12,65.1a5.35,5.35,0,0,1-4-1.37,4.84,4.84,0,0,1-1.33-3.5,10.8,10.8,0,0,1,.57-3.34c.38-1.16.75-2.37,1.11-3.61a13.26,13.26,0,0,0,.53-3.61,3.91,3.91,0,0,0-.88-2.93A3.08,3.08,0,0,0,459,46a7.73,7.73,0,0,0-4.79,1.93,28,28,0,0,0-4.71,4.94c-1.52,2-2.94,4.07-4.26,6.2s-2.48,4-3.49,5.7a6.41,6.41,0,0,1-2.32-.42,3.65,3.65,0,0,1-1.71-1.25,10.62,10.62,0,0,1,.8-2.36q.79-2,1.86-4.86t1.9-5.93a21.41,21.41,0,0,0,.83-5.55,5.17,5.17,0,0,1,1.45-1.06,4.22,4.22,0,0,1,2.05-.54c1.37,0,2.05.66,2.05,2A20.6,20.6,0,0,1,448,48.8q-.69,2.85-1.75,6a71.65,71.65,0,0,1,4.6-6.19,28.61,28.61,0,0,1,5.43-5.13,9.92,9.92,0,0,1,5.78-2,4.7,4.7,0,0,1,4.29,2.12,8.7,8.7,0,0,1,1.33,4.72,12.24,12.24,0,0,1-.76,4.37q-.75,2-1.56,3.87a9.51,9.51,0,0,0-.79,3.76,3.14,3.14,0,0,0,.64,2.25,2.22,2.22,0,0,0,1.64.64,5.63,5.63,0,0,0,3.8-1.78,24.8,24.8,0,0,0,3.68-4.53,52.33,52.33,0,0,0,3.16-5.54l.83,1a38.16,38.16,0,0,1-3.57,6.62,18.1,18.1,0,0,1-4.33,4.56A8.89,8.89,0,0,1,465.12,65.1Z" transform="translate(-10.73 -8.86)"/></g></g></svg>