<svg version="1.1" xmlns="http://www.w3.org/2000/svg" xmlns:xlink="http://www.w3.org/1999/xlink" viewBox="0 0 172 172"><g fill="none" fill-rule="nonzero" stroke="none" stroke-width="1" stroke-linecap="butt" stroke-linejoin="miter" stroke-miterlimit="10" stroke-dasharray="" stroke-dashoffset="0" font-family="none" font-weight="none" font-size="none" text-anchor="none" style="mix-blend-mode: normal"><path d="M0,172v-172h172v172z" fill="none"></path><g fill="#666666"><path d="M86.00262,0.37924c-22.66234,0 -41.09854,18.4362 -41.09854,41.09854c0,14.44061 6.10012,36.32194 18.13341,65.07215h-28.40837c-1.26816,0 -2.43244,0.70235 -3.02672,1.82338l-30.82423,58.22085c-1.20635,2.279 0.45008,5.02594 3.02672,5.02594h164.39285c1.25473,0 2.409,-0.68577 3.00966,-1.78664c0.59898,-1.1012 0.5471,-2.44267 -0.13385,-3.4965l-37.67421,-58.22479c-0.63089,-0.97355 -1.71316,-1.56224 -2.8745,-1.56224h-21.5584c12.03295,-28.75188 18.13406,-50.63154 18.13406,-65.07215c0,-22.66234 -18.43789,-41.09854 -41.09788,-41.09854zM86.00262,7.22856c18.88372,0 34.24791,15.36384 34.24791,34.24857c0,26.02877 -22.59868,75.35532 -34.24463,98.61865c0,0.00336 -0.0016,0.00682 -0.00328,0.00984c-11.66341,-23.31003 -34.24922,-72.57956 -34.24922,-98.62849c0,-18.88473 15.36483,-34.24857 34.24922,-34.24857zM86.00262,17.50287c-13.21948,0 -23.97426,10.75512 -23.97426,23.97426c0,13.21914 10.75478,23.97426 23.97426,23.97426c13.21847,0 23.97295,-10.75512 23.97295,-23.97426c0,-13.21948 -10.75448,-23.97426 -23.97295,-23.97426zM86.00262,24.35284c9.44253,0 17.12363,7.68108 17.12363,17.12428c0,9.44119 -7.6811,17.12428 -17.12363,17.12428c-9.4432,0 -17.12494,-7.6831 -17.12494,-17.12428c0,-9.4432 7.68174,-17.12428 17.12494,-17.12428zM36.69199,113.39859h29.26462c5.71698,13.15061 12.7762,27.77099 17.01405,35.84558c0.59226,1.12438 1.75979,1.82666 3.03131,1.82666c1.27186,0 2.43672,-0.70261 3.03065,-1.82666c5.7106,-10.94585 12.40667,-25.22458 17.01406,-35.84558h22.6141l33.24141,51.37219h-152.40802z"></path></g></g></svg>