<svg id="Lager_1" data-name="Lager 1" xmlns="http://www.w3.org/2000/svg" viewBox="0 0 97.77 112.76"><defs><style>.cls-1{fill:#fff;}.cls-2{opacity:0.2;}.cls-3{fill:#ae8300;}.cls-3,.cls-4{opacity:0.5;}.cls-4,.cls-6{fill:#000400;}.cls-5{opacity:0.41;}.cls-6{font-size:32px;font-family:SavoyeLetPlain, Savoye LET;}</style></defs><circle class="cls-1" cx="48.89" cy="48.89" r="48.88"/><g class="cls-2"><circle class="cls-3" cx="48.89" cy="48.89" r="48.88"/><path class="cls-4" d="M116.41,82.13,19.86,66.82a48.88,48.88,0,0,1,96.55,15.31Z" transform="translate(-19.25 -25.59)"/></g><g class="cls-5"><circle class="cls-3" cx="48.56" cy="47.83" r="37.32"/><path class="cls-4" d="M73.44,36.54,62.19,110.31A37.31,37.31,0,1,1,73.44,36.54Z" transform="translate(-19.25 -25.59)"/></g><path d="M48.42,45.1a1.57,1.57,0,0,0-1,.47c-1.21,1.25-2.44,2.58-3.66,3.87l-6.3-.95L31.31,89.24c9.58.64,19.16,1.33,28.74,2a7.74,7.74,0,0,0,5,2.19,8.84,8.84,0,0,0,5.21-.62c9.36,2.48,18.75,4.89,28.11,7.4l6.29-41.54-6.27-.95L96.05,53a2.33,2.33,0,0,0-1.18-1,69.16,69.16,0,0,0-13.74-3.7,18.59,18.59,0,0,0-7,.16,8.78,8.78,0,0,0-2.5,1.22,8.46,8.46,0,0,0-2-1.9A18.56,18.56,0,0,0,63,45.59a71.18,71.18,0,0,0-14.56-.49Zm13.81,4.82a15.11,15.11,0,0,1,5.05,1.62,2.62,2.62,0,0,1,1.53,2L64.74,80.48a15.89,15.89,0,0,0-6.08-3,44.3,44.3,0,0,0-11.94-1.23l4.06-26.81A69.53,69.53,0,0,1,62.23,49.92ZM80.56,52.7a60.1,60.1,0,0,1,11.08,2.9L87.58,82.41a44.48,44.48,0,0,0-11.77-2.36,15.89,15.89,0,0,0-6.7,1.09l4.08-26.92a2.61,2.61,0,0,1,2.07-1.47A15.06,15.06,0,0,1,80.56,52.7Z" transform="translate(-19.25 -25.59)"/><text class="cls-6" transform="translate(27.6 90.36)">B</text><text class="cls-6" transform="translate(41.84 96.39)">C</text></svg>