<svg id="Lager_1" data-name="Lager 1" xmlns="http://www.w3.org/2000/svg" viewBox="0 0 105.6 82.57"><defs><style>.cls-1{fill:#f4a200;}.cls-2{font-size:27px;font-family:Amatic-Bold, Amatic;font-weight:700;}</style></defs><rect class="cls-1" y="52.79" width="105.6" height="23.92"/><path class="cls-1" d="M124.11,89.82H18.51a52.8,52.8,0,0,1,105.6,0Z" transform="translate(-18.51 -37.03)"/><path d="M47,42.28a1.68,1.68,0,0,0-.93.64c-1,1.46-2.1,3-3.14,4.52H36.36V90c9.88-.83,19.76-1.61,29.64-2.41a8.06,8.06,0,0,0,5.41,1.47,9.08,9.08,0,0,0,5.21-1.45c9.95,1.09,19.9,2.1,29.84,3.22V47.44H99.91L96.84,43a2.45,2.45,0,0,0-1.36-.8,71.5,71.5,0,0,0-14.59-1.66,19.1,19.1,0,0,0-7.12,1.26,8.59,8.59,0,0,0-2.36,1.63,8.75,8.75,0,0,0-2.36-1.63,19.1,19.1,0,0,0-7.12-1.26A74.82,74.82,0,0,0,47,42.28Zm14.84,2.79a15.54,15.54,0,0,1,5.4.88c1.17.5,1.65,1,1.88,1.82V75.88a16.14,16.14,0,0,0-6.66-2.15,45.81,45.81,0,0,0-12.39.59v-28A72.4,72.4,0,0,1,61.84,45.07Zm19.14,0a62.56,62.56,0,0,1,11.77,1.26v28a45.83,45.83,0,0,0-12.39-.59,16.23,16.23,0,0,0-6.67,2.15V47.77c.23-.83.72-1.32,1.89-1.82A15.54,15.54,0,0,1,81,45.07Z" transform="translate(-18.51 -37.03)"/><text class="cls-2" transform="translate(8.34 75.32)">Binder’s Club</text></svg>