<?xml version="1.0" encoding="utf-8"?>
<!-- Generator: Adobe Illustrator 24.2.3, SVG Export Plug-In . SVG Version: 6.00 Build 0)  -->
<svg version="1.1" xmlns="http://www.w3.org/2000/svg" xmlns:xlink="http://www.w3.org/1999/xlink" x="0px" y="0px"
	 viewBox="0 0 500 500" style="enable-background:new 0 0 500 500;" xml:space="preserve">
<style type="text/css">
	.st0{fill:#FFFFFF;}
	.st1{opacity:0.24;}
	.st2{opacity:0.59;}
	.st3{fill:#EFCAC7;}
	.st4{opacity:0.48;fill:#EFCAC7;}
	.st5{fill:#E2B9B7;}
	.st6{opacity:0.59;fill:#EFCAC7;}
	.st7{opacity:0.76;}
	.st8{opacity:0.48;fill:#EEE4DA;}
	.st9{opacity:0.51;}
	.st10{fill:#6EA652;}
	.st11{fill:#83BA63;}
	.st12{fill:#CAB4AE;}
	.st13{fill:#B29E9A;}
	.st14{fill:#38303B;}
	.st15{fill:#C0D9B4;}
	.st16{fill:none;stroke:#C0D9B4;stroke-miterlimit:10;}
	.st17{fill:#EBE2E0;}
	.st18{fill:none;stroke:#38303B;stroke-width:1.4173;stroke-miterlimit:10;}
	.st19{fill:#F7B094;}
	.st20{fill:#F09532;}
	.st21{fill:#C1ACA7;}
	.st22{fill:#E89C82;}
	.st23{opacity:0.32;}
	.st24{fill:#EBA790;}
	.st25{fill:#E66E60;}
	.st26{fill:#EEE4DA;}
	.st27{fill:#FFFEFD;}
</style>
<g id="BACKGROUND">
	<rect class="st0" width="500" height="500"/>
</g>
<g id="OBJECTS">
	<g class="st1">
		<rect x="61.5" y="69.1" class="st0" width="117.6" height="63.1"/>
		<g class="st2">
			<path class="st3" d="M178.2,95.3c-2.4,0.7-5-0.3-6.7-2c-1.7-1.6-2.6-3.7-3.6-5.7s-2.3-4-4.3-5.3c-3.1-1.9-7.2-1.6-10.6-2.7
				c-4.9-1.6-7.1-4.3-9.7-8.3c-0.1-0.2-1.3-2.5-1.3-2.7c0.1-0.5,1,0,1.6,0c11.3,0.4,24.4-0.5,35.6,0c0.4,8.4-0.3,16.6,0.1,25.8"/>
		</g>
		<path class="st4" d="M130.8,129.5c0,3.4-45.6,3.4-45.6,0c0-13.6,10.2-24.6,22.8-24.6S130.8,115.9,130.8,129.5z"/>
		<path class="st3" d="M144.6,108.4c0,3.7-2.8,6.7-6.2,6.7c-3.4,0-6.2-3-6.2-6.7c0-3.7,2.8-6.7,6.2-6.7
			C141.9,101.7,144.6,104.7,144.6,108.4z"/>
		<path class="st5" d="M60.4,66.9v65.6h122.2V66.9H60.4z M178.3,128.3H64.6V71.1h113.7V128.3z"/>
	</g>
	<g class="st1">
		<rect x="354.9" y="11.9" class="st0" width="81.8" height="109.8"/>
		<g class="st2">
			<path class="st3" d="M358.7,114.4c-2.1-6,1-12.7,5.6-17c4.7-4.2,10.7-6.6,16.5-9.2c5.8-2.6,11.6-5.7,15.2-10.9
				c5.3-7.8,4.5-18.2,7.8-27c4.6-12.3,12.4-18,23.7-24.7c0.5-0.3,7.1-3.4,7.7-3.3c1.3,0.2-0.1,2.7-0.1,4
				c-1.2,28.5,1.4,61.7,0.1,90.3c-24.1,1.1-47.8-0.7-74.1,0.4"/>
		</g>
		<g class="st2">
			<path class="st3" d="M436.1,78.7c-1.6-0.4-3.3-0.6-5-0.6c-12.3,0-22.3,10-22.3,22.3c0,7.6,3.8,14.3,9.6,18.3
				c5.3,0.1,10.7,0.3,16,0.6C434.9,105.9,435.5,92.3,436.1,78.7z"/>
		</g>
		<path class="st6" d="M360,32.9c-1.1,0-2.2,0.1-3.3,0.4v30.4c1.1,0.2,2.1,0.4,3.3,0.4c8.6,0,15.5-7,15.5-15.5
			C375.5,39.9,368.5,32.9,360,32.9z"/>
		<path class="st5" d="M354.1,8.1v114.1h85V8.1H354.1z M433.6,114.9h-74.1V15.4h74.1V114.9z"/>
	</g>
	<g class="st7">
		<g>
			<ellipse class="st8" cx="249.4" cy="450.1" rx="224.3" ry="28"/>
			<ellipse class="st8" cx="249.4" cy="450.1" rx="205.3" ry="20.4"/>
		</g>
	</g>
	<g>
		<g class="st9">
			<g>
				<g>
					<path class="st10" d="M103.3,406.2c0.1-8.3,0.2-16.6,0.3-24.8c0.1-4,0.1-8,1.5-11.7s4.2-6.9,7.7-7.2c1.7-0.1,3.4,0.4,5,0
						c4.1-1,3.4-8.9,4.3-13.5c2.4-12.9,11.9-22.4,22.2-28.5c3.5-2.1,7.6-3.6,11.5-2.6c3.9,1,7.3,5.3,6.6,9.7c-0.5,3.2-2.9,5.6-4,8.6
						c-2.7,6.8,1,15.7-3,21.6c-4.1,6-14.1,5-16.5,12.2c-0.8,2.4-0.4,5-0.8,7.5c-0.8,4.7-4.2,8.2-8,10.4c-3.7,2.2-7.9,3.3-11.7,5.2
						c-6,3.1-11.1,8.5-14.3,15.1"/>
				</g>
				<g>
					<path class="st11" d="M113.1,411.8c-0.6-4.1-0.7-8.3-0.3-12.5c0.2-2.1,0.5-4.1,0.9-6.2c0.4-2,1-4.1,1.7-6
						c2.7-8,8-14.7,12.6-21.6c2.3-3.5,4.3-7,5.9-10.9c1.6-3.8,2.9-7.8,4.4-11.6c1.5-3.9,3.3-7.7,5.9-11c1.3-1.7,2.7-3.2,4.4-4.5
						c1.7-1.3,3.5-2.3,5.5-2.8c-2,0.6-3.8,1.7-5.4,3c-1.6,1.3-2.9,2.9-4.1,4.6c-2.4,3.4-4.1,7.2-5.6,11c-1.4,3.9-2.7,7.8-4.3,11.7
						c-1.5,3.9-3.6,7.6-5.9,11.1c-2.3,3.5-4.8,6.8-7,10.3c-1.1,1.7-2.2,3.5-3.1,5.3c-0.9,1.8-1.8,3.7-2.5,5.6
						C113.3,395.1,112.4,403.5,113.1,411.8z"/>
				</g>
				<g>
					<path class="st10" d="M100.6,402.9c-0.2-8.8-0.3-17.6-0.5-26.4c-0.1-4.2-0.2-8.6-1.6-12.5c-1.4-3.9-4.4-7.4-8-7.7
						c-1.7-0.1-3.5,0.4-5.2,0c-4.3-1.1-5.4-7.4-6.3-12.4c-2.6-13.7-10.6-25.9-21.3-32.5c-3.7-2.2-7.9-3.9-11.9-2.8
						c-4,1-7.5,5.6-6.8,10.3c0.5,3.4,3,6,4.2,9.2c2.8,7.2-1,16.7,3.2,23c4.3,6.5,14.7,5.4,17.1,13.1c0.8,2.5,0.4,5.3,0.8,8
						c0.8,5,4.4,8.8,8.3,11.1c3.9,2.3,8.2,3.5,12.1,5.7c6.2,3.4,11.5,9.1,14.9,16.1"/>
				</g>
				<g>
					<path class="st11" d="M98.6,403.8c0.3-4.4-0.4-8.7-1.9-12.8c-1.5-4.1-3.6-7.9-6.1-11.4c-5.1-7-11.6-13-16.7-20.1
						c-1.3-1.8-2.4-3.7-3.5-5.6c-1-1.9-1.9-4-2.7-6c-1.6-4.1-2.9-8.2-4.4-12.3c-1.5-4.1-3.3-8.1-5.8-11.6c-1.2-1.8-2.6-3.4-4.3-4.9
						c-1.6-1.4-3.5-2.6-5.6-3.2c2.1,0.6,4.1,1.7,5.8,3c1.7,1.4,3.2,3,4.5,4.8c2.6,3.5,4.5,7.6,6.1,11.6c1.6,4.1,2.9,8.2,4.6,12.2
						c0.8,2,1.7,4,2.7,5.9c1,1.9,2.2,3.7,3.4,5.5c4.9,7.1,11.5,13,16.5,20.3c2.5,3.6,4.6,7.5,6,11.7C98.5,395,99.1,399.5,98.6,403.8
						z"/>
				</g>
				<g>
					<path class="st11" d="M103,395.4c5-8.8,10-17.5,15-26.3c2.4-4.2,4.8-8.5,5.8-13.4c0.9-4.9,0-10.7-3.4-13.8
						c-1.6-1.5-3.7-2.3-5.1-4c-3.5-4.4-1-11.5,1-17.1c5.5-15.4,4.7-33.7-2-48.5c-2.3-5.1-5.5-9.9-10.1-12
						c-4.6-2.1-10.7-0.4-12.7,4.8c-1.5,3.8-0.6,8.2-1.2,12.3c-1.5,9.3-10.8,15.6-10.3,25.1c0.5,9.7,11.3,16.8,9.2,26.2
						c-0.7,3.1-2.7,5.6-3.8,8.5c-2.1,5.5-0.8,12.9,1.7,18.2c2.5,5.3,6.8,7.3,9.4,12.5c4.2,8.2,3.8,17.8,3,27.2"/>
				</g>
				<g>
					<path class="st10" d="M101.6,396c1.9-5.2,3.2-10.5,3.9-15.9c0.7-5.4,0.9-10.9,0.4-16.3c-0.9-10.9-4.8-21.4-4.8-32.5
						c0-11.1,2.9-21.8,4.2-32.6c0.6-5.4,0.8-10.9,0.1-16.3c-0.7-5.4-2.3-10.8-5.5-15.2c3.4,4.3,5.2,9.8,6,15.2
						c0.8,5.5,0.7,11,0.1,16.5c-1.2,10.9-4.1,21.6-4,32.6c-0.1,10.9,3.8,21.5,4.6,32.5C107.5,374.6,105.8,385.8,101.6,396z"/>
				</g>
			</g>
			<g>
				<polygon class="st12" points="86.2,430.2 121.6,430.2 132.8,387.9 76.1,387.9 				"/>
				
					<rect x="72.3" y="385.7" transform="matrix(-1 -1.224647e-16 1.224647e-16 -1 208.9947 778.296)" class="st13" width="64.4" height="6.9"/>
			</g>
		</g>
		<g>
			<g>
				<g>
					<g>
						<path class="st10" d="M90.6,132.1c1,1.5,2.9,3.1,5,4.2c1.9,1,4,2,6.2,1.7c2.4-0.4,4-2.4,5.4-4.2c6.7-8.9,13.4-17.7,20.1-26.6
							c-11.6,2.8-23.5,5.8-32.8,12.8c-1.7,1.3-3.3,2.7-4.2,4.6c-0.9,1.9-1.5,5.3-0.1,6.9L90.6,132.1z"/>
					</g>
					<g>
						<path class="st11" d="M87.5,163.9c-0.5-2.5-0.8-5.1-0.8-7.7c0-2.6,0.2-5.2,0.7-7.7c0.9-5.1,2.9-10,5.6-14.5
							c2.8-4.4,6.3-8.3,10.4-11.5c2.1-1.6,4.2-3,6.5-4.2c2.3-1.2,4.7-2.2,7.1-3c-2.4,1-4.7,2.1-6.9,3.4c-2.2,1.3-4.3,2.8-6.3,4.4
							c-3.9,3.2-7.4,7.1-10,11.4c-2.7,4.3-4.6,9.1-5.7,14.1C87,153.6,86.8,158.8,87.5,163.9z"/>
					</g>
				</g>
				<g>
					<g>
						<path class="st11" d="M147.6,172.5c-4.9-3.5-11-4.9-16.8-6.5s-11.8-3.5-16.2-7.7c-4.4-4.2-6.6-11.3-3.6-16.6
							c2.8-4.9,9.4-6.7,14.9-5.1c5.4,1.5,9.8,5.7,13.1,10.3c5.6,7.7,9,17.1,9.6,26.7"/>
					</g>
					<g>
						<path class="st10" d="M79.7,174.8c-0.2-1.6,0-3.2,0.5-4.7c0.5-1.5,1.2-3,1.9-4.4c1.5-2.8,3.4-5.4,5.5-7.8
							c4.2-4.8,9.6-8.6,15.6-10.9c6-2.2,12.8-2.4,19-0.6c3.1,0.9,6,2.3,8.6,4.1c2.6,1.9,4.9,4.2,6.6,6.8c-1.9-2.5-4.2-4.7-6.9-6.4
							c-2.6-1.7-5.5-3-8.6-3.8c-6.1-1.6-12.6-1.4-18.4,0.8c-5.9,2.1-11.2,5.8-15.4,10.4c-2.1,2.3-4,4.8-5.6,7.6
							C81,168.6,79.5,171.6,79.7,174.8z"/>
					</g>
				</g>
				<g>
					<polygon class="st12" points="94.1,189.2 65.7,189.2 56.7,160.2 102.2,160.2 					"/>
					<rect x="53.6" y="158.7" class="st13" width="51.6" height="4.7"/>
				</g>
				<g>
					<path class="st11" d="M42,195.2c-2.2-15.5-4.4-31.6,0.1-46.5c0.5-1.7,1.2-3.5,2.4-4.8c1.7-1.7,4.3-2.2,6.7-2.2
						c6.5,0,13,3,17.1,8.1c1.5,1.9,2.8,4.1,3,6.5c0.3,3.3-1.4,6.5-3.7,8.9c-2.3,2.4-5.1,4.1-7.7,6.1c-8.1,6.1-14.4,14.4-18.1,23.9"
						/>
					<g>
						<path class="st10" d="M42.9,190.8c0.1-6.3,1-12.6,2.5-18.7c0.8-3.1,1.8-6.1,3-9c1.2-2.9,2.5-5.8,4.1-8.6
							c1.6-2.7,3.7-5.3,6.4-7.1c2.7-1.8,6.1-2.6,9.3-2c3.2,0.5,6.2,2.3,8.1,4.9c1.9,2.6,2.9,5.8,2.6,9c0.1-3.2-1-6.3-3-8.7
							c-1.9-2.4-4.8-4-7.8-4.4c-3-0.4-6.2,0.2-8.7,2c-2.6,1.7-4.5,4.2-6,6.9c-3.1,5.4-5.4,11.3-7.1,17.3
							C44.5,178.3,43.4,184.5,42.9,190.8z"/>
					</g>
				</g>
				<g>
					<g>
						<path class="st10" d="M77.9,127.6c-1.1,2.4-3.3,5.1-5.9,7.2c-2.4,1.9-5.1,3.8-8.1,3.7c-3.4-0.1-6.1-2.7-8.4-5.2
							c-11.4-11.9-22.7-23.7-34.1-35.6c16.7,2,33.9,4.1,48.3,12.8c2.6,1.6,5.2,3.4,6.9,6c1.7,2.6,3.3,7.5,1.8,10.2L77.9,127.6z"/>
					</g>
					<g>
						<path class="st11" d="M82.7,159.2c-0.3-5.9-1.4-11.7-3.4-17.2c-2-5.5-4.8-10.7-8.5-15.3c-3.6-4.6-8-8.6-12.9-11.8
							c-2.4-1.6-5-3-7.7-4.3c-2.7-1.2-5.5-2.2-8.3-3c2.9,0.6,5.7,1.5,8.5,2.6c2.7,1.1,5.4,2.5,7.9,4.1c5,3.2,9.5,7.2,13.2,11.9
							c3.7,4.7,6.5,10,8.4,15.6C81.9,147.3,82.8,153.3,82.7,159.2z"/>
					</g>
				</g>
				<g>
					<g>
						<path class="st10" d="M101.1,155.5c-2.5-1-5.3,1.6-5.2,4.2c0,2.6,1.8,4.8,3.5,6.9c3.8,4.6,7.6,9.2,11.4,13.8
							c4.4-8.1,2.3-18.9-4.9-25c-1.6-1.3-4.7-2-5.1-0.1"/>
					</g>
					<g>
						<path class="st11" d="M90.6,158.6c0.4-1.3,1.4-2.3,2.5-3.1c1.1-0.8,2.5-1.2,3.9-1.2c1.4,0,2.8,0.4,4,1.1
							c1.2,0.7,2.2,1.7,3,2.8c0.9,1,1.6,2.2,2.2,3.4c0.6,1.2,1,2.5,1.5,3.7c0.4,1.3,0.8,2.5,1.1,3.8c0.3,1.3,0.5,2.6,0.5,3.9
							c-0.5-2.6-1.3-5.1-2.4-7.5c-0.5-1.2-1-2.4-1.6-3.6c-0.6-1.1-1.3-2.2-2.1-3.2c-0.8-1-1.7-2-2.7-2.6c-1.1-0.7-2.3-1.1-3.5-1.2
							c-1.3-0.1-2.5,0.2-3.6,0.9C92.2,156.5,91.2,157.4,90.6,158.6z"/>
					</g>
				</g>
			</g>
			<g>
				<polygon class="st14" points="101.9,433 100.4,433.1 94.4,188.7 95.9,188.6 				"/>
				<polygon class="st14" points="58.4,433 59.8,433.1 65.8,188.7 64.4,188.6 				"/>
				<path class="st14" d="M100.6,192.4H58.2c-0.5,0-0.9-0.4-0.9-0.9V189c0-0.5,0.4-0.9,0.9-0.9h42.4c0.5,0,0.9,0.4,0.9,0.9v2.5
					C101.5,192,101.1,192.4,100.6,192.4z"/>
			</g>
		</g>
	</g>
	<g>
		<g>
			<g>
				<path class="st10" d="M384.4,268.8c-0.6-2.7,0.4-5.9,2.4-7.8c2-1.9,5-2.6,7.4-1.6c-0.4,4.8-5,9.9-9.4,9.5"/>
			</g>
			<g>
				<path class="st10" d="M381.9,275.7c-3.5-1.1-6.1-4.9-5.8-9c3.3,0.9,6,4.1,6.4,7.8"/>
			</g>
			<g>
				<path class="st10" d="M382,275.6c3.3,1.3,7.9,0.4,10.8-2.2c-2.7-2.9-7.7-2.6-10.5,0.6"/>
			</g>
			<g>
				<path class="st10" d="M381.1,283.2c-1.9-3.6-5.7-5.7-9.6-5.3c-0.3,0-0.6,0.1-0.7,0.4c0,0.1,0,0.3,0,0.4c1.2,4.3,6,6.7,10,5.1"/>
			</g>
			<g>
				<path class="st10" d="M380.8,283.1c4-3.1,9.9-2.6,13.1,1.1c-3.6,3.9-10.3,3.5-13-0.8"/>
			</g>
			<g>
				<path class="st10" d="M380.3,293.4c-1.8-3.9-6.5-5.7-10.4-4.1c1.6,4,6.4,6.1,10.3,4.4"/>
			</g>
			<g>
				<path class="st10" d="M380.4,294.1c2.6,2.6,6.6,3.3,10,1.9c-2-3.5-6.4-5-10-3.5"/>
			</g>
			<g>
				<path class="st10" d="M370.4,334.1c-1.1-6.1-0.6-12.6,1.3-18.5c1.9-6,5.6-11.2,7-17.2c1.5-6,1.3-12.2,2.1-18.4
					c0.4-3.1,1.2-6.2,2.4-9.1c1.3-2.9,3.1-5.6,5.6-7.4c-2.4,2-4.1,4.7-5.2,7.6c-1.1,2.9-1.8,5.9-2.1,9c-0.7,6.1-0.4,12.4-1.9,18.6
					c-1.5,6.2-5.2,11.4-7.2,17.2c-1,2.9-1.7,5.9-2.1,9C370,327.9,370.1,331.1,370.4,334.1z"/>
			</g>
		</g>
		<g>
			<g>
				<g>
					<path class="st15" d="M361,250.4c1.5-3.3,1.2-7.8-0.6-11.2c-1.9-3.4-5.2-5.5-8.4-5.2c-1,6.4,3.1,15.1,8.5,16.3"/>
				</g>
				<g>
					<path class="st15" d="M361.9,260.5c4.6,0.1,8.8-3.8,9.7-9.2c-4.3-0.3-8.4,2.8-10.1,7.4"/>
				</g>
				<g>
					<path class="st15" d="M361.9,260.4c-4.4,0.3-9.6-2.8-12.3-7.4c4.1-2.6,10.1,0,12.4,5.2"/>
				</g>
				<g>
					<path class="st15" d="M360.7,270.6c3.3-3.9,8.6-5,13.1-2.9c0.3,0.1,0.7,0.4,0.7,0.8c0,0.2-0.1,0.4-0.2,0.5
						c-2.7,5-9.2,6.2-13.6,2.4"/>
				</g>
				<g>
					<path class="st15" d="M361.1,270.5c-4-5.7-11.2-7.6-16.1-4.2c3.2,6.6,11.3,8.9,16,4.5"/>
				</g>
				<g>
					<path class="st15" d="M358.7,284.3c3.3-4.3,9.5-4.7,13.8-0.9c-3.2,4.5-9.5,5.2-13.8,1.3"/>
				</g>
				<g>
					<path class="st15" d="M358.4,285.1c-3.9,2.3-8.9,1.5-12.6-1.8c3.4-3.7,9.2-3.8,13.1-0.3"/>
				</g>
				<g>
					<path class="st15" d="M358.9,296.6c2.4-3.1,6.7-3.3,10.2-2c0.5,0.2,1.1,0.6,1.1,1.2c0,0.4-0.3,0.7-0.5,0.9
						c-3,2.7-6.7,4-10.5,2.5"/>
				</g>
				<g>
					<path class="st15" d="M358.7,299.7c-4.4,1.2-8.6-0.4-11.4-4.4c4.7-2.7,8.4-2.2,11.7,1.6"/>
				</g>
				<path class="st16" d="M358.6,341.4c3.2-8.2,4.3-17.7,3.2-27c-0.8-6.9-2.8-13.7-3.2-20.6c-0.5-9,1.8-17.5,2.8-26.2
					c1.1-8.7,0.7-18.7-4.2-25.9"/>
			</g>
		</g>
		<g>
			<g>
				<path class="st11" d="M321.8,233.3c-4.2-4-6.8-10.7-6.6-16.7c0.2-6,3.4-11,7.7-12.4c5.6,8.8,5.9,23.8-0.5,28.7"/>
			</g>
			<g>
				<path class="st11" d="M327.2,248.5c-6,2.8-14.2-0.6-19-7.9c5.5-2.9,13-0.8,18.3,5.1"/>
			</g>
			<g>
				<path class="st11" d="M327.2,248.3c6-2.2,10.9-9.7,11.5-17.9c-7.2-1.4-13.4,5.7-13.1,14.8"/>
			</g>
			<g>
				<path class="st11" d="M335.4,262.6c-6.9-3.8-14.7-2.4-19.4,3.4c-0.3,0.4-0.6,1-0.4,1.6c0.1,0.3,0.3,0.5,0.6,0.7
					c7,5.8,16.3,3.7,19.7-4.3"/>
			</g>
			<g>
				<path class="st11" d="M334.9,262.7c1.5-10.6,9.8-17.5,18.7-15.4c0.1,11.6-9.2,19.6-18.2,15.8"/>
			</g>
			<g>
				<path class="st11" d="M347.2,281.3c-7.3-4.3-15.8-1.4-18.9,6.6c7.2,4.8,16.1,2.1,19.2-6"/>
			</g>
			<g>
				<path class="st11" d="M348.2,282.5c6.6,1.1,12.9-2.9,15.6-9.9c-7-3.5-14.7-0.3-17.6,7.2"/>
			</g>
			<g>
				<path class="st11" d="M385.3,364.8c-9.4-9.7-16.6-21.6-21.3-34.3c-4.8-12.7-6.4-26.4-12.1-38.6c-5.5-12.3-13.8-23.1-20.5-34.9
					c-3.3-5.9-6.2-12.1-8.2-18.6c-1.9-6.5-3-13.4-2-20.1c-0.8,6.7,0.4,13.5,2.5,19.9c2.1,6.4,5,12.5,8.4,18.4
					c6.8,11.6,15.2,22.4,20.8,34.9c2.8,6.2,4.7,12.8,6.4,19.3c1.7,6.6,3.3,13.1,5.6,19.5c2.3,6.4,5.2,12.5,8.6,18.3
					C376.7,354.3,380.7,359.8,385.3,364.8z"/>
			</g>
		</g>
		<g>
			<g>
				<polygon class="st17" points="383.4,439.3 353,439.3 344,304.5 392.4,304.5 				"/>
				<g>
					<rect x="338.3" y="298.4" class="st17" width="58.2" height="8.6"/>
				</g>
				<g>
					<polygon class="st17" points="345.7,327.1 356.2,316.7 368.5,327.6 378.7,317.1 390.9,328 390.4,334.4 379.7,323.9 369,335.1 
						356.2,325 346.1,333.3 					"/>
				</g>
				<g>
					<polygon class="st17" points="347,348.9 356.8,339.2 368.3,349.4 377.9,339.5 389.4,349.7 388.9,355.8 378.9,345.9 
						368.8,356.4 356.8,346.9 347.4,354.8 					"/>
				</g>
			</g>
		</g>
	</g>
	<g>
		<g>
			<g>
				<g>
					<path class="st10" d="M409.8,233.9c-14.6-16.3-32.9-53.9-29.9-57.9c2.1,0.1,3.7,1.9,5,3.6c9.1,12.3,17,25.4,23.6,39.1
						c3.1,6.3,5.9,12.9,10.5,18.2"/>
				</g>
				<g>
					<path class="st10" d="M433.6,230.7c6.6-15.2,14.4-30.1,23.1-44.5c2.1-3.4,5.7-9.5,9.2-7.9c2.6,1.7-1.7,14.1-4.3,19.4
						c-7.3,14.3-11.2,23.7-20.4,40.3"/>
				</g>
				<g>
					<g>
						<path class="st10" d="M421.2,241.5c-7.5-38.8-6-115.7-0.7-117.9c2.4-1.1,4.3,2.2,4.9,4.7c3.2,14.7,3.3,29.8,3.5,44.8
							c0.3,24.7,0.5,49.4,0.8,74.2"/>
					</g>
					<g>
						<path class="st11" d="M426.1,241.4c-1.2-9.3-2.1-18.7-2.8-28.1c-0.7-9.4-1-18.8-1.2-28.2c-0.1-9.4-0.1-18.8,0.2-28.3l0.3-7.1
							l0.4-7.1l0.5-7l0.6-7l-0.3,7.1l-0.3,7.1l-0.2,7.1l-0.2,7.1c-0.2,9.4-0.2,18.8,0,28.2c0.1,9.4,0.5,18.8,1,28.2
							C424.6,222.6,425.3,232,426.1,241.4z"/>
					</g>
				</g>
				<g>
					<g>
						<path class="st11" d="M426.7,236.4c3.8-31.4,11.4-62.4,22.4-92.1c1.8-4.8,3.8-9.8,8-12.7c5.8,2.9-1,35-5.5,52.1
							c-6,22.7-12,45.4-18,68.2"/>
					</g>
					<g>
						<path class="st10" d="M430.3,244c1.2-9.3,3.3-18.5,5.5-27.6c2.2-9.1,4.7-18.1,7.2-27.2c2.5-9,5-18.1,7.4-27.1
							c1.2-4.5,2.3-9.1,3.4-13.6c0.5-2.3,1-4.6,1.5-6.9l1.3-6.9c-1.3,9.3-3.3,18.5-5.5,27.6c-2.2,9.1-4.7,18.2-7.1,27.2
							c-2.5,9-5,18.1-7.4,27.1c-1.2,4.5-2.3,9.1-3.4,13.6c-0.6,2.3-1,4.6-1.5,6.9C431.1,239.4,430.7,241.7,430.3,244z"/>
					</g>
				</g>
				<g>
					<g>
						<path class="st11" d="M413.9,242C404,207,398,170.9,396,134.6c-0.1-2.3,0.2-5.2,2.3-5.9c5.4-2.6,11.6,34.1,14.9,51.8
							c4.2,22.3,9,44.6,14.3,66.7"/>
					</g>
					<g>
						<path class="st10" d="M423.5,246.2c-3.4-9.1-6.5-18.3-9.2-27.7c-2.7-9.3-5.1-18.8-7.1-28.3c-2-9.5-3.7-19.1-5.1-28.7l-0.9-7.2
							l-0.8-7.2l-0.7-7.3l-0.5-7.3l0.8,7.2l0.9,7.2l1,7.2l1.1,7.2c1.5,9.6,3.2,19.1,5.3,28.6c2,9.5,4.3,18.9,6.9,28.3
							C417.6,227.7,420.5,237,423.5,246.2z"/>
					</g>
				</g>
			</g>
			<path class="st12" d="M458.8,235.7c0,17.9-4.2,32.4-32.4,32.4c-25.5,0-32.4-14.5-32.4-32.4S458.8,217.8,458.8,235.7z"/>
		</g>
		<g>
			<polygon class="st14" points="458.7,458.1 456.6,458.2 448.2,265.9 450.3,265.8 			"/>
			<polygon class="st14" points="397.5,458.1 399.6,458.2 408,265.9 405.9,265.8 			"/>
			<path class="st14" d="M454.8,272h-55.5c-1.8,0-3.3-1.5-3.3-3.3l0,0c0-1.8,1.5-3.3,3.3-3.3h55.5c1.8,0,3.3,1.5,3.3,3.3l0,0
				C458.1,270.5,456.6,272,454.8,272z"/>
		</g>
	</g>
	<g>
		<g>
			<g>
				<path class="st10" d="M403.5,481.9c-0.1-6.2-0.2-12.4-0.3-18.6c0-3-0.1-6-1.3-8.8c-1.2-2.8-3.7-5.2-6.7-5.4
					c-1.5-0.1-2.9,0.3-4.4,0c-3.6-0.8-3-6.6-3.8-10.1c-2.1-9.6-10.4-16.8-19.4-21.4c-3.1-1.6-6.6-2.7-10-1.9s-6.4,3.9-5.8,7.3
					c0.4,2.4,2.5,4.2,3.5,6.5c2.3,5.1-0.9,11.8,2.6,16.2c3.6,4.5,12.4,3.8,14.4,9.2c0.7,1.8,0.3,3.8,0.7,5.6c0.7,3.5,3.7,6.2,7,7.8
					c3.3,1.6,6.9,2.4,10.2,3.9c5.3,2.4,9.7,6.4,12.5,11.3"/>
			</g>
			<g>
				<path class="st11" d="M395,486.1c0.6-6.4-0.3-13-2.9-18.8c-1.3-2.9-3.1-5.6-5.1-8.1c-1.9-2.6-4.1-5-6.1-7.6
					c-1-1.3-1.9-2.7-2.8-4c-0.9-1.4-1.6-2.8-2.3-4.3c-1.4-3-2.5-6-3.8-8.9c-1.3-2.9-2.9-5.8-5-8.2c-2.1-2.4-4.8-4.4-7.9-5.3
					c3.2,0.7,6,2.6,8.3,5c2.2,2.4,3.9,5.2,5.3,8.2c1.4,2.9,2.5,6,3.9,8.9c1.3,2.9,3.1,5.6,5.1,8.2c3.9,5.1,8.5,9.9,11,16
					c1.3,3,2.1,6.2,2.5,9.4C395.6,479.7,395.5,483,395,486.1z"/>
			</g>
			<g>
				<path class="st10" d="M405.9,479.5c0.1-6.6,0.3-13.2,0.4-19.8c0.1-3.2,0.1-6.4,1.4-9.3c1.2-2.9,3.8-5.5,7-5.7
					c1.5-0.1,3.1,0.3,4.5,0c3.7-0.9,4.7-5.6,5.5-9.3c2.3-10.3,9.3-19.4,18.6-24.3c3.2-1.7,6.9-2.9,10.4-2.1c3.5,0.8,6.6,4.2,5.9,7.7
					c-0.5,2.6-2.6,4.5-3.7,6.9c-2.4,5.4,0.9,12.5-2.8,17.2c-3.8,4.8-12.8,4.1-15,9.8c-0.7,1.9-0.4,4-0.7,6c-0.7,3.7-3.9,6.6-7.2,8.3
					s-7.1,2.6-10.6,4.2c-5.5,2.5-10.1,6.8-13,12.1"/>
			</g>
			<g>
				<path class="st11" d="M407.7,480.2c-0.5-3.4,0.1-6.9,1.4-10.1c1.3-3.2,3.2-6.1,5.4-8.8c4.4-5.3,9.9-9.6,14.1-14.9
					c1.1-1.3,2.1-2.7,3-4.1c0.9-1.4,1.7-2.9,2.4-4.5c1.5-3.1,2.6-6.3,4.1-9.4c1.4-3.1,3.2-6.1,5.5-8.7c2.3-2.5,5.3-4.6,8.6-5.4
					c-3.3,1-6.1,3.1-8.3,5.7c-2.2,2.6-3.8,5.6-5.2,8.7c-1.3,3.1-2.5,6.3-4,9.5c-0.7,1.6-1.5,3.1-2.4,4.6c-0.9,1.5-1.9,2.9-3,4.2
					c-4.4,5.3-9.9,9.6-14.3,14.7c-2.2,2.6-4.2,5.4-5.5,8.5C408.1,473.3,407.4,476.7,407.7,480.2z"/>
			</g>
			<g>
				<path class="st11" d="M403.9,473.8c-4.4-6.6-8.8-13.1-13.1-19.7c-2.1-3.1-4.2-6.4-5-10.1c-0.8-3.7,0-8,3-10.3
					c1.4-1.1,3.2-1.7,4.5-3c3.1-3.3,0.8-8.6-0.9-12.8c-4.8-11.6-4.1-25.3,1.8-36.3c2-3.8,4.8-7.4,8.8-9c4-1.6,9.3-0.3,11.1,3.6
					c1.3,2.8,0.5,6.2,1.1,9.2c1.3,6.9,9.4,11.7,9,18.8c-0.4,7.3-9.9,12.6-8.1,19.6c0.6,2.3,2.4,4.2,3.4,6.4
					c1.8,4.1,0.7,9.6-1.5,13.6c-2.2,4-5.9,5.5-8.3,9.4c-3.7,6.1-3.3,13.3-2.6,20.4"/>
			</g>
			<g>
				<path class="st10" d="M405,474.3c-3.6-7.5-5.2-15.9-4.4-24.2c0.7-8.3,4.1-16.2,4-24.4c0-8.2-2.5-16.2-3.5-24.5
					c-0.5-4.1-0.5-8.3,0.2-12.5c0.8-4.1,2.4-8.1,5.3-11.1c-2.7,3.2-4.2,7.2-4.8,11.2c-0.6,4.1-0.5,8.2,0.1,12.3
					c1.1,8.1,3.7,16.1,3.7,24.6c0,4.2-0.8,8.3-1.8,12.4c-1,4-2,8-2.4,12.1c-0.4,4.1-0.3,8.2,0.3,12.3
					C402.3,466.5,403.4,470.5,405,474.3z"/>
			</g>
		</g>
		<g>
			<polygon class="st12" points="418.5,499.9 387.5,499.9 377.7,468.3 427.3,468.3 			"/>
			<rect x="374.3" y="466.6" class="st13" width="56.4" height="5.1"/>
		</g>
	</g>
	<g>
		<path class="st17" d="M273.9,73.6c0,3.6-2.9,6.5-6.5,6.5c-3.6,0-6.5-2.9-6.5-6.5c0-3.6,2.9-6.4,6.5-6.4
			C271,67.1,273.9,70,273.9,73.6z"/>
		<path class="st18" d="M253.3,148c0.4-1.8,10.6-59.3,13.4-74.8c0.2-1,1.1-0.9,1.3,0l11.7,74.9"/>
		<g>
			<path class="st17" d="M303.5,148.2c0,20.9-4.9,37.8-37.8,37.8c-29.8,0-37.8-16.9-37.8-37.8C227.9,127.3,303.5,127.3,303.5,148.2z
				"/>
			<g>
				<g>
					<path class="st11" d="M313.5,183.3c0,1.4,0.3,2.7,0.8,4c0.5,1.3,1.6,2.7,2.9,2.3c0.9-0.3,1.4-1.3,1.3-2.3
						c-0.1-0.9-0.7-1.8-1.4-2.4c-0.9-1-2-1.8-3.2-2.5"/>
				</g>
				<g>
					<path class="st11" d="M236,231.5c-0.6,1.2-1.3,2.4-2.3,3.3c-1,0.9-2.4,1.5-3.7,1.1c-1.3-0.4-2.3-1.9-1.7-3.1
						c0.6-1.5,2.7-1.7,4.3-1.6c1.6,0.1,3.7,0,4.4-1.5"/>
				</g>
				<g>
					<path class="st11" d="M242.1,225c0.1,1.1,0.6,2.2,0.9,3.2c0.3,1.1,0.3,2.4-0.4,3.2c-0.7,0.8-2.5,0.7-2.7-0.4
						c-0.1-0.4,0-0.8,0.1-1.1c0.5-2,1.2-4,2-5.9"/>
				</g>
				<g>
					<path class="st11" d="M243.6,221.7c-1.4-0.4-2.8-0.7-4.3-0.7c-0.8,0-1.6,0-2.3,0.4c-0.7,0.4-1.2,1.1-1.1,1.9
						c0.2,1.3,2,1.8,3.2,1.3c1.3-0.4,2.2-1.4,3.5-1.9"/>
				</g>
				<g>
					<path class="st11" d="M244.7,213.8c1.7,1.7,3.3,3.6,4.7,5.5c0.4,0.6,0.9,1.2,0.8,1.9c-0.2,1.4-2.2,1.7-3.3,0.8
						c-1-0.9-1.3-2.4-1.4-3.8c-0.2-1.5-0.3-2.9-0.5-4.4"/>
				</g>
				<g>
					<g>
						<g>
							<path class="st11" d="M263.3,132.4c0-1.4,0.1-2.8,0.9-4c0.9-1.3,2.1-2.3,3.5-2.9c2.8-1.3,6.2-1.3,8.9,0.4
								c2.7,1.7,4.5,4.7,5.7,7.6c1.4,3.5,2.2,7.2,2.5,10.9c0.7,8.3-0.4,16.6-1.3,24.9c-0.9,8.2-1.7,16.5-1.5,24.8
								c0.2,7.5,1.2,15.1,4,22.1c0.3,0.8,0.7,1.6,1.1,2.4c0.3,0.6,1.1,0.1,0.9-0.5c-3.4-7.1-4.6-15.1-4.9-22.8
								c-0.3-8.6,0.5-17.2,1.5-25.7c0.9-8.5,2.1-17.2,1.3-25.8c-0.4-3.7-1.2-7.5-2.7-10.9c-1.3-2.9-3.1-5.7-5.7-7.6
								c-2.6-1.8-6.1-2.1-9-1c-2.6,0.9-5.4,3.1-5.9,5.9c-0.1,0.8-0.1,1.5-0.2,2.3C262.3,133,263.3,133,263.3,132.4L263.3,132.4z"/>
						</g>
					</g>
					<g>
						<g>
							<path class="st11" d="M291.6,136.1c1-2,2.5-3.6,4.7-4.1c2.4-0.5,4.9,0.1,6.9,1.4c4.4,2.9,6.1,8.6,7,13.5
								c0.3,1.9,0.5,3.8,0.4,5.8c-0.1,1.7-0.3,3.5-0.5,5.2c-0.5,3.9-1,7.8-0.7,11.8c0.5,5.9,2.6,11.5,5.7,16.6
								c0.3,0.5,1.2,0,0.9-0.5c-2.9-4.8-5-10-5.6-15.6c-0.4-4.1,0.1-8.2,0.7-12.3c0.2-1.8,0.5-3.5,0.5-5.3c0.1-2-0.2-4-0.5-6
								c-0.9-5.1-2.8-10.7-7.2-13.8c-2.2-1.5-5-2.2-7.6-1.7c-2.5,0.5-4.3,2.3-5.5,4.6C290.4,136.1,291.3,136.6,291.6,136.1
								L291.6,136.1z"/>
						</g>
					</g>
					<g>
						<g>
							<path class="st11" d="M254.8,132.8c-1-3-2.4-6.3-5.7-7.4c-1.3-0.4-2.8-0.6-4.1-0.5c-0.9,0.1-1.9,0.4-2.7,0.7
								c-0.9,0.4-1.7,1.1-2.4,1.9c-1.4,1.6-2.8,3.3-3.8,5.2c-0.9,1.7-1.6,3.6-2.1,5.6c-0.9,4-0.9,8.2-0.4,12.3
								c1.1,8.9,4.1,17.5,6.4,26.2c2.7,10.1,5.4,20.4,5,31c-0.2,5-1.1,10.1-3.1,14.7c-1.7,3.8-4.4,7.5-8.3,9.2
								c-0.9,0.4-1.9,0.7-3,0.9c-0.6,0.1-0.4,1.1,0.3,1c4.1-0.6,7.3-3.4,9.6-6.7c2.6-3.8,4.1-8.3,4.8-12.8
								c1.7-10.1-0.2-20.4-2.6-30.2c-1.1-4.7-2.4-9.3-3.7-13.9c-1.2-4.3-2.4-8.5-3.4-12.9c-1.7-7.9-2.8-16.9,1.3-24.3
								c1.1-1.9,2.4-3.6,4-5.2c1.3-1.3,3.4-2,5.2-1.9c1.2,0.1,2.4,0.3,3.5,0.9c1.3,0.7,2.1,1.9,2.7,3.2c0.5,1,0.9,2.1,1.3,3.1
								C254.1,133.7,255,133.4,254.8,132.8L254.8,132.8z"/>
						</g>
					</g>
					<g>
						<g>
							<path class="st11" d="M242.9,135.1c-1-2.1-2.4-4.1-4.4-5.3c-1.7-1.1-3.7-1.4-5.7-1.3c-5,0.4-9.3,3.1-12,7.3
								c-3.3,5-4,11.1-3.4,16.9c0.3,3.3,1,6.5,1.8,9.7c0.8,3.3,1.6,6.6,1.8,10c0.4,5.9-1.4,12.7-7.1,15.5c-0.6,0.3-0.1,1.1,0.5,0.9
								c4.5-2.2,6.9-7.1,7.5-11.8c0.8-6.3-1.4-12.6-2.6-18.7c-1.2-6-1.8-12.4,0.5-18.2c1.9-4.7,5.5-8.7,10.5-10
								c2.2-0.6,4.6-0.8,6.8,0.2c2.4,1,4,3.2,5.1,5.5C242.3,136.2,243.2,135.7,242.9,135.1L242.9,135.1z"/>
						</g>
					</g>
					<g>
						<path class="st11" d="M285.5,212.6c1.7,1.1,3.2,2.4,4.4,3.9c0.7,0.8,1.3,1.7,1.4,2.7c0.1,1-0.3,2.2-1.3,2.6
							c-1.5,0.6-3-1.1-3.5-2.6c-0.7-1.9-1-3.9-0.7-5.9"/>
					</g>
					<g>
						<path class="st11" d="M283.4,202.2c1.9,1,3.6,2.2,5.3,3.5c1,0.8,2,1.9,1.6,3.1c-0.4,1.1-2,1.3-3.1,0.7c-1-0.6-1.6-1.8-2.1-2.9
							c-0.7-1.6-1.5-3.1-2.2-4.7"/>
					</g>
					<g>
						<path class="st11" d="M283.1,202.5c-1.6,1.9-2.9,4-3.8,6.3c-0.6,1.3-0.7,3.3,0.6,3.8c0.7,0.3,1.6-0.1,2-0.7
							c0.5-0.6,0.7-1.3,0.9-2.1c0.3-1.6,0.4-3.3,0.3-4.9"/>
					</g>
					<g>
						<path class="st11" d="M282.5,191.3c1.8,1.6,3.5,3.3,5.3,4.9c0.5,0.5,1.1,1,1.3,1.7c0.2,0.7,0.1,1.6-0.6,1.9
							c-0.7,0.3-1.5-0.1-2.1-0.6c-1.9-1.5-3.3-3.6-3.8-6"/>
					</g>
					<g>
						<path class="st11" d="M282.4,188.7c-1.9,2.3-3.6,4.7-4.9,7.4c-0.3,0.7-0.7,1.5-0.3,2.1c0.4,0.7,1.6,0.8,2.3,0.3
							c0.7-0.5,1.1-1.3,1.4-2.1c0.6-1.4,1.2-2.8,1.8-4.2"/>
					</g>
					<g>
						<path class="st11" d="M283.1,181.5c2,1.8,3.9,3.7,5.6,5.8c0.2,0.2,0.4,0.5,0.5,0.8c0.2,0.9-1,1.7-1.9,1.5
							c-0.9-0.2-1.6-1.1-2.1-1.9c-1-1.6-1.7-3.4-2.2-5.2"/>
					</g>
					<g>
						<path class="st11" d="M282.7,174.8c-1.5,1.9-3.1,3.9-4.5,5.8c-0.9,1.2-1.7,3-0.5,3.9c1,0.8,2.6-0.1,3.2-1.3
							c0.6-1.2,0.8-2.6,1.6-3.6"/>
					</g>
					<g>
						<path class="st11" d="M283.7,169.9c1.9,1.7,3.8,3.5,5.6,5.2c0.7,0.6,1.4,1.6,1,2.4c-0.1,0.3-0.4,0.5-0.7,0.7
							c-1.6,0.8-3.5-0.5-4.4-2.1c-0.8-1.6-1-3.4-1.7-5.1"/>
					</g>
					<g>
						<path class="st11" d="M284,161.6c-1.2,0.8-2.3,1.6-3.5,2.4c-0.6,0.5-1.3,0.9-1.7,1.6c-0.4,0.7-0.4,1.7,0.2,2.2
							c1,0.9,2.6-0.1,3.3-1.3c0.9-1.4,1.5-3,1.8-4.7"/>
					</g>
					<g>
						<path class="st11" d="M285.3,155.9c1.5,1,2.9,2.1,4.4,3.1c1.4,1,3,2.6,2.2,4.1c-0.5,1-1.9,1.3-2.9,0.8c-1-0.4-1.7-1.4-2.2-2.4
							c-0.8-1.7-1.2-3.5-1.5-5.3"/>
					</g>
					<g>
						<path class="st11" d="M284.6,145.4c-1.5,2-3.1,4.1-4.6,6.1c-0.5,0.6-1,1.5-0.7,2.2c0.3,0.8,1.5,0.9,2.2,0.5
							c0.7-0.4,1.1-1.3,1.5-2.1c0.9-2.3,1.6-4.7,1.9-7.1"/>
					</g>
					<g>
						<path class="st11" d="M285.3,141.7c0.4,2,2.4,3.3,4,4.5c0.7,0.5,1.4,1.1,1.7,2c0.3,0.8,0.2,1.9-0.5,2.4
							c-1.1,0.8-2.5-0.1-3.3-1.1c-1.5-1.9-2-4.4-2.5-6.8"/>
					</g>
					<g>
						<path class="st11" d="M282.5,133.2c-1.2,2-2.3,4-3.5,6c-0.7,1.1-1.3,2.7-0.4,3.6c0.7,0.7,2,0.5,2.7-0.2c0.7-0.7,1-1.7,1.2-2.7
							c0.4-2.5,0.3-5.1-0.4-7.5"/>
					</g>
					<g>
						<path class="st11" d="M280,127.7c2.3-0.8,4.9-0.2,6.7,1.3c0.7,0.6,1.3,1.4,1.4,2.4c0.1,0.9-0.4,2-1.4,2.2
							c-1.1,0.3-2.1-0.5-2.8-1.3c-1.1-1.2-2.1-2.4-3-3.8"/>
					</g>
					<g>
						<path class="st11" d="M311.4,175.9c2.4,0.7,4.7,2,6.6,3.7c0.5,0.4,0.9,1.1,0.6,1.6c-0.3,0.5-1.1,0.4-1.7,0.2
							c-2.2-0.8-4.6-2.2-4.8-4.5"/>
					</g>
					<g>
						<path class="st11" d="M309.7,171.6c-1.4,2.3-2.4,4.9-2.9,7.6c-0.1,0.8-0.3,1.6,0,2.3c0.2,0.7,0.9,1.4,1.7,1.4
							c1.1-0.1,1.7-1.3,1.9-2.4c0.4-1.9,0.4-4,0.1-5.9"/>
					</g>
					<g>
						<path class="st11" d="M309.6,166.1c1.9,1.7,3.7,3.5,5.2,5.6c0.7,0.9,1.2,2.3,0.3,2.8c-0.3,0.2-0.8,0.2-1.2,0.1
							c-2-0.4-3.5-2.3-3.5-4.3"/>
					</g>
					<g>
						<path class="st11" d="M309.7,158.4c-1.6,1.9-3.3,3.8-4.9,5.7c-0.5,0.5-0.9,1.1-0.8,1.8c0.2,1.1,1.7,1.4,2.6,0.9
							c0.9-0.6,1.3-1.7,1.7-2.7c0.5-1.5,1.1-3,1.6-4.5"/>
					</g>
					<g>
						<path class="st11" d="M311.3,152.2c1.3,1.9,2.7,3.8,4,5.7c0.8,1.1,1.5,2.7,0.5,3.6c-0.6,0.6-1.6,0.5-2.3,0s-1.1-1.2-1.4-2
							c-0.7-1.8-1.1-3.8-1.1-5.8"/>
					</g>
					<g>
						<path class="st11" d="M309.3,143.6c-1.2,1.8-2.3,3.7-3.5,5.5c-0.6,0.9-1.1,2.3-0.2,3c1,0.7,2.2-0.4,2.7-1.5
							c1-2.1,1.5-4.5,1.3-6.8"/>
					</g>
					<g>
						<path class="st11" d="M308.5,138.5c2.2,0.9,4.2,2,6,3.5c0.9,0.7,1.9,1.9,1.5,3c-0.5,1.3-2.5,1.1-3.6,0.3c-1.1-0.8-2-2-3.4-2.4
							"/>
					</g>
					<g>
						<path class="st11" d="M302.8,133.2c-0.1,2.6-1.9,5.1-1,7.5c0.3,0.7,1.1,1.4,1.8,1.1c0.3-0.1,0.5-0.5,0.7-0.8
							c1.1-2.1,0.8-4.8-0.7-6.7"/>
					</g>
					<g>
						<path class="st11" d="M300.8,131.3c2.7-1.4,6.1-2,8.5-0.2c0.4,0.3,0.8,0.7,0.9,1.2c0.2,0.8-0.5,1.5-1.3,1.8s-1.6,0.1-2.3,0
							c-1-0.2-2-0.4-2.9-0.5"/>
					</g>
					<g>
						<path class="st11" d="M245,208c-3.2,0.9-6,3.2-7.5,6.2c1.6,0.6,3.5-0.1,4.8-1.2c1.3-1.1,2.1-2.7,3-4.2"/>
					</g>
					<g>
						<path class="st11" d="M245.4,200.1c1.4,1.2,2.7,2.5,4.1,3.7c0.9,0.8,1.9,2.1,1.4,3.2c-0.5,1-2.1,1.1-3,0.4
							c-0.9-0.7-1.3-1.9-1.6-3c-0.4-1.5-0.7-3.1-0.9-4.7"/>
					</g>
					<g>
						<path class="st11" d="M244,194.1c-2.8,1.1-5.3,3.2-6.7,5.8c-0.3,0.6-0.6,1.3-0.2,1.9c0.2,0.4,0.7,0.6,1.2,0.7
							c2.2,0.2,3.7-2.2,4.5-4.3c0.5-1.3,1.1-2.6,1.6-3.9"/>
					</g>
					<g>
						<path class="st11" d="M243.7,187.8c2.3,1.3,4.5,2.8,6.5,4.6c0.4,0.4,0.9,1,0.7,1.6c-0.2,0.5-0.7,0.7-1.2,0.8
							c-1.6,0.1-3.1-1.1-3.9-2.5c-0.9-1.4-1.4-3-2.3-4.3"/>
					</g>
					<g>
						<path class="st11" d="M241,182.2c-1.9,1.7-3.6,3.7-4.8,6c-0.2,0.4-0.5,0.9-0.4,1.4c0.1,1,1.3,1.5,2.2,1.2c0.9-0.3,1.6-1.1,2-2
							c1-1.8,1.6-3.8,1.6-5.9"/>
					</g>
					<g>
						<path class="st11" d="M240.3,174.6c2,1.7,5.4,1.4,6.9,3.6c0.2,0.3,0.4,0.7,0.4,1.1c-0.1,0.8-1,1.4-1.9,1.3
							c-0.8-0.1-1.5-0.7-2.1-1.3c-1.3-1.3-2.4-2.7-3.3-4.2"/>
					</g>
					<g>
						<path class="st11" d="M237.1,167.1c-1.6,1.8-3.2,3.6-4.7,5.5c-0.6,0.7-1.2,1.8-0.6,2.5c0.5,0.7,1.5,0.6,2.2,0.3
							c1.4-0.6,2.5-1.9,3-3.4c0.6-1.5,0.7-3,0.9-4.6"/>
					</g>
					<g>
						<path class="st11" d="M235.8,158.5c3,0.9,5.8,2.3,8.4,4c0.3,0.2,0.7,0.5,0.9,0.9c0.3,0.7,0,1.6-0.6,2.1c-1.2,1-3,0.8-4.2-0.1
							c-1.3-0.8-2.1-2.2-2.9-3.5c-0.6-1-1.2-1.9-1.8-2.9"/>
					</g>
					<g>
						<path class="st11" d="M233.8,150.5c-2.1,1-3.9,2.6-5.2,4.5c-0.5,0.8-1,1.7-0.9,2.6c0.1,0.9,1,1.8,1.9,1.5
							c0.3-0.1,0.6-0.4,0.9-0.6c2.1-2.1,3.5-4.8,3.9-7.7"/>
					</g>
					<g>
						<path class="st11" d="M233.9,143.2c1.7,1.4,3.3,2.9,5,4.4c1.1,1,2.3,2.6,1.6,3.9c-0.6,1.1-2.3,1-3.3,0.3c-1-0.8-1.4-2-1.8-3.2
							c-0.4-1.2-0.7-2.4-1.6-3.3"/>
					</g>
					<g>
						<path class="st11" d="M234.7,136.8c-2.7-0.5-5.6,0.2-7.7,1.9c-0.5,0.4-0.9,0.9-0.9,1.5c0.1,1.1,1.6,1.3,2.7,1
							c2-0.5,3.9-1.7,5.2-3.3"/>
					</g>
					<g>
						<path class="st11" d="M238.4,131.1c0.7,1.8,1.3,3.6,2,5.4c0.4,1,0.7,2,0.5,3c-0.2,1-1.1,2-2.1,1.9c-1.5-0.2-1.9-2.2-1.8-3.7
							c0.1-2.2,0.2-4.3,0.3-6.5"/>
					</g>
					<g>
						<path class="st11" d="M242.7,125.5c-1.7-0.9-3.4-1.8-5.2-2.5c-0.6-0.2-1.3-0.5-2-0.3c-0.7,0.2-1.2,0.9-0.9,1.5
							c0.1,0.3,0.4,0.5,0.6,0.6c1.7,1.1,3.7,1.7,5.7,1.6"/>
					</g>
					<g>
						<path class="st11" d="M248.2,125.9c-2.1,0.4-3.8,2.5-3.8,4.8c0,0.3,0,0.6,0.3,0.7c0.2,0.1,0.4,0.1,0.5,0.1
							c1.1-0.2,1.9-1.3,2.3-2.3c0.5-1.1,0.8-2.2,1.6-3.1"/>
					</g>
					<g>
						<path class="st11" d="M273.7,124.7c1,1.5,1.5,3.4,1.2,5.1c-0.2,1.3-0.7,2.8,0.3,3.7c0.8,0.7,2.1,0.4,2.8-0.4
							c0.7-0.8,1.6-1.7,1.5-2.7c-0.3-2.4-0.5-3.7-2.5-5"/>
					</g>
					<g>
						<path class="st11" d="M273.4,124.4c1.9-2.8,5.3-4.6,8.7-4.5c0.7,0,1.5,0.2,1.8,0.9c0.3,0.8-0.6,1.6-1.3,1.9
							c-1.6,0.8-3.3,1.2-5,1.3"/>
					</g>
					<g>
						<path class="st11" d="M215.9,186.5c-2.2,0.1-4.4,0.7-6.3,1.8c-0.6,0.4-1.2,0.8-1.5,1.4c-0.3,0.6-0.2,1.5,0.4,1.9
							c0.3,0.2,0.7,0.2,1,0.2c2.8,0.1,5.5-1.7,6.6-4.3"/>
					</g>
					<g>
						<path class="st11" d="M220.1,182c0.8,1.8,1.2,3.7,1.2,5.7c0,0.9-0.2,2-1,2.4c-1,0.5-2.2-0.3-2.5-1.4c-0.3-1.1,0-2.2,0.3-3.2
							c0.4-1.3,0.8-2.6,1.2-3.8"/>
					</g>
					<g>
						<path class="st11" d="M220.4,172.3c-1.7,1.4-3.3,2.7-5,4.1c-0.9,0.7-1.8,1.8-1.2,2.8c0.6,1.1,2.3,0.5,3.3-0.3
							c1.7-1.5,3-3.3,3.7-5.4"/>
					</g>
					<g>
						<path class="st11" d="M220.9,167.8c2.5,1.4,4.7,3.4,6.3,5.9c0.3,0.5,0.6,1.1,0.6,1.7c0,0.6-0.5,1.2-1.1,1.3
							c-0.4,0-0.7-0.2-1-0.4c-2.5-1.9-3.5-5.1-4.4-8.2"/>
					</g>
					<g>
						<path class="st11" d="M218.8,159.7c-1.7,1.8-3.2,3.8-4.5,6c-0.3,0.5-0.6,1.1-0.6,1.8c0,0.6,0.5,1.3,1.2,1.3
							c0.3,0,0.6-0.2,0.9-0.5c2.3-1.9,3.5-5,3.2-8"/>
					</g>
					<g>
						<path class="st11" d="M217.8,154c2.3,1.2,4.4,2.8,6.2,4.7c0.7,0.7,1.4,1.9,0.7,2.7c-0.8,0.9-2.3,0.1-3-0.9
							c-1.5-1.8-2.6-3.9-3.2-6.2"/>
					</g>
					<g>
						<path class="st11" d="M217.4,147.1c-2.4,1.5-5.1,3.4-6.5,5.9c-0.3,0.6-0.6,1.3-0.3,1.9c0.3,0.6,1.2,0.8,1.9,0.6
							c0.7-0.3,1.2-0.8,1.6-1.4c1.3-1.6,2.5-3.3,3.6-5.1"/>
					</g>
					<g>
						<path class="st11" d="M218.9,140.9c1.3,1.9,2.7,3.9,4,5.8c0.6,0.9,1.2,2.1,0.5,3c-0.7,0.8-2,0.4-2.7-0.3
							c-1.9-1.7-1.7-4.7-1.4-7.2"/>
					</g>
					<g>
						<path class="st11" d="M220.9,135.2c-2.8-0.8-6.1-0.1-8.2,1.9c-0.3,0.3-0.6,0.6-0.6,1c-0.1,0.6,0.5,1.2,1.1,1.3
							c0.6,0.1,1.2,0,1.8-0.3c2-0.7,3.8-1.9,5.2-3.3"/>
					</g>
					<g>
						<path class="st11" d="M227.3,129.4c-0.7-0.6-1.6-1.2-2.4-1.6c-1.2-0.6-2.6-1.1-3.9-0.7c-1.3,0.4-2.3,2-1.6,3.1
							c0.5,0.9,1.7,1.2,2.8,1.2c1.5,0.1,2.9-0.1,4.4-0.5"/>
					</g>
				</g>
			</g>
		</g>
		<g>
			<g>
				<g>
					<path class="st11" d="M280.8,268c-7-4.9-11.3-12.6-13.7-20.6c-2.7-9-3.3-18.4-3.5-27.7c-0.2-11.3,0.4-22.6,1-33.8
						c0.6-11.2,1-22.5,0.5-33.7c-0.1-2.8-0.3-5.6-0.6-8.5c-0.3-2.6-0.5-5.2-1-7.8c-0.4-1.9-1.2-4-3-4.9c-1.3-0.7-3.2-0.7-4.4,0.2
						c-0.6,0.4-1,1.1-1.1,1.8c-0.1,0.6,0.9,0.9,1,0.3c0.3-1.7,2.3-2.1,3.7-1.6c2,0.7,2.7,3.2,3.1,5.1c1,5.3,1.3,10.9,1.6,16.3
						c0.5,11,0,22.1-0.5,33.1c-0.5,11-1.2,22-1,33c0.1,9.1,0.7,18.3,3.1,27.2c2.1,7.8,5.9,15.4,12.1,20.8c0.8,0.6,1.6,1.3,2.4,1.8
						C280.8,269.2,281.3,268.4,280.8,268L280.8,268z"/>
				</g>
			</g>
			<g>
				<g>
					<path class="st11" d="M260,130.9c-1.1,2.5-2,5-2.6,7.7c-0.2,0.9-0.3,2,0.5,2.4c0.9,0.4,1.8-0.6,2.2-1.5
						c1.1-2.5,1.4-5.3,0.9-7.9"/>
				</g>
				<g>
					<path class="st11" d="M263.4,135.5c1.9,0.8,3.6,2.2,4.7,4c0.4,0.6,0.8,1.3,0.7,2c0,0.7-0.6,1.5-1.3,1.5c-0.8,0-1.4-0.7-1.8-1.4
						c-0.9-1.6-1.7-3.3-2.3-5.1"/>
				</g>
				<g>
					<path class="st11" d="M263.7,146.3c-2.2,1.1-3.8,3.2-4.5,5.6c-0.1,0.4-0.1,0.9,0.2,1.1c0.2,0.1,0.5,0.1,0.8,0
						c2.6-0.8,3.6-4,4.2-6.7"/>
				</g>
				<g>
					<path class="st11" d="M265.4,152.6c1.4,1.1,2.5,2.4,3.4,3.9c0.5,0.7,0.9,1.6,0.7,2.5c-0.1,0.9-1,1.7-1.8,1.4
						c-0.5-0.2-0.9-0.7-1.1-1.2c-0.8-1.6-1.3-3.5-1.3-5.3"/>
				</g>
				<g>
					<path class="st11" d="M264.4,161.6c-2,1.3-4.1,2.8-4.9,5.1c-0.2,0.7-0.2,1.8,0.5,2c0.5,0.2,1-0.1,1.4-0.4
						c1.9-1.3,3.1-3.4,3.3-5.7"/>
				</g>
				<g>
					<path class="st11" d="M265.2,168.8c1.1,1.2,2.1,2.3,3.2,3.5c0.5,0.6,1.1,1.2,1.3,1.9s0,1.7-0.7,2c-0.7,0.3-1.5,0-2-0.6
						c-0.5-0.6-0.7-1.3-0.9-2.1c-0.4-1.4-0.7-2.8-1.1-4.2"/>
				</g>
				<g>
					<path class="st11" d="M263.7,178.4c-1.2,0.7-2.3,1.5-3.3,2.4c-0.4,0.4-0.9,0.8-1.1,1.4s-0.1,1.3,0.4,1.6c0.7,0.4,1.5,0,2.1-0.5
						c1.4-1.2,2.4-3,2.6-4.8"/>
				</g>
				<g>
					<path class="st11" d="M264.5,186.9c1.3,1.6,2.5,3.4,3.4,5.2c0.4,0.7,0.7,1.5,0.6,2.3s-0.9,1.6-1.7,1.4
						c-0.7-0.2-1.1-0.9-1.3-1.6c-0.8-2.1-1.2-4.3-1.4-6.6"/>
				</g>
				<g>
					<path class="st11" d="M262.9,197.6c-1.4,0.5-2.6,1.3-3.7,2.3c-0.5,0.5-0.9,1-1,1.7c-0.1,0.7,0.3,1.4,1,1.5
						c0.6,0.1,1.1-0.4,1.5-0.8c1-1.1,1.9-2.4,2.5-3.7"/>
				</g>
				<g>
					<path class="st11" d="M263.7,207c1.1,1.5,2.1,3,3.2,4.4c0.3,0.5,0.7,1,0.6,1.5c-0.1,1-1.4,1.4-2.3,0.9
						c-0.9-0.4-1.3-1.4-1.6-2.3c-0.3-1.1-0.5-2.3-0.5-3.4"/>
				</g>
				<g>
					<path class="st11" d="M262.6,217.2c-1.6,0.5-3.1,1.6-4.1,3c-0.3,0.5-0.6,1-0.6,1.5c0,0.6,0.4,1.2,0.9,1.2
						c0.5,0.1,0.9-0.3,1.3-0.6c1.2-1.1,2.2-2.4,2.9-3.8"/>
				</g>
				<g>
					<path class="st11" d="M263.6,224c1,1.1,2.1,2.2,3.1,3.2c0.7,0.7,1.4,1.5,1.5,2.5c0.1,1-0.9,2.1-1.8,1.7
						c-0.3-0.1-0.6-0.4-0.8-0.7c-0.9-1.3-1.6-2.8-2-4.4"/>
				</g>
				<g>
					<path class="st11" d="M263.2,234.5c-1.7,0.9-2.9,2.6-3.4,4.4c-0.2,0.9-0.2,2.1,0.6,2.5c0.6,0.3,1.3,0,1.8-0.5
						c0.5-0.5,0.7-1.1,0.9-1.8c0.4-1.2,0.8-2.5,1.3-3.7"/>
				</g>
				<g>
					<path class="st11" d="M265.7,241.3c1.3,0.7,2.6,1.3,3.6,2.3c1,1,1.7,2.5,1.5,3.9c-1.9,0.8-4.3-0.9-4.3-2.9"/>
				</g>
				<g>
					<path class="st11" d="M267,250.2c-1,1.9-1.6,4-1.6,6.2c0,0.8,0.5,2,1.3,1.6c0.3-0.1,0.5-0.5,0.6-0.8c0.6-1.9,0.9-3.9,0.8-5.8"
						/>
				</g>
				<g>
					<path class="st11" d="M270.1,255.7c1.6,0.4,3.1,0.8,4.7,1.2c1,0.3,2.2,0.7,2.4,1.8c0.1,0.9-0.7,1.8-1.7,1.9
						c-0.9,0.1-1.9-0.2-2.8-0.5"/>
				</g>
				<g>
					<path class="st11" d="M275.9,264.5c0.1,2.5,1.4,4.8,3.4,6.3c0.6,0.5,1.4,0.8,2.1,0.8c0.8-0.1,1.5-0.7,1.4-1.5
						c-0.1-0.5-0.5-0.9-0.9-1.3c-1.8-1.6-3.7-3-5.9-4.1"/>
				</g>
			</g>
		</g>
	</g>
	<g>
		<g>
			<g>
				<g>
					<path class="st19" d="M321.3,415.4c-0.6,4.2,0.3,9.1-0.3,13.3c-0.1,0.8,0.6,4.5,0.7,5.3c0.4,3.2,4,4.9,5.4,7.8
						c0.1,0.3,0.3,0.6,0.3,1c-0.1,1.1-1.5,1.4-2.5,1.5c-3.1,0.2-6.2,0.3-9.4,0.5c-1.2,0.1-2.6,0-3.2-1c-0.3-0.5-0.4-1-0.5-1.6
						c-1.1-7.9-5.3-19.5-6.4-27.5"/>
				</g>
				<g>
					<path class="st14" d="M356,456.8c-7.8,0.4-14.1,0.8-21.9,1.2c-2.4,0.1-4.9,0.2-7-0.9c-1.2-0.6-2.3-1.6-3.6-1.3
						c-1,0.2-1.7,1.2-2.6,1.6c-0.8,0.4-1.7,0.5-2.6,0.5c-2.7,0.1-5.4,0.2-8.1,0.3c-0.9,0-1.9,0-2.6-0.6c-0.8-0.7-0.9-1.9-0.8-3
						c0.1-4.3,0.8-8.6,2-12.7c0.3-0.9,0.7-2,1.6-2.3c0.8-0.3,1.7,0.2,2.5,0.6c3.1,1.7,7.2,2.9,10,0.7c0.7-0.6,1.3-1.3,2.2-1.7
						c0.9-0.4,2-0.3,3-0.1c8.6,1.5,17.1,4.2,25,8c1.8,0.9,3.7,1.8,4.8,3.6c1.1,1.7,1,4.4-0.6,5.5"/>
				</g>
				<g>
					<g>
						<path class="st20" d="M339.9,441.3c-1.6,1.2-2.4,3.2-2.6,5.2c0,0.3,0.2,0.5,0.5,0.5c0.3,0,0.5-0.2,0.5-0.5
							c0.2-1.6,0.8-3.3,2.2-4.3c0.2-0.2,0.3-0.4,0.2-0.7C340.4,441.3,340.1,441.2,339.9,441.3L339.9,441.3z"/>
					</g>
				</g>
				<g>
					<g>
						<path class="st20" d="M332.7,439.2c-1.6,1.7-2.8,3.8-3.4,6.1c-0.2,0.6,0.8,0.9,1,0.3c0.6-2.1,1.6-4.1,3.1-5.7
							C333.9,439.4,333.2,438.7,332.7,439.2L332.7,439.2z"/>
					</g>
				</g>
			</g>
			<g>
				<g>
					<g>
						<path class="st13" d="M318.8,429c2-0.4,3.4-2.2,3.2-4.2c-2.6-33.4-7.3-67.7-19-99c-3.1-8.4-7.3-17.4-15.5-20.9
							c-6.6-2.8-14.3-1.3-21.2,0.8c-30.8,9.5-59,33.2-76.1,60.5c-5.7,9.1-9.4,16.3-10.4,27c-1,10.7,2.2,22.1,10.1,29.3
							c8.1,7.3,20.1,9.3,30.9,7.2c10.8-2.1,20.5-7.7,29.5-13.9c16.3-11.2,27.5-30.5,32.7-51.6c0.1-0.4,0.7-0.3,0.7,0.1
							c1.2,21,6.2,35.7,22.7,64.3c0.8,1.4,2.5,2.2,4.1,1.9L318.8,429z"/>
					</g>
					<g>
						<path class="st12" d="M321.1,422.1c-2.2,1.6-4.7,2.7-7.4,3.4c-2.6,0.6-5.5,0.7-8.1,0c2.7,0,5.3-0.3,7.9-0.9
							C316.1,423.9,318.6,423,321.1,422.1z"/>
					</g>
					<g>
						<path class="st12" d="M314,423.7c-1.7-9-3.6-18-5.6-27c-2-9-4.1-17.9-6.3-26.8c-2.3-8.9-4.6-17.8-7.1-26.6
							c-1.2-4.4-2.5-8.8-3.8-13.2c-0.7-2.2-1.3-4.4-2.5-6.3c-0.6-0.9-1.3-1.8-2.1-2.5c-0.8-0.7-1.8-1.2-2.9-1.5
							c-2.1-0.6-4.4-0.4-6.5,0.1c-2.2,0.6-4.3,1.5-6.2,2.6c-3.9,2.3-7.7,4.9-11.2,7.8c-3.5,2.9-6.9,6-10.1,9.2
							c-3.2,3.3-6.2,6.7-9.2,10.2c-5.9,7-11.3,14.4-16.6,21.9l-16,22.4l15.6-22.7c5.2-7.5,10.6-15,16.4-22.1c2.9-3.5,6-7,9.2-10.3
							c3.2-3.3,6.6-6.4,10.2-9.3c3.6-2.9,7.4-5.5,11.3-7.9c2-1.1,4.2-2.1,6.5-2.7c2.3-0.6,4.7-0.8,7.1-0.1c1.2,0.4,2.3,0.9,3.2,1.7
							c0.9,0.8,1.7,1.7,2.3,2.7c1.2,2.1,1.9,4.3,2.5,6.5c1.3,4.4,2.6,8.8,3.8,13.2c2.5,8.8,4.8,17.7,6.9,26.7
							c2.1,8.9,4.2,17.9,6,26.9C310.7,405.7,312.4,414.7,314,423.7z"/>
					</g>
				</g>
				<g>
					<g>
						<path class="st12" d="M162.8,388.9c28.8,0.6,57.4,6.6,84,17.6c6.8,2.8,13.6,6,18.8,11.2c5.2,5.2,8.6,12.7,7.1,19.9
							c-2.2,10.5-13.3,16.5-23.6,19.5c-21.8,6.4-45,6.2-67.6,4.5c-20.6-1.5-43.6-5.7-55.1-22.8c-10.8-16-7.4-37.5-1.6-55.9"/>
					</g>
					<g>
						<path class="st21" d="M272.8,433.4l-8.4,2.3l-8.6,1.8l-8.7,1.2l-8.7,0.6c-11.7,0.4-23.4-0.7-34.8-3.1
							c-11.4-2.5-22.5-6.4-33-11.6l-7.7-4.2l-7.4-4.6l-7.1-5.1l-6.7-5.6l6.9,5.4l7.2,4.9l7.5,4.5l7.7,4c10.5,5.1,21.5,8.9,32.8,11.3
							c11.3,2.5,23,3.6,34.6,3.3C250,438.2,261.6,436.5,272.8,433.4z"/>
					</g>
					<g>
						<path class="st21" d="M160.5,419.1c-3.3,1.9-7.1,3.2-11,3.5c-3.9,0.4-7.9-0.2-11.5-1.9c-3.6-1.7-6.6-4.7-8.2-8.3
							c-0.8-1.8-1.3-3.7-1.6-5.6c-0.3-1.9-0.3-3.9-0.2-5.8c0.2,3.8,0.8,7.7,2.5,11.1c0.9,1.7,1.9,3.2,3.3,4.5
							c1.3,1.3,2.9,2.4,4.6,3.2c3.4,1.7,7.3,2.2,11,2c1.9-0.1,3.8-0.4,5.6-0.9C156.9,420.5,158.7,419.9,160.5,419.1z"/>
					</g>
				</g>
			</g>
		</g>
		<g>
			<g>
				<path class="st19" d="M160.7,297.4c-1.6-6.2-4.7-13.7-4.3-21.6c0.2-4.2-3.4-5.7-6.6-6.3c-2.1-0.4-4.2,1.4-5.3,3.7
					c-1.1,2.3-0.2,1.2-0.7,3.9c-1.2,6.6-2.5,11.8-5.3,19.8"/>
			</g>
			<g>
				<path class="st22" d="M142.6,282.9c0.5-2,0.9-4,1.2-5.9c0.5-2.7-0.4-1.6,0.7-3.9c0.5-1,1.2-2,2-2.6c1.5,0.2,3.1,0.4,4.6,0.7
					c1.4,0.2,2.8,0.5,4.1,0.9c0.8,0.9,1.2,2.1,1.2,3.7c-0.1,2,0,4,0.3,5.9C152.6,284.3,147.2,284.8,142.6,282.9z"/>
			</g>
			<path id="hair_2_" class="st14" d="M139,274.7c-5.4-2.6-9.1-7.8-11.2-13.4c-2.1-5.6-2.6-11.7-2.9-17.8c-0.1-3.1,0-6.6,2.4-8.5
				c1.2-1,2.8-1.4,4.4-1.7c7.1-1.6,14.4-3.2,21.6-3.4c7.3-0.1,14.7,1.3,20.7,5.3c0.9,0.6,1.8,1.3,2.2,2.3c0.5,1,0.4,2.1,0.4,3.2
				c-0.4,7.4-1,15-4.3,21.6c-3.3,6.7-9.8,12.3-17.1,12.3"/>
			<g>
				<path class="st19" d="M130.6,254c-0.2,14.5,10.2,26.2,19.7,26.1c9.4-0.1,20.2-12,20.4-26.5c0.2-14.5-10.5-24.2-19.9-24.1
					C141.3,229.6,130.8,239.5,130.6,254z"/>
				<g>
					<path class="st19" d="M131.6,259.7c-2.5-0.7-4.6-2.7-4.7-5.1c-0.2-2.4,2.1-5,4.6-4.9"/>
					<path class="st19" d="M168.9,259.2c2.5-0.7,4.6-2.8,4.9-5.2c0.2-2.4-1.9-4.9-4.5-4.8"/>
				</g>
			</g>
			<g>
				<path class="st14" d="M156.8,243.6c-0.1,0.1,0,0.3,0.2,0.3c0.2,0,0.4,0,0.6-0.1c2.2-0.8,4.9-0.8,7.1,0c0.3,0.1,0.7,0.3,1,0.3
					c0.4,0,0.8-0.2,0.8-0.4c0-0.1-0.1-0.2-0.1-0.3c-0.3-0.4-0.9-0.7-1.5-0.9c-2-0.7-4.4-0.6-6.4,0.1
					C157.8,242.7,157.1,243.1,156.8,243.6"/>
			</g>
			<g>
				<path class="st14" d="M145.9,243.9c0.1,0.1,0,0.3-0.2,0.3c-0.2,0-0.4-0.1-0.6-0.1c-2.3-0.9-5.1-1-7.5-0.3
					c-0.4,0.1-0.7,0.2-1.1,0.2c-0.4,0-0.8-0.2-0.8-0.5c0-0.1,0.1-0.2,0.2-0.3c0.4-0.4,1.1-0.7,1.7-0.9c2.2-0.6,4.7-0.5,6.8,0.4
					C145,243,145.7,243.4,145.9,243.9"/>
			</g>
			<g class="st23">
				<g>
					<path class="st22" d="M134.9,261.4c0,2.3,1.9,4.2,4.4,4.1c2.4,0,4.4-1.9,4.5-4.2c0-2.3-1.9-4.2-4.4-4.1
						C136.9,257.2,134.9,259.1,134.9,261.4z"/>
					<g>
						<g>
							<g>
								<g>
									<g>
										<polygon class="st24" points="134.9,261.4 134.9,261.4 134.8,261.3 										"/>
										<path class="st24" d="M135.3,261.1c0,0,0-0.1,0-0.1c-0.3,0-0.2-0.1-0.5,0.1c0,0.1,0.2,0.2,0.3,0.2c0,0-0.1-0.1-0.1-0.2
											c0.1,0,0.1,0.1,0.2,0.2c0.1-0.1-0.1-0.1,0-0.2L135.3,261.1z"/>
										<path class="st24" d="M135,260.9c0.1,0,0.1,0,0.2,0C135.1,261,135,260.9,135,260.9z"/>
										<path class="st24" d="M135,260.9c0-0.1,0.1,0,0.1,0l-0.2-0.1L135,260.9z"/>
										<path class="st24" d="M135,260.5L135,260.5C135,260.5,135,260.5,135,260.5z"/>
										<path class="st24" d="M135.1,260.4c-0.1,0,0,0.1,0,0.1c0,0,0,0,0,0c0.1,0,0.2,0.1,0.2,0.1c0,0.1-0.1,0,0,0.1l0.1-0.1
											C135.3,260.5,135.1,260.4,135.1,260.4z"/>
										<path class="st24" d="M135,260.5C135,260.5,135,260.6,135,260.5C135.1,260.6,135.1,260.5,135,260.5z"/>
										<polygon class="st24" points="135,260.7 135,260.7 135.1,260.7 										"/>
										<path class="st24" d="M135.1,260.1c0.2,0.1-0.1,0.2,0.1,0.2c0-0.1,0.2-0.1,0.3-0.1l0-0.1
											C135.4,260.1,135.3,260.1,135.1,260.1z"/>
										<path class="st24" d="M135.7,260.1C135.7,260.1,135.7,260.1,135.7,260.1C135.7,260.1,135.7,260.1,135.7,260.1z"/>
										<path class="st24" d="M135.7,259.4c0,0.1,0,0.2,0.1,0.3c0-0.1-0.1-0.1-0.1-0.1c-0.1,0.1,0,0.2,0,0.2
											c-0.2-0.1,0.1-0.2-0.1-0.2c0,0.1-0.1,0.2,0.1,0.3l-0.2,0l0.2,0c0.1,0-0.1-0.1,0-0.1c0.1,0,0.1,0.1,0.1,0.1
											c0-0.1,0.2-0.1,0.3-0.2C136,259.7,135.7,259.6,135.7,259.4z"/>
										<polygon class="st24" points="135.9,259.5 135.9,259.6 135.8,259.5 										"/>
										<path class="st24" d="M135.8,259.1l0,0.2c0,0-0.1,0-0.1,0c0,0,0.1,0.1,0.1,0.1c0.2,0.1,0-0.2,0.1-0.3
											c0.2-0.1,0.1,0.1,0.3,0.1c0,0-0.1,0-0.1,0.1c0.2,0,0.2-0.2,0.2-0.3c0,0-0.1,0-0.1,0l0-0.1
											C136,258.9,135.9,259,135.8,259.1z"/>
										<path class="st24" d="M135.6,259.4C135.7,259.3,135.7,259.3,135.6,259.4C135.7,259.3,135.6,259.3,135.6,259.4z"/>
										<path class="st24" d="M136.2,259C136.2,259,136.2,259,136.2,259C136.2,259.1,136.2,259.1,136.2,259z"/>
										<path class="st24" d="M136,258.9L136,258.9L136,258.9C136,258.9,136,258.9,136,258.9z"/>
										<path class="st24" d="M139.3,257.7c0-0.1,0-0.1-0.1-0.1c0-0.1,0.1-0.1,0.1-0.2c-0.1-0.1,0-0.1,0-0.2
											c-0.1,0-0.2,0.1-0.3,0.1c0,0,0-0.1,0-0.1c-0.1,0.1-0.4,0.2-0.5,0.1c-0.1,0-0.2,0.1-0.4,0.2c-0.5,0.1-0.9,0.4-1.4,0.7
											l0.1,0.2c-0.1-0.1-0.1,0.1-0.2,0c0,0,0,0,0.1-0.1c-0.2-0.1-0.2,0.2-0.4,0.2c0,0,0.2,0.1,0.2,0.2c-0.2-0.2-0.1,0.1-0.3,0
											c-0.1,0.1,0.1,0.1,0,0.2c0.1,0.1,0.1-0.1,0.2,0c0.1,0.1-0.1,0.1,0,0.1c0.2-0.1,0.3-0.6,0.5-0.8l0,0.1
											c0.1-0.2,0.3-0.3,0.6-0.2c-0.1-0.1,0.2,0,0.1-0.3c0.1,0,0.1,0,0.1,0l0-0.1c0.1,0,0.1,0.1,0.2,0.1c-0.1-0.1,0-0.1,0-0.2
											c0.2,0.1,0.3,0.2,0.4,0.2c0,0,0-0.1-0.1-0.1c0.1,0,0-0.1,0-0.1c0.1,0,0.1,0.1,0.1,0.2c0.1,0,0.1-0.3,0.2-0.2l-0.1-0.1
											c0.1,0,0.3,0.1,0.4,0c0.1,0.2-0.1,0.2-0.1,0.2c0,0,0.1,0,0.1,0.1c0-0.1,0.1-0.2,0.2-0.3
											C139.1,257.7,139.3,257.7,139.3,257.7z"/>
										<path class="st24" d="M139,257.8C139,257.8,139,257.8,139,257.8C139,257.8,139,257.8,139,257.8
											C139,257.8,139,257.8,139,257.8z"/>
										<path class="st24" d="M139.3,257.7L139.3,257.7C139.4,257.7,139.4,257.7,139.3,257.7z"/>
										<path class="st24" d="M138.5,257.3C138.5,257.3,138.5,257.3,138.5,257.3C138.5,257.3,138.5,257.3,138.5,257.3L138.5,257.3
											z"/>
										<path class="st24" d="M138.5,257.9c0,0-0.1-0.1-0.1-0.1C138.4,257.9,138.4,257.9,138.5,257.9z"/>
										<path class="st24" d="M137.7,258c0,0,0,0.1,0,0.1C137.7,258.1,137.7,258.1,137.7,258z"/>
										<polygon class="st24" points="139.1,257.8 139.2,257.8 139.3,257.7 										"/>
										<path class="st24" d="M141.4,257.6c0-0.2-0.2-0.2-0.3-0.2c-0.2,0-0.1,0.3-0.3,0.2l0.1-0.3c-0.2,0-0.5-0.2-0.7,0.1
											c0,0,0-0.1,0-0.1c-0.1,0-0.1,0.4-0.3,0.3c0.2-0.2,0-0.2,0-0.4l0,0c-0.1,0-0.3,0.1-0.4,0.1c0,0.1,0.1,0.2,0,0.2
											c0,0,0,0.1,0,0.2c0.1-0.1,0.2,0,0.2-0.1c0.1,0.1,0,0,0,0.1l0.1-0.1c0.1,0-0.1,0.1,0,0.1c0-0.1,0.1-0.1,0.2-0.1l0,0
											c0.1,0,0.1,0,0.1-0.1l0,0.2l0-0.1c0.2,0.1,0.1,0.4,0.4,0.3c0,0,0-0.1,0.1-0.1c-0.1-0.1-0.1,0.1-0.2,0.1
											c0-0.1,0.2-0.2,0.1-0.3c0.1,0.2,0.2,0,0.2,0.3c0.1,0.1,0.2-0.1,0.3,0l0,0c0.1-0.2,0.1,0.1,0.2,0l0-0.1
											c0-0.1,0.1-0.1,0.1,0c0,0,0,0,0,0.1c0.1-0.1,0.2-0.1,0.3-0.1c-0.1,0-0.2,0-0.3,0C141.3,257.6,141.3,257.5,141.4,257.6z"/>
										<path class="st24" d="M139.9,257.7L139.9,257.7C140,257.6,139.9,257.6,139.9,257.7z"/>
										<path class="st24" d="M141.8,258.1c0.1,0.1-0.1,0.1-0.1,0.2c0.1,0,0-0.2,0.2-0.3c0,0.1,0.1,0,0.2,0.1
											c-0.1,0-0.2,0.2-0.2,0.2c0.1,0,0.1,0.1,0.1,0.1c0-0.2,0.1,0,0.1-0.2c0.1-0.1,0.2,0,0.2,0c-0.1,0.1-0.1,0-0.1,0
											c-0.1,0.1,0,0.1-0.1,0.2c0.2-0.1,0.5,0.3,0.7-0.1c0-0.1-0.1-0.1-0.1-0.1c0.1,0.2-0.1,0.1-0.2,0.2c0-0.1-0.1-0.1-0.1-0.1
											l0.2,0c-0.2-0.3-0.5-0.5-0.9-0.7l0.1,0.1c-0.1,0.1-0.1,0-0.2,0l0,0.2c0,0-0.1,0,0-0.1c-0.1,0.1-0.1,0.1-0.1,0.2
											c-0.1,0-0.1-0.1-0.2,0c0.1,0.2,0.2-0.1,0.3,0.2L141.8,258.1z"/>
										<polygon class="st24" points="141.4,258 141.5,257.9 141.4,257.9 										"/>
										<path class="st24" d="M141.7,257.6C141.7,257.6,141.6,257.6,141.7,257.6C141.7,257.8,141.7,257.7,141.7,257.6z"/>
										<path class="st24" d="M142.3,258.6c0,0,0.1,0,0.1,0L142.3,258.6C142.3,258.6,142.3,258.6,142.3,258.6z"/>
										<path class="st24" d="M143.2,258.8c-0.1-0.1-0.2-0.1-0.3-0.3c-0.2,0-0.2,0.2-0.3,0.3c0,0.1,0.2-0.1,0.3,0
											c-0.1,0.1,0.1,0.1,0.1,0.2C143.1,258.9,143.2,258.8,143.2,258.8z"/>
										<path class="st24" d="M143.1,259.5c0,0.1,0.1,0.1,0.1,0.2c-0.1,0-0.1,0-0.1,0c-0.1,0.1,0.1,0.1,0,0.2c0,0,0,0,0.1,0
											c0,0.2,0.2,0,0.2,0.3c0.1,0,0.1,0.1,0.2,0c-0.1,0.2-0.1,0.1-0.2,0.3c0.1,0,0.2-0.1,0.3-0.2c-0.1,0.3,0.1,0.2,0,0.4
											c0,0,0,0,0-0.1c-0.2,0.1,0.1,0.1,0,0.2l-0.2,0c0,0.1,0.2,0.2,0,0.3l-0.1,0c0.1,0.2,0.1,0.4,0.1,0.6l-0.1,0.1
											c0.1,0.2,0.1-0.2,0.3,0c-0.3,0,0.1,0.1-0.1,0.3c-0.1,0,0-0.1-0.2-0.1c0.2,0.1,0,0.1,0.1,0.2c-0.1,0,0,0.1-0.2,0.1
											c0.1,0.1,0.1,0.2,0.2,0.3c-0.1,0-0.1,0.1-0.1,0.1c0-0.1,0.2,0.1,0.3,0c0-0.2,0-0.6,0.1-0.9c-0.2,0,0-0.2-0.2-0.2
											c0.1,0,0.1,0,0.2,0c-0.1-0.2-0.1,0-0.2,0c0-0.1,0.1-0.1,0.2-0.1c0-0.1-0.1,0-0.2-0.1l0.2-0.1c-0.1-0.4-0.4-0.9-0.4-1.4
											l-0.1,0.1c0-0.2-0.4-0.2-0.3-0.5l-0.1,0c0.1,0,0.2-0.1,0.3-0.2c-0.1,0-0.1-0.1-0.1-0.1l0,0.1c-0.1,0-0.1-0.1-0.1-0.2
											c-0.2,0-0.1,0.2-0.2,0.3c0.3,0-0.1,0.3,0.1,0.4C143,259.7,143,259.6,143.1,259.5z"/>
										<path class="st24" d="M143.3,259.1C143.3,259.1,143.3,259.1,143.3,259.1C143.3,259.1,143.3,259.1,143.3,259.1z"/>
										<path class="st24" d="M143.4,262.5C143.4,262.5,143.4,262.6,143.4,262.5C143.4,262.6,143.4,262.6,143.4,262.5z"/>
										<polygon class="st24" points="143.1,258.9 143.1,258.9 143.1,258.9 										"/>
										<polygon class="st24" points="142.7,259 142.8,259.1 142.8,259 										"/>
										<path class="st24" d="M143,263L143,263C143.1,263,143.1,263,143,263z"/>
										<path class="st24" d="M142,264.2L142,264.2C142.1,264.2,142,264.2,142,264.2z"/>
										<path class="st24" d="M138.5,265.3c-0.1,0-0.3,0-0.4,0.1l0-0.1c-0.1,0-0.3,0.1-0.2,0.3l0-0.1c0.2-0.1,0.1,0.1,0.2,0.2
											c0.1,0,0.3-0.3,0.4-0.2c0.1,0,0,0.1,0,0.1c0.1,0,0.2-0.2,0.3-0.2c0,0.6,0.4-0.1,0.5,0.2c0.1-0.1,0.3,0,0.4-0.1
											c-0.1,0.2,0.1,0,0.1,0.2c0-0.3,0.4,0.1,0.4-0.3c0.2,0.1,0,0,0.2,0c0,0,0,0.1,0,0.1c0.1,0.1,0.1-0.2,0.2,0
											c0.2,0,0-0.1,0.1-0.3c0.2,0,0.2,0.1,0.3,0.2c-0.1-0.2,0.1-0.1,0.1-0.3c0,0-0.2,0-0.1-0.1c0.2-0.1,0.1-0.2,0.2-0.3
											c0.2,0.1-0.2,0.1,0.1,0.2c-0.1,0.2-0.1,0.2-0.1,0.4c0.2-0.1,0.3-0.2,0.4-0.4c0.1,0,0,0.1,0.1,0.1c0.2,0,0.1-0.3,0.3-0.3
											l0,0.1c0-0.2,0.3-0.2,0.3-0.4c-0.1,0-0.1,0-0.1-0.1c0.2,0.2,0.1-0.3,0.3-0.2c-0.1-0.1-0.1-0.3-0.1-0.4
											c0.1,0,0.1,0.1,0.2,0.1c-0.2,0.1,0.1,0.2,0,0.4c0-0.1,0.2-0.2,0.1-0.4l0.1,0.1c0.1-0.1-0.2-0.3,0-0.3l0.1,0.1
											c0.2-0.3,0.5-0.5,0.4-0.9c-0.1,0-0.3,0-0.4,0c0,0.2,0.1,0.3,0.1,0.4l-0.1-0.1c0.1,0.1,0.1,0.2,0.2,0.2
											c0,0.1-0.2,0-0.1,0.1c-0.1-0.1-0.1-0.2-0.2-0.2l0,0.1c0-0.1-0.1,0-0.1,0c0.1,0.2-0.2,0.2-0.2,0.3l0.1-0.1
											c0.1,0.1,0,0.1,0,0.1c-0.1,0-0.1,0-0.2,0c0,0.1,0.1,0.3,0,0.3c-0.1-0.1-0.2,0.1-0.3,0c0.1,0.1-0.1,0.2,0,0.3
											c0,0.1-0.1,0.1-0.1,0c0,0,0,0,0-0.1l0,0c0,0,0,0,0,0c0,0,0,0.1-0.1,0.1c0,0,0-0.1,0-0.1c-0.1,0.1,0,0.4-0.2,0.3
											c0,0.1-0.1,0.2,0,0.3c-0.1,0-0.1-0.2-0.2-0.1c0,0.2-0.1,0-0.2,0.1c0-0.2,0,0,0-0.2c-0.1,0-0.1,0.2-0.2,0.3
											c0,0,0-0.1-0.1-0.1c0,0.1,0,0.2-0.1,0.1l0.1,0.1c-0.1,0-0.2,0.1-0.3,0l0,0.2c-0.2-0.2-0.3,0.1-0.4,0.3
											c-0.1,0-0.2,0-0.2-0.1c0,0,0-0.1,0-0.1c-0.1,0-0.2-0.1-0.2,0.1c-0.1,0.1-0.1-0.1-0.1-0.1c-0.2,0.3-0.5-0.1-0.5,0.2
											c0.1,0,0.2,0.1,0.3,0c0,0,0,0.1-0.1,0.1c-0.1,0-0.2-0.1-0.4-0.1l0-0.2C138.9,265.1,138.7,265.7,138.5,265.3z"/>
										<path class="st24" d="M140.2,265.3l-0.1-0.1L140.2,265.3C140.2,265.3,140.2,265.2,140.2,265.3z"/>
										<path class="st24" d="M140.1,265.3C140.1,265.3,140.1,265.3,140.1,265.3C140.1,265.3,140.1,265.3,140.1,265.3L140.1,265.3
											z"/>
										<path class="st24" d="M138.2,265.3c0,0-0.1,0-0.1,0C138.1,265.3,138.1,265.3,138.2,265.3z"/>
										<polygon class="st24" points="138,265.3 138.1,265.4 138.1,265.4 										"/>
										<path class="st24" d="M135.5,263.9l-0.2-0.1c0-0.1-0.1-0.2,0-0.2c-0.2,0-0.2-0.3-0.3-0.1c0.3,0.4,0.7,1.1,1.3,1.3l-0.1,0
											c0.4,0,0.2,0.4,0.6,0.2l-0.1,0.2c0.1,0.1,0.4-0.1,0.4,0.1l0-0.1c0,0,0,0.1,0.1,0.1l0,0c0.1,0,0.2,0,0.2,0.1
											c0,0.1-0.1,0-0.1,0c0,0.1,0.1,0,0.2,0c0,0.1,0,0.1-0.1,0.1c0.2,0,0.3,0.2,0.5,0c0-0.1,0-0.1,0.1-0.1
											c-0.1-0.1-0.3-0.1-0.4,0l0,0c-0.2,0.2-0.1-0.1-0.3,0c0.1-0.1,0.2-0.1,0.2-0.1c-0.1-0.3-0.3,0-0.3-0.3l0,0c0,0-0.1,0-0.1,0
											c0,0,0,0.1,0,0.1c-0.1,0-0.1,0.1-0.2,0.2c0-0.1-0.1,0-0.1-0.1c0-0.1,0.1-0.1,0.2-0.1l-0.1,0c-0.1,0,0-0.2,0-0.2
											c-0.1,0,0,0.1-0.1,0.2c0-0.2-0.3-0.4-0.6-0.4c0.1,0,0.1-0.1,0.2,0c0,0-0.1-0.1-0.2,0c-0.2,0-0.2-0.2-0.3-0.3l0,0.1
											c-0.2,0-0.1-0.3-0.3-0.4l0,0c-0.1,0-0.3,0.1-0.3-0.1C135.4,263.9,135.4,263.9,135.5,263.9z"/>
										<path class="st24" d="M135,263.4l0.1,0c0-0.1-0.2-0.1-0.3,0C134.9,263.4,134.9,263.5,135,263.4
											C135,263.4,135,263.4,135,263.4z"/>
										<path class="st24" d="M134.6,262.1c0,0-0.1,0-0.1,0c0,0.3,0.2,0.6,0.1,0.8c0,0.1,0.2,0.1,0.3,0.2l-0.1,0.1
											c0.1,0,0,0.3,0.2,0.1c0,0-0.1,0-0.1-0.1l0.1,0l-0.1-0.1l0.1,0c0.1-0.2-0.3,0-0.3-0.2l0.2-0.1c0-0.1-0.1-0.2,0-0.3
											c0,0-0.1,0-0.1,0c0,0-0.1,0.1-0.1,0.1c-0.2-0.2,0.1,0,0.2-0.2c-0.2-0.1-0.3-0.5-0.2-0.6c-0.1,0.1-0.2,0-0.2-0.1
											c0.1,0,0.1,0,0.2,0c0,0,0.1-0.1,0-0.1c-0.1,0.1-0.2,0-0.3-0.1C134.2,261.7,134.5,261.9,134.6,262.1z"/>
										<path class="st24" d="M134.4,262.1C134.4,262.1,134.4,262.1,134.4,262.1C134.4,262.1,134.4,262,134.4,262.1L134.4,262.1z"
											/>
									</g>
								</g>
							</g>
						</g>
					</g>
				</g>
				<g>
					<path class="st22" d="M159,261.2c0,2.3,1.9,4.2,4.4,4.1c2.4,0,4.4-1.9,4.5-4.2c0-2.3-1.9-4.2-4.4-4.1
						C161,257,159,258.9,159,261.2z"/>
					<g>
						<g>
							<g>
								<g>
									<g>
										<polygon class="st24" points="158.9,261.2 158.9,261.1 158.8,261.1 										"/>
										<path class="st24" d="M159.3,260.8c0,0,0-0.1,0-0.1c-0.3,0-0.2-0.1-0.5,0.1c0,0.1,0.2,0.2,0.3,0.2c0,0-0.1-0.1-0.1-0.2
											c0.1,0,0.1,0.1,0.2,0.2c0.1-0.1-0.1-0.1,0-0.2L159.3,260.8z"/>
										<path class="st24" d="M159,260.7c0.1,0,0.1,0,0.2,0C159.1,260.7,159.1,260.6,159,260.7z"/>
										<path class="st24" d="M159,260.6c0-0.1,0.1,0,0.1,0l-0.2-0.1L159,260.6z"/>
										<path class="st24" d="M159.1,260.3L159.1,260.3C159,260.2,159.1,260.2,159.1,260.3z"/>
										<path class="st24" d="M159.1,260.1c-0.1,0,0,0.1,0,0.1c0,0,0,0,0,0c0.1,0,0.2,0.1,0.2,0.1c0,0.1-0.1,0,0,0.1l0.1-0.1
											C159.3,260.3,159.2,260.2,159.1,260.1z"/>
										<path class="st24" d="M159.1,260.3C159.1,260.3,159.1,260.3,159.1,260.3C159.1,260.3,159.1,260.3,159.1,260.3z"/>
										<polygon class="st24" points="159,260.4 159.1,260.5 159.1,260.5 										"/>
										<path class="st24" d="M159.2,259.8c0.2,0.1-0.1,0.2,0.1,0.2c0-0.1,0.2-0.1,0.3-0.1l0-0.1
											C159.5,259.8,159.3,259.8,159.2,259.8z"/>
										<path class="st24" d="M159.8,259.8C159.7,259.8,159.7,259.8,159.8,259.8C159.7,259.8,159.7,259.8,159.8,259.8z"/>
										<path class="st24" d="M159.7,259.1c0,0.1,0,0.2,0.1,0.3c0-0.1-0.1-0.1-0.1-0.1c-0.1,0.1,0,0.2,0,0.2
											c-0.2-0.1,0.1-0.2-0.1-0.2c0,0.1-0.1,0.2,0.1,0.3l-0.2,0l0.2,0c0.1,0-0.1-0.1,0-0.1c0.1,0,0.1,0.1,0.1,0.1
											c0-0.1,0.2-0.1,0.3-0.2C160,259.4,159.7,259.3,159.7,259.1z"/>
										<polygon class="st24" points="159.9,259.3 160,259.3 159.9,259.2 										"/>
										<path class="st24" d="M159.8,258.9l0,0.2c0,0-0.1,0-0.1,0c0,0,0.1,0.1,0.1,0.1c0.2,0.1,0-0.2,0.1-0.3
											c0.2-0.1,0.1,0.1,0.3,0.1c0,0-0.1,0-0.1,0.1c0.2,0,0.2-0.2,0.2-0.3c0,0-0.1,0-0.1,0l0-0.1
											C160,258.7,159.9,258.7,159.8,258.9z"/>
										<path class="st24" d="M159.7,259.1C159.7,259,159.7,259,159.7,259.1C159.7,259,159.7,259,159.7,259.1z"/>
										<path class="st24" d="M160.3,258.8C160.3,258.8,160.3,258.8,160.3,258.8C160.3,258.8,160.3,258.8,160.3,258.8z"/>
										<path class="st24" d="M160.1,258.7L160.1,258.7L160.1,258.7C160,258.6,160,258.6,160.1,258.7z"/>
										<path class="st24" d="M163.4,257.4c0-0.1,0-0.1-0.1-0.1c0-0.1,0.1-0.1,0.1-0.2c-0.1-0.1,0-0.1,0-0.2
											c-0.1,0-0.2,0.1-0.3,0.1c0,0,0-0.1,0-0.1c-0.1,0.1-0.4,0.2-0.5,0.1c-0.1,0-0.2,0.1-0.4,0.2c-0.5,0.1-0.9,0.4-1.4,0.7
											l0.1,0.2c-0.1-0.1-0.1,0.1-0.2,0c0,0,0,0,0.1-0.1c-0.2-0.1-0.2,0.2-0.4,0.2c0,0,0.2,0.1,0.2,0.2c-0.2-0.2-0.1,0.1-0.3,0
											c-0.1,0.1,0.1,0.1,0,0.2c0.1,0.1,0.1-0.1,0.2,0c0.1,0.1-0.1,0.1,0,0.1c0.2-0.1,0.3-0.6,0.5-0.8l0,0.1
											c0.1-0.2,0.3-0.3,0.6-0.2c-0.1-0.1,0.2,0,0.1-0.3c0.1,0,0.1,0,0.1,0l0-0.1c0.1,0,0.1,0.1,0.2,0.1c-0.1-0.1,0-0.1,0-0.2
											c0.2,0.1,0.3,0.2,0.4,0.2c0,0,0-0.1-0.1-0.1c0.1,0,0-0.1,0-0.1c0.1,0,0.1,0.1,0.1,0.2c0.1,0,0.1-0.3,0.2-0.2l-0.1-0.1
											c0.1,0,0.3,0.1,0.4,0c0.1,0.2-0.1,0.2-0.1,0.2c0,0,0.1,0,0.1,0.1c0-0.1,0.1-0.2,0.2-0.3
											C163.2,257.4,163.3,257.4,163.4,257.4z"/>
										<path class="st24" d="M163,257.5C163,257.5,163,257.6,163,257.5C163,257.6,163,257.6,163,257.5
											C163,257.5,163,257.5,163,257.5z"/>
										<path class="st24" d="M163.4,257.4L163.4,257.4C163.4,257.4,163.4,257.4,163.4,257.4z"/>
										<path class="st24" d="M162.5,257.1C162.5,257.1,162.5,257.1,162.5,257.1C162.6,257.1,162.6,257.1,162.5,257.1L162.5,257.1
											z"/>
										<path class="st24" d="M162.5,257.6c0,0-0.1-0.1-0.1-0.1C162.4,257.6,162.5,257.6,162.5,257.6z"/>
										<path class="st24" d="M161.7,257.8c0,0,0,0.1,0,0.1C161.8,257.9,161.8,257.8,161.7,257.8z"/>
										<polygon class="st24" points="163.2,257.5 163.3,257.5 163.3,257.5 										"/>
										<path class="st24" d="M165.4,257.3c0-0.2-0.2-0.2-0.3-0.2c-0.2,0-0.1,0.3-0.3,0.2l0.1-0.3c-0.2,0-0.5-0.2-0.7,0.1
											c0,0,0-0.1,0-0.1c-0.1,0-0.1,0.4-0.3,0.3c0.2-0.2,0-0.2,0-0.4l0,0c-0.1,0-0.3,0.1-0.4,0.1c0,0.1,0.1,0.2,0,0.2
											c0,0,0,0.1,0,0.2c0.1-0.1,0.2,0,0.2-0.1c0.1,0.1,0,0,0,0.1l0.1-0.1c0.1,0-0.1,0.1,0,0.1c0-0.1,0.1-0.1,0.2-0.1l0,0
											c0.1,0,0.1,0,0.1-0.1l0,0.2l0-0.1c0.2,0.1,0.1,0.4,0.4,0.3c0,0,0-0.1,0.1-0.1c-0.1-0.1-0.1,0.1-0.2,0.1
											c0-0.1,0.2-0.2,0.1-0.3c0.1,0.2,0.2,0,0.2,0.3c0.1,0.1,0.2-0.1,0.3,0l0,0c0.1-0.2,0.1,0.1,0.2,0l0-0.1
											c0-0.1,0.1-0.1,0.1,0c0,0,0,0,0,0.1c0.1-0.1,0.2-0.1,0.3-0.1c-0.1,0-0.2,0-0.3,0C165.3,257.4,165.4,257.3,165.4,257.3z"/>
										<path class="st24" d="M164,257.4L164,257.4C164,257.4,164,257.4,164,257.4z"/>
										<path class="st24" d="M165.8,257.8c0.1,0.1-0.1,0.1-0.1,0.2c0.1,0,0-0.2,0.2-0.3c0,0.1,0.1,0,0.2,0.1
											c-0.1,0-0.2,0.2-0.2,0.2c0.1,0,0.1,0.1,0.1,0.1c0-0.2,0.1,0,0.1-0.2c0.1-0.1,0.2,0,0.2,0c-0.1,0.1-0.1,0-0.1,0
											c-0.1,0.1,0,0.1-0.1,0.2c0.2-0.1,0.5,0.3,0.7-0.1c0-0.1-0.1-0.1-0.1-0.1c0.1,0.2-0.1,0.1-0.2,0.2c0-0.1-0.1-0.1-0.1-0.1
											l0.2,0c-0.2-0.3-0.5-0.5-0.9-0.7l0.1,0.1c-0.1,0.1-0.1,0-0.2,0l0,0.2c0,0-0.1,0,0-0.1c-0.1,0.1-0.1,0.1-0.1,0.2
											c-0.1,0-0.1-0.1-0.2,0c0.1,0.2,0.2-0.1,0.3,0.2L165.8,257.8z"/>
										<polygon class="st24" points="165.4,257.7 165.5,257.6 165.4,257.6 										"/>
										<path class="st24" d="M165.7,257.3C165.7,257.4,165.7,257.4,165.7,257.3C165.7,257.5,165.7,257.4,165.7,257.3z"/>
										<path class="st24" d="M166.3,258.3c0,0,0.1,0,0.1,0L166.3,258.3C166.4,258.3,166.3,258.3,166.3,258.3z"/>
										<path class="st24" d="M167.2,258.5c-0.1-0.1-0.2-0.1-0.3-0.3c-0.2,0-0.2,0.2-0.3,0.3c0,0.1,0.2-0.1,0.3,0
											c-0.1,0.1,0.1,0.1,0.1,0.2C167.2,258.6,167.2,258.6,167.2,258.5z"/>
										<path class="st24" d="M167.1,259.3c0,0.1,0.1,0.1,0.1,0.2c-0.1,0-0.1,0-0.1,0c-0.1,0.1,0.1,0.1,0,0.2c0,0,0,0,0.1,0
											c0,0.2,0.2,0,0.2,0.3c0.1,0,0.1,0.1,0.2,0c-0.1,0.2-0.1,0.1-0.2,0.3c0.1,0,0.2-0.1,0.3-0.2c-0.1,0.3,0.1,0.2,0,0.4
											c0,0,0,0,0-0.1c-0.2,0.1,0.1,0.1,0,0.2l-0.2,0c0,0.1,0.2,0.2,0,0.3l-0.1,0c0.1,0.2,0.1,0.4,0.1,0.6l-0.1,0.1
											c0.1,0.2,0.1-0.2,0.3,0c-0.3,0,0.1,0.1-0.1,0.3c-0.1,0,0-0.1-0.2-0.1c0.2,0.1,0,0.1,0.1,0.2c-0.1,0,0,0.1-0.2,0.1
											c0.1,0.1,0.1,0.2,0.2,0.3c-0.1,0-0.1,0.1-0.1,0.1c0-0.1,0.2,0.1,0.3,0c0-0.2,0-0.6,0.1-0.9c-0.2,0,0-0.2-0.2-0.2
											c0.1,0,0.1,0,0.2,0c-0.1-0.2-0.1,0-0.2,0c0-0.1,0.1-0.1,0.2-0.1c0-0.1-0.1,0-0.2-0.1l0.2-0.1c-0.1-0.4-0.4-0.9-0.4-1.4
											l-0.1,0.1c0-0.2-0.4-0.2-0.3-0.5l-0.1,0c0.1,0,0.2-0.1,0.3-0.2c-0.1,0-0.1-0.1-0.1-0.1l0,0.1c-0.1,0-0.1-0.1-0.1-0.2
											c-0.2,0-0.1,0.2-0.2,0.3c0.3,0-0.1,0.3,0.1,0.4C167.1,259.4,167.1,259.3,167.1,259.3z"/>
										<path class="st24" d="M167.4,258.8C167.3,258.8,167.3,258.8,167.4,258.8C167.3,258.8,167.3,258.8,167.4,258.8z"/>
										<path class="st24" d="M167.5,262.3C167.5,262.3,167.5,262.3,167.5,262.3C167.5,262.3,167.5,262.3,167.5,262.3z"/>
										<polygon class="st24" points="167.1,258.6 167.1,258.6 167.1,258.6 										"/>
										<polygon class="st24" points="166.8,258.8 166.8,258.8 166.9,258.8 										"/>
										<path class="st24" d="M167.1,262.7L167.1,262.7C167.1,262.7,167.1,262.7,167.1,262.7z"/>
										<path class="st24" d="M166.1,263.9L166.1,263.9C166.1,263.9,166.1,263.9,166.1,263.9z"/>
										<path class="st24" d="M162.6,265.1c-0.1,0-0.3,0-0.4,0.1l0-0.1c-0.1,0-0.3,0.1-0.2,0.3l0-0.1c0.2-0.1,0.1,0.1,0.2,0.2
											c0.1,0,0.3-0.3,0.4-0.2c0.1,0,0,0.1,0,0.1c0.1,0,0.2-0.2,0.3-0.2c0,0.6,0.4-0.1,0.5,0.2c0.1-0.1,0.3,0,0.4-0.1
											c-0.1,0.2,0.1,0,0.1,0.2c0-0.3,0.4,0.1,0.4-0.3c0.2,0.1,0,0,0.2,0c0,0,0,0.1,0,0.1c0.1,0.1,0.1-0.2,0.2,0
											c0.2,0,0-0.1,0.1-0.3c0.2,0,0.2,0.1,0.3,0.2c-0.1-0.2,0.1-0.1,0.1-0.3c0,0-0.2,0-0.1-0.1c0.2-0.1,0.1-0.2,0.2-0.3
											c0.2,0.1-0.2,0.1,0.1,0.2c-0.1,0.2-0.1,0.2-0.1,0.4c0.2-0.1,0.3-0.2,0.4-0.4c0.1,0,0,0.1,0.1,0.1c0.2,0,0.1-0.3,0.3-0.3
											l0,0.1c0-0.2,0.3-0.2,0.3-0.4c-0.1,0-0.1,0-0.1-0.1c0.2,0.2,0.1-0.3,0.3-0.2c-0.1-0.1-0.1-0.3-0.1-0.4
											c0.1,0,0.1,0.1,0.2,0.1c-0.2,0.1,0.1,0.2,0,0.4c0-0.1,0.2-0.2,0.1-0.4l0.1,0.1c0.1-0.1-0.2-0.3,0-0.3l0.1,0.1
											c0.2-0.3,0.5-0.5,0.4-0.9c-0.1,0-0.3,0-0.4,0c0,0.2,0.1,0.3,0.1,0.4l-0.1-0.1c0.1,0.1,0.1,0.2,0.2,0.2
											c0,0.1-0.2,0-0.1,0.1c-0.1-0.1-0.1-0.2-0.2-0.2l0,0.1c0-0.1-0.1,0-0.1,0c0.1,0.2-0.2,0.2-0.2,0.3l0.1-0.1
											c0.1,0.1,0,0.1,0,0.1c-0.1,0-0.1,0-0.2,0c0,0.1,0.1,0.3,0,0.3c-0.1-0.1-0.2,0.1-0.3,0c0.1,0.1-0.1,0.2,0,0.3
											c0,0.1-0.1,0.1-0.1,0c0,0,0,0,0-0.1l0,0c0,0,0,0,0,0c0,0,0,0.1-0.1,0.1c0,0,0-0.1,0-0.1c-0.1,0.1,0,0.4-0.2,0.3
											c0,0.1-0.1,0.2,0,0.3c-0.1,0-0.1-0.2-0.2-0.1c0,0.2-0.1,0-0.2,0.1c0-0.2,0,0,0-0.2c-0.1,0-0.1,0.2-0.2,0.3
											c0,0,0-0.1-0.1-0.1c0,0.1,0,0.2-0.1,0.1l0.1,0.1c-0.1,0-0.2,0.1-0.3,0l0,0.2c-0.2-0.2-0.3,0.1-0.4,0.3
											c-0.1,0-0.2,0-0.2-0.1c0,0,0-0.1,0-0.1c-0.1,0-0.2-0.1-0.2,0.1c-0.1,0.1-0.1-0.1-0.1-0.1c-0.2,0.3-0.5-0.1-0.5,0.2
											c0.1,0,0.2,0.1,0.3,0c0,0,0,0.1-0.1,0.1c-0.1,0-0.2-0.1-0.4-0.1l0-0.2C163,264.9,162.7,265.4,162.6,265.1z"/>
										<path class="st24" d="M164.3,265l-0.1-0.1L164.3,265C164.2,265,164.2,265,164.3,265z"/>
										<path class="st24" d="M164.2,265C164.2,265,164.2,265,164.2,265C164.2,265.1,164.2,265.1,164.2,265L164.2,265z"/>
										<path class="st24" d="M162.2,265c0,0-0.1,0-0.1,0C162.1,265,162.2,265.1,162.2,265z"/>
										<polygon class="st24" points="162.1,265.1 162.1,265.1 162.1,265.1 										"/>
										<path class="st24" d="M159.5,263.6l-0.2-0.1c0-0.1-0.1-0.2,0-0.2c-0.2,0-0.2-0.3-0.3-0.1c0.3,0.4,0.7,1.1,1.3,1.3l-0.1,0
											c0.4,0,0.2,0.4,0.6,0.2l-0.1,0.2c0.1,0.1,0.4-0.1,0.4,0.1l0-0.1c0,0,0,0.1,0.1,0.1l0,0c0.1,0,0.2,0,0.2,0.1
											c0,0.1-0.1,0-0.1,0c0,0.1,0.1,0,0.2,0c0,0.1,0,0.1-0.1,0.1c0.2,0,0.3,0.2,0.5,0c0-0.1,0-0.1,0.1-0.1
											c-0.1-0.1-0.3-0.1-0.4,0l0,0c-0.2,0.2-0.1-0.1-0.3,0c0.1-0.1,0.2-0.1,0.2-0.1c-0.1-0.3-0.3,0-0.3-0.3l0,0c0,0-0.1,0-0.1,0
											c0,0,0,0.1,0,0.1c-0.1,0-0.1,0.1-0.2,0.2c0-0.1-0.1,0-0.1-0.1c0-0.1,0.1-0.1,0.2-0.1l-0.1,0c-0.1,0,0-0.2,0-0.2
											c-0.1,0,0,0.1-0.1,0.2c0-0.2-0.3-0.4-0.6-0.4c0.1,0,0.1-0.1,0.2,0c0,0-0.1-0.1-0.2,0c-0.2,0-0.2-0.2-0.3-0.3l0,0.1
											c-0.2,0-0.1-0.3-0.3-0.4l0,0c-0.1,0-0.3,0.1-0.3-0.1C159.4,263.6,159.5,263.7,159.5,263.6z"/>
										<path class="st24" d="M159,263.1l0.1,0c0-0.1-0.2-0.1-0.3,0C158.9,263.1,158.9,263.2,159,263.1
											C159,263.1,159,263.1,159,263.1z"/>
										<path class="st24" d="M158.6,261.8c0,0-0.1,0-0.1,0c0,0.3,0.2,0.6,0.1,0.8c0,0.1,0.2,0.1,0.3,0.2l-0.1,0.1
											c0.1,0,0,0.3,0.2,0.1c0,0-0.1,0-0.1-0.1l0.1,0l-0.1-0.1l0.1,0c0.1-0.2-0.3,0-0.3-0.2l0.2-0.1c0-0.1-0.1-0.2,0-0.3
											c0,0-0.1,0-0.1,0c0,0-0.1,0.1-0.1,0.1c-0.2-0.2,0.1,0,0.2-0.2c-0.2-0.1-0.3-0.5-0.2-0.6c-0.1,0.1-0.2,0-0.2-0.1
											c0.1,0,0.1,0,0.2,0c0,0,0.1-0.1,0-0.1c-0.1,0.1-0.2,0-0.3-0.1C158.2,261.4,158.6,261.6,158.6,261.8z"/>
										<path class="st24" d="M158.4,261.8C158.4,261.8,158.5,261.8,158.4,261.8C158.5,261.8,158.5,261.8,158.4,261.8L158.4,261.8
											z"/>
									</g>
								</g>
							</g>
						</g>
					</g>
				</g>
			</g>
			<path class="st14" d="M139.8,248.9c0,1.6,0.7,2.8,1.6,2.8c0.9,0,1.7-1.3,1.7-2.8c0-1.6-0.7-2.8-1.6-2.8
				C140.5,246,139.8,247.3,139.8,248.9z"/>
			<g>
				<path class="st14" d="M159.9,248.9c0,1.6,0.7,2.8,1.6,2.8c0.9,0,1.7-1.3,1.7-2.8c0-1.6-0.7-2.8-1.6-2.8
					C160.7,246.1,159.9,247.4,159.9,248.9z"/>
			</g>
			<g>
				<path class="st25" d="M156.9,266.5c-3,3.6-5.9,4.2-9.3,2.9c-1.1-0.4-2.8-1.7-3.3-3.4c4.2,2.7,8.6,3,12.6,0.2"/>
				<path class="st0" d="M156.9,266.5c-2.7,2.1-6,2.7-10.4,1.3c-1-0.3-2-0.9-2.5-1.9c4.2,1.7,9.2,1.8,13.3,0.1L156.9,266.5z"/>
			</g>
			<path class="st22" d="M151.6,249l2.1,8.5c0.2,1,0.5,2,0.1,2.9c-0.3,0.7-1.4,1.5-2.8,1.3c-0.7-0.1-1.1-0.7-1.1-1.4"/>
			<g>
				<g id="hair_16_">
					<path class="st14" d="M175.8,239.2c5.2-5.9,7.9-14.9,7.1-23.6c-0.4-3.9-1.7-8-3.9-10.8c-1.4-1.7-3.1-3.8-5-3.3
						c-3.3,0.8-4.7,5.7-6.1,6.4c-1.4,0.7-1-1.9-3.5-2c-2.8-0.1-3.2,3.2-5.3,4.8c-2.3,1.7-4.9,2.8-7.6,3.7c-4.8,1.5-10,2.3-14.5,4.8
						c-6.1,3.3-10.8,9.8-12.8,17.5c-0.4,1.7-0.4,4.2,1.1,4.7c0.5,0.2,1.1,0,1.6-0.3c4-1.9,7-5.9,11-7.7c11.5-5.1,25,9.7,36.5,4.7"/>
				</g>
				<g>
					<path class="st14" d="M138.9,219.2c0.3-1,0.7-1.9,1-2.9c-0.4-0.5-1.4-0.2-2,0.2c-2.6,1.7-4.9,3.9-6.7,6.3c-0.9-0.1,0-1.8-0.9-2
						c-0.3-0.1-0.6,0.2-0.8,0.4c-3.4,4.1-5.7,11.7-5.4,16.8"/>
				</g>
			</g>
		</g>
		<g>
			<g>
				<g>
					<path class="st19" d="M189,303.7c9.6,12.1,20.5,21.7,34.4,29.5c14.3,8,26,9.4,37,9.2c5.2-0.1,9.8-3.1,14-5.8
						c1.1-0.7,2.3-1.5,3.7-1.2c2.7,0.5,2.4,4.4,0.3,6c-2,1.6-5,2.4-6.5,4.4c-2,2.8-0.9,7.3-3.9,9.2c-1.1,0.7-2.5,0.8-3.9,0.9
						c-17.9,1.1-40.9-4.4-57-12c-16-7.7-19.4-11.2-33.7-25.4"/>
				</g>
				<g>
					<path class="st19" d="M239.3,347.6c2.6-5.2,12.5,0.1,17.3-0.7c5.5-0.8,12.3-6.5,17.5-5.1c1,0.3,1.2,1.9,0.2,2.5
						c-1.7,1-3.5,1.8-5.3,2.2c-1.1,0.2-1.2,2-0.2,2.5c0.7,0.4,1.9,1.3,2.4,0.7c3.5-4,5.8-5.6,8.5-4.4c2.4,1.1,3.5,3.8,2.7,6.3
						l-1,3.1c-0.6,1.8-2.1,3.1-4.1,3.5c-4,0.8-5.8,0.8-9.6,0.2c-11.7-2-22.1-1.5-28.3-8"/>
				</g>
				<g>
					<g>
						<path class="st14" d="M351.9,357.3c-2.7,1.5-4.6,4.4-4.9,7.5c-10,2.2-20,4.6-30,7.2c1.3-2.9,2.7-5.8,4-8.7
							c0.5-1.1,1-2.4,0.6-3.5c-0.3-0.8-1-1.3-1.7-1.9c-6.8-5.3-13.5-10.5-20.3-15.8l-1.6-0.5c-0.8,0.6-1.6,1.3-2.3,1.9
							c-2.7-3.5-6.9-5.8-11.4-6c-4.5-0.2-9,1.7-12,5c-3.2,3.5-4.5,8.5-3.9,13.2c0.5,3.8,2.3,7.4,4.9,10.3c-1,1.2-2.1,2.3-3.1,3.5
							c-0.5,0.6-1.1,1.3-1.3,2.1c-0.4,1.7,1.2,3.2,2.6,4.3c9.6,7.5,19.2,14.9,28.8,22.4c0.9,0.7,2,1.5,3.1,1
							c0.8-0.3,1.2-1.2,1.6-1.9c2.5-5.4,5-10.8,7.5-16.2c11.6-3.9,23.2-8,34.8-12.3c1.3,3.3,4.6,5.8,8.1,6l0-0.1
							c0.6-0.3,0.2-1.4,0-2.2c-1-5-2-9.9-3-14.9C352.8,357.3,352.3,357,351.9,357.3z M275.5,355.3c-1.7-4.2,0.7-9.6,4.8-11.5
							c4-1.9,9.1-0.6,12.2,2.6c-4.9,4.5-9.5,9.2-14,14.2C277.7,358.7,276.3,357.1,275.5,355.3z"/>
					</g>
				</g>
				<g>
					<path class="st19" d="M277.7,358.3c-1.6,0.2-1.6,0.5-3.2,0.2c-1.6-0.2-3.2-1-4.1-2.3c-0.3-0.5-0.6-1.2-0.2-1.8
						c0.3-0.5,0.9-0.6,1.5-0.7c2.3-0.2,4.6,0.1,6.6,1.1"/>
				</g>
				<g>
					<path class="st19" d="M278.7,353.9c-1.6,0.2-1.6,0.5-3.2,0.2c-1.6-0.2-3.2-1-4.1-2.3c-0.3-0.5-0.6-1.2-0.2-1.8
						c0.3-0.5,0.9-0.6,1.5-0.7c2.3-0.2,4.6,0.1,6.6,1.1"/>
				</g>
				<g>
					<path class="st19" d="M279.4,350.2c-1.6-0.2-1.6,0.1-3.1-0.5c-1.5-0.6-2.9-1.7-3.4-3.2c-0.2-0.6-0.3-1.3,0.2-1.8
						c0.4-0.4,1.1-0.4,1.6-0.3c2.2,0.3,4.4,1.2,6.2,2.6"/>
				</g>
				<g>
					<path class="st19" d="M282.9,349.3c0.1-4.2-1.5-5.5-2.5-6.5c-1-1-2.4-1.8-3.8-1.7c-0.6,0-1.2,0.3-1.4,0.8
						c-0.2,0.5,0.1,1,0.3,1.5c1.1,1.8,2.6,3.2,4.4,4.2"/>
				</g>
				<g>
					<g>
						<g>
							<path class="st0" d="M362.4,371.9c5-0.2,7.9,0.4,11.6,3.6c0.5,0.4,1,1.9,0.6,2.7c-0.6,1-1.6,1.7-2.6,1.2
								c-1-0.5-1.6-1.6-2.3-2.5C367.5,374,366,372.5,362.4,371.9L362.4,371.9z"/>
						</g>
						<g>
							<path class="st0" d="M361.3,364.5c2.7,0.6,5.6,0.9,8.4,1c0.7,0,1.5,0,2.2-0.2c0.7-0.2,1.4-0.7,1.7-1.3c0.3-0.7,0.2-1.6-0.4-2
								c-0.3-0.2-0.6-0.3-0.9-0.4c-1.9-0.4-3.9,0.2-5.7,1c-1.8,0.8-3.6,1.7-5.6,1.9"/>
						</g>
						<g>
							<path class="st0" d="M360.1,358c2.8-1.1,5.6-2.4,8.2-3.9c0.7-0.4,1.4-0.8,2-1.4c0.6-0.6,1-1.3,1-2c0-0.7-0.5-1.4-1.2-1.5
								c-0.3,0-0.7,0.1-1,0.2c-2,0.7-3.6,2.4-4.9,4c-1.4,1.6-2.7,3.4-4.4,4.6"/>
						</g>
					</g>
				</g>
			</g>
			<g>
				<g>
					<path class="st19" d="M101.7,325.7C86,363,74.8,402.2,68.3,442.1c0,0,12.3-9.7,13-12.3c10.8-37.3,19.2-56.6,35.1-92.1"/>
				</g>
				<g>
					<path class="st19" d="M81.3,430c-1,5.1-7.1,10.6-10.7,12.3c-4.2,1.9-11.4,4.8-15.8,4.8c-0.9,0-1.3-1.4-0.7-2.1
						c1.1-1.2,2.4-2.3,3.7-3.1c0.8-0.4,0.5-2-0.4-2.2c-0.7-0.2-1.4-0.2-2.1-0.1c-4.1,0.4-7.4,0.2-11.5,0.6c-1.7,0.2-4.3,0.5-6.1,0.2
						c-0.8-0.1-0.6-0.9,0.1-1.3c0.6-0.4,3.2-1.2,2.9-1.2c-0.8,0-1.3-1.3-0.2-1.9c4.8-2.5,11.7-4.3,15.6-4.6
						c9.7-0.8,13.2,3.3,16.2-9.8"/>
				</g>
			</g>
			<g>
				<g>
					<path class="st26" d="M117.4,351.5c9.1-15.4,15.5-34.6,11.9-52.1c-0.2-1.1-0.5-2.3-1.4-3c-1.5-1.4-0.8-2.4-2.8-1.7
						c-8.6,3.1-15.7,12.2-20.1,19.1c-4.7,7.3-8.8,14.8-12.4,22.7c-0.4,0.8-0.8,1.8-0.6,2.7c0.2,1,1,1.8,1.8,2.5
						c5.2,4.3,14.2,8.7,20.5,11.1"/>
				</g>
				<g>
					<path class="st26" d="M182.4,295.4c7.5,12.1,5.4,6.3-0.3,19.3c-1.3,3,1.7,20.5,0.5,23.5c-2.3,5.8,1.9,17.7,3.6,26.6
						c0.4,2.3,1.8,9,2.6,11.2c1,3.1,3,4.3,1.5,7.1c-6.1,12.1-20.2,9-33.2,12.8c-13,3.8-21.8-1.2-34.2-6.6c-1.8-0.8-2.5-1.9-3.6-3.6
						c-1-1.5,3.6-2.9,4.1-4.6c9-29.7-9-51.5-1.3-80.6c0.5-1.8,1-3.8,2.4-5.1c1.4-1.3,3.4-1.8,5.3-2.2c16-3.2,30.4-3.8,46.4-0.9
						c0.6,0.1,2.7,1,3.3,1.2l0,0c0.3,0.1,0.7,0.3,1,0.4c11.3,5.7,20.9,14,27.7,24.7c0.9,1.5,1.8,3.1,1.9,4.8c0,1.5-0.7,3-1.4,4.3
						c-1.9,3.7-4.2,7.1-6.7,10.4c-0.5,0.7-2,2.6-2.8,2.9c-1.3,0.5-2.7,0.4-4-0.1c-7.5-3.3-14.5-8.6-20-14.7"/>
				</g>
				<g>
					<path class="st19" d="M128.4,293.6c0.4-0.1,0.9-0.2,1.3-0.3c12.7-3.5,28.3-4.4,42.3-1.4C160.7,302.8,140.6,304,128.4,293.6z"/>
				</g>
				<g>
					<path class="st26" d="M184.2,306.7c3.6,26.1,6.6,52.2,8.9,78.4c0.1,1.3,0.2,2.6-0.4,3.7c-0.6,0.9-1.6,1.5-2.5,2
						c-11.4,5.9-24.2,8.7-36.9,10.4c-9.5,1.3-19.6,1.9-28.4-2c-2.7-1.2-5.4-3-6.8-5.6c-1.5-2.8-1.3-6.1-1.2-9.3
						c1.2-21.5,2.8-42.9,4.8-64.4c0.3-2.8,0.6-5.7,2.2-8c2.2-3,6.1-4.1,9.6-5c8.6-2.2,17.3-4.3,26.1-4.5c8.9-0.2,18,1.7,25.1,7.1"/>
				</g>
			</g>
			<g>
				<path class="st27" d="M171.7,291.9c-1.2,1.5-2.7,2.9-4.3,4.1c-1.6,1.2-3.4,2.1-5.2,2.9c-3.7,1.6-7.7,2.3-11.7,2.3
					c-4,0-8-0.6-11.7-1.8c-1.9-0.6-3.7-1.4-5.5-2.3c-1.7-0.9-3.4-2-5-3.2c1.7,1,3.4,2,5.2,2.8c1.8,0.8,3.6,1.5,5.5,2
					c3.7,1.1,7.6,1.6,11.5,1.5c3.9,0,7.7-0.7,11.4-2.1C165.6,296.9,169,294.7,171.7,291.9z"/>
			</g>
		</g>
	</g>
</g>
</svg>
