<?xml version="1.0" encoding="utf-8"?>
<!-- Generator: Adobe Illustrator 24.2.3, SVG Export Plug-In . SVG Version: 6.00 Build 0)  -->
<svg version="1.1" id="Lager_1" xmlns="http://www.w3.org/2000/svg" xmlns:xlink="http://www.w3.org/1999/xlink" x="0px" y="0px"
	 viewBox="0 0 700 122" style="enable-background:new 0 0 700 122;" xml:space="preserve">
<style type="text/css">
	.st0{fill:#62AC7B;}
</style>
<g>
	<path class="st0" d="M91.9,85.7c0.1,0.9-0.4,1.3-1.3,1.3c-0.6,0-2.3-0.3-5.2-1c-2.9-0.7-4.6-1.2-5.3-1.4c-6.6,2.6-12.9,3.9-19,3.9
		c-9.7,0-17.7-3.2-24-9.7c-6.2-6.4-9.3-14.5-9.3-24.3c0-10,3-18.3,9-24.9c6.2-6.8,14.2-10.2,24.1-10.2c4.8,0,9.3,0.9,13.5,2.7
		c4.6,2,8.2,4.9,10.8,8.5c0.5,0.8,0.8,1.3,0.8,1.6c0,1-1.4,3.3-4.2,6.8c-2.8,3.5-4.6,5.3-5.5,5.3c-0.2,0-0.9-0.6-2.2-1.9
		c-1.5-1.5-3.1-2.7-4.7-3.6c-2.4-1.3-5-1.9-8-1.9c-4.7,0-8.5,1.8-11.3,5.3c-2.6,3.2-3.9,7.3-3.9,12.2c0,5.1,1.3,9.2,4,12.2
		c2.8,3.1,6.7,4.6,11.8,4.6c3.2,0,6.8-0.8,10.8-2.4c-0.1-1-0.4-3.7-0.9-8c-0.4-3.3-0.6-5.9-0.6-8c0-0.6,0.2-1,0.6-1.1
		c0.2-0.1,0.4-0.1,0.8-0.1c0.9,0,2.3,0.1,4.1,0.3c1.8,0.2,3.2,0.3,4.2,0.3c1,0,2.5-0.1,4.5-0.2c2-0.1,3.5-0.2,4.5-0.2
		c0.8,0,1.2,0.5,1.2,1.6c0,1.5-0.1,3.8-0.3,6.9C91.1,63.2,91,65.4,91,67c0,4.1,0.3,10.2,0.9,18.3L91.9,85.7z"/>
	<path class="st0" d="M145.8,63.6c0,2.4,0.1,6,0.4,10.8c0.3,4.8,0.4,8.4,0.4,10.8c0,1.3-0.6,1.9-1.7,2c-3.9,0.3-8.4,0.4-13.4,0.4
		c-0.6,0-1-0.9-1.2-2.7c-0.2-1.8-0.4-2.7-0.7-2.8c-0.3,0.1-0.6,0.4-1,0.8c-3.5,3.6-7.3,5.3-11.4,5.3c-6.2,0-11.2-2.4-15.3-7.3
		c-3.8-4.5-5.7-10-5.7-16.3c0-7.3,2-13.2,5.9-17.6c4.1-4.6,9.7-6.9,16.8-6.9c5,0,8.9,1.7,11.7,5.2c0.1,0.2,0.2,0.2,0.3,0.2
		c0.3,0,0.6-0.8,1-2.3c0.4-1.5,0.8-2.3,1.3-2.3c1.2,0,3.4,0.3,6.7,1c3.1,0.6,5.4,1.2,6.7,1.6c0.5,0.2,0.7,0.4,0.7,0.8
		c0,0.1,0,0.5-0.1,1C146.3,51.2,145.8,57.2,145.8,63.6z M130.6,63.9c0-2.7-0.8-4.9-2.5-6.6c-1.7-1.8-3.9-2.6-6.6-2.6
		c-2.7,0-4.9,0.9-6.6,2.6c-1.7,1.7-2.5,4-2.5,6.7c0,2.6,0.9,4.7,2.7,6.6c1.8,1.8,3.9,2.7,6.4,2.7c2.7,0,4.9-0.9,6.6-2.6
		C129.7,68.8,130.6,66.6,130.6,63.9z"/>
	<path class="st0" d="M186.6,57.8c0,1.2-0.7,1.8-2,1.8c-0.6,0-1.5,0-2.6-0.1c-1.2-0.1-2-0.1-2.6-0.1c-2.6,0-4.4,0.4-5.3,1.2
		c-0.9,0.8-1.4,2.5-1.4,5c0,1.4,0,3.4,0.1,6.2c0,2.8,0.1,4.8,0.1,6.2c0,0.9,0.1,2.3,0.2,4.1c0.1,1.8,0.2,3.2,0.2,4
		c0,0.8-0.5,1.2-1.6,1.3c-1.5,0.1-3.8,0.2-7,0.2c-3,0-5.4-0.1-7.2-0.3c-1-0.1-1.6-0.6-1.6-1.6c0-2.5,0-6.3,0-11.3c0-5,0-8.8,0-11.3
		c0-7.4-0.7-13.5-2-18.3c-0.1-0.3-0.1-0.5-0.1-0.7c0-0.5,0.2-0.8,0.7-0.9c1.7-0.2,4.3-0.5,7.6-1c5-1,7.6-1.5,7.7-1.5
		c0.6,0,0.9,1,1.1,3c0.2,2,0.4,3,0.9,3c-0.4,0,0.9-0.8,3.9-2.5c3-1.7,5.9-2.5,8.8-2.5c1.8,0,2.7,0.4,2.7,1.1c0,0.9-0.1,2.2-0.3,3.9
		c-0.2,1.8-0.3,3.1-0.3,3.9c0,0.9,0,2.1,0,3.6C186.6,56,186.6,57.2,186.6,57.8z"/>
	<path class="st0" d="M242.3,20.1c0-0.7-0.1,0.3-0.4,3.1c-0.3,3.5-0.6,8-0.8,13.4c-0.3,6.2-0.4,13.2-0.4,21.1
		c0,13,0.4,22.3,1.1,27.8c0.1,0.6,0.1,1,0.1,1.1c0,0.3-0.2,0.6-0.7,0.6c-1.1,0.2-5.3,0.2-12.5,0.2c-1.7,0-2.7-0.3-2.9-1
		c-0.1-1.2-0.1-2.4-0.2-3.6c0-0.3-0.2-0.5-0.4-0.8c-0.2,0.1-0.4,0.3-0.7,0.6c-3.4,3.3-7.7,5-12.8,5c-6.7,0-12-2.3-16-7
		c-3.8-4.4-5.7-10.1-5.7-16.8c0-6.9,1.9-12.5,5.6-17c4-4.7,9.3-7.1,16.1-7.1c4.8,0,8.5,1.5,11.1,4.5c0.4,0.5,0.8,0.8,0.9,0.8
		c0.3,0,0.4-0.4,0.4-1.2c0-2.4-0.1-6.1-0.2-10.9c-0.1-4.8-0.2-8.4-0.2-10.8c0-0.9,0.3-1.4,0.8-1.6c2-0.1,4.8-0.3,8.3-0.6
		c6.3-0.8,9.1-1.2,8.4-1.2C241.9,18.9,242.3,19.3,242.3,20.1z M224.5,63.6c0-2.5-0.9-4.7-2.6-6.6c-1.7-1.9-3.8-2.8-6.3-2.8
		c-2.6,0-4.6,0.9-6.2,2.8c-1.5,1.9-2.3,4.1-2.3,6.7c0,2.6,0.8,4.7,2.3,6.5c1.6,1.9,3.6,2.8,6.2,2.8c2.5,0,4.6-0.9,6.3-2.8
		C223.6,68.4,224.5,66.2,224.5,63.6z"/>
	<path class="st0" d="M292.6,61.6c0,3.2-1,5-3.1,5.4c-0.3,0.1-3.6,0.4-9.8,1c-3.7,0.4-9.3,0.9-16.7,1.5c0.4,2.1,1.8,3.6,4,4.7
		c1.8,0.9,3.9,1.3,6.2,1.3c2.8,0,5.6-0.8,8.5-2.3c1.2-0.8,2.4-1.5,3.6-2.3c0.7,0.3,1.8,1.9,3.3,4.8c1.6,2.9,2.3,4.7,2.3,5.5
		c0,0.2-0.2,0.6-0.7,1.1c-3.8,4.1-9.8,6.2-17.9,6.2c-7.5,0-13.6-2.2-18.2-6.6c-4.7-4.4-7.1-10.4-7.1-17.8c0-7.3,2.1-13.2,6.3-17.8
		c4.4-4.8,10.1-7.2,17.3-7.2c6.1,0,11.2,2.2,15.4,6.6C290.5,50.2,292.6,55.5,292.6,61.6z M276.1,58.7c0-2-0.7-3.7-2.1-5.2
		c-1.4-1.5-3-2.2-5-2.2c-2,0-3.6,0.8-4.9,2.5c-1.2,1.5-1.8,3.4-1.8,5.4c0,0.9,0.4,1.3,1.3,1.3c2.3,0,6-0.4,10.9-1.1
		C275.6,59.3,276.1,59,276.1,58.7z"/>
	<path class="st0" d="M344.9,85.9c0,0.9-0.4,1.3-1.3,1.5c-0.9,0.1-3.2,0.2-6.9,0.2c-4,0-6.4-0.1-7.4-0.3c-0.9-0.2-1.4-0.8-1.4-1.9
		c0-1.5,0-3.7,0.1-6.7c0.1-3,0.1-5.3,0.1-6.8c0-1.2,0-2.9-0.1-5.2c-0.1-2.3-0.1-4.1-0.1-5.2c0-4.3-1.9-6.5-5.6-6.5
		c-1.2,0-2.7,0.5-4.3,1.6c-1.8,1.2-2.7,2.4-2.7,3.5v25.6c0,1-0.5,1.6-1.5,1.8c-1.1,0.1-3.4,0.2-6.8,0.2c-3.7,0-6.1-0.1-7.2-0.3
		c-1-0.2-1.5-0.7-1.5-1.6c0-2.5,0-6.2,0-11.1c0-5,0-8.7,0-11.2c0-7.9-0.6-14-1.8-18.5c-0.1-0.3-0.1-0.5-0.1-0.7c0-0.5,0.2-0.9,0.7-1
		c2-0.2,4.6-0.6,8-1c5-1,7.8-1.5,8.5-1.5c0.3,0,0.6,1.1,0.8,3.2c0.2,2.1,0.5,3.2,0.8,3.2c-0.3,0,1.3-1.1,5.1-3.3
		c3.7-2.2,7-3.3,9.8-3.3c4,0,7.4,0.9,10,2.8c3,2.2,4.5,5.2,4.5,9.1v15.1c0,2.1,0,5.1,0,9.2C344.9,80.8,344.9,83.8,344.9,85.9z"/>
	<path class="st0" d="M426.2,36.3c0,0.3-0.3,0.5-0.9,0.5c-2.4,0-6-0.2-10.8-0.6c-4.8-0.4-8.4-0.6-10.8-0.6c-3,0-4.8,0.1-5.3,0.3
		c-1.2,0.5-1.8,2.1-1.8,4.5c0,3,0.8,4.7,2.3,5.1c0.6,0.2,1.6,0.2,2.9,0.2c2.2,0,5.4-0.1,9.8-0.4c4.3-0.2,7.6-0.4,9.8-0.4
		c1,0,1.6,2.8,1.6,8.3c0,4.8-0.2,7.6-0.5,8.4c-0.2,0.6-0.6,0.9-1.3,0.9c0.4,0-0.6-0.1-3-0.3c-3.4-0.3-8.5-0.5-15.3-0.5
		c-2.2,0-3.5,0-3.7,0c-1.6,0.3-2.4,0.9-2.4,2c0,4.5,0.2,9.6,0.6,15.5c0.3,5.3,0.5,7.6,0.5,7.1c0,0.8-1,1.3-3,1.4c0.5,0-0.9,0-4.2,0
		c-5.9,0-9.7-0.2-11.4-0.6c-0.9-0.2-1.4-0.7-1.4-1.5c0-3.5,0.1-8.8,0.4-15.8c0.2-7,0.4-12.3,0.4-15.8c0-4.2-0.2-9.4-0.6-15.7
		c-0.6-9.7-0.9-15-0.9-15.7l0-0.6c0-0.8,0.4-1.2,1.4-1.2c2.3,0,5.9,0,10.6,0.1c4.7,0.1,8.3,0.1,10.6,0.1c2.5,0,6.3-0.2,11.4-0.6
		c5.1-0.4,8.9-0.6,11.4-0.6c1.6,0,2.5,0.6,2.6,1.9c0,1.4,0.1,3.4,0.2,6.1c0.1,0.7,0.3,2,0.6,4C426.1,34,426.2,35.4,426.2,36.3z"/>
	<path class="st0" d="M479,63.6c0,2.4,0.1,6,0.4,10.8c0.3,4.8,0.4,8.4,0.4,10.8c0,1.3-0.6,1.9-1.7,2c-3.9,0.3-8.4,0.4-13.4,0.4
		c-0.6,0-1-0.9-1.2-2.7c-0.2-1.8-0.4-2.7-0.7-2.8c-0.3,0.1-0.6,0.4-1,0.8c-3.5,3.6-7.3,5.3-11.4,5.3c-6.2,0-11.2-2.4-15.3-7.3
		c-3.8-4.5-5.7-10-5.7-16.3c0-7.3,2-13.2,5.9-17.6c4.1-4.6,9.7-6.9,16.8-6.9c5,0,8.9,1.7,11.7,5.2c0.1,0.2,0.2,0.2,0.3,0.2
		c0.3,0,0.6-0.8,1-2.3c0.4-1.5,0.8-2.3,1.3-2.3c1.2,0,3.4,0.3,6.7,1c3.1,0.6,5.4,1.2,6.7,1.6c0.5,0.2,0.7,0.4,0.7,0.8
		c0,0.1,0,0.5-0.1,1C479.6,51.2,479,57.2,479,63.6z M463.8,63.9c0-2.7-0.8-4.9-2.5-6.6c-1.7-1.8-3.9-2.6-6.6-2.6s-4.9,0.9-6.6,2.6
		c-1.7,1.7-2.5,4-2.5,6.7c0,2.6,0.9,4.7,2.7,6.6c1.8,1.8,3.9,2.7,6.4,2.7c2.7,0,4.9-0.9,6.6-2.6C463,68.8,463.8,66.6,463.8,63.9z"/>
	<path class="st0" d="M564.1,85.5c0,1.1-0.5,1.7-1.4,1.8c-0.9,0.1-3.3,0.2-7,0.2c-3.8,0-6.2-0.1-7.2-0.3s-1.4-1-1.4-2.3
		c0-1.5,0-3.6,0.1-6.5c0.1-2.9,0.1-5.1,0.1-6.5c0-5.5-0.1-9.4-0.2-11.8c-0.2-3.8-2-5.6-5.3-5.6c-1.5,0-3,0.6-4.4,1.9
		c-1.5,1.2-2.3,2.6-2.4,4.1c-0.1,1.3-0.2,5.2-0.2,11.6c0,1.5,0,3.7,0.1,6.7c0.1,3,0.1,5.3,0.1,6.8c0,1-0.5,1.6-1.4,1.6h-14.3
		c-0.9,0-1.3-0.6-1.3-1.9c0-1.5,0-3.7,0.1-6.7c0.1-3,0.1-5.2,0.1-6.7c0-1.2,0-2.9-0.1-5.3c-0.1-2.4-0.1-4.1-0.1-5.3
		c0-4.5-1.7-6.8-5.2-6.8c-1.4,0-2.9,0.5-4.5,1.6c-1.8,1.2-2.7,2.4-2.7,3.7c0,2.9,0,7.2,0,12.9c0,5.7,0,10,0,12.8
		c0,0.8-0.1,1.3-0.3,1.5s-0.7,0.3-1.5,0.4c-1.4,0.1-3.7,0.2-6.7,0.2c-2,0-4.2-0.1-6.8-0.3c-0.8-0.1-1.2-0.2-1.3-0.3
		c-0.1-0.2-0.2-0.6-0.2-1.4c0-2.5,0-6.3,0-11.3c0-5,0-8.8,0-11.3c0-5.2-0.4-11-1.1-17.5c-0.1-0.4-0.1-0.7-0.1-0.9
		c0-0.5,0.2-0.9,0.7-1.1c0.7-0.3,2-0.5,3.9-0.7c2.4-0.2,3.8-0.4,4.2-0.4c0.3-0.1,1.6-0.4,3.7-1c1.5-0.4,2.8-0.7,3.7-0.7
		c0.6,0,0.9,1.1,0.9,3.3c0,2.2,0.2,3.3,0.4,3.3c0.3-0.1,0.7-0.3,1.1-0.7c2.8-2.2,5.1-3.7,6.7-4.5c2.4-1.2,5.1-1.8,7.9-1.8
		c2.9,0,5.5,0.6,7.8,1.9c2.6,1.5,4.2,3.5,5,6.1c1.7-2.3,4-4.2,6.9-5.7c2.9-1.5,5.8-2.3,8.6-2.3c4.2,0,7.6,1,10.2,2.9
		c3,2.2,4.4,5.3,4.4,9.3c0,1.7,0,4.2-0.1,7.5c-0.1,3.4-0.1,5.9-0.1,7.5c0,2,0,5,0.1,9C564,80.5,564.1,83.5,564.1,85.5z"/>
	<path class="st0" d="M590.6,65.5c0,2.3,0,5.7,0.1,10.3c0.1,4.6,0.1,8,0.1,10.2c0,0.7-0.4,1.1-1.2,1.2c-1.1,0.2-3.5,0.3-7.2,0.3
		c-3.8,0-6.2-0.1-7.3-0.3c-0.7-0.1-1.1-0.3-1.3-0.6c-0.1-0.1-0.1-0.6-0.1-1.4c0-2.2,0-5.4,0.1-9.8c0.1-4.4,0.1-7.7,0.1-9.9
		c0-9-0.3-16.1-1-21.4c-0.1-0.5-0.1-0.8-0.1-1c0-0.6,0.4-0.9,1.3-0.9c0.9,0,2.2,0.1,4,0.3c1.8,0.2,3.2,0.3,4.1,0.3s2.3-0.1,4.1-0.2
		c1.8-0.2,3.2-0.2,4.1-0.2c0.8,0,1.1,0.3,1.1,0.9c0,0.1,0,0.4-0.1,0.9C590.9,50.3,590.6,57.4,590.6,65.5z M591.8,30.4
		c0,5.5-3.1,8.2-9.3,8.2c-2.7,0-4.8-0.7-6.6-2.1c-1.9-1.5-2.8-3.6-2.8-6.2c0-2.5,1-4.5,2.9-6.1c1.8-1.5,4-2.2,6.5-2.2
		c2.5,0,4.6,0.7,6.4,2.2C590.9,26,591.8,28,591.8,30.4z"/>
	<path class="st0" d="M616.9,58.8c0,8.6,0,15.2,0.1,19.8c0,0.7,0,2,0.1,3.7c0.1,1.6,0.1,2.9,0.1,3.7c0,0.7-0.4,1.1-1.2,1.2
		c-1.4,0.3-4,0.4-7.7,0.4c-3.8,0-6.2-0.1-7.2-0.4c-0.7-0.2-1.1-0.6-1.2-1.3c0-0.1,0-0.8,0-2c0-2.8,0-7,0.1-12.6
		c0.1-5.6,0.1-9.8,0.1-12.6c0-13.3,0-19.3,0-18.1c-0.1-7-0.5-13-1.2-18c-0.1-0.3-0.1-0.6-0.1-0.8c0-0.7,0.4-1,1.2-1h16.9
		c0.8,0,1.2,0.3,1.1,1l0,0.9C617.4,36.3,616.9,48.3,616.9,58.8z"/>
	<path class="st0" d="M672.1,53.5c0,6.1-0.2,9.8-0.6,11.2c-0.5,1.6-3.9,7.3-10.4,17.1c-1,1.5-3.6,5.1-7.8,10.7
		c-4.6,6.2-7.3,9.4-7.9,9.8c-0.8,0.5-5.6,0.7-14.5,0.7c-1.4,0-2.3-0.2-2.7-0.5c-0.4-1.3-0.9-2.8-1.6-4.6c-0.5-1.1-1-2.2-1.5-3.4
		c-0.7-1.6-1.1-2.7-1.1-3.3c0-0.6,0.3-0.9,0.8-0.9c8.8,0,13.2-2,13.2-6c0-0.3-2.1-3.5-6.4-9.4c-4.4-6.1-6.9-9.9-7.3-11.5
		c-0.3-0.9-0.4-4.2-0.4-9.8c0-1.1,0-2.8,0.1-5.1c0.1-2.3,0.1-4,0.1-5.1c0-0.8,0.5-1.2,1.6-1.2c1.6,0,4,0,7.3,0.1
		c3.3,0.1,5.7,0.1,7.3,0.1c0.7,0,1,0.5,1,1.5c0,0.9,0,2.2-0.1,4c-0.1,1.8-0.1,3.1-0.1,4c0,4,0.1,6.7,0.2,8.1c0.1,1.1,1,3.2,2.8,6.2
		c1.9,3.1,3.3,4.7,4.1,4.7c0.7,0,2-1.5,3.7-4.6c1.6-2.9,2.5-4.9,2.6-5.9c0.3-2.8,0.5-5.8,0.5-9c0-0.9-0.1-2.1-0.2-3.9
		c-0.2-1.7-0.2-3-0.2-3.9c0-0.6,0.3-0.9,1-0.9c1.6,0,4-0.1,7.2-0.2c3.2-0.1,5.6-0.2,7.2-0.2c0.8,0,1.4,0.4,1.7,1.2
		C671.9,44.9,672.1,48.3,672.1,53.5z"/>
</g>
</svg>
