<?xml version="1.0" encoding="utf-8"?>
<!-- Generator: Adobe Illustrator 16.0.0, SVG Export Plug-In . SVG Version: 6.00 Build 0)  -->
<!DOCTYPE svg PUBLIC "-//W3C//DTD SVG 1.1//EN" "http://www.w3.org/Graphics/SVG/1.1/DTD/svg11.dtd">
<svg version="1.1" id="Layer_1" xmlns="http://www.w3.org/2000/svg" xmlns:xlink="http://www.w3.org/1999/xlink" x="0px" y="0px"
	 width="86.124px" height="85.083px" viewBox="33.687 31.523 86.124 85.083" enable-background="new 33.687 31.523 86.124 85.083"
	 xml:space="preserve">
<g id="symbol">
	<g>
		<path fill="#111111" d="M75.043,35.005c0.046,2.734-0.01,3.146-0.205,4.222c-0.036,0.193,0.128,0.39,0.228,0.512
			c0.072,0.02,0.399,0.03,1.3,0.021c0.668-0.008,1.86,0.116,1.942-0.119c0.086-0.254,0.032-0.42-0.019-0.857
			c-0.093-0.831-0.172-2.697-0.118-7.203c-0.941-0.043-2.447-0.052-3.381-0.059c-0.033,0.005-0.042,0.05-0.022,0.076
			C75.187,32.263,75.018,33.599,75.043,35.005z M63.375,43.251c0.242-0.077,0.665-0.425,1.091-0.655
			c0.564-0.305,1.126-0.507,1.19-0.632c0.185-0.533-4.645-2.854-4.514-4.979c0.035-0.564,0.218-1.191,0.555-1.451
			c0.264-0.202,1.247-0.106,1.931,0.355c1.716,2.578,2.275,5.046,2.324,5.557c0.033,0.099,0.231,0.182,0.354,0.237
			c0.421-0.15,1.042-0.332,1.657-0.555c0.575-0.211,1.016-0.312,1.052-0.51c-0.195-0.862-0.635-1.649-0.979-2.615
			c-0.312-0.873-0.877-1.907-0.836-2.781c0.024-0.511,0.943-1.99,1.265-2.035c0.781-0.108,1.75,0.438,1.996,1.047
			c0.604,1.495-0.654,4.987-0.974,6.061c-0.062,0.205,0.175,0.285,0.175,0.291c0.426-0.036,1.344-0.334,2.067-0.317
			c0.827-1.878,3.363-4.686,1.589-6.631c-1-1.097-3.345-2.088-5.043-1.887c-1.278,0.153-2.292,1.955-3.06,2.893
			c-1.503-0.631-3.647-0.732-4.978,0.171c-0.013,0.011-0.024,0.021-0.036,0.032c-0.735,0.645-1.601,2.744-1.734,3.959
			c-0.051,0.458,0.142,1.416,0.349,1.71C59.771,41.876,62.045,42.688,63.375,43.251z M92.398,46.158c0,0.16,0.543,0.644,1.096,1.252
			c0.51,0.56,1.029,1.256,1.17,1.233c0.373-0.062,0.156-0.237,2.795-2.761c1.605-1.535,3.393-3.072,3.381-3.416
			c-0.021-0.122-0.516-0.544-1.008-1.048c-0.396-0.406-0.746-0.889-1.169-1.13c-0.543-0.002-0.522,0.608-0.577,0.875
			c-1.109,0.947-2.837,2.729-4.098,3.816C93.068,45.774,92.398,46.028,92.398,46.158z M51.822,46.301
			c0.157,0.071,0.537,0.262,0.671,0.244c0.658-0.079,1.297-0.385,1.988-0.596c1.545-0.473,3.003-0.975,3.09-0.953
			c0.135,0.035,0.632,0.809,0.528,0.895c-0.265,0.214-2.409,1.344-3.515,2.205c-0.102,0.119,0.149,0.744,0.404,1.303
			c0.187,0.41,0.348,0.812,0.515,0.821c0.297,0.017,0.418-0.244,0.736-0.646c0.201-0.257,0.685-0.79,1.614-1.8
			c0.793-0.862,2.047-1.812,2.237-2.714c0.061-0.292-0.099-0.891-0.278-1.59c-0.217-0.851-0.516-1.78-0.691-2.016
			c-0.596-0.797-1.672-0.207-2.941,0.184c-0.915,0.282-2.408,0.766-2.945,0.896c-0.149,0.016-0.375-0.296-0.323-0.582
			c0.736-0.691,3.344-1.867,3.541-2.274c-0.147-0.722-0.333-1.303-0.572-1.821c-0.063-0.093-0.05-0.125-0.27-0.146
			c-0.624,0.479-1.511,1.304-2.487,2.161c-0.855,0.751-1.938,1.562-2.244,2.029c-0.112,0.174-0.262,0.531-0.3,0.792
			c-0.1,0.674,0.249,1.285,0.5,2.039C51.302,45.4,51.477,46.106,51.822,46.301z M81.387,40.552c0.896,0.281,2.471,0.861,2.981,0.868
			c0.354,0.005,1.567-1.049,1.836-1.28c0.376-0.325,1.095-1.12,1.126-1.338c0.027-0.202,0.025-0.524-0.15-0.831
			c-0.58-1.02-2.129-2.383-2.74-3.009c-0.551-0.567-1.006-0.965-1.006-1.2c0.004-0.197,0.109-0.506,0.264-0.545
			c0.169-0.042,0.859,0.357,1.729,0.88c0.702,0.422,1.434,0.967,2.098,1.255c0.141,0.061,0.203-0.029,0.285-0.064
			c0.517-0.484,0.887-0.978,1.268-1.604c-2.029-0.682-5.602-2.122-6.239-1.939c-0.418,0.109-2.771,2.29-2.788,2.815
			c-0.021,0.625,0.135,0.874,0.135,0.874s0.44,0.855,2.399,2.547c0.368,0.317,1.062,0.907,1.222,1.236
			c0.035,0.076,0.028,0.184,0.002,0.269c-0.037,0.113-0.104,0.247-0.228,0.357c-0.354-0.22-1.397-0.733-2.474-1.372
			c-0.75-0.444-1.287-0.826-1.426-0.791c-0.154,0.041-0.318,0.411-0.521,0.797c-0.167,0.314-0.532,0.88-0.521,0.938
			c0.01,0.057,0.258,0.348,0.258,0.348S80.305,40.213,81.387,40.552z M99.859,46.034c-1.439,0.213-3.484,2.423-3.623,3.5
			c-0.209,1.612,0.559,3.191,1.373,3.977c1.983,1.911,6.483,1.564,7.779-1.326c0.992-2.22-0.447-5-2.065-5.728
			C102.628,46.145,100.828,45.89,99.859,46.034z M102.984,48.037c0.299,2.527-1.021,5.131-3.858,4.701
			C98.214,50.443,100.133,46.697,102.984,48.037z M90.04,41.228c0.206,0.442,0.675,1.222,0.709,1.587
			c0.007,0.085,0.06,0.221,0.003,0.291c-0.074,0.093-0.204,0.243-0.357,0.304c-0.254-0.328-1.069-1.081-1.932-1.891
			c-0.617-0.662-1.078-1.138-1.219-1.152c-0.161-0.017-0.51,0.438-0.837,0.728c-0.269,0.234-0.554,0.454-0.563,0.512
			c-0.014,0.058,0.025,0.264,0.025,0.264s1.127,0.737,2.143,1.367c0.797,0.495,2.078,1.584,2.949,1.82
			c0.344,0.093,1.381-0.413,1.713-0.537c0.467-0.172,1.418-0.664,1.523-0.856c0.096-0.181,0.207-0.485,0.15-0.831
			c-0.187-1.161-1.105-3.066-1.459-3.867c-0.316-0.725-0.527-1.052-0.441-1.271c0.07-0.184,0.238-0.358,0.396-0.341
			c0.171,0.021,0.468,0.465,1.193,1.256c0.555,0.604,0.873,1.134,1.394,1.637c0.11,0.105,0.287,0.085,0.375,0.081
			c0.348-0.146,1.202-0.538,1.473-0.94c0.062-0.093,0.093-0.185,0.078-0.275c-1.66-1.348-4.354-3.587-4.899-3.655
			c-0.228-0.023-0.397-0.052-0.802,0.145c-0.952,0.456-2.42,1.457-2.551,1.78c-0.237,0.577-0.23,0.87-0.23,0.87
			S88.949,38.899,90.04,41.228z M42.95,63.768c0.603-0.518,0.845-0.898,1.723-1.041c2.281,1.14,6.236,3.864,6.609,3.689
			c0.174-0.081,0.132-0.505,0.126-0.943c-0.007-0.506,0.057-0.946-0.026-1.075c-0.307-0.271-1.807-0.325-2.315-0.796
			c-0.099-0.22-0.576-2.171-0.522-2.283c0.054-0.115,2.928-0.857,3.133-1.064c0.157-0.159,0.217-1.1,0.419-1.931
			c0.167-0.692,0.479-1.261,0.582-1.719c-0.111-0.177-0.243-0.271-0.401-0.272c-2.902,1.625-9.244,2.97-9.55,3.678
			c-0.145,0.337-0.1,1.09-0.157,1.86c-0.042,0.577-0.223,1.151-0.135,1.638C42.479,63.742,42.81,63.88,42.95,63.768z M47.506,61.69
			c0.117,0.056,0.699,1.516,0.645,1.558c-0.054,0.042-2.157-1.003-2.123-1.086C46.063,62.078,47.389,61.635,47.506,61.69z
			 M105.256,63.904c-2.925-0.076-4.66,1.278-5.326,3.38c-0.479,1.51-0.223,3.383,0.203,5.503c0.082,0.18,0.234,0.241,0.234,0.241
			s1.498-0.179,1.59-0.376c0.031-0.068-0.078-0.187-0.203-0.491c-0.242-0.581-0.592-1.614-0.469-2.686
			c0.182-1.333,2.111-2.388,2.564-2.343c0.453,0.044,0.389,1.423,0.287,2.221c-0.166,1.297-0.777,3.31-0.679,3.556
			c0.047,0.116,0.304,0.141,0.58,0.225c0.308,0.095,0.639,0.237,0.761,0.188c0.23-0.095,0.399-4.295,1.262-5.767
			c0.162-0.088,0.248-0.104,0.478-0.15c2.062,0.728,0.476,3.631-0.296,5.157c-0.244,0.486-0.499,0.684-0.493,0.771
			c0.006,0.08,0.194,0.262,0.194,0.262s1.354,0.695,1.537,0.631c0.229-0.08,0.078-0.83,0.32-1.473
			c0.501-1.328,1.381-3.31,0.842-5.563C108.512,66.81,106.302,64.019,105.256,63.904z M106.533,76.316c0,0-0.223,0.018-0.389-0.051
			c-0.541-0.218-1.459-0.718-2.006-0.973c-1.757-0.826-3.828-1.692-4.662-2.149c-0.238-0.174-0.543-0.538-0.768-0.456
			c-0.236,0.075-0.354,0.376-0.473,0.681c-0.088,0.228-0.213,0.423-0.196,0.735c0.021,0.121,0.448,0.178,0.922,0.354
			c0.778,0.29,2.486,1.231,2.486,1.231s0.052,0.104-0.009,0.201c-1.346,0.875-4.942,2.067-4.942,2.067L95.48,78.22
			c0,0-0.146,0.394-0.006,0.55c0.312,0.346,1.193,0.604,1.562,0.787c2.478,1.198,4.31,2.163,5.356,2.733
			c0.623,0.336,0.863,0.594,1.094,0.517c0.171-0.058,0.27-0.363,0.351-0.566c0.142-0.357,0.313-0.58,0.3-0.699
			c-0.015-0.121-0.201-0.33-0.201-0.33s-0.646-0.121-0.816-0.178c-0.171-0.053-2.232-1.131-2.232-1.131s-0.137-0.197-0.121-0.258
			c0.047-0.195,0.741-0.427,1.57-0.806c0.963-0.438,2.111-0.994,2.883-1.315c0.527-0.219,1.564-0.408,1.553-0.701
			C106.713,76.439,106.533,76.316,106.533,76.316z M108.766,60.543c-0.223-0.047-0.811,0.292-2.461,0.443
			c-0.562,0.063-1.311,0.255-1.503-0.178c0.659-1.163,1.62-3.05,2.349-4.238c0.447-0.729,0.877-1.094,0.892-1.172
			c0.035-0.204-0.026-0.549-0.388-0.57c-0.36-0.022-4.653,0.993-5.9,1.261c-1.678,0.362-2.472,0.156-2.676,0.449
			c-0.104,0.146-0.005,0.455,0.087,0.788c0.094,0.332,0.181,0.688,0.367,0.723c0.176,0.033,0.928-0.257,1.704-0.458
			c0.898-0.229,1.828-0.368,1.867-0.21c0.076,0.3-1.543,3.006-2.352,4.325c-0.264,0.429-0.746,0.897-0.749,1.138
			c0.099,0.274,0.118,0.412,0.321,0.414c1.482,0.022,4.092-0.895,7.152-0.99c0.483-0.014,1.28,0.122,1.424-0.061
			C109.047,62.027,108.984,60.592,108.766,60.543z M53.402,73.61c-0.159-0.239-0.219-0.362-0.625-0.642
			c-0.112-0.094-1.087-0.221-1.882-0.318c-0.696-0.088-1.195-0.159-1.646-0.066c-0.823,0.171-0.865,1.441-0.938,2.861
			c-0.089,1.715-0.26,3.887-0.357,3.948c-0.097,0.06-0.658,0.068-0.723-0.004c-0.065-0.068-0.423-4.235-0.498-4.36
			c-0.027-0.15-0.652-0.231-1.234-0.251c-0.503-0.019-0.976,0.002-0.982,0.143c0.051,0.757,1.699,4.74,2.721,6.949
			c1.146,0.137,2.815,0.491,3.521,0.338c0.318-0.067,0.458-0.896,0.583-1.94c0.053-0.449,0.161-2.045,0.362-3.826
			c0.033-0.297,0.008-0.86,0.131-1.194c0.103-0.277,0.364-0.303,0.652-0.264c0.266,0.036,0.541,4.274,0.761,4.485
			c0.093,0.099,0.663,0.109,1.22,0.123c0.506,0.011,1.005,0.027,1.075-0.014c0.213-0.115-0.336-1.353-0.899-2.744
			C54.176,75.674,53.732,74.406,53.402,73.61z M45.399,73.982c0.165-0.245-0.55-0.509-0.717-1.825
			c-0.024-0.184,0.395-0.47,1.025-0.67c0.572-0.182,4.082-0.777,5.048-0.812c0.69-0.024,0.986,0.259,1.336,0.146
			c0.211-0.066-0.104-1.092-0.305-2.059c-0.181-0.867-0.232-1.686-0.359-1.75c-0.264-0.138-0.375,0.199-1.806,0.441
			c-1.117,0.189-5.419,1.07-5.573,0.73c-0.15-1.162,0.71-2.685,0.591-2.923c-0.118-0.239-1.956-0.558-2.053-0.423
			c-0.375,0.506,1.289,9.429,1.515,9.553c0.13,0.055,0.435-0.089,0.756-0.19C45.13,74.114,45.35,74.085,45.399,73.982z
			 M96.521,67.358c0,0,0.162-0.075,0.252-0.131c-0.053-0.964-0.068-2.203-0.067-3.314c0-0.918,0.002-1.776-0.224-1.983
			c-0.176-0.161-0.616-0.061-1.166-0.038c-1.008,0.04-2.418,0.168-3.438,0.098c-0.803-6.826-2.008-13.263-5.957-17.022
			c-0.76-0.611-2.414-1.211-2.749-1.278c-0.335-0.064-0.823-0.086-2.235-0.038c-6.379,0.221-9.256,1.144-10.25,1.569
			c-0.548,0.236-0.882,0.479-1.25,0.801c-2.106,1.838-2.4,4.625-3.362,7.477c-1.38,0.111-2.603,0.512-3.873,0.904
			c-1.121,0.348-2.415,0.643-3.352,1.199c-0.116,0.068-0.781,0.688-0.865,0.792c-0.974,1.2-1.371,1.979-2.032,3.552
			c-0.421,1.001-1.667,3.639-1.672,4.862c-0.006,1.618,1.812,4.087,2.808,5.367c2.207,2.84,4.905,5.339,8.787,6.37
			c-0.307,1.396-0.498,2.582-1.08,3.945c-0.378,0.883-1.186,2.848-2.332,2.74c-0.389-0.035-1.048-0.978-1.327-1.404
			c-0.464-0.707-0.838-1.52-1.313-2.668c-0.318-0.768-0.844-2.094-1.015-2.705c-0.042-0.148-0.033-0.324-0.029-0.357
			c0.019-0.179,1.096-1.078,1.101-1.371c0.004-0.294-1.519-1.646-2.265-2.483c-1.339-1.507-1.918-2.68-2.107-2.599
			c-0.135,0.058-0.302,0.166-0.312,0.264c-0.112,1.047,1.524,6.142,2.336,8.748c0.884,2.84,1.998,5.516,3.382,7.885
			c1.465,2.502,2.355,3.506,4.965,4.951c2.399,1.332,6.106,3.356,9.258,3.623c4.889,0.413,6.867-2.06,9.084-4.556
			c1.104-1.24,2.184-2.569,3.137-3.758c3.973-4.619,5.267-8.691,5.024-8.887c-0.17-0.148-0.463,0.193-1.368,0.922
			c-2.15,1.729-4.523,2.746-4.578,3.152c0.058,0.266,0.153,0.301,0.19,1.125c-0.315,0.521-1.088,1.1-2.096,1.828
			c-0.867,0.58-1.763,1.074-2.476,1.473c-1.729,0.973-4.399,2.064-5.404,2.133c-1.314,0.092-2.126-0.385-3.116-1.281
			c-1.725-1.561-2.955-6.018-3.088-7.436c-0.233-2.486-0.278-2.219-0.233-2.281c0.078-0.104,1.061,0.236,1.657,0.312
			c2.436,0.272,2.46,0.147,2.527,0.231s-0.032,3.611-0.105,5.134c-0.052,1.082-0.162,1.823,0.1,2.059
			c0.198,0.178,1.333,0.125,2.465,0.123c1.33-0.004,2.686,0.012,2.92-0.211c0.432-0.414-0.141-4.801-0.146-7.131
			c4.037-0.049,10.722-0.947,12.302-1.238c0.215-0.039,0.295-0.09,0.306-0.104c0.081-0.105,0.28-6.555,0.228-9.652
			C93.671,67.032,96.521,67.358,96.521,67.358z M67.039,62.376c-0.042,0.035-7.15-0.093-7.236-0.008
			c-0.067,0.182-0.209,0.453-0.221,0.551c-0.072,0.52-0.027,1.248-0.004,1.872c0.026,0.701,0.114,1.835,0.463,2.396
			c0.07,0.113,0.164,0.22,0.265,0.267c0.149,0.07,2.603-0.155,3.313-0.206c1.242-0.092,3.127-0.22,3.193-0.189
			c0.117,0.055-0.21,4.692-0.507,6.875c-1.775-0.946-3.292-2.093-4.624-3.781c-0.82-1.041-1.816-2.021-2.256-3.038
			c-1.285-2.962,0.208-6.923,1.149-9.409c1.347-1.079,3.917-1.72,5.139-2.151c0.026,0,0.051,0.021,0.071,0.052
			c-0.04,0.892-0.09,1.703,0.01,2.392c0.068,0.465,0.367,1.031,0.633,1.299c0.184,0.184,0.408,0.437,0.695,0.564
			C67.084,60.757,67.08,62.341,67.039,62.376z M67.42,55.942c0.042-0.195,0.025-0.154,0.092-0.344
			c0.417-0.436,1.856,0.871,1.981,1.583c0.051,0.288-0.113,1.398-0.622,1.979C67.391,58.964,66.932,57.426,67.42,55.942z
			 M74.428,76.574c-1.514-0.064-3.184-0.65-4.498-1.167c-0.31-2.67-0.601-8.335-0.526-8.4c0.075-0.065,3.306-0.146,5.069-0.094
			C74.473,70.118,74.507,73.289,74.428,76.574z M79.604,49.036c-0.029-0.153-0.226-0.404-0.269-0.441
			c-0.104-0.09-4.455,0.066-4.678,0.146c-0.286,0.103-0.456,0.253-0.489,0.292c-0.042,0.049,0.086,0.449,0.103,1.27
			c0.057,2.628,0.197,8.487,0.103,11.938c-1.567,0.104-4.914,0.193-4.97,0.168c-0.056-0.026,0.015-2.351,0.015-2.351
			s0.49-0.365,1.119-1.191c0.546-0.72,1.396-1.987,1.381-2.755c-0.022-1.12-2.042-2.88-3.764-2.82
			c0.807-1.67,0.905-3.502,2.276-4.643c1.439-1.197,4.302-1.099,6.746-1.181c0.123-0.003,3.38,0.004,3.787,0.04
			c0.146,0.013,3.001,0.407,6.111,6.186c1.434,2.663,2.518,5.521,2.979,8.353c-3.522,0.048-7.214,0.198-10.525,0.231
			c-0.006,0.023-0.073-0.08-0.077-0.08C79.354,58.282,79.488,50.379,79.604,49.036z M91.08,76.225
			c-0.004,0.086-0.084,0.092-0.135,0.107c-3.49,0.572-7.536,0.646-11.297,0.703c-0.189-3.216-0.209-6.91-0.107-10.215
			c4.042,0.087,7.322,0.005,11.199,0.196C90.895,70.24,91.221,73.124,91.08,76.225z M42.602,54.767
			c0.061-0.024,1.028-1.616,2.384-2.825c0.767,1.364,1.738,2.456,2.79,3.54c0.683,0.417,1.89,0.764,2.603,0.787
			c0.748-0.021,4.262-1.67,4.017-4.424c-0.63-2.853-1.951-4.868-4.527-5.125c-0.545-0.056-1.076-0.021-1.576,0.184
			c-1.222,0.501-2.296,1.668-3.23,2.464c-1.024,0.872-2.042,1.632-2.766,2.566c-0.06,0.092-0.034,0.685-0.034,1.314
			c0,0.422-0.077,0.985,0.009,1.296C42.324,54.733,42.509,54.806,42.602,54.767z M52.457,50.724
			c0.282,0.479,0.309,0.564,0.479,1.004c-1.4,1.839-5.449,2.008-6.5-0.73C46.979,50.306,51.117,48.692,52.457,50.724z"/>
	</g>
</g>
<g id="ny_text_copy">
	<g>
		<path fill="#111111" d="M37.164,103.416c-0.264-0.575-0.583-0.814-1.159-0.814c-0.815,0-1.215,0.814-1.215,2.094
			c0,1.217,0.456,1.984,1.223,1.984c0.72,0,1.184-0.479,1.208-1.145h-1.095v-0.928h2.159v2.918h-0.8v-0.592
			c-0.463,0.512-0.896,0.672-1.503,0.672c-1.567,0-2.295-1.246-2.295-2.877c0-1.473,0.56-3.056,2.407-3.056
			c1.151,0,1.823,0.623,2.095,1.472L37.164,103.416z"/>
		<path fill="#111111" d="M41.445,107.605c-1.575,0-2.423-1.078-2.423-2.965c0-1.889,0.848-2.968,2.423-2.968
			c1.575,0,2.423,1.079,2.423,2.968C43.868,106.527,43.02,107.605,41.445,107.605z M41.445,102.602
			c-0.903,0-1.319,0.688-1.319,2.039c-0.016,1.352,0.408,2.039,1.319,2.039c0.903,0,1.319-0.688,1.319-2.039
			C42.764,103.289,42.348,102.602,41.445,102.602z M41.173,100.426v0.928h-0.959v-0.928H41.173z M42.692,100.426v0.928h-0.959
			v-0.928H42.692z"/>
		<path fill="#111111" d="M48.404,101.746v0.927h-1.511v4.854h-1.104v-4.854h-1.511v-0.927H48.404z"/>
		<path fill="#111111" d="M49.238,107.525v-5.771h3.822v0.928h-2.719v1.375h1.975v0.928h-1.975v1.615h2.807v0.928h-3.91V107.525z"/>
		<path fill="#111111" d="M54.078,101.754h2.143c1.151,0,1.895,0.383,1.959,1.415c0,0.601-0.248,1.063-0.88,1.312
			c0.752,0.304,1.008,0.646,1.008,1.527c0,0.895-0.632,1.52-2.103,1.52h-2.127V101.754z M55.181,104.057h1.104
			c0.527,0,0.792-0.305,0.792-0.703c0-0.399-0.264-0.705-0.792-0.705h-1.104V104.057z M55.181,106.631h1.104
			c0.64,0,0.919-0.287,0.919-0.84c0-0.551-0.28-0.84-0.919-0.84h-1.104V106.631z"/>
		<path fill="#111111" d="M61.453,107.605c-1.575,0-2.423-1.078-2.423-2.965c0-1.889,0.848-2.968,2.423-2.968
			c1.575,0,2.423,1.079,2.423,2.968C63.875,106.527,63.028,107.605,61.453,107.605z M61.453,102.602
			c-0.903,0-1.319,0.688-1.319,2.039c-0.016,1.352,0.408,2.039,1.319,2.039c0.903,0,1.319-0.688,1.319-2.039
			C62.772,103.289,62.356,102.602,61.453,102.602z"/>
		<path fill="#111111" d="M64.75,107.525v-5.771h2.303c1.312,0,1.839,0.76,1.847,1.711c0.008,0.711-0.352,1.287-1.056,1.486
			l1.271,2.574h-1.223l-1.087-2.351h-0.952v2.351H64.75z M65.853,104.28h0.815c0.864,0,1.127-0.272,1.127-0.815
			c0-0.544-0.328-0.816-0.936-0.816h-1.007L65.853,104.28L65.853,104.28z"/>
		<path fill="#111111" d="M73.18,103.416c-0.264-0.575-0.583-0.814-1.159-0.814c-0.815,0-1.215,0.814-1.215,2.094
			c0,1.217,0.456,1.984,1.223,1.984c0.72,0,1.184-0.479,1.208-1.145h-1.095v-0.928h2.159v2.918h-0.8v-0.592
			c-0.463,0.512-0.896,0.672-1.503,0.672c-1.567,0-2.295-1.246-2.295-2.877c0-1.473,0.56-3.056,2.407-3.056
			c1.151,0,1.823,0.623,2.095,1.472L73.18,103.416z"/>
		<path fill="#111111" d="M78.148,103.289c-0.168-0.448-0.512-0.752-1.031-0.752c-0.48,0-0.824,0.191-0.824,0.64
			c0,0.991,2.975,0.784,2.975,2.655c0,1.184-0.744,1.773-2.022,1.773c-0.943,0-1.831-0.527-2.159-1.366l0.912-0.399
			c0.266,0.543,0.607,0.902,1.255,0.902c0.554,0,0.978-0.207,0.978-0.768c0-1.136-2.976-0.91-2.976-2.687
			c0-1.031,0.864-1.615,1.864-1.615c0.927,0,1.693,0.463,2.038,1.304L78.148,103.289z"/>
		<path fill="#111111" d="M82.749,107.525v-5.771h1.104v2.582h-0.018l1.943-2.582h1.271l-1.639,2.166l1.901,3.605H86.09
			l-1.432-2.742l-0.809,1.008v1.734H82.749z"/>
		<path fill="#111111" d="M89.684,104.041l0.992-2.287h1.151l-1.591,3.471v2.303h-1.104v-2.303l-1.592-3.471h1.151L89.684,104.041z"
			/>
		<path fill="#111111" d="M92.533,107.525v-5.771h2.303c1.312,0,1.84,0.76,1.848,1.711c0.008,0.711-0.353,1.287-1.057,1.486
			l1.271,2.574h-1.224l-1.088-2.351h-0.95v2.351H92.533z M93.637,104.28h0.815c0.864,0,1.128-0.272,1.128-0.815
			c0-0.544-0.328-0.816-0.936-0.816h-1.008V104.28L93.637,104.28z"/>
		<path fill="#111111" d="M97.869,107.525v-5.771h1.104v2.582h-0.016l1.941-2.582h1.271l-1.641,2.166l1.904,3.605h-1.225
			l-1.432-2.742l-0.807,1.008v1.734H97.869z"/>
		<path fill="#111111" d="M103.205,107.525v-5.771h1.104v4.846h2.512v0.928h-3.615V107.525z"/>
		<path fill="#111111" d="M107.805,107.525v-5.771h1.104v5.771H107.805z"/>
		<path fill="#111111" d="M113.411,103.416c-0.265-0.575-0.583-0.814-1.159-0.814c-0.814,0-1.215,0.814-1.215,2.094
			c0,1.217,0.455,1.984,1.223,1.984c0.721,0,1.184-0.479,1.207-1.145h-1.095v-0.928h2.159v2.918h-0.801v-0.592
			c-0.463,0.512-0.896,0.672-1.502,0.672c-1.568,0-2.295-1.246-2.295-2.877c0-1.473,0.559-3.056,2.405-3.056
			c1.151,0,1.823,0.623,2.095,1.472L113.411,103.416z"/>
		<path fill="#111111" d="M116.797,101.746h1.375l1.639,5.779h-1.096l-0.318-1.246h-1.823l-0.345,1.246h-1.096L116.797,101.746z
			 M116.812,105.367h1.344l-0.648-2.51h-0.016L116.812,105.367z"/>
		<path fill="#111111" d="M51.588,112.289c-0.168-0.448-0.512-0.752-1.031-0.752c-0.48,0-0.824,0.191-0.824,0.64
			c0,0.991,2.975,0.784,2.975,2.655c0,1.184-0.744,1.773-2.023,1.773c-0.944,0-1.831-0.527-2.159-1.366l0.911-0.399
			c0.264,0.543,0.608,0.902,1.255,0.902c0.552,0,0.976-0.207,0.976-0.768c0-1.136-2.975-0.91-2.975-2.687
			c0-1.031,0.864-1.615,1.863-1.615c0.927,0,1.695,0.463,2.039,1.304L51.588,112.289z"/>
		<path fill="#111111" d="M57.411,110.746v0.927H55.9v4.854h-1.104v-4.854h-1.511v-0.927H57.411z"/>
		<path fill="#111111" d="M58.901,110.746h1.375l1.639,5.779H60.82l-0.32-1.246h-1.823l-0.344,1.246h-1.095L58.901,110.746z
			 M58.917,114.367h1.343l-0.648-2.51h-0.016L58.917,114.367z"/>
		<path fill="#111111" d="M62.646,110.754h1.911c1.527,0,2.583,0.848,2.59,2.887c-0.008,2.039-1.063,2.887-2.59,2.887h-1.911
			V110.754z M63.749,115.6h0.736c1.263,0,1.559-0.928,1.559-1.959s-0.296-1.959-1.559-1.959h-0.736V115.6z"/>
		<path fill="#111111" d="M70.708,112.289c-0.168-0.448-0.512-0.752-1.031-0.752c-0.48,0-0.824,0.191-0.824,0.64
			c0,0.991,2.975,0.784,2.975,2.655c0,1.184-0.744,1.773-2.023,1.773c-0.944,0-1.831-0.527-2.159-1.366l0.911-0.399
			c0.264,0.543,0.608,0.902,1.255,0.902c0.552,0,0.976-0.207,0.976-0.768c0-1.136-2.975-0.91-2.975-2.687
			c0-1.031,0.864-1.615,1.863-1.615c0.927,0,1.695,0.463,2.039,1.304L70.708,112.289z"/>
		<path fill="#111111" d="M72.894,116.525v-5.771h1.551l1.112,4.029h0.016l1.119-4.029h1.566v5.771h-0.96v-4.541h-0.016
			l-1.296,4.541h-0.838l-1.279-4.541h-0.016v4.541H72.894z"/>
		<path fill="#111111" d="M79.686,116.525v-5.771h1.104v5.771H79.686z"/>
		<path fill="#111111" d="M84.924,112.289c-0.168-0.448-0.512-0.752-1.031-0.752c-0.479,0-0.824,0.191-0.824,0.64
			c0,0.991,2.976,0.784,2.976,2.655c0,1.184-0.743,1.773-2.022,1.773c-0.943,0-1.83-0.527-2.158-1.366l0.912-0.399
			c0.264,0.543,0.606,0.902,1.254,0.902c0.553,0,0.977-0.207,0.977-0.768c0-1.136-2.975-0.91-2.975-2.687
			c0-1.031,0.863-1.615,1.863-1.615c0.928,0,1.694,0.463,2.039,1.304L84.924,112.289z"/>
		<path fill="#111111" d="M89.812,112.289c-0.168-0.448-0.513-0.752-1.031-0.752c-0.48,0-0.824,0.191-0.824,0.64
			c0,0.991,2.975,0.784,2.975,2.655c0,1.184-0.744,1.773-2.022,1.773c-0.943,0-1.83-0.527-2.158-1.366l0.911-0.399
			c0.265,0.543,0.607,0.902,1.255,0.902c0.554,0,0.978-0.207,0.978-0.768c0-1.136-2.976-0.91-2.976-2.687
			c0-1.031,0.863-1.615,1.863-1.615c0.927,0,1.694,0.463,2.038,1.304L89.812,112.289z"/>
		<path fill="#111111" d="M92.125,116.525v-5.771h1.104v5.771H92.125z"/>
		<path fill="#111111" d="M96.676,116.605c-1.574,0-2.422-1.078-2.422-2.965c0-1.889,0.848-2.968,2.422-2.968
			c1.576,0,2.424,1.079,2.424,2.968C99.1,115.527,98.252,116.605,96.676,116.605z M96.676,111.602c-0.902,0-1.318,0.688-1.318,2.039
			c-0.017,1.352,0.408,2.039,1.318,2.039c0.904,0,1.32-0.688,1.32-2.039C97.996,112.289,97.58,111.602,96.676,111.602z"/>
		<path fill="#111111" d="M99.997,116.525v-5.771h1.151l2.271,3.934h0.017v-3.934h1.039v5.771h-1.062l-2.359-4.109h-0.016v4.109
			H99.997z"/>
	</g>
</g>
</svg>
