<svg width="75" height="79" viewBox="0 0 75 79" fill="none" xmlns="http://www.w3.org/2000/svg">
<circle cx="34.5" cy="44.5" r="34.5" fill="white" fill-opacity="0.2"/>
<path d="M18.5392 55.752C19.3312 55.884 19.9612 56.244 20.4292 56.832C20.9092 57.42 21.1492 58.146 21.1492 59.01C21.1492 59.55 21.0472 60.042 20.8432 60.486C20.6512 60.942 20.3692 61.326 19.9972 61.638C19.6372 61.962 19.1992 62.208 18.6832 62.376C18.1792 62.556 17.6152 62.646 16.9912 62.646C16.0792 62.646 15.2812 62.46 14.5972 62.088C13.9132 61.728 13.3972 61.224 13.0492 60.576L13.8952 59.802C14.1472 60.33 14.5312 60.75 15.0472 61.062C15.5632 61.374 16.2112 61.53 16.9912 61.53C17.8912 61.53 18.5992 61.308 19.1152 60.864C19.6312 60.432 19.8892 59.808 19.8892 58.992C19.8892 58.164 19.6192 57.51 19.0792 57.03C18.5392 56.55 17.7592 56.31 16.7392 56.31H16.2892V55.266H16.7752C17.6992 55.266 18.4072 55.056 18.8992 54.636C19.3912 54.204 19.6372 53.646 19.6372 52.962C19.6372 52.602 19.5712 52.284 19.4392 52.008C19.3072 51.732 19.1212 51.504 18.8812 51.324C18.6532 51.132 18.3772 50.988 18.0532 50.892C17.7412 50.796 17.3992 50.748 17.0272 50.748C16.3432 50.748 15.7372 50.904 15.2092 51.216C14.6932 51.516 14.3032 51.936 14.0392 52.476L13.2472 51.72C13.3912 51.408 13.5952 51.126 13.8592 50.874C14.1232 50.61 14.4232 50.388 14.7592 50.208C15.0952 50.028 15.4672 49.89 15.8752 49.794C16.2832 49.686 16.7032 49.632 17.1352 49.632C17.6872 49.632 18.1912 49.71 18.6472 49.866C19.1152 50.022 19.5172 50.244 19.8532 50.532C20.1892 50.808 20.4472 51.144 20.6272 51.54C20.8192 51.936 20.9152 52.374 20.9152 52.854C20.9152 53.214 20.8612 53.562 20.7532 53.898C20.6452 54.222 20.4892 54.516 20.2852 54.78C20.0812 55.032 19.8292 55.248 19.5292 55.428C19.2412 55.596 18.9112 55.704 18.5392 55.752ZM32.0425 55.788C32.0425 56.4 31.9225 56.976 31.6825 57.516C31.4545 58.044 31.1365 58.506 30.7285 58.902C30.3205 59.298 29.8405 59.61 29.2885 59.838C28.7365 60.066 28.1425 60.18 27.5065 60.18C26.8345 60.18 26.2165 60.06 25.6525 59.82C25.0885 59.568 24.6025 59.214 24.1945 58.758C23.7985 58.302 23.4865 57.744 23.2585 57.084C23.0305 56.412 22.9165 55.662 22.9165 54.834C22.9165 53.538 23.0305 52.41 23.2585 51.45C23.4865 50.478 23.8045 49.674 24.2125 49.038C24.6325 48.39 25.1305 47.91 25.7065 47.598C26.2825 47.286 26.9245 47.13 27.6325 47.13C28.4845 47.13 29.2465 47.34 29.9185 47.76C30.5905 48.18 31.1005 48.762 31.4485 49.506L30.6565 50.226C30.4045 49.614 30.0085 49.128 29.4685 48.768C28.9285 48.396 28.3165 48.21 27.6325 48.21C27.1045 48.21 26.6245 48.336 26.1925 48.588C25.7605 48.84 25.3885 49.206 25.0765 49.686C24.7765 50.154 24.5365 50.736 24.3565 51.432C24.1885 52.128 24.1045 52.914 24.1045 53.79C24.3685 53.082 24.8185 52.518 25.4545 52.098C26.1025 51.678 26.8345 51.468 27.6505 51.468C28.2625 51.468 28.8325 51.582 29.3605 51.81C29.9005 52.026 30.3685 52.332 30.7645 52.728C31.1605 53.112 31.4725 53.568 31.7005 54.096C31.9285 54.624 32.0425 55.188 32.0425 55.788ZM27.5425 59.1C27.9985 59.1 28.4245 59.016 28.8205 58.848C29.2285 58.668 29.5825 58.428 29.8825 58.128C30.1945 57.828 30.4345 57.48 30.6025 57.084C30.7825 56.676 30.8725 56.244 30.8725 55.788C30.8725 55.332 30.7825 54.906 30.6025 54.51C30.4225 54.102 30.1765 53.748 29.8645 53.448C29.5645 53.148 29.2105 52.914 28.8025 52.746C28.4065 52.566 27.9805 52.476 27.5245 52.476C27.0685 52.476 26.6365 52.566 26.2285 52.746C25.8325 52.914 25.4785 53.148 25.1665 53.448C24.8665 53.748 24.6265 54.102 24.4465 54.51C24.2785 54.906 24.1945 55.332 24.1945 55.788C24.1945 56.244 24.2845 56.67 24.4645 57.066C24.6445 57.462 24.8845 57.816 25.1845 58.128C25.4965 58.428 25.8505 58.668 26.2465 58.848C26.6545 59.016 27.0865 59.1 27.5425 59.1ZM37.8122 54.384C38.4002 54.384 38.9462 54.486 39.4502 54.69C39.9542 54.882 40.3922 55.158 40.7642 55.518C41.1482 55.878 41.4482 56.31 41.6642 56.814C41.8802 57.306 41.9882 57.852 41.9882 58.452C41.9882 59.088 41.8682 59.664 41.6282 60.18C41.4002 60.708 41.0822 61.152 40.6742 61.512C40.2782 61.884 39.8102 62.172 39.2702 62.376C38.7302 62.58 38.1542 62.682 37.5422 62.682C37.0862 62.682 36.6482 62.622 36.2282 62.502C35.8202 62.394 35.4422 62.232 35.0942 62.016C34.7462 61.8 34.4282 61.542 34.1402 61.242C33.8642 60.942 33.6362 60.606 33.4562 60.234L34.2662 59.622C34.6022 60.21 35.0582 60.684 35.6342 61.044C36.2222 61.404 36.8642 61.584 37.5602 61.584C38.0042 61.584 38.4182 61.506 38.8022 61.35C39.1862 61.206 39.5222 60.996 39.8102 60.72C40.0982 60.444 40.3202 60.114 40.4762 59.73C40.6442 59.346 40.7282 58.926 40.7282 58.47C40.7282 58.026 40.6502 57.624 40.4942 57.264C40.3382 56.892 40.1222 56.574 39.8462 56.31C39.5702 56.046 39.2462 55.842 38.8742 55.698C38.5022 55.554 38.1002 55.482 37.6682 55.482C37.1042 55.482 36.5702 55.608 36.0662 55.86C35.5742 56.1 35.1722 56.454 34.8602 56.922H33.7262C33.7382 56.85 33.7682 56.688 33.8162 56.436C33.8642 56.184 33.9242 55.884 33.9962 55.536C34.0682 55.188 34.1462 54.804 34.2302 54.384C34.3142 53.952 34.3982 53.52 34.4822 53.088C34.6862 52.08 34.9082 50.958 35.1482 49.722H41.3222V50.856H36.0662L35.1842 55.446C35.4962 55.11 35.8742 54.852 36.3182 54.672C36.7742 54.48 37.2722 54.384 37.8122 54.384Z" fill="white"/>
<mask id="mask0" style="mask-type:alpha" maskUnits="userSpaceOnUse" x="15" y="0" width="60" height="61">
<rect x="15.0603" y="34.6152" width="42.5137" height="43.1878" transform="rotate(-54 15.0603 34.6152)" fill="#C4C4C4"/>
</mask>
<g mask="url(#mask0)">
<path d="M51.9831 48.167C51.9831 49.383 51.7431 50.535 51.2631 51.623C50.8151 52.679 50.1911 53.607 49.3911 54.407C48.5911 55.207 47.6471 55.847 46.5591 56.327C45.5031 56.775 44.3831 56.999 43.1991 56.999H27.3111V22.919H42.7671C43.9511 22.919 45.0231 23.175 45.9831 23.687C46.9431 24.199 47.7591 24.871 48.4311 25.703C49.1031 26.503 49.6151 27.431 49.9671 28.487C50.3511 29.511 50.5431 30.551 50.5431 31.607C50.5431 33.335 50.1111 34.919 49.2471 36.359C48.3831 37.799 47.1831 38.855 45.6471 39.527C46.6071 39.815 47.4711 40.247 48.2391 40.823C49.0391 41.367 49.7111 42.023 50.2551 42.791C50.8311 43.559 51.2631 44.407 51.5511 45.335C51.8391 46.231 51.9831 47.175 51.9831 48.167ZM50.3511 48.023C50.3511 47.063 50.1751 46.135 49.8231 45.239C49.4711 44.311 48.9911 43.511 48.3831 42.839C47.7751 42.135 47.0551 41.575 46.2231 41.159C45.3911 40.743 44.4951 40.535 43.5351 40.535H28.9911V55.463H43.1991C44.1911 55.463 45.1191 55.255 45.9831 54.839C46.8471 54.423 47.5991 53.863 48.2391 53.159C48.9111 52.455 49.4231 51.655 49.7751 50.759C50.1591 49.863 50.3511 48.951 50.3511 48.023ZM28.9911 24.455V39.047H42.1911C43.1831 39.047 44.0791 38.839 44.8791 38.423C45.7111 38.007 46.4151 37.463 46.9911 36.791C47.5991 36.087 48.0631 35.303 48.3831 34.439C48.7351 33.575 48.9111 32.679 48.9111 31.751C48.9111 30.791 48.7511 29.879 48.4311 29.015C48.1111 28.119 47.6631 27.335 47.0871 26.663C46.5431 25.991 45.8711 25.463 45.0711 25.079C44.3031 24.663 43.4391 24.455 42.4791 24.455H28.9911Z" fill="white"/>
</g>
</svg>
