<svg width="50" height="50" viewBox="0 0 50 50" fill="none" xmlns="http://www.w3.org/2000/svg">
<path d="M40.3333 23H27V9.66667C27 9.29833 26.7017 9 26.3333 9H23.6667C23.2983 9 23 9.29833 23 9.66667V23H9.66667C9.29833 23 9 23.2983 9 23.6667V26.3333C9 26.7017 9.29833 27 9.66667 27H23V40.3333C23 40.7017 23.2983 41 23.6667 41H26.3333C26.7017 41 27 40.7017 27 40.3333V27H40.3333C40.7017 27 41 26.7017 41 26.3333V23.6667C41 23.2983 40.7017 23 40.3333 23Z" fill="#F8F8F8"/>
<mask id="mask0" mask-type="alpha" maskUnits="userSpaceOnUse" x="9" y="9" width="32" height="32">
<path d="M40.3333 23H27V9.66667C27 9.29833 26.7017 9 26.3333 9H23.6667C23.2983 9 23 9.29833 23 9.66667V23H9.66667C9.29833 23 9 23.2983 9 23.6667V26.3333C9 26.7017 9.29833 27 9.66667 27H23V40.3333C23 40.7017 23.2983 41 23.6667 41H26.3333C26.7017 41 27 40.7017 27 40.3333V27H40.3333C40.7017 27 41 26.7017 41 26.3333V23.6667C41 23.2983 40.7017 23 40.3333 23Z" fill="white"/>
</mask>
<g mask="url(#mask0)">
<rect width="50" height="50" fill="#F8F8F8"/>
</g>
</svg>
