<?xml version="1.0" encoding="iso-8859-1"?>
<!-- Generator: Adobe Illustrator 19.0.0, SVG Export Plug-In . SVG Version: 6.00 Build 0)  -->
<svg version="1.1" fill="#ffffff" id="Capa_1" xmlns="http://www.w3.org/2000/svg" xmlns:xlink="http://www.w3.org/1999/xlink" x="0px" y="0px"
	 viewBox="0 0 512.002 512.002" style="enable-background:new 0 0 512.002 512.002;" xml:space="preserve">
<g>
	<g>
		<path d="M410.91,205.026c-9.922,0-19.581,1.399-28.875,4.171c-21.786-58.498-77.836-98.107-141.479-98.107
			c-36.519,0-71.767,13.211-99.25,37.199c-23.921,20.879-40.581,48.653-47.758,79.232c-1.221-0.049-2.442-0.082-3.664-0.082
			C40.322,227.44,0,267.762,0,317.325c0,49.563,40.322,89.886,89.885,89.886H410.91c55.743,0,101.092-45.35,101.092-101.093
			C512.002,250.376,466.653,205.026,410.91,205.026z M410.91,377.211H89.885C56.864,377.211,30,350.346,30,317.325
			s26.864-59.885,59.885-59.885c4.252,0,8.49,0.445,12.597,1.323c8.104,1.737,16.073-3.43,17.805-11.531
			c0.056-0.264,0.086-0.527,0.128-0.791c0.167-0.604,0.31-1.218,0.402-1.854c4.121-28.483,18.404-54.656,40.217-73.696
			c22.017-19.217,50.258-29.801,79.522-29.801c54.966,0,102.845,36.865,116.917,89.8c0.2,1.681,0.671,3.357,1.474,4.957
			c3.715,7.405,12.729,10.396,20.134,6.681c9.922-4.978,20.63-7.502,31.829-7.502c39.2,0,71.092,31.892,71.092,71.092
			C482.002,345.319,450.11,377.211,410.91,377.211z"/>
	</g>
</g>
<g>
	<g>
		<path d="M464.664,0.056h-47.072c-8.284,0-15,6.716-15,15c0,8.284,6.716,15,15,15h47.072c4.707,0,8.536,3.829,8.536,8.535
			c0,4.707-3.829,8.536-8.536,8.536H250.397c-8.284,0-15,6.716-15,15s6.716,15,15,15h214.267c21.249,0,38.536-17.287,38.536-38.536
			C503.2,17.343,485.913,0.056,464.664,0.056z"/>
	</g>
</g>
<g>
	<g>
		<path d="M190.113,47.127h-89.804c-8.284,0-15,6.716-15,15s6.716,15,15,15h89.804c8.284,0,15-6.716,15-15
			S198.397,47.127,190.113,47.127z"/>
	</g>
</g>
<g>
	<g>
		<path d="M111.569,443.403H15.076c-8.284,0-15,6.716-15,15s6.716,15,15,15h96.493c8.284,0,15-6.716,15-15
			S119.854,443.403,111.569,443.403z"/>
	</g>
</g>
<g>
	<g>
		<path d="M330.379,443.403H154.932c-8.284,0-15,6.716-15,15s6.716,15,15,15h175.447c2.355,0,4.271,1.917,4.271,4.272
			c0,2.355-1.916,4.271-4.271,4.271h-38.543c-8.284,0-15,6.716-15,15s6.716,15,15,15h38.543c18.897,0,34.271-15.374,34.271-34.271
			C364.65,458.778,349.276,443.403,330.379,443.403z"/>
	</g>
</g>
<g>
</g>
<g>
</g>
<g>
</g>
<g>
</g>
<g>
</g>
<g>
</g>
<g>
</g>
<g>
</g>
<g>
</g>
<g>
</g>
<g>
</g>
<g>
</g>
<g>
</g>
<g>
</g>
<g>
</g>
</svg>
