<svg height="512pt" viewBox="0 0 512 512" width="512pt" xmlns="http://www.w3.org/2000/svg"><path d="m256 0c-141.386719 0-256 114.613281-256 256s114.613281 256 256 256 256-114.613281 256-256-114.613281-256-256-256zm1.878906 416.425781c-29.015625 0-129.367187-112.808593-129.367187-188.414062 0-72.363281 57.171875-132.4375 129.367187-132.4375 68.605469 0 125.777344 60.074219 125.777344 132.4375.003906 75.605469-100.347656 188.414062-125.777344 188.414062zm0 0"/><path d="m258.21875 145.921875c-6.65625 0-12.972656.679687-18.945312 2.046875 8.707031 5.289062 14.507812 14.675781 14.507812 25.429688 0 16.722656-13.824219 30.207031-30.890625 30.207031-15.1875 0-27.648437-10.582031-30.378906-24.578125-8.703125 12.460937-13.824219 27.648437-13.824219 44.375 0 39.421875 34.644531 73.214844 79.53125 73.214844 40.449219 0 75.09375-33.792969 75.09375-73.214844 0-43.691406-34.644531-77.480469-75.09375-77.480469zm0 0"/></svg>