<?xml version="1.0" encoding="iso-8859-1"?>
<!-- Generator: Adobe Illustrator 19.0.0, SVG Export Plug-In . SVG Version: 6.00 Build 0)  -->
<svg version="1.1" id="Layer_1" xmlns="http://www.w3.org/2000/svg" xmlns:xlink="http://www.w3.org/1999/xlink" x="0px" y="0px"
	 viewBox="0 0 512 512" style="enable-background:new 0 0 512 512;" xml:space="preserve">
<g>
	<g>
		<path d="M510.944,481.32L263.772,22.286c-3.078-5.715-12.466-5.715-15.543,0L1.056,481.32c-1.474,2.737-1.401,5.877,0.194,8.545
			c1.591,2.668,4.47,4.136,7.578,4.136h494.345c3.108,0,5.987-1.468,7.578-4.136C512.345,487.197,512.418,484.057,510.944,481.32z
			 M256,45.092l76.687,142.419l-34.282,6.857c-2.922,0.582-5.353,2.608-6.465,5.375l-10.862,27.164l-26.241-45.918
			c-3.138-5.5-12.19-5.5-15.328,0l-25.517,44.651l-20.237-60.72c-0.265-0.795-0.662-1.502-1.112-2.163L256,45.092z M23.608,476.346
			L23.608,476.346l157.78-292.855l22.099,66.38c1.103,3.302,4.039,5.689,7.504,6.033c0.293,0.03,0.582,0.064,0.875,0.064
			c3.142,0,6.078-1.671,7.659-4.438l27.646-48.374l27.646,48.383c1.681,2.944,4.884,4.699,8.276,4.428
			c3.379-0.233,6.328-2.383,7.586-5.525l15.88-39.698l34.879-7.144l146.953,272.748H23.608z"/>
	</g>
</g>
<g>
</g>
<g>
</g>
<g>
</g>
<g>
</g>
<g>
</g>
<g>
</g>
<g>
</g>
<g>
</g>
<g>
</g>
<g>
</g>
<g>
</g>
<g>
</g>
<g>
</g>
<g>
</g>
<g>
</g>
</svg>
