<svg width="500" height="500" viewBox="0 0 500 500" fill="none" xmlns="http://www.w3.org/2000/svg">
<path d="M42.681 148.704H42.6561C34.3405 148.704 27.6184 155.426 27.6184 163.742C27.6184 172.057 34.3655 178.78 42.681 178.78H116.626C124.942 178.78 131.689 172.057 131.689 163.742C131.689 155.426 124.942 148.704 116.626 148.704H42.681ZM362.634 229.82C354.369 229.82 347.646 236.492 347.572 244.783L347.422 265.846C347.398 269.855 348.966 273.713 351.804 276.552C354.618 279.415 358.477 281.008 362.485 281.008H437.376C445.691 281.008 452.438 274.261 452.438 265.971C452.438 257.655 445.691 250.908 437.376 250.908H377.623L377.672 244.983C377.747 236.667 371.05 229.895 362.734 229.845C362.709 229.845 362.659 229.82 362.634 229.82ZM399.159 170.215V170.24L470.342 253.571V375.765H460.184C455.952 348.229 432.15 327.141 403.443 327.141H403.393C374.686 327.141 350.91 348.229 346.651 375.765H336.394V170.24L399.159 170.215ZM179.989 356.842L180.139 356.867H180.188C195.426 356.867 207.799 369.291 207.799 384.553C207.799 399.889 195.375 412.288 180.064 412.288C164.752 412.288 152.328 399.889 152.328 384.553C152.328 369.266 164.702 356.867 179.989 356.842ZM402.967 356.842V356.867H403.988C419.051 357.141 431.151 369.44 431.151 384.553C431.151 399.889 418.727 412.288 403.415 412.288C388.104 412.288 375.68 399.889 375.68 384.553C375.68 369.39 387.855 357.091 402.967 356.842ZM294.785 59H109.427C101.112 59 94.3896 65.7471 94.3896 74.0626C94.3896 82.3532 101.137 89.1002 109.452 89.1002L294.809 88.7517C301.382 88.8015 306.685 94.1544 306.71 100.727L305.814 376.665L236.946 376.69C233.087 348.681 209.086 327.145 180.056 327.145L180.031 327.17H180.006C150.976 327.17 127 348.706 123.163 376.666H81.6102C75.0623 376.541 69.7594 371.213 69.7345 364.615V257.909H133.025C141.341 257.909 148.088 251.162 148.088 242.846C148.088 234.531 141.341 227.809 133.025 227.809H15.0376C6.72211 227.809 0 234.531 0 242.846C0 251.162 6.72211 257.909 15.0376 257.909H40.0591V364.567C40.0591 387.597 58.682 406.295 81.6872 406.345C88.2102 406.37 126.901 406.37 126.901 406.37C135.465 427.258 156.055 441.997 180.057 441.997C204.059 441.997 224.623 427.283 233.187 406.37L349.9 405.473C358.24 426.835 379.055 441.998 403.401 441.998C427.748 441.998 448.54 426.86 456.903 405.473H485.161C489.095 405.473 492.879 403.905 495.668 401.116V401.091C498.456 398.303 500 394.544 500 390.61L499.975 249.343C499.975 245.558 499.154 241.625 496.465 238.463L417.293 145.747C414.355 142.311 410.172 140.543 405.99 140.543H336.378V100.783C336.378 77.753 317.805 59.0797 294.775 59.0053L294.785 59Z" fill="#093215"/>
<path d="M42.681 148.704H42.6561C34.3405 148.704 27.6184 155.426 27.6184 163.742C27.6184 172.057 34.3655 178.78 42.681 178.78H116.626C124.942 178.78 131.689 172.057 131.689 163.742C131.689 155.426 124.942 148.704 116.626 148.704H42.681ZM362.634 229.82C354.369 229.82 347.646 236.492 347.572 244.783L347.422 265.846C347.398 269.855 348.966 273.713 351.804 276.552C354.618 279.415 358.477 281.008 362.485 281.008H437.376C445.691 281.008 452.438 274.261 452.438 265.971C452.438 257.655 445.691 250.908 437.376 250.908H377.623L377.672 244.983C377.747 236.667 371.05 229.895 362.734 229.845C362.709 229.845 362.659 229.82 362.634 229.82ZM399.159 170.215V170.24L470.342 253.571V375.765H460.184C455.952 348.229 432.15 327.141 403.443 327.141H403.393C374.686 327.141 350.91 348.229 346.651 375.765H336.394V170.24L399.159 170.215ZM179.989 356.842L180.139 356.867H180.188C195.426 356.867 207.799 369.291 207.799 384.553C207.799 399.889 195.375 412.288 180.064 412.288C164.752 412.288 152.328 399.889 152.328 384.553C152.328 369.266 164.702 356.867 179.989 356.842ZM402.967 356.842V356.867H403.988C419.051 357.141 431.151 369.44 431.151 384.553C431.151 399.889 418.727 412.288 403.415 412.288C388.104 412.288 375.68 399.889 375.68 384.553C375.68 369.39 387.855 357.091 402.967 356.842ZM294.785 59H109.427C101.112 59 94.3896 65.7471 94.3896 74.0626C94.3896 82.3532 101.137 89.1002 109.452 89.1002L294.809 88.7517C301.382 88.8015 306.685 94.1544 306.71 100.727L305.814 376.665L236.946 376.69C233.087 348.681 209.086 327.145 180.056 327.145L180.031 327.17H180.006C150.976 327.17 127 348.706 123.163 376.666H81.6102C75.0623 376.541 69.7594 371.213 69.7345 364.615V257.909H133.025C141.341 257.909 148.088 251.162 148.088 242.846C148.088 234.531 141.341 227.809 133.025 227.809H15.0376C6.72211 227.809 0 234.531 0 242.846C0 251.162 6.72211 257.909 15.0376 257.909H40.0591V364.567C40.0591 387.597 58.682 406.295 81.6872 406.345C88.2102 406.37 126.901 406.37 126.901 406.37C135.465 427.258 156.055 441.997 180.057 441.997C204.059 441.997 224.623 427.283 233.187 406.37L349.9 405.473C358.24 426.835 379.055 441.998 403.401 441.998C427.748 441.998 448.54 426.86 456.903 405.473H485.161C489.095 405.473 492.879 403.905 495.668 401.116V401.091C498.456 398.303 500 394.544 500 390.61L499.975 249.343C499.975 245.558 499.154 241.625 496.465 238.463L417.293 145.747C414.355 142.311 410.172 140.543 405.99 140.543H336.378V100.783C336.378 77.753 317.805 59.0797 294.775 59.0053L294.785 59Z" fill="url(#paint0_linear_10_155)" fill-opacity="0.2" style="mix-blend-mode:plus-darker"/>
<defs>
<linearGradient id="paint0_linear_10_155" x1="500" y1="250.499" x2="0" y2="250.499" gradientUnits="userSpaceOnUse">
<stop stop-opacity="0.4"/>
<stop offset="0.5" stop-color="white" stop-opacity="0.4"/>
<stop offset="1" stop-opacity="0.4"/>
</linearGradient>
</defs>
</svg>
