<?xml version="1.0" encoding="utf-8"?>
<!-- Generator: Adobe Illustrator 24.3.0, SVG Export Plug-In . SVG Version: 6.00 Build 0)  -->
<svg version="1.1" id="Layer_1" xmlns="http://www.w3.org/2000/svg" xmlns:xlink="http://www.w3.org/1999/xlink" x="0px" y="0px"
	 viewBox="0 0 341 57" style="enable-background:new 0 0 341 57;" xml:space="preserve">
<style type="text/css">
	.st0{fill:#1A2B34;}
	.st1{fill:#5DC3CA;}
	.st2{fill:#F7BA3E;}
	.st3{fill:#BF85BF;}
</style>
<path class="st0" d="M8.9,0v24.2h36V0h8.6v56h-8.6V32.5h-36V56H0.3V0H8.9z M134.3,56H99.5v-8.4h13V8.4h-13V0h34.8v8.4h-13.1v39.2
	h13.1V56z M208.7,0c6.6,0,11.6,1.2,14.9,3.6c3.4,2.4,5,5.9,5,10.5c0,2.5-0.7,4.8-2.1,6.8c-1.4,2-3.4,3.5-6.2,4.6
	c2,0.6,3.8,1.5,5.5,2.7s3.1,2.7,4.1,4.6c1.1,1.9,1.6,4.1,1.6,6.8c0,3.3-0.6,5.9-1.8,8.1c-1.2,2.1-2.9,3.8-5,5s-4.4,2.1-6.9,2.6
	c-2.5,0.5-4.9,0.7-7.4,0.7h-30.3V0H208.7z M208.8,8.3h-20v14.6h21c2.7-0.1,5-0.7,7-2c2-1.3,3-3.1,3-5.4c0-2.6-1.1-4.4-3.2-5.4
	C214.5,8.9,211.9,8.3,208.8,8.3z M210.2,31.2h-21.4v16.5h21.8c3.6,0,6.5-0.7,8.8-2c2.3-1.4,3.4-3.5,3.4-6.3c0-2.1-0.7-3.7-2-4.9
	c-1.3-1.2-2.9-2-4.9-2.5C214,31.5,212.1,31.2,210.2,31.2z M321.7,17.4c0,2.6-0.6,5-1.7,7.2c-1.1,2.2-2.5,4.1-4.4,5.8
	c-1.9,1.7-4,2.9-6.5,3.7l15.5,22L313.9,56l-14.5-20.7H282V56h-8.6V0h30.2c3.2,0,6.2,0.7,8.9,2.2c2.8,1.5,5,3.5,6.6,6.2
	C320.8,11,321.7,14,321.7,17.4z M301.5,8.3H282V27h20.2c1.9,0,3.7-0.4,5.2-1.3c1.6-0.9,2.9-2.1,3.8-3.5c1-1.5,1.4-3.1,1.4-4.8
	c0-1.8-0.5-3.3-1.5-4.6c-1-1.4-2.4-2.5-4.1-3.2C305.3,8.7,303.5,8.3,301.5,8.3z"/>
<g>
	<path class="st0" d="M327.5,7.3V2.1h-1.7V0.8h4.9v1.3h-1.8v5.1H327.5z M332.8,0.8l2.1,3.6l2.1-3.6h1.3v6.5H337V3.4l-1.4,2.5h-1.2
		L333,3.6v3.7h-1.5V0.8H332.8z"/>
</g>
<rect x="72" y="23.7" transform="matrix(0.7071 -0.7071 0.7071 0.7071 2.5357 62.2016)" class="st1" width="8.6" height="8.6"/>
<rect x="152.6" y="23.7" transform="matrix(0.7071 -0.7071 0.7071 0.7071 26.1317 119.1676)" class="st2" width="8.6" height="8.6"/>
<rect x="245.8" y="23.7" transform="matrix(0.7071 -0.7071 0.7071 0.7071 53.435 185.0834)" class="st3" width="8.6" height="8.6"/>
</svg>
