<?xml version="1.0" encoding="utf-8"?>
<!-- Generator: Adobe Illustrator 24.3.0, SVG Export Plug-In . SVG Version: 6.00 Build 0)  -->
<svg version="1.1" id="Layer_1" xmlns="http://www.w3.org/2000/svg" xmlns:xlink="http://www.w3.org/1999/xlink" x="0px" y="0px"
	 viewBox="0 0 341 57" style="enable-background:new 0 0 341 57;" xml:space="preserve">
<style type="text/css">
	.st0{fill:#FFFFFF;}
	.st1{fill:#5DC3CA;}
	.st2{fill:#F7BA3E;}
	.st3{fill:#BF85BF;}
</style>
<g>
	<polygon class="st0" points="44.6,24.2 8.6,24.2 8.6,0 0,0 0,56 8.6,56 8.6,32.5 44.6,32.5 44.6,56 53.3,56 53.3,0 44.6,0 	"/>
	<polygon class="st0" points="99.2,8.4 112.3,8.4 112.3,47.6 99.2,47.6 99.2,56 134,56 134,47.6 120.9,47.6 120.9,8.4 134,8.4 
		134,0 99.2,0 	"/>
	<path class="st0" d="M225.6,28.2c-1.7-1.2-3.5-2.1-5.5-2.7c2.7-1.1,4.8-2.6,6.2-4.6c1.4-2,2.1-4.3,2.1-6.8c0-4.6-1.7-8.1-5-10.5
		C220,1.2,215,0,208.4,0h-28.6v56h30.3c2.5,0,5-0.2,7.4-0.7c2.5-0.5,4.8-1.4,6.9-2.6c2.1-1.2,3.7-2.9,5-5s1.8-4.8,1.8-8.1
		c0-2.7-0.5-4.9-1.6-6.8C228.7,30.9,227.3,29.3,225.6,28.2z M188.5,8.3h20c3.1,0,5.7,0.6,7.8,1.7c2.1,1.1,3.2,2.9,3.2,5.4
		c0,2.3-1,4.2-3,5.4c-2,1.3-4.4,1.9-7,2h-21V8.3z M219.1,45.7c-2.3,1.3-5.2,2-8.8,2h-21.8V31.2h21.4c1.9,0,3.8,0.3,5.8,0.8
		c2,0.5,3.6,1.3,4.9,2.5c1.3,1.2,2,2.8,2,4.9C222.5,42.2,221.4,44.3,219.1,45.7z"/>
	<path class="st0" d="M315.3,30.4c1.9-1.7,3.3-3.7,4.4-5.8c1.1-2.2,1.7-4.6,1.7-7.2c0-3.4-0.9-6.3-2.6-9c-1.7-2.6-3.9-4.7-6.6-6.2
		c-2.7-1.5-5.7-2.2-8.9-2.2h-30.2v56h8.6V35.3h17.4L313.7,56l10.7,0.1l-15.5-22C311.3,33.3,313.5,32.1,315.3,30.4z M301.9,27h-20.2
		V8.3h19.5c2,0,3.8,0.4,5.4,1.2c1.7,0.7,3.1,1.8,4.1,3.2c1,1.3,1.5,2.9,1.5,4.6c0,1.7-0.5,3.3-1.4,4.8c-0.9,1.4-2.2,2.6-3.8,3.5
		C305.5,26.5,303.8,27,301.9,27z"/>
	<polygon class="st0" points="325.6,2.1 327.4,2.1 327.4,7.3 328.7,7.3 328.7,2.1 330.6,2.1 330.6,0.8 325.6,0.8 	"/>
	<polygon class="st0" points="337,0.8 334.9,4.4 332.7,0.8 331.5,0.8 331.5,7.3 332.9,7.3 332.9,3.6 334.3,5.9 335.4,5.9 336.9,3.4 
		336.9,7.3 338.4,7.3 338.4,0.8 	"/>
</g>
<rect x="72" y="23.7" transform="matrix(0.7071 -0.7071 0.7071 0.7071 2.5357 62.2016)" class="st1" width="8.6" height="8.6"/>
<rect x="152.6" y="23.7" transform="matrix(0.7071 -0.7071 0.7071 0.7071 26.1317 119.1676)" class="st2" width="8.6" height="8.6"/>
<rect x="245.8" y="23.7" transform="matrix(0.7071 -0.7071 0.7071 0.7071 53.435 185.0834)" class="st3" width="8.6" height="8.6"/>
</svg>
