<svg width="25" height="25" viewBox="0 0 25 25" fill="none" xmlns="http://www.w3.org/2000/svg">
<mask id="mask0_7_144" style="mask-type:alpha" maskUnits="userSpaceOnUse" x="0" y="0" width="25" height="25">
<rect x="0.0666504" y="0.561646" width="24" height="24" fill="#D9D9D9"/>
</mask>
<g mask="url(#mask0_7_144)">
<path d="M10.6667 17.1616L17.7167 10.1116L16.3167 8.71165L10.6667 14.3616L7.81665 11.5116L6.41665 12.9116L10.6667 17.1616ZM12.0667 22.5616C10.6833 22.5616 9.38332 22.2991 8.16665 21.7741C6.94998 21.2491 5.89165 20.5366 4.99165 19.6366C4.09165 18.7366 3.37915 17.6783 2.85415 16.4616C2.32915 15.245 2.06665 13.945 2.06665 12.5616C2.06665 11.1783 2.32915 9.87831 2.85415 8.66165C3.37915 7.44498 4.09165 6.38665 4.99165 5.48665C5.89165 4.58665 6.94998 3.87415 8.16665 3.34915C9.38332 2.82415 10.6833 2.56165 12.0667 2.56165C13.45 2.56165 14.75 2.82415 15.9667 3.34915C17.1833 3.87415 18.2417 4.58665 19.1417 5.48665C20.0417 6.38665 20.7541 7.44498 21.2792 8.66165C21.8042 9.87831 22.0667 11.1783 22.0667 12.5616C22.0667 13.945 21.8042 15.245 21.2792 16.4616C20.7541 17.6783 20.0417 18.7366 19.1417 19.6366C18.2417 20.5366 17.1833 21.2491 15.9667 21.7741C14.75 22.2991 13.45 22.5616 12.0667 22.5616ZM12.0667 20.5616C14.3 20.5616 16.1917 19.7866 17.7417 18.2366C19.2917 16.6866 20.0667 14.795 20.0667 12.5616C20.0667 10.3283 19.2917 8.43665 17.7417 6.88665C16.1917 5.33665 14.3 4.56165 12.0667 4.56165C9.83332 4.56165 7.94165 5.33665 6.39165 6.88665C4.84165 8.43665 4.06665 10.3283 4.06665 12.5616C4.06665 14.795 4.84165 16.6866 6.39165 18.2366C7.94165 19.7866 9.83332 20.5616 12.0667 20.5616Z" fill="#289147"/>
</g>
</svg>
