<svg width="157" height="41" viewBox="0 0 157 41" fill="none" xmlns="http://www.w3.org/2000/svg">
<path d="M4.45086 9.93852H4.44826C3.5811 9.93852 2.8801 10.6395 2.8801 11.5067C2.8801 12.3738 3.5837 13.0748 4.45086 13.0748H12.162C13.0292 13.0748 13.7328 12.3738 13.7328 11.5067C13.7328 10.6395 13.0292 9.93852 12.162 9.93852H4.45086ZM37.8162 18.3974C36.9543 18.3974 36.2532 19.0932 36.2455 19.9578L36.2299 22.1543C36.2273 22.5723 36.3909 22.9747 36.6869 23.2707C36.9802 23.5693 37.3827 23.7355 37.8007 23.7355H45.6104C46.4776 23.7355 47.1812 23.0319 47.1812 22.1673C47.1812 21.3001 46.4776 20.5966 45.6104 20.5966H39.3792L39.3844 19.9786C39.3922 19.1115 38.6938 18.4053 37.8266 18.4001C37.824 18.4001 37.8188 18.3974 37.8162 18.3974ZM41.6251 12.1818V12.1843L49.0482 20.8742V33.6169H47.9889C47.5475 30.7453 45.0655 28.5462 42.0718 28.5462H42.0666C39.073 28.5462 36.5936 30.7453 36.1495 33.6169H35.0798V12.1843L41.6251 12.1818ZM18.7686 31.6436L18.7852 31.6462H18.7904C20.3794 31.6462 21.6697 32.9417 21.6697 34.5333C21.6697 36.1326 20.3741 37.4256 18.7774 37.4256C17.1806 37.4256 15.8851 36.1326 15.8851 34.5333C15.8851 32.9391 17.1755 31.6462 18.7686 31.6436ZM42.0222 31.6436V31.6462H42.1287C43.6994 31.6747 44.9613 32.9573 44.9613 34.5333C44.9613 36.1326 43.6657 37.4256 42.069 37.4256C40.4722 37.4256 39.1766 36.1326 39.1766 34.5333C39.1766 32.9521 40.4462 31.6695 42.0222 31.6436ZM30.7407 0.583984H11.4113C10.5441 0.583984 9.84313 1.28758 9.84313 2.15474C9.84313 3.0193 10.5467 3.7229 11.4139 3.7229L30.7433 3.68655C31.4287 3.69174 31.9817 4.24996 31.9843 4.93539L31.8909 33.7107L24.7092 33.7133C24.3068 30.7925 21.8039 28.5467 18.7766 28.5467L18.774 28.5493H18.7714C15.7441 28.5493 13.2438 30.7951 12.8437 33.7108H8.51047C7.82765 33.6978 7.27465 33.1422 7.27205 32.4541V21.3266H13.8721C14.7393 21.3266 15.4429 20.623 15.4429 19.7559C15.4429 18.8887 14.7393 18.1877 13.8721 18.1877H1.56815C0.700995 18.1877 0 18.8887 0 19.7559C0 20.623 0.700995 21.3266 1.56815 21.3266H4.17745V32.4492C4.17745 34.8507 6.11947 36.8006 8.51851 36.8058C9.19873 36.8084 13.2334 36.8084 13.2334 36.8084C14.1266 38.9867 16.2738 40.5237 18.7767 40.5237C21.2796 40.5237 23.4241 38.9893 24.3172 36.8084L36.4882 36.7149C37.358 38.9426 39.5286 40.5237 42.0675 40.5237C44.6065 40.5237 46.7746 38.9452 47.6468 36.7149H50.5936C51.0038 36.7149 51.3985 36.5513 51.6892 36.2606V36.258C51.98 35.9672 52.141 35.5751 52.141 35.1649L52.1384 20.4333C52.1384 20.0386 52.0527 19.6284 51.7723 19.2987L43.5161 9.63012C43.2098 9.27182 42.7736 9.08748 42.3374 9.08748H35.0782V4.94116C35.0782 2.53958 33.1413 0.592292 30.7398 0.584538L30.7407 0.583984Z" fill="white"/>
<path d="M68.8612 36.776V12.2339H76.8962C81.6702 12.2339 84.7295 15.1252 84.7295 19.6302C84.7295 24.1015 81.6702 27.0264 76.8962 27.0264H72.4921V36.776H68.8612ZM72.4921 23.799H76.8962C79.4177 23.799 81.0314 22.1516 81.0314 19.6302C81.0314 17.1087 79.4177 15.4614 76.8962 15.4614H72.4921V23.799Z" fill="white"/>
<path d="M94.8358 15.0916C93.2221 15.0916 92.2471 14.2175 92.2471 12.8055C92.2471 11.3934 93.2221 10.4857 94.8358 10.4857C96.4159 10.4857 97.3909 11.3934 97.3909 12.8055C97.3909 14.2175 96.4159 15.0916 94.8358 15.0916ZM86.9017 36.776V33.4813H93.3229V21.5801H87.574V18.2854H96.9538V33.4813H102.904V36.776H86.9017Z" fill="white"/>
<path d="M112.54 37.1122C107.934 37.1122 104.942 34.3891 104.942 29.9513V25.1101C104.942 20.6724 107.934 17.9492 112.54 17.9492C116.978 17.9492 119.869 20.437 120.004 24.4714H116.44C116.305 22.3533 114.826 21.143 112.54 21.143C110.052 21.143 108.573 22.5551 108.573 25.0765V29.9513C108.573 32.4728 110.052 33.9184 112.54 33.9184C114.826 33.9184 116.305 32.7081 116.44 30.5565H120.004C119.869 34.5908 116.978 37.1122 112.54 37.1122Z" fill="white"/>
<path d="M123.386 36.776V12.2339H127.017V25.7153H130.278L135.22 18.2854H139.288L133.405 27.1609L139.389 36.776H135.22L130.312 28.8419H127.017V36.776H123.386Z" fill="white"/>
<path d="M148.688 37.0786C144.082 37.0786 141.225 34.2882 141.225 29.9177V25.1437C141.225 20.7732 144.082 17.9828 148.688 17.9828C153.294 17.9828 156.185 20.7732 156.185 25.1437V29.9177C156.185 34.2882 153.294 37.0786 148.688 37.0786ZM148.688 33.8848C151.109 33.8848 152.554 32.4728 152.554 29.9177V25.1437C152.554 22.5551 151.109 21.1767 148.688 21.1767C146.268 21.1767 144.856 22.5551 144.856 25.1437V29.9177C144.856 32.4728 146.268 33.8848 148.688 33.8848Z" fill="white"/>
</svg>
