<svg xmlns="http://www.w3.org/2000/svg" viewBox="0 0 145 40" width="145" height="40">
	<style>
		tspan { white-space:pre }
		.shp0 { fill: #ffffff } 
	</style>
	<g id="layer1">
		<path id="path4139" fill-rule="evenodd" class="shp0" d="M116.38 0C116.48 0 116.59 0.04 116.69 0.04C118.12 0.02 119.69 0.13 121.29 0.44C123.32 0.74 125.16 1.18 126.66 2C128.79 3.17 130.24 5.13 130.88 7.91C133.68 8.27 136.36 8.83 138.54 9.97C141.87 11.73 144.21 14.7 144.5 19.07C144.66 21.35 143.82 23.46 142.41 25.25C141.71 26.15 140.86 26.97 139.91 27.72C138.96 28.48 137.91 29.17 136.79 29.79C132.27 32.25 126.65 33.61 122.16 33.41C119.91 33.31 116.87 32.74 113.38 31.85C109.89 30.96 105.95 29.75 101.85 28.32C96.87 26.58 91.88 24.49 87.13 22.35C86.83 22.45 85.86 22.8 85.63 22.88C83.35 23.69 75.91 26.4 67.29 29.29C67.98 29.6 68.69 29.91 69.38 30.22C75.18 32.87 80.82 35.47 86.04 37.66L85.41 39.13C80.15 36.92 74.52 34.34 68.72 31.69C67.51 31.14 66.26 30.62 65.04 30.07C63.6 30.54 62.51 30.94 61 31.41C52.08 34.19 42.3 36.8 33.97 37.88C31.43 38.21 29 38.44 26.82 38.44C24.49 38.44 22.32 38.3 20.32 38.04C16.32 37.51 12.95 36.52 10.19 35.29C8.81 34.67 7.59 33.99 6.5 33.29C4.33 31.87 2.73 30.33 1.66 28.88C0.59 27.43 0 26.12 0 24.94C0 23.19 -0.08 20.35 2.38 18.1C2.99 17.53 3.76 17.01 4.69 16.54C6.56 15.59 9.16 14.87 12.75 14.44C14.27 14.26 16.08 14.16 17.97 14.1C18.44 11.07 20.65 8.39 23.97 6.41C25.84 5.3 28.03 4.41 30.44 3.79C31.65 3.47 32.92 3.23 34.22 3.07C35.52 2.9 36.86 2.82 38.22 2.82C43.72 2.82 50.73 4.51 57.97 7.1C62.13 8.59 66.29 10.42 70.38 12.35C79.43 9.46 87.45 5.7 95.79 3.41C103.71 1.23 111.72 -0.09 116.13 0.04C116.19 0.04 116.32 0 116.38 0ZM116.38 1.6C112.26 1.69 104.15 4.18 96.29 7.07C88.41 9.96 80.7 13.23 77.07 14.82C76.85 14.91 76.31 15.09 76.07 15.19C77.09 15.72 78.21 16.21 79.19 16.75C80.37 17.4 81.91 18.04 83.22 18.69C97.54 13.57 111.56 8.98 126.32 7.47C127.29 7.49 128.18 7.68 129.13 7.75C128.37 5.63 126.83 4.23 124.88 3.25C123.73 2.68 122.43 2.33 121.13 2.07C119.69 1.85 118.17 1.67 116.41 1.6L116.38 1.6ZM38.22 4.41C35.62 4.41 33.12 4.73 30.85 5.32C28.57 5.9 26.53 6.77 24.82 7.79C23.96 8.3 23.17 8.83 22.5 9.41C20.87 10.83 19.93 12.43 19.6 14.07C21.78 14.06 24.04 14.2 26.41 14.57C31.61 15.37 37.2 16.97 42.97 19.04C45.02 19.77 47.11 20.61 49.19 21.44C51.08 20.72 52.8 20.18 54.75 19.38C60.28 17.12 64.15 15.22 68.5 13.19C61.27 9.88 53.65 7.06 47.04 5.57C45.41 5.2 43.86 4.89 42.38 4.69C40.9 4.5 39.51 4.41 38.22 4.41ZM124.32 11.32C119.9 11.51 111.9 13.76 104.32 16.25C97.78 18.4 92.94 20.23 89.22 21.6C93.49 23.47 97.98 25.25 102.38 26.79C106.44 28.21 110.38 29.41 113.82 30.29C117.25 31.16 120.18 31.7 122.22 31.79C124.28 31.87 126.67 31.62 129.07 31.04C131.47 30.45 133.89 29.53 136 28.38C137.06 27.8 138.04 27.16 138.91 26.47C139.78 25.78 140.55 25.03 141.16 24.25C141.77 23.47 142.24 22.66 142.54 21.82C142.83 20.97 142.97 20.11 142.91 19.19C142.78 17.28 142.19 15.92 141.25 14.88C140.32 13.84 139.01 13.09 137.38 12.57C135.6 12 133.42 11.73 131.13 11.57C131.1 12.01 131.14 12.45 131.07 12.88C130.9 13.86 130.63 14.83 130.25 15.75C129.88 16.68 129.4 17.59 128.85 18.44C128.3 19.29 127.66 20.08 126.97 20.82C126.28 21.56 125.52 22.24 124.72 22.85C123.92 23.46 123.07 24 122.19 24.44C121.31 24.89 120.38 25.25 119.44 25.5C118.51 25.75 117.55 25.89 116.6 25.91C114.75 25.96 113.15 25.76 111.75 25.38C110.36 24.99 109.19 24.42 108.25 23.75C107.32 23.09 106.6 22.31 106.13 21.5C105.66 20.7 105.44 19.87 105.5 19.07C105.61 17.62 106.46 16.71 107.35 16.44C107.66 16.4 107.97 16.39 108.25 16.41C108.4 16.39 108.53 16.38 108.69 16.38C110.4 16.38 111.82 17.76 111.82 19.47C111.82 20.99 110.7 22.24 109.25 22.5C110.01 23.03 110.98 23.49 112.16 23.82C113.39 24.16 114.86 24.36 116.57 24.32C117.39 24.29 118.21 24.16 119.04 23.94C119.86 23.72 120.68 23.4 121.47 23C123.06 22.21 124.53 21.07 125.79 19.72C126.41 19.05 127.01 18.33 127.5 17.57C128.5 16.04 129.2 14.35 129.5 12.63C129.57 12.26 129.54 11.88 129.57 11.5C128.11 11.43 126.67 11.35 125.16 11.32C124.9 11.31 124.61 11.3 124.32 11.32ZM24.07 22.57C26.92 24.55 30.73 25.82 34.29 25.82C35.15 25.82 37.14 25.33 38.63 25.07C39.86 24.76 41.15 24.39 42.63 23.91C43.92 23.49 45.53 22.83 46.94 22.32C45.43 21.73 43.9 21.1 42.41 20.57C34.03 17.59 26.15 15.62 19.47 15.66C19.67 18.22 21.38 20.7 24.07 22.57ZM17.85 15.69C16.07 15.76 14.35 15.87 12.94 16.04C9.49 16.45 7.1 17.15 5.44 17.97C4.61 18.39 3.97 18.83 3.47 19.29C2.48 20.19 2 21.14 1.79 22.1C1.57 23.06 1.6 24.04 1.6 24.94C1.6 25.54 2 26.67 2.94 27.94C3.41 28.58 4.02 29.26 4.75 29.94C5.49 30.62 6.36 31.28 7.38 31.94C9.41 33.26 12 34.48 15.22 35.38C16.83 35.83 18.61 36.19 20.54 36.44C22.46 36.69 24.56 36.85 26.82 36.85C35.79 36.85 46.04 33.63 54.91 30.07C57.18 29.15 57.96 28.75 60 27.85C57.03 26.53 54.09 25.13 51.13 23.91C50.99 23.85 50.86 23.81 50.72 23.75C48.17 24.5 45.51 25.32 43.25 25.88C39.47 26.81 36.32 27.41 34.29 27.41C32.32 27.41 30.34 27.08 28.44 26.47C26.54 25.86 24.73 24.97 23.16 23.88C21.59 22.79 20.24 21.47 19.29 20C18.42 18.68 17.95 17.22 17.85 15.69ZM55.82 22.32C54.89 22.61 54.08 22.79 53.16 23.07C56.12 24.3 59.05 25.65 62 26.97C68.76 24.42 74.65 21.99 81 19.41C80.19 18.99 79.17 18.58 78.41 18.16C77.04 17.41 75.49 16.71 74.04 15.97C69.64 17.7 63.08 20.05 55.82 22.32Z" />
	</g>
</svg>