<?xml version="1.0" encoding="utf-8"?>
<!-- Generator: Adobe Illustrator 23.1.0, SVG Export Plug-In . SVG Version: 6.00 Build 0)  -->
<svg version="1.1" id="Capa_1" xmlns="http://www.w3.org/2000/svg" xmlns:xlink="http://www.w3.org/1999/xlink" x="0px" y="0px"
	 viewBox="0 0 512 512" style="enable-background:new 0 0 512 512;" xml:space="preserve">
<style type="text/css">
	.st0{fill:#FFFFFF;}
</style>
<g>
	<g>
		<path class="st0" d="M437.3,117.3h-64c-4.6,0-8.7-2.9-10.1-7.3l-6.7-20.2c-7.3-21.8-27.6-36.5-50.6-36.5h-99.8
			c-23,0-43.3,14.7-50.6,36.5l-6.7,20.2c-1.5,4.4-5.5,7.3-10.1,7.3h-64C33.5,117.3,0,150.8,0,192v192c0,41.2,33.5,74.7,74.7,74.7
			h362.7c41.2,0,74.7-33.5,74.7-74.7V192C512,150.8,478.5,117.3,437.3,117.3z M490.7,384c0,29.4-23.9,53.3-53.3,53.3H74.7
			c-29.4,0-53.3-23.9-53.3-53.3V192c0-29.4,23.9-53.3,53.3-53.3h64c13.8,0,26-8.8,30.4-21.9l6.8-20.3c4.4-13.1,16.6-21.9,30.3-21.9
			h99.8c13.8,0,26,8.8,30.4,21.9l6.7,20.2c4.4,13.1,16.6,21.9,30.4,21.9h64c29.4,0,53.3,23.9,53.3,53.3L490.7,384L490.7,384z"/>
	</g>
</g>
<g>
	<g>
		<path class="st0" d="M256,160c-70.6,0-128,57.4-128,128s57.4,128,128,128s128-57.4,128-128S326.6,160,256,160z M256,394.7
			c-58.8,0-106.7-47.9-106.7-106.7S197.2,181.3,256,181.3S362.7,229.2,362.7,288S314.8,394.7,256,394.7z"/>
	</g>
</g>
<g>
	<g>
		<path class="st0" d="M256,202.7c-47.1,0-85.3,38.3-85.3,85.3c0,5.9,4.8,10.7,10.7,10.7S192,293.9,192,288c0-35.3,28.7-64,64-64
			c5.9,0,10.7-4.8,10.7-10.7S261.9,202.7,256,202.7z"/>
	</g>
</g>
</svg>
