<svg xmlns="http://www.w3.org/2000/svg" viewBox="0 0 400 300" width="406" height="306" class="illustration"><g id="_529_campaign_launch_flatline" data-name="#529_campaign_launch_flatline"><polygon points="95.82 185.87 95.82 192.33 175.03 265.41 338.19 209.53 338.19 203.15 95.82 185.87" fill="#231f20"></polygon><path d="M175,265.91a.51.51,0,0,1-.34-.13L95.48,192.7a.52.52,0,0,1-.16-.37v-6.46a.5.5,0,0,1,.16-.36.43.43,0,0,1,.37-.13l242.37,17.27a.5.5,0,0,1,.47.5v6.38a.51.51,0,0,1-.34.47L175.19,265.88Zm-78.71-73.8,78.83,72.73,162.54-55.67v-5.55L96.32,186.41Z" fill="#231f20"></path><polygon points="95.82 185.87 61.81 69.07 229.66 34.59 253.58 137.36 95.82 185.87" fill="#fff"></polygon><path d="M95.82,186.37a.53.53,0,0,1-.24-.06.48.48,0,0,1-.24-.3l-34-116.8a.49.49,0,0,1,.05-.39.53.53,0,0,1,.33-.24L229.56,34.1a.49.49,0,0,1,.59.38l23.92,102.76a.49.49,0,0,1-.34.59L96,186.35A.39.39,0,0,1,95.82,186.37ZM62.44,69.46,96.16,185.25,253,137,229.28,35.18Z" fill="#231f20"></path><polygon points="100.7 176.28 70.43 75.42 223.68 42.71 245.66 133.79 100.7 176.28" fill="#fff"></polygon><path d="M100.71,176.78a.49.49,0,0,1-.48-.36L70,75.56a.49.49,0,0,1,0-.39.51.51,0,0,1,.33-.24L223.58,42.22a.51.51,0,0,1,.59.38l22,91.07a.5.5,0,0,1-.34.6l-145,42.49ZM71.07,75.8l30,99.86,144-42.22L223.31,43.3Z" fill="#231f20"></path><polygon points="253.58 137.36 95.82 185.87 175.13 257.07 338.19 203.15 253.58 137.36" fill="#fff"></polygon><path d="M175.13,257.57a.51.51,0,0,1-.33-.13L95.49,186.25a.5.5,0,0,1,.18-.85l157.76-48.52a.5.5,0,0,1,.46.08l84.61,65.79a.52.52,0,0,1,.18.48.48.48,0,0,1-.33.39L175.29,257.54A.41.41,0,0,1,175.13,257.57ZM96.81,186.09l78.44,70.41L337.14,203l-83.66-65.06Z" fill="#231f20"></path><polygon points="250.97 146.53 114.49 190.97 150.81 222.92 291.22 176.28 250.97 146.53" fill="#fff"></polygon><path d="M150.81,223.42a.51.51,0,0,1-.33-.13l-36.32-31.94a.49.49,0,0,1-.16-.48.5.5,0,0,1,.33-.37l136.49-44.45a.52.52,0,0,1,.45.07l40.25,29.76a.49.49,0,0,1,.19.48.47.47,0,0,1-.33.39L151,223.39A.4.4,0,0,1,150.81,223.42Zm-35.33-32.24,35.44,31.17,139.23-46.24-39.27-29Z" fill="#e6e7e8"></path><path d="M221.36,123.58s-42.83,16.84-83.31,6.85S73.46,85.51,73.46,85.51l21.68,72.22s15.34,9.48,53.29,9c48.41-.57,81.06-24.69,81.06-24.69l-11-18.94" fill="#fff"></path><path d="M145.9,167.28c-35.84,0-50.87-9-51-9.12a.54.54,0,0,1-.22-.28L73,85.65a.5.5,0,0,1,.89-.42c.24.34,24.47,34.89,64.3,44.71,34.05,8.4,70.19-2.41,80.27-5.84l-.42-.71a.49.49,0,0,1,.18-.68.5.5,0,0,1,.69.17l.51.88,1.78-.64a.48.48,0,0,1,.64.28.5.5,0,0,1-.28.65l-1.63.59,10,17.19a.49.49,0,0,1-.14.65c-.32.24-33.33,24.23-81.35,24.79ZM95.56,157.4c1.73,1,17.52,9.27,52.86,8.87,45-.53,76.68-21.73,80.41-24.34L219,125c-9.91,3.39-46.52,14.45-81,5.93-34.2-8.43-57-34.91-63.18-42.85Z" fill="#231f20"></path><polygon points="210.64 126.2 224.03 146.95 235.61 143.01 219 117.28 210.64 126.2" fill="#fff"></polygon><path d="M224,147.45a.51.51,0,0,1-.42-.23l-13.39-20.74a.51.51,0,0,1,.06-.62l8.36-8.92a.52.52,0,0,1,.41-.16.51.51,0,0,1,.37.23L236,142.74a.5.5,0,0,1-.26.74l-11.58,3.94A.41.41,0,0,1,224,147.45Zm-12.76-21.19,13,20.09,10.6-3.61-15.91-24.65Z" fill="#231f20"></path><path d="M273.42,133.32s.22,15.26-8.66,26.35-36.35,16.61-36.35,16.61l8.68-33.63Z" fill="#6200ee"></path><path d="M228.41,176.78a.52.52,0,0,1-.36-.16.5.5,0,0,1-.12-.47l8.67-33.62a.52.52,0,0,1,.36-.36l36.34-9.33a.48.48,0,0,1,.62.48c0,.15.12,15.56-8.78,26.66s-35.5,16.56-36.63,16.79Zm9.09-33.71-8.4,32.55c4.54-1,27.43-6.49,35.27-16.27,7.65-9.54,8.46-22.39,8.54-25.38Z" fill="#231f20"></path><path d="M243.08,86.31s-13.82-6.49-27.58-3-30.1,26.27-30.1,26.27l34.21,5.94Z" fill="#6200ee"></path><path d="M219.61,116.07h-.09l-34.21-5.95a.48.48,0,0,1-.37-.3.49.49,0,0,1,.05-.48c.67-.93,16.61-22.93,30.39-26.47s27.77,2.92,27.91,3a.47.47,0,0,1,.27.34.49.49,0,0,1-.09.42L220,115.89A.5.5,0,0,1,219.61,116.07Zm-33.33-6.79L219.41,115l22.87-28.52c-2.76-1.16-14.81-5.71-26.65-2.67C203.49,87,189.07,105.56,186.28,109.28Z" fill="#231f20"></path><path d="M212.06,114.81c9.45-13.75,26-29.26,46.87-42.72,31.61-20.41,59.33-13.6,68.72-10.27a4.9,4.9,0,0,1,3.25,5c-.84,9.93-6,38-37.67,58.4-20.86,13.47-41.81,22.17-58.23,25.11,0,0-6.2-3.63-14.19-16S212.06,114.81,212.06,114.81Z" fill="#6200ee"></path><path d="M235,150.85a.48.48,0,0,1-.26-.07c-.25-.15-6.38-3.83-14.35-16.17s-8.8-19.45-8.83-19.74a.52.52,0,0,1,.09-.34c9.81-14.29,26.94-29.92,47-42.86,31.44-20.29,58.84-14,69.17-10.32a5.37,5.37,0,0,1,3.57,5.53c-.92,10.92-6.45,38.49-37.88,58.78-20.06,13-41.36,22.13-58.43,25.18Zm-22.42-35.91c.18,1.16,1.51,8.07,8.65,19.12s12.88,15.12,13.87,15.77c16.91-3.07,38-12.18,57.86-25,31.07-20,36.53-47.25,37.44-58a4.4,4.4,0,0,0-2.91-4.51c-10.19-3.61-37.23-9.83-68.29,10.21C239.32,85.33,222.34,100.79,212.58,114.94Z" fill="#231f20"></path><path d="M330.9,66.84a73.43,73.43,0,0,1-12.58,34.3l-27.1-42a73.21,73.21,0,0,1,36.43,2.67A4.9,4.9,0,0,1,330.9,66.84Z" fill="#fff"></path><path d="M318.33,101.64h0a.49.49,0,0,1-.41-.23l-27.11-42a.52.52,0,0,1,0-.47.51.51,0,0,1,.38-.3,73.48,73.48,0,0,1,36.68,2.7,5.37,5.37,0,0,1,3.57,5.53h0a73.42,73.42,0,0,1-12.65,34.54A.49.49,0,0,1,318.33,101.64ZM292.05,59.51l26.28,40.72A72.42,72.42,0,0,0,330.4,66.8a4.4,4.4,0,0,0-2.91-4.51A72.26,72.26,0,0,0,292.05,59.51Zm38.85,7.33h0Z" fill="#231f20"></path><circle cx="280.6" cy="94.28" r="19.29" fill="#fff"></circle><path d="M280.63,114.06a19.78,19.78,0,1,1,10.7-3.15A19.78,19.78,0,0,1,280.63,114.06Zm-.07-38.58a18.79,18.79,0,0,0-15.75,29A18.8,18.8,0,1,0,284.56,75.9,19.42,19.42,0,0,0,280.56,75.48Z" fill="#231f20"></path><circle cx="280.6" cy="94.28" r="11.9" fill="#231f20"></circle><path d="M280.62,106.68a12.4,12.4,0,1,1,6.7-2A12.41,12.41,0,0,1,280.62,106.68Zm0-23.8a11.28,11.28,0,0,0-6.17,1.82h0a11.42,11.42,0,1,0,6.17-1.82Zm-6.44,1.4h0Z" fill="#231f20"></path><path d="M288.58,89.62a.49.49,0,0,1-.43-.26c-.16-.27-3.85-6.68-11.54-3.16A.5.5,0,0,1,276,86a.49.49,0,0,1,.24-.66c8.55-3.9,12.79,3.52,12.83,3.59a.51.51,0,0,1-.2.68A.5.5,0,0,1,288.58,89.62Z" fill="#fff"></path><path d="M289.89,93.76h0a.49.49,0,0,1-.45-.53,3.91,3.91,0,0,0-.34-1.83.5.5,0,0,1,.24-.66A.49.49,0,0,1,290,91a5,5,0,0,1,.43,2.34A.49.49,0,0,1,289.89,93.76Z" fill="#fff"></path><path d="M218.12,114.18a.51.51,0,0,1-.31-.11.5.5,0,0,1-.08-.7A276.8,276.8,0,0,1,240.57,89a.5.5,0,0,1,.69.72A275.49,275.49,0,0,0,218.51,114,.49.49,0,0,1,218.12,114.18Z" fill="#fff"></path><path d="M240.59,127.92c-13.93,9-31.89,17.81-33.45,15.39s13.86-15.15,27.8-24.15,22.66-8.42,22.66-8.42S254.53,118.93,240.59,127.92Z" fill="#6200ee"></path><path d="M208.28,144.17a1.74,1.74,0,0,1-1.56-.59c-.34-.52-1.37-2.11,8.18-10.26a198.7,198.7,0,0,1,19.77-14.57c13.91-9,22.6-8.53,23-8.51a.52.52,0,0,1,.39.23.54.54,0,0,1,.05.45c-.13.34-3.29,8.44-17.21,17.42h0C231.63,134.3,213.88,144.17,208.28,144.17Zm48.53-32.92c-2.38.1-10.28,1-21.6,8.33a196.93,196.93,0,0,0-19.66,14.5c-7,6-8.3,8.48-8,9,1.11,1.73,17.2-5.5,32.76-15.54C251.64,120.2,255.74,113.38,256.81,111.25Zm-16.22,16.67h0Z" fill="#231f20"></path><polygon points="260.52 194.09 207.84 210.35 231.66 228.94 283.47 211.51 260.52 194.09" fill="#fff"></polygon><path d="M231.66,229.44a.51.51,0,0,1-.31-.11l-23.81-18.58a.51.51,0,0,1-.19-.49.49.49,0,0,1,.35-.38l52.67-16.27a.49.49,0,0,1,.45.08l22.95,17.42a.48.48,0,0,1,.19.48.47.47,0,0,1-.33.4l-51.81,17.42A.45.45,0,0,1,231.66,229.44Zm-22.75-18.89,22.85,17.83,50.66-17-22-16.7Z" fill="#e6e7e8"></path><path d="M160.75,149.19c-15.41,0-33.17-2.53-49.28-11.08a.49.49,0,0,1-.21-.67.5.5,0,0,1,.68-.21c39.13,20.74,88.11,5.72,88.6,5.57a.5.5,0,1,1,.3.95A149.89,149.89,0,0,1,160.75,149.19Z" fill="#e6e7e8"></path><path d="M152.08,158.7c-32.19,0-53.23-14.9-53.47-15.08a.5.5,0,0,1-.12-.7.51.51,0,0,1,.7-.11c.29.21,29.28,20.73,71.29,13.26a.5.5,0,1,1,.17,1A105.88,105.88,0,0,1,152.08,158.7Z" fill="#e6e7e8"></path><path d="M120.16,133.82a.45.45,0,0,1-.2,0c-31.49-14.26-39.18-31.9-39.26-32.07a.5.5,0,1,1,.92-.39s1.89,4.39,7.58,10.43c5.25,5.57,14.92,13.76,31.17,21.12a.5.5,0,0,1,.25.66A.52.52,0,0,1,120.16,133.82Z" fill="#e6e7e8"></path><path d="M176.43,139.52a.5.5,0,0,1-.5-.5.51.51,0,0,1,.5-.5c.18,0,17.52,0,25.44-3.87a.5.5,0,1,1,.43.9C194.18,139.48,177.16,139.52,176.43,139.52Z" fill="#e6e7e8"></path><polygon points="154.47 121.61 152.01 118.98 148.46 119.52 150.19 116.36 148.59 113.14 152.12 113.83 154.68 111.3 155.13 114.87 158.32 116.53 155.06 118.06 154.47 121.61" fill="#6200ee"></polygon><polygon points="187.19 124.79 185.67 123.17 183.47 123.5 184.55 121.55 183.55 119.56 185.74 119.98 187.32 118.42 187.6 120.63 189.57 121.65 187.56 122.6 187.19 124.79" fill="#6200ee"></polygon><polygon points="172.36 186.54 167.12 183.47 161.62 186.05 162.93 180.12 158.78 175.68 164.82 175.09 167.76 169.77 170.19 175.33 176.15 176.48 171.61 180.52 172.36 186.54" fill="#6200ee"></polygon><polygon points="135.83 149.3 132.57 145.82 127.85 146.53 130.16 142.35 128.02 138.09 132.71 138.99 136.1 135.64 136.69 140.38 140.93 142.57 136.61 144.6 135.83 149.3" fill="#6200ee"></polygon><line x1="73.46" y1="85.51" x2="225.95" y2="52.1" fill="#fff"></line><path d="M73.46,86a.5.5,0,0,1-.11-1L225.84,51.61a.5.5,0,1,1,.21,1L73.57,86Z" fill="#231f20"></path><circle cx="80.54" cy="78.5" r="2.03" fill="#6200ee"></circle><circle cx="87.8" cy="76.65" r="2.03" fill="#e6e7e8"></circle><circle cx="94.71" cy="75.06" r="2.03" fill="#e6e7e8"></circle><rect x="105.88" y="81.7" width="103.64" height="10.69" rx="5.34" transform="translate(-15.73 38.37) rotate(-13.22)" fill="#e6e7e8"></rect></g></svg>