<?xml version="1.0" encoding="utf-8"?>
<!-- Generator: Adobe Illustrator 21.0.0, SVG Export Plug-In . SVG Version: 6.00 Build 0)  -->
<svg version="1.1" id="Layer_1" xmlns="http://www.w3.org/2000/svg" xmlns:xlink="http://www.w3.org/1999/xlink" x="0px" y="0px"
	 viewBox="0 0 124 76" style="enable-background:new 0 0 124 76;" xml:space="preserve">
<style type="text/css">
	.st0{fill:none;}
	.st1{fill:#FE3525;}
	.st2{fill:#FF0055;}
	.st3{fill:#F7941F;}
	.st4{fill:#0025FF;}
	.st5{fill:#FFAEC1;}
	.st6{fill:#FFFFFF;}
	.st7{fill:#0C56AF;}
	.st8{fill:#FC3323;}
	.st9{fill:#D1A537;}
	.st10{fill:#FB3222;}
</style>
<g>
	<g id="o_14_">
		<path class="st0" d="M107,65.5c3.4,0,6.1-2.7,6.1-6.1c0-0.1,0-0.2,0-0.2c-0.1-3.2-2.8-5.8-6.1-5.8c-3.3,0-5.9,2.6-6.1,5.8
			c0,0.1,0,0.2,0,0.2C100.9,62.7,103.7,65.5,107,65.5z"/>
		<path class="st1" d="M113.1,59.2c0,0.1,0,0.2,0,0.2c0,3.4-2.7,6.1-6.1,6.1c-3.4,0-6.1-2.7-6.1-6.1c0-0.1,0-0.2,0-0.2c0,0,0,0,0,0
			H90c0.1,9.3,7.6,16.8,17,16.8c9.3,0,16.9-7.5,17-16.8L113.1,59.2C113.1,59.2,113.1,59.2,113.1,59.2z"/>
		<path class="st2" d="M90,59C90,59.1,90,59.1,90,59C90,59.1,90,59.1,90,59L90,59z"/>
		<path class="st2" d="M124,59L124,59C123.9,59.1,123.9,59.1,124,59C123.9,59.1,124,59.1,124,59z"/>
		<path class="st3" d="M123.9,59.1C123.9,59.1,123.9,59.1,123.9,59.1c-0.1-9.4-7.6-16.9-17-16.9c-9.3,0-16.9,7.5-17,16.8
			c0,0,0,0,0,0.1c0,0,0,0,0,0.1h0h11c0,0,0,0,0,0c0.1-3.2,2.8-5.8,6.1-5.8c3.3,0,5.9,2.6,6.1,5.8c0,0,0,0,0,0L123.9,59.1L123.9,59.1
			C124,59.1,123.9,59.1,123.9,59.1z"/>
	</g>
	<path id="g_14_" class="st4" d="M86.5,59.1C86.5,68.4,79,76,69.6,76c-9.3,0-16.9-7.6-16.9-16.9c0-9.3,7.5-16.9,16.9-16.9
		c4.6,0,8.8,1.9,11.9,4.9c0,0-20.1,12.2-19.9,12H86.5z"/>
	<g id="i_14_">
		<path class="st5" d="M38.1,42.2h11.6V76H38.1V42.2z"/>
		<g>
			<g>
				<path class="st6" d="M41.8,74.8c-0.3,0-0.5-0.1-0.8-0.1l-0.7,0c-0.8,0-1.5,0.1-2.2,0.3v1h7c-0.6-0.3-1.2-0.6-1.8-0.8
					C42.8,75,42.3,74.9,41.8,74.8z"/>
			</g>
			<g>
				<path class="st6" d="M46.9,72.3c-0.9-0.7-1.9-1.3-3-1.7c-0.3-0.1-0.6-0.2-0.8-0.3c-0.3-0.1-0.6-0.2-0.9-0.2
					c-0.3-0.1-0.6-0.1-0.9-0.1l-0.9,0c-0.8,0-1.5,0.1-2.2,0.3v1.8c0.7-0.2,1.5-0.4,2.2-0.4c2,0,3.8,0.9,5.4,2.2
					c0.8,0.6,1.5,1.3,2.2,2.1c0,0.1,0.1,0.1,0.1,0.2h1.6v-1.2C48.8,73.9,47.9,73.1,46.9,72.3z"/>
			</g>
			<g>
				<path class="st6" d="M49.6,69.9c-0.8-0.8-1.7-1.6-2.6-2.4c-1-0.7-2-1.4-3.2-1.9l-0.9-0.3c-0.3-0.1-0.7-0.1-1-0.2
					C41.5,65,41.2,65,40.9,65l-0.4,0c-0.1,0,0,0-0.2,0l-0.1,0l-0.2,0c-0.3,0-0.7,0-1,0.1l-0.9,0.2v1.7c0.1,0,0.2-0.1,0.3-0.1
					l0.8-0.2c0.3-0.1,0.5,0,0.8-0.1l0.2,0l0.1,0c-0.1,0,0,0,0,0l0.4,0c0.3,0,0.6,0,0.8,0.1c0.2,0.1,0.5,0.1,0.7,0.2l0.7,0.3
					c1,0.4,1.9,1,2.7,1.7c1.4,1.2,2.7,2.6,3.8,4L49.6,69.9C49.6,69.9,49.6,69.9,49.6,69.9z"/>
			</g>
			<g>
				<path class="st6" d="M47,62.6c-1-0.7-2-1.4-3.2-1.9l-0.9-0.3c-0.3-0.1-0.7-0.1-1-0.2c-0.3-0.1-0.6-0.1-0.9-0.1l-0.4,0
					c-0.1,0,0,0-0.2,0l-0.1,0l-0.2,0c-0.3,0-0.7,0-1,0.1l-0.9,0.2v1.6c0.1,0,0.2-0.1,0.3-0.1l0.8-0.2c0.3-0.1,0.5,0,0.8-0.1l0.2,0
					l0.1,0c-0.1,0,0,0,0.1,0l0.4,0c0.3,0,0.6,0,0.8,0.1c0.2,0.1,0.5,0.1,0.7,0.2l0.8,0.3c1,0.4,1.9,1,2.8,1.7
					c1.4,1.2,2.6,2.5,3.8,3.9V65C48.8,64.2,47.9,63.3,47,62.6z"/>
			</g>
			<g>
				<path class="st6" d="M46.9,57.6c-1-0.7-2-1.4-3.2-1.9l-0.9-0.3c-0.3-0.1-0.7-0.1-1-0.2c-0.3-0.1-0.6-0.1-0.9-0.1l-0.4,0
					c-0.1,0,0,0-0.2,0l-0.1,0l-0.2,0c-0.3,0-0.7,0-1,0.1l-0.9,0.2v1.5c0.1,0,0.2-0.1,0.3-0.1l0.8-0.2c0.3-0.1,0.5,0,0.8-0.1l0.2,0
					l0.1,0c-0.1,0,0,0,0.1,0l0.4,0c0.3,0,0.6,0,0.8,0.1c0.2,0.1,0.5,0.1,0.7,0.2l0.8,0.3c1,0.4,1.9,1,2.8,1.7
					c1.4,1.1,2.6,2.5,3.7,3.9v-2.6C48.8,59.3,47.9,58.4,46.9,57.6z"/>
			</g>
			<g>
				<path class="st6" d="M46.9,54.7c1,0.9,1.9,2,2.8,3.1v-2.5c-0.2-0.2-0.4-0.4-0.6-0.6H46.9z"/>
			</g>
		</g>
	</g>
	<g id="n_14_">
		<g>
			<path class="st7" d="M33.9,58.5C33.9,58.5,33.9,58.5,33.9,58.5L33.9,58.5L33.9,58.5z"/>
		</g>
		<polygon class="st4" points="22.4,58.6 22.4,76 33.9,76 33.9,58.5 25.1,58.6 		"/>
		<path class="st3" d="M17.1,42.2c-9.3,0-16.9,7.2-16.9,16.2h0V76h11.6V58.6h10.7h2.7l8.8,0c0,0,0,0,0,0
			C33.9,49.5,26.4,42.2,17.1,42.2z"/>
	</g>
	<g id="h_14_">
		<path class="st8" d="M112.4,0.5H124v33.8h-11.6V0.5z"/>
		<g>
			<rect x="91.1" y="0.5" class="st5" width="11.6" height="16.9"/>
			<polygon class="st4" points="91.1,18.2 91.1,34.3 102.7,34.3 102.7,18.2 102.7,17.4 91.1,17.4 			"/>
		</g>
		<g>
			<path class="st4" d="M104.8,12.1c-0.7,0.5-1.5,1-2.2,1.5v1.9c1.6-1.2,3.2-2.3,4.8-3.4H104.8z"/>
			<path class="st4" d="M104.1,18.2c1.9-1.7,4-3.2,6.1-4.7l1.6-1.1l0.5-0.4h-2.5c-2.3,1.5-4.6,3.1-6.8,4.9c-0.1,0.1-0.3,0.2-0.4,0.4
				v2.3C103.1,19.2,103.6,18.7,104.1,18.2z"/>
			<path class="st4" d="M106.4,20.9c0.8-1,1.6-1.9,2.6-2.7c1.9-1.7,4-3.2,6.1-4.7c0.7-0.5,1.4-0.9,2.1-1.4h-2.3
				c-2.4,1.5-4.7,3.1-6.9,5c-1,0.9-2,1.8-2.8,2.8c-0.9,1-1.6,2.2-2.1,3.5h1.8C105.3,22.5,105.8,21.7,106.4,20.9z"/>
			<path class="st4" d="M114,18.2c1.8-1.7,3.9-3.3,6-4.9c0.7-0.5,1.3-1,2-1.5l-2.2,0.1c-2.3,1.6-4.6,3.3-6.7,5.2
				c-1,0.9-1.9,1.9-2.7,2.9c-0.8,1-1.5,2.2-1.9,3.5l1.6-0.1c0.4-0.9,0.9-1.8,1.5-2.6C112.2,20,113.1,19.1,114,18.2z"/>
			<path class="st4" d="M118.9,18.1c1.6-1.4,3.3-2.7,5.1-3.9v-1.4c-2,1.4-4.1,2.8-6,4.4c-1,0.9-2,1.8-2.8,2.8c-0.8,1-1.6,2.2-2,3.4
				h1.5C115.6,21.4,117.2,19.7,118.9,18.1z"/>
			<path class="st4" d="M123.8,18.1c0.1,0,0.1-0.1,0.2-0.1v-1.6c-0.3,0.3-0.7,0.5-1,0.8c-1,0.9-2,1.8-2.8,2.8c-0.8,1-1.5,2.1-2,3.4
				h1.4c0.4-0.9,1-1.8,1.6-2.6C122,19.8,122.9,19,123.8,18.1z"/>
			<path class="st4" d="M124,21.7c-0.3,0.5-0.6,1.1-0.8,1.7h0.8V21.7z"/>
		</g>
	</g>
	<path id="c_14_" class="st3" d="M87.6,34.3c-9.3,0-16.9-7.6-16.9-16.9c0-9.3,7.5-16.9,16.9-16.9V34.3z"/>
	<g id="e_14_">
		<path class="st9" d="M68.7,17.4C68.7,17.4,68.7,17.4,68.7,17.4C68.7,17.4,68.7,17.4,68.7,17.4L68.7,17.4z"/>
		<path class="st9" d="M51.8,0.6c4.7,0,8.9,1.9,11.9,4.9C60.6,2.4,56.4,0.5,51.8,0.6c-9.4,0-16.9,7.5-16.9,16.9v0
			C34.9,8.1,42.4,0.6,51.8,0.6z"/>
		<g>
			<path class="st1" d="M51.7,34.4c4.6,0,8.8-1.9,11.9-4.9c0,0-20-12.1-19.9-12h-8.9C34.9,26.8,42.4,34.4,51.7,34.4z"/>
			<path class="st5" d="M68.7,17.4C68.7,17.4,68.7,17.4,68.7,17.4c0-4.7-1.9-8.9-4.9-11.9c-3-3-7.3-4.9-11.9-4.9
				c-9.3,0-16.9,7.5-16.9,16.9v0h8.9L68.7,17.4L68.7,17.4z"/>
		</g>
	</g>
	<g id="t_14_">
		<path class="st10" d="M15.7,0.6h11.6v33.8H15.7V0.6z"/>
		<path class="st4" d="M32.6,6.8v11.6H0.2V6.8H32.6z"/>
	</g>
</g>
</svg>
