<?xml version="1.0" encoding="utf-8"?>
<!-- Generator: Adobe Illustrator 23.1.0, SVG Export Plug-In . SVG Version: 6.00 Build 0)  -->
<svg version="1.1" id="Layer_1" xmlns="http://www.w3.org/2000/svg" xmlns:xlink="http://www.w3.org/1999/xlink" x="0px" y="0px"
	 viewBox="0 0 512 512" style="enable-background:new 0 0 512 512;" xml:space="preserve">
<style type="text/css">
	.st0{fill:#FFFFFF;}
</style>
<path class="st0" d="M123.1,373.4c3.3,0,6-2.7,6-6c0-1.6-0.6-3.1-1.8-4.2c-9-9-16.9-19-23.5-29.8c-1.7-2.8-5.4-3.7-8.2-2
	c-2.8,1.7-3.7,5.4-2,8.2c7.1,11.6,15.6,22.4,25.2,32C120,372.8,121.5,373.4,123.1,373.4L123.1,373.4z"/>
<path class="st0" d="M85.2,190.4c-3.1-1.1-6.5,0.6-7.6,3.7c0,0,0,0,0,0c-11,32.2-12.2,66.9-3.5,99.8c0.9,3.2,4.3,5,7.4,4.1
	c3.1-0.9,4.9-4,4.2-7.1c-8.1-30.6-7-62.9,3.2-92.8C90,194.8,88.4,191.4,85.2,190.4L85.2,190.4z"/>
<path class="st0" d="M35.5,66.7c8.9,3,15.9,10,18.9,18.9c1,3.1,4.4,4.8,7.6,3.8c1.8-0.6,3.2-2,3.8-3.8c3-8.9,10-15.9,18.9-18.9
	c3.1-1,4.8-4.4,3.8-7.6c-0.6-1.8-2-3.2-3.8-3.8c-8.9-3-15.9-10-18.9-18.9c-1-3.1-4.4-4.8-7.6-3.8c-1.8,0.6-3.2,2-3.8,3.8
	c-3,8.9-10,15.9-18.9,18.9c-3.1,1-4.8,4.4-3.8,7.6C32.3,64.7,33.7,66.1,35.5,66.7z M60.1,51.3c2.7,3.7,6,7,9.7,9.7
	c-3.7,2.7-7,6-9.7,9.7c-2.7-3.7-6-7-9.7-9.7C54.1,58.3,57.4,55.1,60.1,51.3L60.1,51.3z"/>
<path class="st0" d="M435.8,438.5c-8.9-3-15.9-10-18.9-18.9c-1-3.1-4.4-4.8-7.6-3.8c-1.8,0.6-3.2,2-3.8,3.8
	c-3,8.9-10,15.9-18.9,18.9c-3.1,1-4.8,4.4-3.8,7.6c0.6,1.8,2,3.2,3.8,3.8c8.9,3,15.9,10,18.9,18.9c1,3.1,4.4,4.8,7.6,3.8
	c1.8-0.6,3.2-2,3.8-3.8c3-8.9,10-15.9,18.9-18.9c3.1-1,4.8-4.4,3.8-7.6C438.9,440.5,437.5,439.1,435.8,438.5L435.8,438.5z
	 M411.1,453.9c-2.7-3.7-6-7-9.7-9.7c3.7-2.7,7-6,9.7-9.7c2.7,3.7,6,7,9.7,9.7C417.1,446.8,413.8,450.1,411.1,453.9L411.1,453.9z"/>
<path class="st0" d="M358.9,483.6c-6.5,0-11.7,5.2-11.7,11.7c0,6.5,5.2,11.7,11.7,11.7c6.5,0,11.7-5.2,11.7-11.7c0,0,0,0,0,0
	C370.5,488.9,365.3,483.6,358.9,483.6z"/>
<path class="st0" d="M120.3,28.4c6.5,0,11.7-5.2,11.7-11.7S126.8,5,120.3,5c-6.5,0-11.7,5.2-11.7,11.7c0,0,0,0,0,0
	C108.6,23.1,113.8,28.4,120.3,28.4z"/>
<path class="st0" d="M470.6,7.2c-2.3,2.3-2.3,6.1,0,8.5c14.2,14.2,21.6,33.6,21.9,57.3c0,3.3,2.7,6,6,6h0.1c3.3-0.1,6-2.8,5.9-6.2
	c-0.4-26.9-8.9-49-25.4-65.6C476.7,4.9,472.9,4.9,470.6,7.2C470.6,7.2,470.6,7.2,470.6,7.2z"/>
<path class="st0" d="M494.5,109.7c-3.2-0.8-6.5,1.2-7.3,4.4c0,0,0,0,0,0c-1.4,5.7-3.1,11.6-5.1,17.6c-1.1,3.1,0.5,6.6,3.6,7.7
	s6.6-0.5,7.7-3.6c0-0.1,0.1-0.2,0.1-0.3c2-6.3,3.8-12.5,5.3-18.4C499.6,113.8,497.7,110.5,494.5,109.7L494.5,109.7z"/>
<path class="st0" d="M302.8,50.6c-74-23-154.6-3.1-209.5,51.7c-56.6,56.7-73.8,138.1-51.5,209.8c-0.4,0.4-0.8,0.9-1.1,1.4
	c-38.9,68.9-43.8,121-14.2,150.6c12.7,12.7,29.6,19,50.2,19c23.5,0,51.8-8.2,84.2-24.6c5.8-3,11.8-6.2,17.8-9.6
	c110,34.2,226.9-27.3,261.1-137.3c12.5-40.4,12.5-83.6-0.1-124c12.2-21.5,21.4-41.7,27.1-60c12.6-40.6,8.6-71.7-11.9-92.2
	C425,5.5,372.5,10.8,302.8,50.6L302.8,50.6z M101.8,110.8c52.1-52.1,129-70.7,199.1-48.2c0.4,0.2,0.9,0.4,1.4,0.4
	c10.2,3.4,20.1,7.6,29.6,12.6c0.3,0.2,0.7,0.4,1,0.5c33.7,18.1,61.5,45.5,80,79.1c-10.4,20-24.4,42.1-41.5,65.2
	c-2.7-0.5-5.4-0.7-8.1-0.7c-25.4,0-46,20.6-46,46c0,5.5,1,11,2.9,16.2c-7.5,8.2-15.4,16.3-23.3,24.3c-50.4,50.4-104,91.6-150.8,116
	c-16.3-9-31.3-20.2-44.4-33.4C25.2,312.1,25.2,187.4,101.8,110.8L101.8,110.8z M348.2,71c38-17.6,66.5-20.5,79.1-8
	c12.9,12.9,9.4,41.8-8,79.2C401.8,113.1,377.3,88.6,348.2,71L348.2,71z M395.1,253.5c6.7,17.5-2,37.2-19.5,43.9
	c-17.5,6.7-37.2-2-43.9-19.5c-6.7-17.5,2-37.2,19.5-43.9c3.9-1.5,8-2.3,12.2-2.3C377.5,231.6,390.1,240.3,395.1,253.5L395.1,253.5z
	 M133.3,428.5c-38,17.6-66.5,20.6-79.2,8c-12.6-12.6-9.6-41.2,8-79.2C79.7,386.4,104.1,410.9,133.3,428.5z M155.5,447.8
	c-23.9,12.1-53.1,23.4-78.7,23.3c-16,0-30.6-4.4-41.8-15.6c-12.9-12.9-17.8-31.7-14.5-55.7c2.9-21,11.8-45.5,26.6-73
	c2.3,5.9,5,11.7,7.9,17.5c-10.9,22-17.6,41.5-19.8,57.9c-2.5,18.9,1,33.3,10.4,42.7c7.4,7.4,18.1,11.1,31.5,11.1
	c19.4,0,44.7-7.8,74.3-23.1c48-24.9,102.8-66.9,154.2-118.4c7.1-7.1,14.1-14.4,20.9-21.7c3,4,6.6,7.6,10.7,10.4
	c-6.9,7.4-13.9,14.7-21,21.8C263.2,378.3,204.6,422.9,155.5,447.8L155.5,447.8z M432.1,294c-24.4,105.7-129.8,171.6-235.5,147.3
	c-1.2-0.3-2.4-0.6-3.7-0.9c42.5-26.3,88.2-63.2,131.7-106.7c8-8,16-16.3,23.7-24.6c24,8.3,50.2-4.4,58.6-28.4
	c3.6-10.2,3.4-21.4-0.5-31.6c-0.8-2.2-1.8-4.3-3-6.3c10.3-14,19.7-27.7,27.9-41C438.8,232.1,439.1,263.7,432.1,294L432.1,294z
	 M455.3,124.1C445.6,155.5,425,193,395.7,233c-3.6-3.5-7.7-6.5-12.2-8.7c17-23.3,31-45.7,41.5-66.3c0,0,0-0.1,0.1-0.1
	c5.4-10.4,10-21.2,14-32.2c11.5-32.9,10.4-57.4-3.3-71.1c-9.4-9.4-23.8-12.9-42.7-10.4c-16.4,2.2-35.8,8.8-57.7,19.7
	c-5.7-2.9-11.5-5.5-17.5-7.9c26.7-14.4,50.7-23.2,71.3-26.3c24.7-3.7,44,1.1,57.2,14.3C463.5,61.1,466.5,88,455.3,124.1L455.3,124.1
	z"/>
</svg>
