<svg id="Layer_1" enable-background="new 0 0 512.002 512.002" height="512" viewBox="0 0 512.002 512.002" width="512" xmlns="http://www.w3.org/2000/svg"><g><g><path d="m442.685 69.316c-44.7-44.699-103.897-69.316-166.685-69.316h-40c-62.788 0-121.984 24.617-166.683 69.316-44.699 44.7-69.316 103.896-69.316 166.684 0 44.194 12.434 87.362 35.956 124.839 20.865 33.242 49.576 60.773 83.483 80.166-8.955 11.918-19.596 21.125-19.723 21.232-9.088 7.658-12.197 20.787-7.559 31.927 3.701 8.889 13.281 17.837 29.364 17.837 1.317 0 2.68-.061 4.084-.186 23.806-2.119 75.14-22.852 95.607-40.288 4.968.313 9.924.472 14.788.472h40c62.789 0 121.984-24.617 166.685-69.316 44.699-44.699 69.316-103.896 69.316-166.684-.001-62.787-24.618-121.983-69.317-166.683zm-166.685 382.684h-40c-5.769 0-11.689-.245-17.594-.726-3.008-.25-5.957.877-8.039 3.054-12.55 13.118-64.31 35.588-86.535 37.567-6.713.599-11.528-1.376-13.21-5.417-1.32-3.171-.505-6.85 1.983-8.947.185-.155 18.595-15.789 29.879-35.035 1.393-2.375 1.744-5.218.973-7.861-.772-2.643-2.599-4.85-5.05-6.103-73.036-37.303-118.406-111.077-118.406-192.532 0-119.103 96.897-216 216-216h40c119.104 0 216.001 96.897 216.001 216-.001 119.103-96.898 216-216.002 216z"/><path d="m256.001 96c-32.938 0-64.94 11.671-90.112 32.864-4.225 3.557-4.767 9.866-1.209 14.09 3.556 4.225 9.865 4.766 14.09 1.209 8.554-7.202 18.031-13.115 28.111-17.635-2.856 4.054-5.57 8.485-8.117 13.298-12.437 23.512-19.784 53.807-21.046 86.173h-41.3c.305-3.69.773-7.361 1.412-10.984.959-5.439-2.673-10.625-8.112-11.584-5.438-.959-10.625 2.672-11.584 8.112-1.416 8.03-2.134 16.259-2.134 24.457 0 77.196 62.804 140 140 140 77.197 0 140-62.804 140-140s-62.802-140-139.999-140zm119.58 130h-41.298c-1.262-32.366-8.609-62.661-21.046-86.173-2.548-4.818-5.265-9.252-8.124-13.309 38.862 17.502 66.789 55.104 70.468 99.482zm-129.58 127.548c-10.757-4.161-21.16-14.852-29.557-30.726-10.967-20.734-17.492-47.716-18.714-76.822h48.271zm20 0v-107.548h48.271c-1.222 29.105-7.747 56.088-18.713 76.822-8.397 15.874-18.8 26.565-29.558 30.726zm0-127.548v-107.548c10.758 4.161 21.161 14.852 29.558 30.726 10.967 20.733 17.491 47.716 18.713 76.821h-48.271zm-49.557-76.821c8.397-15.875 18.8-26.566 29.557-30.726v107.547h-48.271c1.222-29.105 7.747-56.088 18.714-76.821zm-80.023 96.821h41.298c1.262 32.366 8.609 62.661 21.046 86.173 2.548 4.818 5.265 9.253 8.124 13.31-38.862-17.502-66.789-55.104-70.468-99.483zm168.692 99.482c2.859-4.057 5.576-8.492 8.124-13.31 12.437-23.512 19.783-53.807 21.046-86.173h41.298c-3.679 44.38-31.606 81.982-70.468 99.483z"/><path d="m138.675 179.808c1.507.812 3.13 1.197 4.73 1.197 3.562 0 7.011-1.908 8.817-5.264 2.618-4.862.799-10.927-4.064-13.545-4.862-2.617-10.927-.799-13.545 4.064l-.003.006c-2.619 4.862-.798 10.924 4.065 13.542z"/></g></g></svg>