<?xml version="1.0" encoding="utf-8"?>
<!-- Generator: Adobe Illustrator 23.1.0, SVG Export Plug-In . SVG Version: 6.00 Build 0)  -->
<svg version="1.1" id="Capa_1" xmlns="http://www.w3.org/2000/svg" xmlns:xlink="http://www.w3.org/1999/xlink" x="0px" y="0px"
	 viewBox="0 0 512 512" style="enable-background:new 0 0 512 512;" xml:space="preserve">
<style type="text/css">
	.st0{fill:#FFFFFF;}
</style>
<g>
	<path class="st0" d="M437,75C388.7,26.6,324.4,0,256,0S123.3,26.6,75,75C26.6,123.3,0,187.6,0,256s26.6,132.7,75,181
		c48.4,48.4,112.6,75,181,75s132.7-26.6,181-75c48.4-48.4,75-112.6,75-181S485.4,123.3,437,75L437,75z M473.1,318.9H327l112.5-194.8
		C466.2,161.3,482,206.8,482,256C482,277.8,478.9,299,473.1,318.9L473.1,318.9z M219.7,318.9L183.3,256l36.3-62.9h72.7l36.3,62.9
		l-36.3,62.9H219.7z M419,99.6L346,226L233.5,31.1c7.4-0.7,14.9-1.1,22.5-1.1C320,30,377.8,56.7,419,99.6z M202,36.5l73,126.5H50
		C78.3,100.6,134.2,53.2,202,36.5L202,36.5z M38.9,193.1H185L72.6,387.8C45.8,350.7,30,305.2,30,256C30,234.2,33.1,213,38.9,193.1
		L38.9,193.1z M93,412.4L166,286l112.5,194.9c-7.4,0.7-14.9,1.1-22.5,1.1C192,482,134.2,455.3,93,412.4L93,412.4z M310,475.5
		l-73-126.5h225C433.7,411.4,377.8,458.8,310,475.5z"/>
</g>
</svg>
