<?xml version="1.0" encoding="UTF-8"?><svg id="Layer_2" xmlns="http://www.w3.org/2000/svg" viewBox="0 0 355.42 453.62"><defs><style>.cls-1{fill:#f4f9fa;}.cls-2{fill:#fff;}.cls-3{fill:#f0c085;}.cls-4{fill:#a05ba4;}.cls-5{fill:#b3dcd9;}.cls-6,.cls-7{fill:#243c39;}.cls-8{fill:#201322;}.cls-9{fill:#7fc7cc;}.cls-7,.cls-10{stroke:#d4dc50;stroke-miterlimit:10;}.cls-10{fill:none;}</style></defs><path class="cls-3" d="m262.53,78.29c-12.86-16.28-41.27-47.43-88.21-65.11-15.11-5.69-47.88-17.59-90.22-11.48-25.58,3.69-45.25,12.59-57.43,19.26-6.86,1.37-11.97,3.78-15.29,5.68-5.46,3.13-9.59,5.49-10.51,9.97-.95,4.61,1.78,10.08,5.51,12.05,6.18,3.27,17.51-1.78,26.19-14.37,36.32-4.18,60.47,3.32,75.57,10.63,26.47,12.81,33.73,29.19,61.47,42.1,25.48,11.86,50.23,12.39,66.36,11.24,8.86-6.65,17.72-13.31,26.57-19.96Z"/><path class="cls-3" d="m161.84,96.64c-4.12-3.36-4.62-2.3-36.57-10.09-39.5-9.63-64.41-17.51-83.8-18.96-5.95-.45-9.48-.14-16-1.75-9-2.22-12.94-5.43-18.37-3.58C3.86,63.36.06,66.27,0,69.45c-.1,5.81,12.35,10.29,18.53,12.66,13.12,5.04,31.8,13.56,55.75,28.88,9.11,7.42,20.09,15.34,33.03,22.94,9.52,5.59,18.63,10.13,27.03,13.84,2.98,3.17,6.96,7.4,11.69,12.37,21.17,22.27,22.44,22.89,23.75,22.61,10.79-2.26,20.14-63.22-7.94-86.11Z"/><path class="cls-3" d="m340.07,216.28c5.94,19.88,8.14,36.23,9.04,47.69,1,12.76.52,21.32,2.52,41.02,1.83,18.05,2.9,17.48,3.54,26.78,1.6,23.3-4.27,39.94-16.01,73.21-8.24,23.37-16.79,30.51-22.65,31.2-4.89.57-5.42-3.73-8.72-7.2,11.59-21.97,14.76-40.45,15.69-52.27,1.88-23.88-3.43-45.14-11.84-78.81-6.89-27.6-10.93-35.13-7.22-47.19,5.37-17.47,21.94-28.08,35.65-34.44Z"/><path class="cls-3" d="m216.64,241.15c-5.03,1.62,3.09,23.86-2.25,65.04-1.06,8.21-4.59,22.84-8.23,52.58-1.56,12.8-2.08,23.61-2.23,31.69-.36,19.99,1.51,25.72,5.36,27.74,2.95,1.55,7.51,1.15,11.04.84,3.69-.32,6.69-1.16,8.77-1.88-2.23-20.68.11-36.85,2.47-47.31,2.63-11.62,3.59-8.65,7.89-25.25,3.29-12.66,4.66-21.84,12.58-28.12,2.2-1.74,4.29-2.77,5.63-3.35-27.3-61.62-37.16-73.23-41.04-71.98Z"/><path class="cls-3" d="m262.44,248.67c12.42-2.54,24.47,5.23,30.84,12.92,0,0,4.66,5.63,11.84,37.19-1.34,1.18-2.67,2.36-4.01,3.55,3.15,5.58,7.8,15.91,7.21,29.07-.35,7.78-.83,18.4-9.29,25.68-6.24,5.36-15.77,8.01-24.56,5.2-9.7-3.11-16.09-12.11-17.75-20.35-2.57-12.78,6.46-22.77.97-28.79-1.75-1.92-3.21-1.5-5.83-2.89-12.46-6.6-18.22-36.61-4.19-52.64,1.41-1.61,6.47-7.24,14.78-8.94Z"/><path class="cls-9" d="m340.82,219.14c-5.22-20.2-14.14-46.59-29.97-75.14-15.98-28.82-33.84-50.54-48.32-65.72-13.84,4.99-33.34,10.21-57,11.01-13.68.46-25.82-.65-35.93-2.29-3.16,3.07-6.32,6.13-9.48,9.2-.73,11.55-1.01,24.26-.48,37.95.61,16.06,2.21,30.73,4.26,43.78,21.5,16.9,34.04,33.57,41.43,45.37,8.91,14.22,11.75,23.63,25.64,52.23,9.02,18.58,16.91,33.32,21.93,42.49,1.25-1.01,2.5-2.02,3.74-3.04-2.35-5.06-5.55-13.79-5.21-24.74.06-2.06,1.12-27.59,13.79-31.25,7.75-2.24,15.98,4.83,21.44,9.52,12.07,10.37,16.64,23.44,18.45,30.26,2.17-.29,4.35-.58,6.52-.88-1.11-8.38-2.39-26.93,6.54-47.54,6.8-15.68,16.6-25.84,22.64-31.22Z"/><path class="cls-3" d="m206.67,413.32c-.99,2.2-.03,3.49,5.29,17.08,2.09,5.34,3.47,9.06,6.7,13.61.71,1,4.5,6.33,5.89,5.68.61-.29.59-1.63.45-2.82-1.11-1.46-2.59-3.81-3.36-7.01-.3-1.25-.91-4.31-.24-4.58.85-.33,3.66,3.89,5.36,7.1,1.47,2.78,1.97,4.51,3.88,5.38,1.22.56,2.92.72,3.39.02.54-.79-.64-2.42-1.38-3.52-3.26-4.81-5.69-10.03-5.33-10.29.19-.14,1.82,1.61,5.06,5.12,2.24,2.42,4.87,5.33,4.87,5.33h0s1.27,1.22,2.18.37c1.06-.99-.28-2.54-2-4.67-5.26-6.53-4.51-5.76-5.01-6.35-.46-.54-1.68-2.21-1.67-2.26.03-.27.52-.85,2.07.54,2.59,2.5,5.32,4.87,6.69,6.07,1.4,1.22,2.06,1.48,2.46,1.27.87-.46,1.39-.86.23-3.2-2.31-3.16-4.9-5-7.68-9.37-2.67-4.21-3.13-6.34-5.41-9.65-1.84-2.68-4.99-6.32-10.57-9.66-9.36.97-11.41,4.81-11.87,5.81Z"/><path class="cls-3" d="m320.94,431.62c.26,1.73-.66,2.44-7.02,10.88-2.5,3.32-4.19,5.64-7.33,8.19-.69.56-4.37,3.54-5.21,2.81-.37-.32-.09-1.25.24-2.05,1.06-.8,2.55-2.16,3.71-4.23.46-.81,1.48-2.83,1.06-3.15-.53-.4-3.31,2-5.13,3.91-1.57,1.65-2.25,2.76-3.75,3-.96.15-2.17-.07-2.37-.65-.22-.65.92-1.56,1.65-2.19,3.21-2.72,5.92-5.89,5.73-6.14-.1-.14-1.58.77-4.53,2.59-2.03,1.25-4.44,2.77-4.44,2.77h0s-1.12.6-1.59-.16c-.55-.89.69-1.72,2.31-2.87,4.94-3.53,4.27-3.14,4.73-3.45.43-.29,1.6-1.21,1.61-1.25.03-.19-.2-.7-1.55-.03-2.29,1.24-4.66,2.36-5.85,2.93-1.21.58-1.73.63-1.96.4-.52-.49-.8-.87.46-2.28,2.23-1.75,4.39-2.53,7.18-5.04,2.69-2.42,3.42-3.81,5.66-5.68,1.8-1.51,4.71-3.44,9.26-4.68,6.34,2.51,7.02,5.58,7.14,6.37Z"/><path class="cls-4" d="m276.06,322.84c-1.96-2.85.33-7.21,3.83-7.67,3.42-.64,7.02,2.62,6.17,5.96-.86-1.24-1.8-2.02-2.79-2.5-3.31-1.68-6.42.72-7.21,4.2h0Z"/><path class="cls-1" d="m265.81,338.85c.37,1.91,3.67,3.03,6.19,2.53,3.32-.66,6.02-4.28,5.22-6.16-.78-1.84-4.94-2.11-7.78-.77-1.59.75-3.98,2.59-3.64,4.4Z"/><path class="cls-1" d="m288.14,333.14c.16,1.94,3.33,3.4,5.89,3.16,3.37-.31,6.44-3.63,5.84-5.58-.58-1.91-4.69-2.62-7.65-1.57-1.66.58-4.23,2.16-4.07,3.99Z"/><path class="cls-8" d="m293.46,330.99c-.09.04-1.13.56-1.19,1.42-.08,1.16,1.68,2.22,2.64,1.8,1.06-.47,1.25-2.81.3-3.4-.63-.39-1.57.09-1.75.19Z"/><path class="cls-8" d="m270.99,336.06c-.09.04-1.13.56-1.19,1.42-.08,1.16,1.68,2.22,2.64,1.8,1.06-.47,1.25-2.81.3-3.4-.63-.39-1.57.09-1.75.19Z"/><path class="cls-8" d="m280.3,327.39c.51-.43,1.17-.87,1.97-1.16.93-.34,1.76-.36,2.39-.28"/><path class="cls-6" d="m256.25,337.46c-.45,4.61-1.17,12.12,2.39,18.69,5.45,10.04,18.25,13,26.63,12.71,2.58-.09,13.24-.47,20.24-8.59,4.3-4.99,5.33-10.71,5.86-13.67,1.07-5.96.18-10.58-.57-14.46-.29-1.48-1.41-7.26-2.62-7.21-.87.03-1.18,3.02-2.41,8.04-1.62,6.59-2.43,9.89-3.71,11.67-3.46,4.83-10.22,5.33-23.75,6.33-6.11.45-8.07.03-9.83-.8-5.83-2.76-8.39-9.58-8.85-10.82-1.47-3.92-1.44-7.24-2.07-7.23-.78.01-1.29,5.12-1.31,5.33Z"/><g><path class="cls-6" d="m266.99,188.4c4.35-5.69.59-16.47-3.02-16.97-1.71-.24-3.26,1.84-3.85,2.62-4.3,5.74-1.46,16.27,2.25,17.09,2.16.48,4.36-2.4,4.62-2.74Z"/><path class="cls-6" d="m216.74,191.39c.89,7.11,11.12,12.16,14.05,9.99,1.38-1.03,1.04-3.6.91-4.57-.96-7.11-10.36-12.63-13.58-10.61-1.88,1.18-1.43,4.77-1.38,5.2Z"/><path class="cls-6" d="m270.25,197.26c8.76.17,14.41,2.58,17.94,4.75,4.34,2.66,6.88,5.81,11.32,5.54,4.32-.26,7.14-3.56,7.61-4.14,2.08-2.53,3.82-6.91,2.07-10.7-.71-1.53-1.78-2.54-2.54-3.12-.01,0-1.19.78-1.2.79-.14.09-3.64,2.39-3.78,2.48.54-1.77,1.08-3.54,1.62-5.31-.4-.04-1.01-.08-1.73.02-2.94.4-3.94,2.48-6.44,3.6-1.14.51-2.71.5-5.84.46-3.01-.03-5.55-.06-8.45-1.24-2.33-.95-2.48-1.66-3.62-1.67-1.65,0-4.02,1.48-6.96,8.54Z"/><path class="cls-2" d="m300.33,195.67c-.44.9-.2,2.16.58,2.94,1.02,1.02,2.77,1,3.87.09,1.09-.9,1.43-2.56.81-3.5-.98-1.49-4.39-1.27-5.26.48Z"/><path class="cls-7" d="m272.65,182.48c12.36-2.05,10.87,35.24-8.34,45.31-17.61,9.22-34.51,4.96-44.23-17.61-.79-1.83-3.25-7.82-1.59-8.93,30.47-20.37,41.12-16.61,54.16-18.77Z"/><path class="cls-10" d="m278.38,207.51c-.53,0-5.95-.11-8.46-4.16-1.44-2.32-1.23-4.81-1.11-6.24.1-1.25.38-4.39,2.84-7.2,2.44-2.79,5.51-3.54,6.54-3.74"/><path class="cls-10" d="m227.29,221.4c.3-.44,3.44-4.86,8.2-4.65,2.72.12,4.67,1.69,5.78,2.6.98.79,3.41,2.78,4.35,6.4.93,3.59,1.62,5.61,1.21,6.58"/><path class="cls-10" d="m254.69,231.37c-.3-.44-3.31-4.95-1.41-9.32,1.08-2.5,3.25-3.75,4.49-4.47,1.09-.63,3.82-2.19,7.53-1.77,3.69.41,7.73,2.39,8.49,3.13"/><path class="cls-10" d="m245.6,210.56c-.59-.46-4.74-3.67-4.43-8.33.18-2.66,1.73-4.51,2.75-5.71.82-.95,2.87-3.33,6.52-4.18.91-.21,4.1-.83,7.49.8.46.22,5.95,2.96,6.38,8.6.38,4.99-3.44,9.22-7.62,10.72-5.77,2.07-10.71-1.62-11.09-1.92Z"/><path class="cls-10" d="m230.74,193.72c.46.22,5.23,4.21,5.66,9.85.38,4.99-3.44,9.22-7.62,10.72-2.28.81-4.42.73-6.21.32"/><path class="cls-5" d="m304.02,197.94c-.84.26-1.83-.48-1.82-1.27,0-.58.55-1.06,1.09-1.21.52-.14,1.22-.03,1.53.45.43.66.01,1.78-.8,2.03Z"/></g></svg>