<?xml version="1.0" encoding="UTF-8"?><svg id="Layer_1" xmlns="http://www.w3.org/2000/svg" viewBox="0 0 270.47 217.73"><defs><style>.cls-1{fill:#fff;stroke:#fff;stroke-miterlimit:10;}</style></defs><path class="cls-1" d="m39.06,18.42c-.89,2.78-4.11,4.04-6.55,2.5-.78-.5-1.57-.95-2.36-1.38-2.38-1.26-4.61-1.89-6.68-1.89-2.57,0-4.59.8-6.07,2.4-1.48,1.6-2.21,4-2.21,7.2,0,2.19.56,4.15,1.68,5.87,1.12,1.73,2.57,3.26,4.35,4.61,1.78,1.35,3.62,2.57,5.53,3.66,1.75,1.01,3.48,2.21,5.21,3.6,1.72,1.39,3.27,3.12,4.63,5.18,1.37,2.06,2.46,4.63,3.28,7.71.82,3.08,1.23,6.84,1.23,11.31,0,4.72-.79,9.1-2.38,13.14-1.59,4.04-3.91,7.31-6.97,9.79-3.06,2.48-6.83,3.73-11.31,3.73-2.3,0-4.63-.36-7.01-1.07-2.38-.71-4.71-1.81-7.01-3.28-1.53-.98-3.03-2.14-4.48-3.48-1.34-1.23-1.77-3.2-1.13-4.93l1.93-5.24c1.05-2.85,4.45-3.83,6.88-2.05.02.01.03.02.05.04,1.67,1.22,3.35,2.17,5.04,2.84,1.69.67,3.25,1.01,4.67,1.01s2.86-.32,4.3-.95c1.45-.63,2.65-1.71,3.61-3.22.96-1.52,1.43-3.62,1.43-6.32,0-1.85-.4-3.54-1.19-5.05-.79-1.52-1.86-2.91-3.2-4.17-1.34-1.26-2.8-2.36-4.39-3.28-1.86-1.09-3.77-2.36-5.74-3.79-1.97-1.43-3.81-3.18-5.53-5.24-1.72-2.06-3.12-4.63-4.18-7.71-1.07-3.07-1.6-6.84-1.6-11.31,0-5.39.78-10.06,2.34-14.02,1.56-3.96,3.76-7.09,6.6-9.41,2.78-2.26,5.97-3.54,9.58-3.83.17-.01.34-.02.51-.02,4.75.03,8.61.91,11.59,2.65,2.14,1.25,4.12,2.66,5.95,4.25,1.37,1.19,1.87,3.12,1.31,4.87l-1.7,5.3Z"/><path class="cls-1" d="m268.19,29.29c-.78,2.39-3.6,3.48-5.74,2.15-.69-.43-1.38-.82-2.07-1.18-2.08-1.09-4.04-1.63-5.86-1.63-2.25,0-4.02.69-5.32,2.06-1.29,1.38-1.94,3.44-1.94,6.19,0,1.88.49,3.57,1.47,5.05.98,1.48,2.25,2.81,3.81,3.96,1.56,1.16,3.17,2.21,4.85,3.15,1.53.87,3.05,1.9,4.56,3.1,1.51,1.19,2.86,2.68,4.06,4.45,1.2,1.77,2.16,3.98,2.87,6.62.72,2.64,1.08,5.88,1.08,9.72,0,4.06-.69,7.82-2.08,11.29-1.39,3.48-3.43,6.28-6.11,8.42-2.68,2.14-5.99,3.2-9.92,3.2-2.01,0-4.06-.31-6.14-.92-2.08-.61-4.13-1.56-6.14-2.82-1.34-.84-2.65-1.84-3.93-2.99-1.18-1.06-1.55-2.75-.99-4.24l1.69-4.51c.92-2.45,3.9-3.29,6.03-1.76.01.01.03.02.04.03,1.46,1.05,2.93,1.86,4.42,2.44,1.48.58,2.85.87,4.1.87s2.5-.27,3.77-.81c1.27-.54,2.32-1.47,3.16-2.77.84-1.3,1.26-3.11,1.26-5.43,0-1.59-.35-3.04-1.04-4.34-.69-1.3-1.63-2.5-2.8-3.58-1.17-1.09-2.46-2.03-3.84-2.82-1.63-.94-3.31-2.03-5.03-3.26-1.72-1.23-3.34-2.73-4.85-4.51-1.51-1.77-2.73-3.98-3.66-6.62-.93-2.64-1.4-5.88-1.4-9.72,0-4.63.68-8.65,2.05-12.05,1.37-3.4,3.29-6.1,5.78-8.09,2.43-1.94,5.23-3.04,8.4-3.3.15-.01.3-.02.45-.02,4.16.03,7.55.79,10.16,2.28,1.87,1.07,3.61,2.29,5.21,3.65,1.2,1.02,1.64,2.69,1.15,4.18l-1.49,4.56Z"/><path class="cls-1" d="m88.38,43.34l-15.68,51.92c-.24.8-1.39.78-1.6-.04L47.83,2.42c-.13-.54.26-1.06.8-1.06h12.19c.4,0,.74.27.82.66l10.93,49.62c.2.93,1.52.96,1.77.04l8.7-29.64c.18-.6.18-1.24.01-1.85l-4.97-17.78c-.14-.54.26-1.06.8-1.06h10.09c.38,0,.7.26.8.63l12.7,48.67c.16.63,1.06.6,1.19-.04L113.26,2.05c.08-.39.42-.68.83-.68h11.04c.54,0,.93.52.81,1.05l-22.26,92.25c-.2.84-1.39.85-1.61.01l-13.34-51.33c-.05-.18-.3-.18-.35,0Z"/><path class="cls-1" d="m138.29,1.36h5.28c1.82,0,3.3,1.48,3.3,3.3v87.88c0,1.82-1.48,3.3-3.3,3.3h-5.28c-1.82,0-3.3-1.48-3.3-3.3V4.66c0-1.82,1.48-3.3,3.3-3.3Z"/><path class="cls-1" d="m189.65,61.47c.37.89,1.62.89,1.99,0L216.11,2.83c.57-1.37,1.96-2.17,3.38-1.93,1.28.21,2.22,1.37,2.22,2.72v89.72c0,1.38-1.12,2.5-2.5,2.5h-6.88c-1.38,0-2.5-1.12-2.5-2.5l.2-39.73c0-.8-1.09-1.02-1.4-.29l-14.77,34.68c-1.19,2.8-5.17,2.8-6.36,0l-14.86-35.09c-.26-.61-1.17-.43-1.17.24v39.85c0,1.38-1.12,2.5-2.5,2.5h-6.88c-1.38,0-2.5-1.12-2.5-2.5V3.26c0-1.35.94-2.5,2.22-2.72h0c1.42-.24,2.81.56,3.38,1.93l24.48,59Z"/><path class="cls-1" d="m242.51,4.53l-9.81,16.63c-.3.52-.79.82-1.31.82h-3.8c-1.13,0-1.91-1.4-1.5-2.7l5.18-16.64c.24-.77.84-1.28,1.51-1.28h8.44c1.32,0,2.08,1.85,1.3,3.16Z"/><g><path class="cls-1" d="m83.63,178.59c0,3.22.81,6.3,2.42,9.25,1.61,2.95,3.74,5.34,6.39,7.18,2.65,1.84,5.54,2.76,8.69,2.76,3.45,0,6.52-.92,9.21-2.76,2.68-1.84,4.81-4.23,6.39-7.18,1.57-2.94,2.36-6.02,2.36-9.25v-59.23c0-2.65,2.15-4.8,4.8-4.8h6.86c2.65,0,4.8,2.15,4.8,4.8v59.64c0,7.45-1.54,14.05-4.6,19.8-3.07,5.75-7.21,10.26-12.43,13.52-5.22,3.27-11.01,4.9-17.38,4.9s-12.03-1.63-17.21-4.9c-5.18-3.26-9.3-7.77-12.37-13.52-3.07-5.75-4.6-12.35-4.6-19.8v-59.64c0-2.65,2.15-4.8,4.8-4.8h7.09c2.65,0,4.8,2.15,4.8,4.8v59.23Z"/><path class="cls-1" d="m177.34,114.56c6.98,0,12.89,1.4,17.72,4.21,4.83,2.81,8.52,6.76,11.05,11.87,2.53,5.11,3.8,11.16,3.8,18.15,0,4.14-.52,8.3-1.55,12.49-1.04,4.19-2.69,7.98-4.95,11.38-2.26,3.4-5.29,6.14-9.09,8.21s-8.46,3.1-13.98,3.1h-7.17c-2.65,0-4.8,2.15-4.8,4.8v22.55c0,2.65-2.15,4.8-4.8,4.8h-7.09c-2.65,0-4.8-2.15-4.8-4.8v-91.96c0-2.65,2.15-4.8,4.8-4.8h20.86Zm2.88,49.95c2.53,0,4.64-.53,6.33-1.59,1.69-1.06,3.01-2.39,3.97-4,.96-1.61,1.65-3.29,2.07-5.04.42-1.75.63-3.26.63-4.55,0-1.01-.14-2.37-.4-4.07-.27-1.7-.83-3.43-1.67-5.17-.85-1.75-2.13-3.22-3.86-4.42-1.73-1.19-4.05-1.79-6.96-1.79h-7.17c-2.65,0-4.8,2.15-4.8,4.8v21.03c0,2.65,2.15,4.8,4.8,4.8h7.06Z"/></g></svg>