<?xml version="1.0" encoding="UTF-8"?><svg id="Layer_1" xmlns="http://www.w3.org/2000/svg" viewBox="0 0 375.4 317.28"><defs><style>.cls-1{fill:#f5fafb;}.cls-2,.cls-3{fill:#fff;}.cls-4{fill:#efc085;}.cls-5{fill:#a05ca3;}.cls-6{fill:#b4dcd9;}.cls-7{fill:#dec9e3;}.cls-8,.cls-9{fill:#253d39;}.cls-10{fill:#201322;}.cls-3{stroke:#fff;}.cls-3,.cls-9,.cls-11{stroke-miterlimit:10;}.cls-9,.cls-11{stroke:#d4dc51;}.cls-11{fill:none;}</style></defs><path class="cls-3" d="m39.06,117.98c-.89,2.78-4.11,4.04-6.55,2.5-.78-.5-1.57-.95-2.36-1.38-2.38-1.26-4.61-1.89-6.68-1.89-2.57,0-4.59.8-6.07,2.4-1.48,1.6-2.21,4-2.21,7.2,0,2.19.56,4.15,1.68,5.87,1.12,1.73,2.57,3.26,4.35,4.61,1.78,1.35,3.62,2.57,5.53,3.66,1.75,1.01,3.48,2.21,5.21,3.6,1.72,1.39,3.27,3.12,4.63,5.18,1.37,2.06,2.46,4.63,3.28,7.71.82,3.08,1.23,6.84,1.23,11.31,0,4.72-.79,9.1-2.38,13.14-1.59,4.04-3.91,7.31-6.97,9.79-3.06,2.48-6.83,3.73-11.31,3.73-2.3,0-4.63-.36-7.01-1.07-2.38-.71-4.71-1.81-7.01-3.28-1.53-.98-3.03-2.14-4.48-3.48-1.34-1.23-1.77-3.2-1.13-4.93l1.93-5.24c1.05-2.85,4.45-3.83,6.88-2.05.02.01.03.02.05.04,1.67,1.22,3.35,2.17,5.04,2.84,1.69.67,3.25,1.01,4.67,1.01s2.86-.32,4.3-.95c1.45-.63,2.65-1.71,3.61-3.22.96-1.52,1.43-3.62,1.43-6.32,0-1.85-.4-3.54-1.19-5.05-.79-1.52-1.86-2.91-3.2-4.17-1.34-1.26-2.8-2.36-4.39-3.28-1.86-1.09-3.77-2.36-5.74-3.79-1.97-1.43-3.81-3.18-5.53-5.24-1.72-2.06-3.12-4.63-4.18-7.71-1.07-3.07-1.6-6.84-1.6-11.31,0-5.39.78-10.06,2.34-14.02,1.56-3.96,3.76-7.09,6.6-9.41,2.78-2.26,5.97-3.54,9.58-3.83.17-.01.34-.02.51-.02,4.75.03,8.61.91,11.59,2.65,2.14,1.25,4.12,2.66,5.95,4.25,1.37,1.19,1.87,3.12,1.31,4.87l-1.7,5.3Z"/><path class="cls-3" d="m268.19,128.84c-.78,2.39-3.6,3.48-5.74,2.15-.69-.43-1.38-.82-2.07-1.18-2.08-1.09-4.04-1.63-5.86-1.63-2.25,0-4.02.69-5.32,2.06-1.29,1.38-1.94,3.44-1.94,6.19,0,1.88.49,3.57,1.47,5.05.98,1.48,2.25,2.81,3.81,3.96,1.56,1.16,3.17,2.21,4.85,3.15,1.53.87,3.05,1.9,4.56,3.1,1.51,1.19,2.86,2.68,4.06,4.45,1.2,1.77,2.16,3.98,2.87,6.62.72,2.64,1.08,5.88,1.08,9.72,0,4.06-.69,7.82-2.08,11.29-1.39,3.48-3.43,6.28-6.11,8.42-2.68,2.14-5.99,3.2-9.92,3.2-2.01,0-4.06-.31-6.14-.92-2.08-.61-4.13-1.56-6.14-2.82-1.34-.84-2.65-1.84-3.93-2.99-1.18-1.06-1.55-2.75-.99-4.24l1.69-4.51c.92-2.45,3.9-3.29,6.03-1.76.01.01.03.02.04.03,1.46,1.05,2.93,1.86,4.42,2.44,1.48.58,2.85.87,4.1.87s2.5-.27,3.77-.81c1.27-.54,2.32-1.47,3.16-2.77.84-1.3,1.26-3.11,1.26-5.43,0-1.59-.35-3.04-1.04-4.34-.69-1.3-1.63-2.5-2.8-3.58-1.17-1.09-2.46-2.03-3.84-2.82-1.63-.94-3.31-2.03-5.03-3.26-1.72-1.23-3.34-2.73-4.85-4.51-1.51-1.77-2.73-3.98-3.66-6.62-.93-2.64-1.4-5.88-1.4-9.72,0-4.63.68-8.65,2.05-12.05,1.37-3.4,3.29-6.1,5.78-8.09,2.43-1.94,5.23-3.04,8.4-3.3.15-.01.3-.02.45-.02,4.16.03,7.55.79,10.16,2.28,1.87,1.07,3.61,2.29,5.21,3.65,1.2,1.02,1.64,2.69,1.15,4.18l-1.49,4.56Z"/><path class="cls-3" d="m88.38,142.9l-15.68,51.92c-.24.8-1.39.78-1.6-.04l-23.27-92.8c-.13-.54.26-1.06.8-1.06h12.19c.4,0,.74.27.82.66l10.93,49.62c.2.93,1.52.96,1.77.04l8.7-29.64c.18-.6.18-1.24.01-1.85l-4.97-17.78c-.14-.54.26-1.06.8-1.06h10.09c.38,0,.7.26.8.63l12.7,48.67c.16.63,1.06.6,1.19-.04l9.6-48.58c.08-.39.42-.68.83-.68h11.04c.54,0,.93.52.81,1.05l-22.26,92.25c-.2.84-1.39.85-1.61.01l-13.34-51.33c-.05-.18-.3-.18-.35,0Z"/><path class="cls-3" d="m138.29,100.91h5.28c1.82,0,3.3,1.48,3.3,3.3v87.88c0,1.82-1.48,3.3-3.3,3.3h-5.28c-1.82,0-3.3-1.48-3.3-3.3v-87.88c0-1.82,1.48-3.3,3.3-3.3Z"/><path class="cls-3" d="m189.65,161.03c.37.89,1.62.89,1.99,0l24.47-58.64c.57-1.37,1.96-2.17,3.38-1.93,1.28.21,2.22,1.37,2.22,2.72v89.72c0,1.38-1.12,2.5-2.5,2.5h-6.88c-1.38,0-2.5-1.12-2.5-2.5l.2-39.73c0-.8-1.09-1.02-1.4-.29l-14.77,34.68c-1.19,2.8-5.17,2.8-6.36,0l-14.86-35.09c-.26-.61-1.17-.43-1.17.24v39.85c0,1.38-1.12,2.5-2.5,2.5h-6.88c-1.38,0-2.5-1.12-2.5-2.5v-89.72c0-1.35.94-2.5,2.22-2.72h0c1.42-.24,2.81.56,3.38,1.93l24.48,59Z"/><path class="cls-3" d="m242.51,104.09l-9.81,16.63c-.3.52-.79.82-1.31.82h-3.8c-1.13,0-1.91-1.4-1.5-2.7l5.18-16.64c.24-.77.84-1.28,1.51-1.28h8.44c1.32,0,2.08,1.85,1.3,3.16Z"/><g><path class="cls-3" d="m83.63,278.14c0,3.22.81,6.3,2.42,9.25,1.61,2.95,3.74,5.34,6.39,7.18,2.65,1.84,5.54,2.76,8.69,2.76,3.45,0,6.52-.92,9.21-2.76,2.68-1.84,4.81-4.23,6.39-7.18,1.57-2.94,2.36-6.02,2.36-9.25v-59.23c0-2.65,2.15-4.8,4.8-4.8h6.86c2.65,0,4.8,2.15,4.8,4.8v59.64c0,7.45-1.54,14.05-4.6,19.8-3.07,5.75-7.21,10.26-12.43,13.52-5.22,3.27-11.01,4.9-17.38,4.9s-12.03-1.63-17.21-4.9c-5.18-3.26-9.3-7.77-12.37-13.52-3.07-5.75-4.6-12.35-4.6-19.8v-59.64c0-2.65,2.15-4.8,4.8-4.8h7.09c2.65,0,4.8,2.15,4.8,4.8v59.23Z"/><path class="cls-3" d="m177.34,214.11c6.98,0,12.89,1.4,17.72,4.21,4.83,2.81,8.52,6.76,11.05,11.87,2.53,5.11,3.8,11.16,3.8,18.15,0,4.14-.52,8.3-1.55,12.49-1.04,4.19-2.69,7.98-4.95,11.38-2.26,3.4-5.29,6.14-9.09,8.21s-8.46,3.1-13.98,3.1h-7.17c-2.65,0-4.8,2.15-4.8,4.8v22.55c0,2.65-2.15,4.8-4.8,4.8h-7.09c-2.65,0-4.8-2.15-4.8-4.8v-91.96c0-2.65,2.15-4.8,4.8-4.8h20.86Zm2.88,49.95c2.53,0,4.64-.53,6.33-1.59,1.69-1.06,3.01-2.39,3.97-4,.96-1.61,1.65-3.29,2.07-5.04.42-1.75.63-3.26.63-4.55,0-1.01-.14-2.37-.4-4.07-.27-1.7-.83-3.43-1.67-5.17-.85-1.75-2.13-3.22-3.86-4.42-1.73-1.19-4.05-1.79-6.96-1.79h-7.17c-2.65,0-4.8,2.15-4.8,4.8v21.03c0,2.65,2.15,4.8,4.8,4.8h7.06Z"/></g><path class="cls-4" d="m330.14,38.14c-6.27-7.93-20.11-23.11-42.98-31.72-7.36-2.77-23.33-8.57-43.96-5.59-12.46,1.8-22.05,6.13-27.98,9.38-3.34.67-5.83,1.84-7.45,2.77-2.66,1.52-4.67,2.67-5.12,4.86-.46,2.25.87,4.91,2.68,5.87,3.01,1.59,8.53-.87,12.76-7,17.7-2.04,29.46,1.62,36.82,5.18,12.9,6.24,16.43,14.22,29.95,20.51,12.41,5.78,24.47,6.04,32.33,5.48,4.32-3.24,8.63-6.48,12.95-9.72h0Z"/><path class="cls-4" d="m281.08,47.08c-2.01-1.64-2.25-1.12-17.82-4.92-19.24-4.69-31.38-8.53-40.83-9.24-2.9-.22-4.62-.07-7.8-.85-4.38-1.08-6.3-2.65-8.95-1.74-1.58.54-3.43,1.95-3.46,3.5-.05,2.83,6.02,5.01,9.03,6.17,6.39,2.46,15.49,6.61,27.16,14.07,4.44,3.62,9.79,7.47,16.09,11.18,4.64,2.72,9.08,4.94,13.17,6.74,1.45,1.54,3.39,3.61,5.7,6.03,10.31,10.85,10.93,11.15,11.57,11.02,5.26-1.1,9.81-30.8-3.87-41.95h0Z"/><path class="cls-4" d="m367.92,105.37c2.89,9.69,3.97,17.65,4.4,23.23.49,6.22.25,10.39,1.23,19.99.89,8.79,1.41,8.52,1.72,13.05.78,11.35-2.08,19.46-7.8,35.67-4.01,11.39-8.18,14.86-11.04,15.2-2.38.28-2.64-1.82-4.25-3.51,5.65-10.7,7.19-19.71,7.64-25.47.92-11.63-1.67-21.99-5.77-38.4-3.36-13.45-5.33-17.12-3.52-22.99,2.62-8.51,10.69-13.68,17.37-16.78h0Z"/><path class="cls-4" d="m307.78,117.49c-2.45.79,1.51,11.62-1.1,31.69-.52,4-2.24,11.13-4.01,25.62-.76,6.24-1.01,11.5-1.09,15.44-.18,9.74.74,12.53,2.61,13.52,1.44.76,3.66.56,5.38.41,1.8-.16,3.26-.57,4.27-.92-1.09-10.08.05-17.95,1.2-23.05,1.28-5.66,1.75-4.21,3.84-12.3,1.6-6.17,2.27-10.64,6.13-13.7,1.07-.85,2.09-1.35,2.74-1.63-13.3-30.02-18.1-35.68-19.99-35.07h0Z"/><path class="cls-4" d="m330.1,121.15c6.05-1.24,11.92,2.55,15.03,6.29,0,0,2.27,2.74,5.77,18.12-.65.57-1.3,1.15-1.95,1.73,1.53,2.72,3.8,7.75,3.51,14.16-.17,3.79-.4,8.96-4.53,12.51-3.04,2.61-7.68,3.9-11.97,2.53-4.73-1.52-7.84-5.9-8.65-9.91-1.25-6.23,3.15-11.09.47-14.03-.85-.94-1.56-.73-2.84-1.41-6.07-3.22-8.88-17.84-2.04-25.65.69-.78,3.15-3.53,7.2-4.36h0Z"/><path class="cls-7" d="m368.28,106.77c-2.54-9.84-6.89-22.7-14.6-36.61-7.79-14.04-16.49-24.62-23.54-32.02-6.74,2.43-16.24,4.97-27.77,5.36-6.66.22-12.58-.32-17.51-1.12-1.54,1.5-3.08,2.99-4.62,4.48-.36,5.63-.49,11.82-.23,18.49.3,7.82,1.08,14.97,2.08,21.33,10.47,8.23,16.58,16.36,20.18,22.1,4.34,6.93,5.72,11.51,12.49,25.45,4.39,9.05,8.24,16.23,10.68,20.7.61-.49,1.22-.98,1.82-1.48-1.14-2.47-2.7-6.72-2.54-12.05.03-1,.55-13.44,6.72-15.23,3.78-1.09,7.79,2.35,10.45,4.64,5.88,5.05,8.11,11.42,8.99,14.74,1.06-.14,2.12-.28,3.18-.43-.54-4.08-1.16-13.12,3.19-23.16,3.31-7.64,8.09-12.59,11.03-15.21h0Z"/><path class="cls-4" d="m302.93,201.37c-.48,1.07-.01,1.7,2.58,8.32,1.02,2.6,1.69,4.41,3.26,6.63.35.49,2.19,3.08,2.87,2.77.3-.14.29-.79.22-1.37-.54-.71-1.26-1.86-1.64-3.42-.15-.61-.44-2.1-.12-2.23.41-.16,1.78,1.9,2.61,3.46.72,1.35.96,2.2,1.89,2.62.59.27,1.42.35,1.65,0,.26-.38-.31-1.18-.67-1.71-1.59-2.34-2.77-4.89-2.6-5.01.09-.07.89.78,2.47,2.49,1.09,1.18,2.37,2.6,2.37,2.6h0s.62.59,1.06.18c.52-.48-.14-1.24-.97-2.28-2.56-3.18-2.2-2.81-2.44-3.09-.22-.26-.82-1.08-.81-1.1.01-.13.25-.41,1.01.26,1.26,1.22,2.59,2.37,3.26,2.96.68.59,1,.72,1.2.62.42-.22.68-.42.11-1.56-1.13-1.54-2.39-2.44-3.74-4.57-1.3-2.05-1.52-3.09-2.64-4.7-.9-1.31-2.43-3.08-5.15-4.71-4.56.47-5.56,2.34-5.78,2.83h0Z"/><path class="cls-4" d="m358.6,210.29c.13.84-.32,1.19-3.42,5.3-1.22,1.62-2.04,2.75-3.57,3.99-.34.27-2.13,1.72-2.54,1.37-.18-.16-.04-.61.12-1,.52-.39,1.24-1.05,1.81-2.06.22-.39.72-1.38.52-1.53-.26-.19-1.61.97-2.5,1.9-.76.8-1.1,1.34-1.83,1.46-.47.07-1.06-.03-1.15-.32-.11-.32.45-.76.8-1.07,1.56-1.33,2.88-2.87,2.79-2.99-.05-.07-.77.38-2.21,1.26-.99.61-2.16,1.35-2.16,1.35h0s-.55.29-.77-.08c-.27-.43.34-.84,1.13-1.4,2.41-1.72,2.08-1.53,2.3-1.68.21-.14.78-.59.78-.61.01-.09-.1-.34-.76-.01-1.12.6-2.27,1.15-2.85,1.43-.59.28-.84.31-.95.19-.25-.24-.39-.42.22-1.11,1.09-.85,2.14-1.23,3.5-2.46,1.31-1.18,1.67-1.86,2.76-2.77.88-.74,2.29-1.68,4.51-2.28,3.09,1.22,3.42,2.72,3.48,3.1h0Z"/><path class="cls-5" d="m336.73,157.29c-.95-1.39.16-3.51,1.87-3.74,1.67-.31,3.42,1.28,3.01,2.9-.42-.6-.88-.98-1.36-1.22-1.61-.82-3.13.35-3.51,2.05h0Z"/><path class="cls-1" d="m331.74,165.09c.18.93,1.79,1.48,3.02,1.23,1.62-.32,2.93-2.09,2.54-3-.38-.9-2.41-1.03-3.79-.38-.77.37-1.94,1.26-1.77,2.14h0Z"/><path class="cls-1" d="m342.62,162.31c.08.95,1.62,1.66,2.87,1.54,1.64-.15,3.14-1.77,2.85-2.72-.28-.93-2.28-1.28-3.73-.76-.81.28-2.06,1.05-1.98,1.94h0Z"/><path class="cls-10" d="m345.21,161.26s-.55.27-.58.69c-.04.57.82,1.08,1.29.88.52-.23.61-1.37.15-1.66-.31-.19-.76.04-.85.09h0Z"/><path class="cls-10" d="m334.26,163.73s-.55.27-.58.69c-.04.57.82,1.08,1.29.88.52-.23.61-1.37.15-1.66-.31-.19-.76.04-.85.09h0Z"/><path class="cls-10" d="m338.8,159.51c.25-.21.57-.42.96-.57.45-.17.86-.18,1.16-.14"/><path class="cls-8" d="m327.08,164.41c-.22,2.25-.57,5.9,1.16,9.11,2.66,4.89,8.89,6.33,12.97,6.19,1.26-.04,6.45-.23,9.86-4.19,2.09-2.43,2.6-5.22,2.86-6.66.52-2.9.09-5.15-.28-7.04-.14-.72-.69-3.54-1.28-3.51-.42.01-.57,1.47-1.17,3.92-.79,3.21-1.18,4.82-1.81,5.69-1.69,2.35-4.98,2.6-11.57,3.08-2.98.22-3.93.01-4.79-.39-2.84-1.34-4.09-4.67-4.31-5.27-.72-1.91-.7-3.53-1.01-3.52-.38,0-.63,2.49-.64,2.6h0Z"/><g><path class="cls-8" d="m332.31,91.79c2.12-2.77.29-8.02-1.47-8.27-.83-.12-1.59.9-1.88,1.28-2.09,2.8-.71,7.93,1.1,8.33,1.05.23,2.12-1.17,2.25-1.33h0Z"/><path class="cls-8" d="m307.83,93.25c.43,3.46,5.42,5.92,6.85,4.87.67-.5.51-1.75.44-2.23-.47-3.46-5.05-6.15-6.62-5.17-.92.57-.7,2.32-.67,2.53h0Z"/><path class="cls-8" d="m333.9,96.11c4.27.08,7.02,1.26,8.74,2.31,2.11,1.3,3.35,2.83,5.52,2.7,2.1-.13,3.48-1.73,3.71-2.02,1.01-1.23,1.86-3.37,1.01-5.21-.35-.75-.87-1.24-1.24-1.52,0,0-.58.38-.58.38-.07.04-1.77,1.16-1.84,1.21.26-.86.53-1.72.79-2.59-.19-.02-.49-.04-.84,0-1.43.19-1.92,1.21-3.14,1.75-.56.25-1.32.24-2.85.22-1.47-.01-2.7-.03-4.12-.6-1.14-.46-1.21-.81-1.76-.81-.8,0-1.96.72-3.39,4.16h0Z"/><path class="cls-2" d="m348.56,95.33c-.21.44-.1,1.05.28,1.43.5.5,1.35.49,1.89.04.53-.44.7-1.25.39-1.71-.48-.73-2.14-.62-2.56.23h0Z"/><path class="cls-9" d="m335.07,88.9c6.02-1,5.3,17.17-4.06,22.08-8.58,4.49-16.81,2.42-21.55-8.58-.38-.89-1.58-3.81-.77-4.35,14.85-9.92,20.03-8.09,26.39-9.14Z"/><path class="cls-11" d="m337.86,101.1c-.26,0-2.9-.05-4.12-2.03-.7-1.13-.6-2.34-.54-3.04.05-.61.19-2.14,1.38-3.51,1.19-1.36,2.68-1.72,3.19-1.82"/><path class="cls-11" d="m312.97,107.87c.15-.21,1.68-2.37,4-2.27,1.33.06,2.28.82,2.82,1.27.48.38,1.66,1.35,2.12,3.12.45,1.75.79,2.73.59,3.21"/><path class="cls-11" d="m326.32,112.72c-.15-.21-1.61-2.41-.69-4.54.53-1.22,1.58-1.83,2.19-2.18.53-.31,1.86-1.07,3.67-.86,1.8.2,3.77,1.16,4.14,1.52"/><path class="cls-11" d="m321.89,102.59c-.29-.22-2.31-1.79-2.16-4.06.09-1.3.84-2.2,1.34-2.78.4-.46,1.4-1.62,3.18-2.04.44-.1,2-.4,3.65.39.22.11,2.9,1.44,3.11,4.19.19,2.43-1.68,4.49-3.71,5.22-2.81,1.01-5.22-.79-5.4-.94h0Z"/><path class="cls-11" d="m314.65,94.38c.22.11,2.55,2.05,2.76,4.8.19,2.43-1.68,4.49-3.71,5.22-1.11.39-2.15.36-3.03.16"/><path class="cls-6" d="m350.36,96.44c-.41.13-.89-.23-.89-.62,0-.28.27-.52.53-.59.25-.07.59-.01.75.22.21.32,0,.87-.39.99h0Z"/></g></svg>