<?xml version="1.0" encoding="UTF-8"?><svg id="Layer_1" xmlns="http://www.w3.org/2000/svg" viewBox="0 0 123.8 75.7"><defs><style>.cls-1{fill:none;}.cls-2{fill:#012f2c;}.cls-3{fill:#ebff00;}.cls-4{fill:#e4ccff;}.cls-5{fill:#fff;}.cls-6{fill:#f05;}.cls-7{fill:#d1a537;}.cls-8{fill:#24fff2;}</style></defs><path class="cls-1" d="m106.8,65c3.4,0,6.1-2.7,6.1-6.1v-.2c-.1-3.2-2.8-5.8-6.1-5.8s-5.9,2.6-6.1,5.8v.2c0,3.3,2.8,6.1,6.1,6.1Z"/><path class="cls-8" d="m112.9,58.7v.2c0,3.4-2.7,6.1-6.1,6.1s-6.1-2.7-6.1-6.1v-.2h-10.9c.1,9.3,7.6,16.8,17,16.8s16.9-7.5,17-16.8h-10.9Z"/><path class="cls-6" d="m123.8,58.5h0q-.1.1,0,0c-.1.1,0,.1,0,0Z"/><path class="cls-4" d="m123.7,58.6h0c-.1-9.4-7.6-16.9-17-16.9s-16.9,7.5-17,16.8v.2h11c.1-3.2,2.8-5.8,6.1-5.8s5.9,2.6,6.1,5.8h0l10.8-.1h0c.1,0,0,0,0,0Z"/><path id="g" class="cls-2" d="m86.3,58.6c0,9.3-7.5,16.9-16.9,16.9s-16.9-7.6-16.9-16.9,7.5-16.9,16.9-16.9c4.6,0,8.8,1.9,11.9,4.9,0,0-20.1,12.2-19.9,12h24.9Z"/><path class="cls-3" d="m37.9,41.7h11.6v33.8h-11.6v-33.8Z"/><g><path class="cls-5" d="m41.6,74.3c-.3,0-.5-.1-.8-.1h-.7c-.8,0-1.5.1-2.2.3v1h7c-.6-.3-1.2-.6-1.8-.8-.5-.2-1-.3-1.5-.4Z"/><path class="cls-5" d="m46.7,71.8c-.9-.7-1.9-1.3-3-1.7-.3-.1-.6-.2-.8-.3-.3-.1-.6-.2-.9-.2-.3-.1-.6-.1-.9-.1h-.9c-.8,0-1.5.1-2.2.3v1.8c.7-.2,1.5-.4,2.2-.4,2,0,3.8.9,5.4,2.2.8.6,1.5,1.3,2.2,2.1,0,.1.1.1.1.2h1.6v-1.2c-.9-1.1-1.8-1.9-2.8-2.7Z"/><path class="cls-5" d="m49.4,69.4c-.8-.8-1.7-1.6-2.6-2.4-1-.7-2-1.4-3.2-1.9l-.9-.3c-.3-.1-.7-.1-1-.2-.4-.1-.7-.1-1-.1h-.9c-.3,0-.7,0-1,.1l-.9.2v1.7c.1,0,.2-.1.3-.1l.8-.2c.3-.1.5,0,.8-.1h.3c-.1,0,0,0,0,0h.4c.3,0,.6,0,.8.1s.5.1.7.2l.7.3c1,.4,1.9,1,2.7,1.7,1.4,1.2,2.7,2.6,3.8,4l.2-3h0Z"/><path class="cls-5" d="m46.8,62.1c-1-.7-2-1.4-3.2-1.9l-.9-.3c-.3-.1-.7-.1-1-.2-.3-.1-.6-.1-.9-.1h-.9c-.3,0-.7,0-1,.1l-.9.2v1.6c.1,0,.2-.1.3-.1l.8-.2c.3-.1.5,0,.8-.1h.3c-.1,0,0,0,.1,0h.4c.3,0,.6,0,.8.1s.5.1.7.2l.8.3c1,.4,1.9,1,2.8,1.7,1.4,1.2,2.6,2.5,3.8,3.9v-2.8c-1-.8-1.9-1.7-2.8-2.4Z"/><path class="cls-5" d="m46.7,57.1c-1-.7-2-1.4-3.2-1.9l-.9-.3c-.3-.1-.7-.1-1-.2-.3-.1-.6-.1-.9-.1h-.9c-.3,0-.7,0-1,.1l-.9.2v1.5c.1,0,.2-.1.3-.1l.8-.2c.3-.1.5,0,.8-.1h.3c-.1,0,0,0,.1,0h.4c.3,0,.6,0,.8.1s.5.1.7.2l.8.3c1,.4,1.9,1,2.8,1.7,1.4,1.1,2.6,2.5,3.7,3.9v-2.6c-.8-.8-1.7-1.7-2.7-2.5Z"/><path class="cls-5" d="m46.7,54.2c1,.9,1.9,2,2.8,3.1v-2.5l-.6-.6h-2.2Z"/></g><polygon class="cls-2" points="22.2 58.1 22.2 75.5 33.7 75.5 33.7 58 24.9 58.1 22.2 58.1"/><path class="cls-4" d="m16.9,41.7C7.6,41.7,0,48.9,0,57.9H0v17.6h11.6v-17.4h22.2c-.1-9.1-7.6-16.4-16.9-16.4Z"/><path class="cls-8" d="m112.2,0h11.6v33.8h-11.6V0Z"/><rect class="cls-3" x="90.9" width="11.6" height="16.9"/><polygon class="cls-2" points="90.9 17.7 90.9 33.8 102.5 33.8 102.5 17.7 102.5 16.9 90.9 16.9 90.9 17.7"/><g><path class="cls-2" d="m104.6,11.6c-.7.5-1.5,1-2.2,1.5v1.9c1.6-1.2,3.2-2.3,4.8-3.4h-2.6Z"/><path class="cls-2" d="m103.9,17.7c1.9-1.7,4-3.2,6.1-4.7l1.6-1.1.5-.4h-2.5c-2.3,1.5-4.6,3.1-6.8,4.9-.1.1-.3.2-.4.4v2.3c.5-.4,1-.9,1.5-1.4Z"/><path class="cls-2" d="m106.2,20.4c.8-1,1.6-1.9,2.6-2.7,1.9-1.7,4-3.2,6.1-4.7.7-.5,1.4-.9,2.1-1.4h-2.3c-2.4,1.5-4.7,3.1-6.9,5-1,.9-2,1.8-2.8,2.8-.9,1-1.6,2.2-2.1,3.5h1.8c.4-.9.9-1.7,1.5-2.5Z"/><path class="cls-2" d="m113.8,17.7c1.8-1.7,3.9-3.3,6-4.9.7-.5,1.3-1,2-1.5l-2.2.1c-2.3,1.6-4.6,3.3-6.7,5.2-1,.9-1.9,1.9-2.7,2.9-.8,1-1.5,2.2-1.9,3.5l1.6-.1c.4-.9.9-1.8,1.5-2.6.6-.8,1.5-1.7,2.4-2.6Z"/><path class="cls-2" d="m118.7,17.6c1.6-1.4,3.3-2.7,5.1-3.9v-1.4c-2,1.4-4.1,2.8-6,4.4-1,.9-2,1.8-2.8,2.8s-1.6,2.2-2,3.4h1.5c.9-2,2.5-3.7,4.2-5.3Z"/><path class="cls-2" d="m123.6,17.6c.1,0,.1-.1.2-.1v-1.6c-.3.3-.7.5-1,.8-1,.9-2,1.8-2.8,2.8s-1.5,2.1-2,3.4h1.4c.4-.9,1-1.8,1.6-2.6.8-1,1.7-1.8,2.6-2.7Z"/><path class="cls-2" d="m123.8,21.2c-.3.5-.6,1.1-.8,1.7h.8v-1.7Z"/></g><path id="c" class="cls-4" d="m87.4,33.8c-9.3,0-16.9-7.6-16.9-16.9S78,0,87.4,0v33.8Z"/><path class="cls-7" d="m51.6.1c4.7,0,8.9,1.9,11.9,4.9C60.4,1.9,56.2,0,51.6.1c-9.4,0-16.9,7.5-16.9,16.9h0C34.7,7.6,42.2.1,51.6.1Z"/><path class="cls-8" d="m51.5,33.9c4.6,0,8.8-1.9,11.9-4.9,0,0-20-12.1-19.9-12h-8.9c.1,9.3,7.6,16.9,16.9,16.9Z"/><path class="cls-3" d="m68.5,16.9h0c0-4.7-1.9-8.9-4.9-11.9S56.3.1,51.7.1c-9.3,0-16.9,7.5-16.9,16.9h8.9l24.8-.1h0Z"/><path class="cls-8" d="m15.5.1h11.6v33.8h-11.6V.1Z"/><path class="cls-2" d="m32.4,6.3v11.6H0V6.3h32.4Z"/></svg>